<svg data-name="Layer 17" xmlns="http://www.w3.org/2000/svg" width="379.8" height="368.8">
    <circle cx="203.3" cy="192.3" r="176.5" fill="#fcd116"/>
    <circle cx="178.3" cy="178.3" r="176.5" fill="none" stroke="#000" stroke-linecap="round" stroke-linejoin="round" stroke-width="2"/>
    <path d="M351.64 145.99c5.42-7.65 8.49-12.73 8.49-12.73M313.02 189.81a226.36 226.36 0 0 0 20.42-20.66M263.23 217.15a85.15 85.15 0 0 0 26.66-10.33M206.65 209.35a151.34 151.34 0 0 0 27.38 7.8M152.04 189.35a215.16 215.16 0 0 1 27.09 9M95.56 193.48a54.36 54.36 0 0 1 19-6.51c2.92-.41 5.82-.67 8.67-.79M59.31 237.05a127.21 127.21 0 0 1 14.65-24.34M45.49 279.06a153.61 153.61 0 0 1 3.75-15.12" fill="none" stroke="#f8842c" stroke-linecap="round" stroke-linejoin="round" stroke-width="8"/>
    <path d="M338.64 144.99c5.42-7.65 8.49-12.73 8.49-12.73M300.02 188.81a226.36 226.36 0 0 0 20.42-20.66M250.23 216.15a85.15 85.15 0 0 0 26.66-10.33M193.65 208.35a151.34 151.34 0 0 0 27.38 7.8M139.04 188.35a215.16 215.16 0 0 1 27.09 9M82.56 192.48a54.36 54.36 0 0 1 19-6.51c2.92-.41 5.82-.67 8.67-.79M46.31 236.05a127.21 127.21 0 0 1 14.65-24.34M32.49 278.06a153.61 153.61 0 0 1 3.75-15.12" fill="none" stroke="#000" stroke-linecap="round" stroke-linejoin="round" stroke-width="2"/>
    <path d="M234.34 50.34a50.24 50.24 0 0 1 50.24 50.24c0 21.74-30.85 63.38-44.21 80.39a7.67 7.67 0 0 1-10.77 1.29 7.87 7.87 0 0 1-1.29-1.29c-13.35-17-44.2-58.65-44.2-80.39a50.22 50.22 0 0 1 50.2-50.24z" fill="#f8842c"/>
    <path d="M224.34 47.84a50.24 50.24 0 0 1 50.24 50.24h0c0 21.74-30.85 63.38-44.21 80.39a7.67 7.67 0 0 1-10.77 1.29 7.87 7.87 0 0 1-1.29-1.29c-13.35-17-44.2-58.65-44.2-80.39a50.22 50.22 0 0 1 50.2-50.24z" fill="none" stroke="#000" stroke-linecap="round" stroke-linejoin="round" stroke-width="2"/>
    <path d="M243.17 98.08a18.83 18.83 0 1 1-18.83-18.84h0a18.84 18.84 0 0 1 18.83 18.84z" fill="none" stroke="#000" stroke-linecap="round" stroke-linejoin="round" stroke-width="2"/>
</svg>
