<svg id="Layer_43" data-name="Layer 43" xmlns="http://www.w3.org/2000/svg" width="286.41" height="269" viewBox="0 0 286.41 269">
  <g>
    <path d="M343.85,267.2a53.17,53.17,0,0,0,30.83-49.93,58.11,58.11,0,0,0-59-57.24c-.71,0-1.43,0-2.14.07A82.7,82.7,0,0,0,239,114.2a81.46,81.46,0,0,0-82.32,75.34,43.94,43.94,0,0,0-53.34,42.05,39.3,39.3,0,0,0,30.83,40.47" transform="translate(-88.3 -105.19)" fill="#5cbbff"/>
    <path d="M329.85,259.2a53.17,53.17,0,0,0,30.83-49.93,58.11,58.11,0,0,0-59-57.24c-.71,0-1.43,0-2.14.07A82.7,82.7,0,0,0,225,106.2a81.46,81.46,0,0,0-82.32,75.34,43.94,43.94,0,0,0-53.34,42.05,39.3,39.3,0,0,0,30.83,40.47" transform="translate(-88.3 -105.19)" fill="none" stroke="#000" stroke-linecap="round" stroke-linejoin="round" stroke-width="2"/>
    <path d="M297.68,275.53H236a12.34,12.34,0,0,1-9.86-4.93l-11.1-14.8a12.34,12.34,0,0,0-9.87-4.94H174.35A12.33,12.33,0,0,0,162,263.2v98.66a12.33,12.33,0,0,0,12.33,12.33H297.68A12.33,12.33,0,0,0,310,361.86v-74A12.33,12.33,0,0,0,297.68,275.53Z" transform="translate(-88.3 -105.19)" fill="#fcd116"/>
    <path d="M286.68,266.53H225a12.34,12.34,0,0,1-9.86-4.93l-11.1-14.8a12.34,12.34,0,0,0-9.87-4.94H163.35A12.33,12.33,0,0,0,151,254.2v98.66a12.33,12.33,0,0,0,12.33,12.33H286.68A12.33,12.33,0,0,0,299,352.86v-74A12.33,12.33,0,0,0,286.68,266.53Z" transform="translate(-88.3 -105.19)" fill="none" stroke="#000" stroke-linecap="round" stroke-linejoin="round" stroke-width="2"/>
  </g>
</svg>
