<svg id="Layer_94" data-name="Layer 94" xmlns="http://www.w3.org/2000/svg" width="383" height="282.93" viewBox="0 0 383 282.93">
  <g>
    <path d="M65.89,7h273a20.47,20.47,0,0,1,20.47,20.47V232.23a20.47,20.47,0,0,1-20.47,20.47h-273a20.48,20.48,0,0,1-20.48-20.48V27.48A20.48,20.48,0,0,1,65.89,7Z" fill="#acd653"/>
    <line x1="93" y1="280" x2="298" y2="280" fill="none" stroke="#fcd116" stroke-linecap="round" stroke-linejoin="round" stroke-width="5.86"/>
    <line x1="99.84" y1="274" x2="290.94" y2="274" fill="none" stroke="#000" stroke-linecap="round" stroke-linejoin="round" stroke-width="2"/>
    <line x1="188.56" y1="246.7" x2="188.56" y2="274" fill="none" stroke="#000" stroke-linecap="round" stroke-linejoin="round" stroke-width="2"/>
    <line x1="38.41" y1="192.1" x2="352.36" y2="192.1" fill="none" stroke="#000" stroke-linecap="round" stroke-linejoin="round" stroke-width="2"/>
    <g>
      <path d="M149,78.52h6.82a6.83,6.83,0,0,1,6.83,6.83v47.77" transform="translate(-12.07 -46.22)" fill="none" stroke="#fcd116" stroke-linecap="round" stroke-linejoin="round" stroke-width="4"/>
      <line x1="136.95" y1="86.9" x2="164.25" y2="86.9" fill="none" stroke="#fcd116" stroke-linecap="round" stroke-linejoin="round" stroke-width="4"/>
      <path d="M203.64,160.42h6.82a6.83,6.83,0,0,1,6.83,6.83V215" transform="translate(-12.07 -46.22)" fill="none" stroke="#fcd116" stroke-linecap="round" stroke-linejoin="round" stroke-width="4"/>
      <line x1="191.55" y1="168.8" x2="218.85" y2="168.8" fill="none" stroke="#fcd116" stroke-linecap="round" stroke-linejoin="round" stroke-width="4"/>
      <path d="M312.84,160.42h6.82a6.83,6.83,0,0,1,6.83,6.83V215" transform="translate(-12.07 -46.22)" fill="none" stroke="#fcd116" stroke-linecap="round" stroke-linejoin="round" stroke-width="4"/>
      <line x1="300.75" y1="168.8" x2="328.05" y2="168.8" fill="none" stroke="#fcd116" stroke-linecap="round" stroke-linejoin="round" stroke-width="4"/>
      <path d="M94.44,160.42h6.82a6.83,6.83,0,0,1,6.83,6.83V215" transform="translate(-12.07 -46.22)" fill="none" stroke="#fcd116" stroke-linecap="round" stroke-linejoin="round" stroke-width="4"/>
      <line x1="82.35" y1="168.8" x2="109.65" y2="168.8" fill="none" stroke="#fcd116" stroke-linecap="round" stroke-linejoin="round" stroke-width="4"/>
      <path d="M258.24,78.52h6.82a6.83,6.83,0,0,1,6.83,6.83v47.77" transform="translate(-12.07 -46.22)" fill="none" stroke="#fcd116" stroke-linecap="round" stroke-linejoin="round" stroke-width="4"/>
      <line x1="246.15" y1="86.9" x2="273.45" y2="86.9" fill="none" stroke="#fcd116" stroke-linecap="round" stroke-linejoin="round" stroke-width="4"/>
      <path d="M312.84,78.52h6.82a6.83,6.83,0,0,1,6.83,6.83v47.77" transform="translate(-12.07 -46.22)" fill="none" stroke="#fcd116" stroke-linecap="round" stroke-linejoin="round" stroke-width="4"/>
      <line x1="300.75" y1="86.9" x2="328.05" y2="86.9" fill="none" stroke="#fcd116" stroke-linecap="round" stroke-linejoin="round" stroke-width="4"/>
      <path d="M121.74,119.47a13.65,13.65,0,0,1-27.3,0V92.17a13.65,13.65,0,1,1,27.3,0Z" transform="translate(-12.07 -46.22)" fill="none" stroke="#fcd116" stroke-linecap="round" stroke-linejoin="round" stroke-width="4"/>
      <path d="M176.34,201.37a13.65,13.65,0,0,1-27.3,0v-27.3a13.65,13.65,0,0,1,27.3,0Z" transform="translate(-12.07 -46.22)" fill="none" stroke="#fcd116" stroke-linecap="round" stroke-linejoin="round" stroke-width="4"/>
      <path d="M285.54,201.37a13.65,13.65,0,0,1-27.3,0v-27.3a13.65,13.65,0,0,1,27.3,0Z" transform="translate(-12.07 -46.22)" fill="none" stroke="#fcd116" stroke-linecap="round" stroke-linejoin="round" stroke-width="4"/>
      <path d="M230.94,119.47a13.65,13.65,0,0,1-27.3,0V92.17a13.65,13.65,0,0,1,27.3,0Z" transform="translate(-12.07 -46.22)" fill="none" stroke="#fcd116" stroke-linecap="round" stroke-linejoin="round" stroke-width="4"/>
    </g>
    <g>
      <path d="M146,74.52h6.82a6.83,6.83,0,0,1,6.83,6.83v47.77" transform="translate(-12.07 -46.22)" fill="none" stroke="#000" stroke-linecap="round" stroke-linejoin="round" stroke-width="2"/>
      <line x1="133.95" y1="82.9" x2="161.25" y2="82.9" fill="none" stroke="#000" stroke-linecap="round" stroke-linejoin="round" stroke-width="2"/>
      <path d="M200.64,156.42h6.82a6.83,6.83,0,0,1,6.83,6.83V211" transform="translate(-12.07 -46.22)" fill="none" stroke="#000" stroke-linecap="round" stroke-linejoin="round" stroke-width="2"/>
      <line x1="188.55" y1="164.8" x2="215.85" y2="164.8" fill="none" stroke="#000" stroke-linecap="round" stroke-linejoin="round" stroke-width="2"/>
      <path d="M309.84,156.42h6.82a6.83,6.83,0,0,1,6.83,6.83V211" transform="translate(-12.07 -46.22)" fill="none" stroke="#000" stroke-linecap="round" stroke-linejoin="round" stroke-width="2"/>
      <line x1="297.75" y1="164.8" x2="325.05" y2="164.8" fill="none" stroke="#000" stroke-linecap="round" stroke-linejoin="round" stroke-width="2"/>
      <path d="M91.44,156.42h6.82a6.83,6.83,0,0,1,6.83,6.83V211" transform="translate(-12.07 -46.22)" fill="none" stroke="#000" stroke-linecap="round" stroke-linejoin="round" stroke-width="2"/>
      <line x1="79.35" y1="164.8" x2="106.65" y2="164.8" fill="none" stroke="#000" stroke-linecap="round" stroke-linejoin="round" stroke-width="2"/>
      <path d="M255.24,74.52h6.82a6.83,6.83,0,0,1,6.83,6.83v47.77" transform="translate(-12.07 -46.22)" fill="none" stroke="#000" stroke-linecap="round" stroke-linejoin="round" stroke-width="2"/>
      <line x1="243.15" y1="82.9" x2="270.45" y2="82.9" fill="none" stroke="#000" stroke-linecap="round" stroke-linejoin="round" stroke-width="2"/>
      <path d="M309.84,74.52h6.82a6.83,6.83,0,0,1,6.83,6.83v47.77" transform="translate(-12.07 -46.22)" fill="none" stroke="#000" stroke-linecap="round" stroke-linejoin="round" stroke-width="2"/>
      <line x1="297.75" y1="82.9" x2="325.05" y2="82.9" fill="none" stroke="#000" stroke-linecap="round" stroke-linejoin="round" stroke-width="2"/>
      <path d="M118.74,115.47a13.65,13.65,0,0,1-27.3,0V88.17a13.65,13.65,0,1,1,27.3,0Z" transform="translate(-12.07 -46.22)" fill="none" stroke="#000" stroke-linecap="round" stroke-linejoin="round" stroke-width="2"/>
      <path d="M173.34,197.37a13.65,13.65,0,0,1-27.3,0v-27.3a13.65,13.65,0,0,1,27.3,0Z" transform="translate(-12.07 -46.22)" fill="none" stroke="#000" stroke-linecap="round" stroke-linejoin="round" stroke-width="2"/>
      <path d="M282.54,197.37a13.65,13.65,0,0,1-27.3,0v-27.3a13.65,13.65,0,0,1,27.3,0Z" transform="translate(-12.07 -46.22)" fill="none" stroke="#000" stroke-linecap="round" stroke-linejoin="round" stroke-width="2"/>
      <path d="M227.94,115.47a13.65,13.65,0,0,1-27.3,0V88.17a13.65,13.65,0,0,1,27.3,0Z" transform="translate(-12.07 -46.22)" fill="none" stroke="#000" stroke-linecap="round" stroke-linejoin="round" stroke-width="2"/>
    </g>
    <path d="M58.89,1h273a20.47,20.47,0,0,1,20.47,20.47V226.23a20.47,20.47,0,0,1-20.47,20.47h-273a20.48,20.48,0,0,1-20.48-20.48V21.48A20.48,20.48,0,0,1,58.89,1Z" fill="none" stroke="#000" stroke-linecap="round" stroke-linejoin="round" stroke-width="2"/>
  </g>
  <line y1="105" x2="383" y2="105" fill="none"/>
</svg>
