<svg data-name="Layer 17" xmlns="http://www.w3.org/2000/svg" width="381.15" height="365.8">
    <path d="m90.36 365.8 130.09-206.61a19.29 19.29 0 0 1 30.61 0L381.14 365.8z" fill="#fcd116"/>
    <path d="m55.36 353.8 130.09-206.61a19.29 19.29 0 0 1 30.61 0L346.14 353.8z" fill="none" stroke="#000" stroke-linecap="round" stroke-linejoin="round" stroke-width="2"/>
    <path d="M55.36 353.8H1.8l53.56-84.19a19.14 19.14 0 0 1 30.61 0l10 19.89" fill="none" stroke="#000" stroke-linecap="round" stroke-linejoin="round" stroke-width="2"/>
    <path d="m128.56 253.51 35.86 30.33a15.31 15.31 0 0 0 20.71-.87l9.82-9.83a15.31 15.31 0 0 1 21.64 0l9.83 9.83a15.29 15.29 0 0 0 20.7.87l35.2-29.73" fill="none" stroke="#f8842c" stroke-linecap="round" stroke-linejoin="round" stroke-width="8"/>
    <path d="m123.56 245.51 35.86 30.33a15.31 15.31 0 0 0 20.71-.87l9.82-9.83a15.31 15.31 0 0 1 21.64 0l9.83 9.83a15.29 15.29 0 0 0 20.7.87l35.2-29.73M200.76 139.54V1.8" fill="none" stroke="#000" stroke-linecap="round" stroke-linejoin="round" stroke-width="2"/>
    <path d="M211.75 10.8h106.52a7.66 7.66 0 0 1 6 12.43l-16.84 21.06a7.65 7.65 0 0 0 0 9.55l16.84 21.06a7.65 7.65 0 0 1-6 12.42H211.75" fill="#e44418"/>
    <path d="M200.75 1.8h106.52a7.66 7.66 0 0 1 6 12.43l-16.84 21.06a7.65 7.65 0 0 0 0 9.55l16.84 21.06a7.65 7.65 0 0 1-6 12.42H200.75" fill="none" stroke="#000" stroke-linecap="round" stroke-linejoin="round" stroke-width="2"/>
</svg>
