
<svg xmlns="http://www.w3.org/2000/svg" width="480.2" height="352.8" overflow="visible">
  <g id="Cloud_Data_Transfer_1_">
    <path fill="#5cbbff" d="M429.1 262.7c32.1-14.8 52.2-47.4 51.1-82.8-.8-53.2-44.5-95.7-97.7-94.9-1.2 0-2.4.1-3.6.1-23.3-46.8-71.3-76.3-123.6-76C184 8.1 124.2 62.8 118.8 134c-39.3-8.6-78.1 16.2-86.7 55.5-1 4.7-1.6 9.4-1.7 14.2-1.7 31.9 19.9 60.3 51.1 67.1"/>
    <path d="M399.7 254.6c32.1-14.8 52.2-47.4 51.1-82.8-.8-53.2-44.5-95.7-97.7-94.9-1.2 0-2.4.1-3.6.1C326.3 30.2 278.3.7 226 1 154.7 0 94.9 54.7 89.6 125.9c-39.3-8.6-78.1 16.2-86.7 55.5-1 4.7-1.6 9.4-1.7 14.2-1.7 31.9 19.9 60.3 51.1 67.1" fill="none" stroke="#000" stroke-width="2" stroke-linecap="round" stroke-linejoin="round"/>
    <path d="M244.6 107.3c8.6 0 15.5 7 15.5 15.5 0 8.6-7 15.6-15.5 15.6-8.6 0-15.6-7-15.6-15.6.1-8.6 7-15.5 15.6-15.5z" fill="#7980bd"/>
    <path d="M243.5 126.2h-14.1l.1.3.1.3c2.1 8.1 10.2 13 18.4 11.2v-7.4c0-2.4-2-4.4-4.5-4.4z" opacity=".1" enable-background="new"/>
    <path d="M240.2 129.5h-9.6c2.6 5.4 8 8.9 14.1 8.9V134c-.1-2.5-2.1-4.5-4.5-4.5z" opacity=".1" enable-background="new"/>
    <path d="M279.6 116.2c6.4 0 11.7 5.2 11.7 11.7 0 6.4-5.2 11.7-11.7 11.7-6.4 0-11.7-5.2-11.7-11.7.1-6.5 5.3-11.7 11.7-11.7zM289.6 142.8h-26.2c-1.2 0-2.1 1-2.1 2.1v27c-.1 8.1 5.4 15.1 13.2 16.9 9 1.9 17.9-3.9 19.7-12.9.2-1.1.4-2.3.4-3.4v-24.8c0-2.6-2.2-4.9-5-4.9z" fill="#555da9"/>
    <path d="M271.3 147.8v31.7c0 14.7-11.9 26.6-26.6 26.7-9.5 0-18.3-5.1-23.1-13.3-.6-1.1-1.2-2.2-1.7-3.3-.4-1.1-.8-2.2-1.1-3.3-.5-2.2-.8-4.4-.8-6.7v-31.7c0-2.8 2.2-5 5-5h43.3c2.7-.1 5 2.2 5 4.9z" fill="#7980bd"/>
    <path d="M240.2 129.5h-9.6c2.6 5.4 8 8.9 14.1 8.9V134c-.1-2.5-2.1-4.5-4.5-4.5z" opacity=".1" enable-background="new"/>
    <path d="M248 142.8V185c0 2.1-1.4 3.9-3.5 4.3-.3.1-.6.1-1 .1h-23.6c-.4-1.1-.8-2.2-1.1-3.3-.5-2.2-.8-4.4-.8-6.7v-31.7c0-2.8 2.2-5 5-5h25z" opacity=".1" enable-background="new"/>
    <path d="M244.6 142.8v45.5c0 .3 0 .7-.1 1-.4 2-2.2 3.5-4.3 3.5h-18.6c-.6-1.1-1.2-2.2-1.7-3.3-.4-1.1-.8-2.2-1.1-3.3-.5-2.2-.8-4.4-.8-6.7v-31.7c0-2.8 2.2-5 5-5h21.6z" opacity=".1" enable-background="new"/>
    <path d="M244.6 142.8v38.9c0 2.4-2 4.4-4.4 4.4h-21.4c-.5-2.2-.8-4.4-.8-6.7v-31.7c0-2.8 2.2-5 5-5h21.6z" opacity=".1" enable-background="new"/>
    <path d="M223 142.8c-2.8 0-5 2.2-5 5v31.7c0 2.2.3 4.5.8 6.7h18.1c2.4 0 4.4-2 4.4-4.4v-38.9H223z" opacity=".1" enable-background="new"/>
    <path fill="#4f58a6" d="M192.4 129.5h44.4c2.5 0 4.4 2 4.4 4.4v44.4c0 2.5-2 4.4-4.4 4.4h-44.4c-2.5 0-4.4-2-4.4-4.4v-44.4c0-2.4 2-4.4 4.4-4.4z"/>
    <path fill="#fff" d="M227.9 146.1h-10v26.7h-6.5v-26.7h-10v-6.6h26.5v6.6z"/>
    <g>
      <path fill="#fcd116" d="M302.4 284.2c4-4 4-10.4 0-14.4L291.6 259c-4-4-10.4-4-14.4 0l-5.9 5.9c-5.1 5.1-5.9 13.2-1.9 19.2 17.4 26.3 39.9 48.8 66.2 66.2 6.1 4 14.1 3.2 19.2-1.9l5.9-5.9c4-4 4-10.4 0-14.4l-10.8-10.8c-4-4-10.4-4-14.4 0l-3.6 3.6c-12.1-9.9-23.2-21-33.1-33.1l3.6-3.6z"/>
      <path d="M301.1 277.6c4-4 4-10.4 0-14.4l-10.8-10.8c-4-4-10.4-4-14.4 0l-5.9 5.9c-5.1 5.1-5.9 13.2-1.9 19.2 17.4 26.3 39.9 48.8 66.2 66.2 6.1 4 14.1 3.2 19.2-1.9l5.9-5.9c4-4 4-10.4 0-14.4l-10.8-10.8c-4-4-10.4-4-14.4 0l-3.6 3.6c-12.1-9.9-23.2-21-33.1-33.1l3.6-3.6zM324.1 229.2c32.3 0 58.6 26.2 58.6 58.6M324.1 249.5c21.1 0 38.2 17.1 38.2 38.2M324.1 269.9c9.8 0 17.8 8 17.8 17.8" fill="none" stroke="#000" stroke-width="2" stroke-linecap="round" stroke-linejoin="round"/>
    </g>
  </g>
</svg>