
<svg xmlns="http://www.w3.org/2000/svg" width="348.09" height="378.28" >
  <g id="Ebene_2" data-name="Ebene 2">
    <g id="Layer_17" data-name="Layer 17">
      <g id="Ebene_36" data-name="Ebene 36">
        <path d="M175.59 6v15.86M57.86 54.78L69.07 66M9.09 172.5H25M57.86 290.24L69.07 279M342.09 172.5h-15.85M293.33 54.78L282.12 66M283.29 290l-11.21-11.21" class="cls-1" stroke-linecap="round" stroke-miterlimit="10" fill="#f8842c" stroke="#f8842c" stroke-width="12px"/>
        <path fill="#fcd116" stroke="#fcd116" stroke-linecap="round" stroke-miterlimit="10" stroke-width="3.6" d="M229.13 270v34.89a47.57 47.57 0 11-95.14 0V270"/>
        <path fill="#fcd116" d="M183.59 59.12a111 111 0 00-48.85 210.68 6.94 6.94 0 013.89 6.07 44.82 44.82 0 0025.93 38.85c3.12 1.46 5.13-6.42 5.16-3a13.88 13.88 0 1027.75 0c0-3.48 2 4.36 5.17 2.89a45.16 45.16 0 0026-38.94 6.94 6.94 0 013.87-5.95 111 111 0 00-48.92-210.6z"/>
        <path d="M217.07 278.15V313a47.57 47.57 0 11-95.14 0v-34.85M169.5 360.62v15.86" class="cls-4" stroke-width="3.6px" fill="none" stroke="#111"/>
        <path d="M185.36 288.1v-94a23.79 23.79 0 1123.78 23.79h-79.28a23.79 23.79 0 1123.78-23.79v94M122.58 321h93.84" class="cls-4" fill="none" stroke="#111" stroke-width="3.6px" stroke-linecap="round" stroke-miterlimit="10" />
        <circle cx="169.5" cy="178.26" r="111" class="cls-4" fill="none" stroke="#111" stroke-linecap="round" stroke-miterlimit="10" stroke-width="3.6px"/>
        <path d="M169.5 11.76v15.86M51.76 60.54L63 71.75M3 178.26h15.86M51.76 296L63 284.79M336 178.26h-15.86M287.24 60.54L276 71.75M277.2 295.73L266 284.51" class="cls-5" stroke-width="3.6px" fill="none" stroke="#111" stroke-linecap="round" stroke-miterlimit="10"/>
      </g>
    </g>
  </g>
</svg>