<svg id="Layer_92" data-name="Layer 92" xmlns="http://www.w3.org/2000/svg" width="275.63" height="266" viewBox="0 0 275.63 266">
  <g>
    <path d="M500.86,275.5a5.73,5.73,0,0,0-7.49-2.63,44.58,44.58,0,0,1-18.6,4.1A45.55,45.55,0,0,1,434,251.69a5.73,5.73,0,0,0-7.69-2.55l0,0A44.56,44.56,0,0,1,406,254.05a45.84,45.84,0,0,1-45.84-45.84,3,3,0,0,0-3-3,3.15,3.15,0,0,0-.61.06,131.8,131.8,0,1,0,158.31,129A130.06,130.06,0,0,0,500.86,275.5ZM280.39,344.6a2.87,2.87,0,1,1,2.87-2.86A2.87,2.87,0,0,1,280.39,344.6Zm22.92-48.71a22.93,22.93,0,1,1,22.92,22.93A22.92,22.92,0,0,1,303.31,295.89ZM337.7,410.5a22.92,22.92,0,1,1,22.92-22.92A22.93,22.93,0,0,1,337.7,410.5Zm68.76,2.87a2.87,2.87,0,1,1,2.87-2.87A2.86,2.86,0,0,1,406.46,413.37Zm0-48.71a11.46,11.46,0,1,1,11.46-11.46A11.46,11.46,0,0,1,406.46,364.66Zm11.46-54.44a2.87,2.87,0,1,1,2.87-2.87A2.86,2.86,0,0,1,417.92,310.22Z" transform="translate(-239.25 -200.22)" fill="#fcd116"/>
    <path d="M463.77,273A45.55,45.55,0,0,1,423,247.69a5.73,5.73,0,0,0-7.69-2.55l0,0A44.56,44.56,0,0,1,395,250.05a45.84,45.84,0,0,1-45.84-45.84,3,3,0,0,0-3-3,3.15,3.15,0,0,0-.61.06,131.8,131.8,0,1,0,158.31,129,130.06,130.06,0,0,0-14-58.78,5.73,5.73,0,0,0-7.49-2.63A44.58,44.58,0,0,1,463.77,273Z" transform="translate(-239.25 -200.22)" fill="none" stroke="#000" stroke-linecap="round" stroke-linejoin="round" stroke-width="2"/>
  </g>
  <g>
    <line x1="35.49" y1="36" x2="241.6" y2="242.11" fill="none" stroke="#e44418" stroke-linecap="round" stroke-linejoin="round" stroke-width="6"/>
    <line x1="241.6" y1="36" x2="35.49" y2="242.11" fill="none" stroke="#e44418" stroke-linecap="round" stroke-linejoin="round" stroke-width="6"/>
  </g>
  <g>
    <line x1="29.49" y1="38" x2="235.6" y2="244.11" fill="none" stroke="#000" stroke-linecap="round" stroke-linejoin="round" stroke-width="2"/>
    <line x1="235.6" y1="38" x2="29.49" y2="244.11" fill="none" stroke="#000" stroke-linecap="round" stroke-linejoin="round" stroke-width="2"/>
  </g>
</svg>
