<svg id="Layer_17_copy" data-name="Layer 17 copy" xmlns="http://www.w3.org/2000/svg" width="356.53" height="259.23" viewBox="0 0 356.53 259.23">
  <g>
    <path d="M305,77a32.16,32.16,0,0,0-32.12-32.19q-.63,0-1.26,0a45,45,0,0,0-85.69,16.56,24.16,24.16,0,0,0-28.61,18.7,23.58,23.58,0,0,0-.52,5c0,24.55,25.78,24.16,25.78,24.16H276S305,105.42,305,77Z" transform="translate(-56.07 -13.46)" fill="#5cbbff"/>
    <path d="M294,72a32.16,32.16,0,0,0-32.12-32.19q-.63,0-1.26,0a45,45,0,0,0-85.69,16.56,24.16,24.16,0,0,0-28.61,18.7,23.58,23.58,0,0,0-.52,5c0,24.55,25.78,24.16,25.78,24.16H265S294,100.42,294,72Z" transform="translate(-56.07 -13.46)" fill="none" stroke="#000520" stroke-miterlimit="10"/>
  </g>
  <g>
    <path d="M208.06,204.56a6.59,6.59,0,0,1,6.12-4.37h65.56c3.94,0,6.56,3.06,6.56,7v51.57c0,3.93-2.62,7-6.56,7h-59" transform="translate(-56.07 -13.46)" fill="#fcd116"/>
    <path d="M201.06,200.56a6.59,6.59,0,0,1,6.12-4.37h65.56c3.94,0,6.56,3.06,6.56,7v51.57c0,3.93-2.62,7-6.56,7h-59" transform="translate(-56.07 -13.46)" fill="none" stroke="#000"/>
    <line x1="164.23" y1="257.03" x2="203.57" y2="257.03" fill="none" stroke="#000" stroke-linecap="round" stroke-linejoin="round"/>
    <line x1="183.9" y1="248.29" x2="183.9" y2="257.03" fill="none" stroke="#000" stroke-linecap="round" stroke-linejoin="round"/>
    <line x1="179.53" y1="230.81" x2="223.23" y2="230.81" fill="none" stroke="#000" stroke-linecap="round" stroke-linejoin="round"/>
    <path d="M191.89,222.42v-8.74a4.13,4.13,0,0,1,4.37-4.38h26.22a4.13,4.13,0,0,1,4.37,4.38v35a4.13,4.13,0,0,1-4.37,4.37h-8.74" transform="translate(-56.07 -13.46)" fill="#fff" stroke="#000" stroke-linecap="round" stroke-linejoin="round"/>
    <line x1="157.67" y1="230.81" x2="170.79" y2="230.81" fill="none" stroke="#000" stroke-linecap="round" stroke-linejoin="round"/>
    <path d="M183.14,231.16h17.49a4.13,4.13,0,0,1,4.37,4.37v30.59a4.13,4.13,0,0,1-4.37,4.37H183.14a4.13,4.13,0,0,1-4.37-4.37V235.53A4.13,4.13,0,0,1,183.14,231.16Z" transform="translate(-56.07 -13.46)" fill="none" stroke="#000" stroke-linecap="round" stroke-linejoin="round"/>
    <line x1="122.71" y1="248.29" x2="148.93" y2="248.29" fill="none" stroke="#000" stroke-linecap="round" stroke-linejoin="round"/>
    <line x1="122.71" y1="226.44" x2="148.93" y2="226.44" fill="none" stroke="#000" stroke-linecap="round" stroke-linejoin="round"/>
    <line x1="135.82" y1="204.59" x2="170.79" y2="204.59" fill="none" stroke="#000" stroke-linecap="round" stroke-linejoin="round"/>
  </g>
  <g>
    <g>
      <polyline points="248.55 136.79 248.55 155.73 229.61 155.73" fill="none" stroke="#fcd116" stroke-linecap="round" stroke-linejoin="round" stroke-width="5"/>
      <line x1="248.55" y1="155.73" x2="210.9" y2="117.93" fill="none" stroke="#fcd116" stroke-linecap="round" stroke-linejoin="round" stroke-width="5"/>
    </g>
    <g>
      <polyline points="98.32 139.79 98.32 158.73 117.26 158.73" fill="none" stroke="#fcd116" stroke-linecap="round" stroke-linejoin="round" stroke-width="5"/>
      <line x1="98.32" y1="158.73" x2="135.97" y2="120.93" fill="none" stroke="#fcd116" stroke-linecap="round" stroke-linejoin="round" stroke-width="5"/>
    </g>
    <g>
      <line x1="172.93" y1="124.97" x2="172.93" y2="162.73" fill="none" stroke="#fcd116" stroke-linecap="round" stroke-linejoin="round" stroke-width="5"/>
      <polyline points="187.97 151.49 172.94 162.73 157.66 151.37" fill="none" stroke="#fcd116" stroke-linecap="round" stroke-linejoin="round" stroke-width="5"/>
    </g>
  </g>
  <g>
    <g>
      <polyline points="239.55 134.79 239.55 153.73 220.61 153.73" fill="none" stroke="#000" stroke-linecap="round" stroke-linejoin="round"/>
      <line x1="239.55" y1="153.73" x2="201.9" y2="115.93" fill="none" stroke="#000" stroke-linecap="round" stroke-linejoin="round"/>
    </g>
    <g>
      <polyline points="100.32 130.79 100.32 149.73 119.26 149.73" fill="none" stroke="#000" stroke-linecap="round" stroke-linejoin="round"/>
      <line x1="100.32" y1="149.73" x2="137.97" y2="111.93" fill="none" stroke="#000" stroke-linecap="round" stroke-linejoin="round"/>
    </g>
    <g>
      <line x1="167.93" y1="116.97" x2="167.93" y2="154.73" fill="none" stroke="#000" stroke-linecap="round" stroke-linejoin="round"/>
      <polyline points="182.97 143.49 167.94 154.73 152.66 143.37" fill="none" stroke="#000" stroke-linecap="round" stroke-linejoin="round"/>
    </g>
  </g>
  <g>
    <path d="M206.58,67.19h-.82a.36.36,0,0,1-.24-.07.59.59,0,0,1-.13-.18l-.73-1.9h-3.54l-.74,1.9a.41.41,0,0,1-.12.18.38.38,0,0,1-.24.07h-.82l3.15-7.88h1.08Zm-2.22-2.92-1.24-3.21c0-.09-.07-.21-.11-.33s-.08-.26-.12-.41a6.73,6.73,0,0,1-.24.75l-1.23,3.2Z" transform="translate(-56.07 -13.46)"/>
    <path d="M211.23,62a.64.64,0,0,1,0,.2.55.55,0,0,1-.1.17l-3,4h3v.76h-4.2v-.4a.38.38,0,0,1,0-.17.66.66,0,0,1,.09-.19l3-4h-3v-.77h4.13Z" transform="translate(-56.07 -13.46)"/>
    <path d="M216.94,61.62v5.57h-.58a.23.23,0,0,1-.26-.2l-.08-.6a3.18,3.18,0,0,1-.82.65,2.15,2.15,0,0,1-1,.24,2.09,2.09,0,0,1-.81-.15,1.55,1.55,0,0,1-.58-.43,1.75,1.75,0,0,1-.36-.66,3.34,3.34,0,0,1-.11-.87V61.62h1v3.55a1.49,1.49,0,0,0,.28,1,1.11,1.11,0,0,0,.89.35,1.63,1.63,0,0,0,.81-.21,2.28,2.28,0,0,0,.69-.57v-4.1Z" transform="translate(-56.07 -13.46)"/>
    <path d="M219.42,62.74a2.61,2.61,0,0,1,.65-.9,1.45,1.45,0,0,1,.94-.32,1.86,1.86,0,0,1,.34,0,1.26,1.26,0,0,1,.29.12l-.07.73a.16.16,0,0,1-.17.14l-.22,0a1.67,1.67,0,0,0-.34,0,1.4,1.4,0,0,0-.47.08,1.1,1.1,0,0,0-.37.23,1.83,1.83,0,0,0-.29.37,4.08,4.08,0,0,0-.23.51v3.52h-1V61.62h.56a.3.3,0,0,1,.22.06.41.41,0,0,1,.09.21Z" transform="translate(-56.07 -13.46)"/>
    <path d="M226.79,66.41a1.57,1.57,0,0,1-.43.38,2.73,2.73,0,0,1-.54.27,4.44,4.44,0,0,1-.6.16,4.3,4.3,0,0,1-.61,0,2.87,2.87,0,0,1-1.07-.2,2.41,2.41,0,0,1-.84-.57,2.67,2.67,0,0,1-.55-.93,3.86,3.86,0,0,1-.2-1.28,3.18,3.18,0,0,1,.18-1.08,2.5,2.5,0,0,1,.52-.88,2.27,2.27,0,0,1,.81-.58,2.59,2.59,0,0,1,1.09-.22,2.52,2.52,0,0,1,.93.17,2,2,0,0,1,.74.49,2.36,2.36,0,0,1,.49.78,3.12,3.12,0,0,1,.17,1,.66.66,0,0,1,0,.31.2.2,0,0,1-.19.08h-3.72a3.11,3.11,0,0,0,.15.92,1.64,1.64,0,0,0,.36.65,1.45,1.45,0,0,0,.55.39,1.8,1.8,0,0,0,.71.13,2,2,0,0,0,.64-.09,2.45,2.45,0,0,0,.46-.18l.32-.18a.4.4,0,0,1,.22-.09.23.23,0,0,1,.19.09ZM226,63.8a1.72,1.72,0,0,0-.1-.62,1.19,1.19,0,0,0-.28-.49,1.16,1.16,0,0,0-.44-.32,1.46,1.46,0,0,0-.6-.12,1.54,1.54,0,0,0-1.12.41A2,2,0,0,0,223,63.8Z" transform="translate(-56.07 -13.46)"/>
    <path d="M237.17,67.19h-.83a.35.35,0,0,1-.23-.07.46.46,0,0,1-.13-.18l-.74-1.9h-3.53l-.74,1.9a.44.44,0,0,1-.13.18.35.35,0,0,1-.23.07h-.82l3.15-7.88H234Zm-2.23-2.92-1.23-3.21c0-.09-.08-.21-.12-.33a4,4,0,0,1-.11-.41,6.73,6.73,0,0,1-.24.75L232,64.27Z" transform="translate(-56.07 -13.46)"/>
    <path d="M241.7,62.61l-.08.09a.18.18,0,0,1-.13,0,.32.32,0,0,1-.18-.07,1.25,1.25,0,0,0-.24-.15,1.5,1.5,0,0,0-.36-.15,1.56,1.56,0,0,0-.52-.07,1.86,1.86,0,0,0-.73.14,1.51,1.51,0,0,0-.52.42,2,2,0,0,0-.32.67,3.34,3.34,0,0,0-.11.87,3.06,3.06,0,0,0,.12.9A1.71,1.71,0,0,0,239,66a1.34,1.34,0,0,0,.51.41,1.6,1.6,0,0,0,.67.14,1.56,1.56,0,0,0,1-.27l.26-.19a.28.28,0,0,1,.2-.09.2.2,0,0,1,.18.09l.28.36a2.16,2.16,0,0,1-.41.39,3.4,3.4,0,0,1-.5.26,2.23,2.23,0,0,1-.56.16,3.83,3.83,0,0,1-.6,0,2.43,2.43,0,0,1-1-.19,2.35,2.35,0,0,1-.77-.56,2.57,2.57,0,0,1-.52-.9,3.55,3.55,0,0,1-.19-1.22,3.6,3.6,0,0,1,.18-1.15,2.6,2.6,0,0,1,.5-.91,2.33,2.33,0,0,1,.82-.59,2.83,2.83,0,0,1,1.12-.22,2.79,2.79,0,0,1,1,.19,2.52,2.52,0,0,1,.79.54Z" transform="translate(-56.07 -13.46)"/>
    <path d="M248.25,67.19h-1V62.44H244.4v3.34a.75.75,0,0,0,.17.53.6.6,0,0,0,.44.17,1.1,1.1,0,0,0,.27,0l.19-.09.14-.09a.19.19,0,0,1,.1-.05.17.17,0,0,1,.14.1l.29.46a1.91,1.91,0,0,1-.61.38,2.1,2.1,0,0,1-.74.13,1.35,1.35,0,0,1-1-.37,1.49,1.49,0,0,1-.35-1.06V62.44h-.67a.25.25,0,0,1-.15,0,.21.21,0,0,1-.06-.16v-.39l.91-.12.23-1.72a.23.23,0,0,1,.07-.14.25.25,0,0,1,.15,0h.5v1.92h3.85Zm.24-7.36a.6.6,0,0,1-.06.27.86.86,0,0,1-.15.22,1.07,1.07,0,0,1-.22.15.86.86,0,0,1-.27.05.76.76,0,0,1-.27-.05,1.07,1.07,0,0,1-.22-.15.86.86,0,0,1-.15-.22.76.76,0,0,1-.05-.27.66.66,0,0,1,.2-.49.62.62,0,0,1,.22-.15.6.6,0,0,1,.27-.06.66.66,0,0,1,.27.06.62.62,0,0,1,.22.15.86.86,0,0,1,.15.22A.66.66,0,0,1,248.49,59.83Z" transform="translate(-56.07 -13.46)"/>
    <path d="M254.63,61.62l-2.27,5.57h-.88l-2.27-5.57H250a.32.32,0,0,1,.2.06.26.26,0,0,1,.1.14l1.42,3.59c0,.14.08.27.11.4s.07.25.1.38l.09-.38a3.57,3.57,0,0,1,.12-.4l1.43-3.59a.36.36,0,0,1,.11-.14.28.28,0,0,1,.18-.06Z" transform="translate(-56.07 -13.46)"/>
    <path d="M259.9,66.41a1.61,1.61,0,0,1-.44.38,2.73,2.73,0,0,1-.54.27,3.77,3.77,0,0,1-.6.16,4.07,4.07,0,0,1-.61,0,2.82,2.82,0,0,1-1.06-.2,2.24,2.24,0,0,1-.84-.57,2.69,2.69,0,0,1-.56-.93,3.87,3.87,0,0,1-.19-1.28,3.18,3.18,0,0,1,.18-1.08,2.64,2.64,0,0,1,.51-.88,2.31,2.31,0,0,1,.82-.58,2.56,2.56,0,0,1,1.09-.22,2.6,2.6,0,0,1,.93.17,1.92,1.92,0,0,1,.73.49,2.21,2.21,0,0,1,.49.78,2.89,2.89,0,0,1,.17,1,.7.7,0,0,1,0,.31.23.23,0,0,1-.19.08H256a3.12,3.12,0,0,0,.14.92,1.93,1.93,0,0,0,.36.65,1.63,1.63,0,0,0,.55.39,1.81,1.81,0,0,0,.72.13,2,2,0,0,0,.63-.09,2.21,2.21,0,0,0,.46-.18l.32-.18a.42.42,0,0,1,.23-.09.2.2,0,0,1,.18.09Zm-.79-2.61a2,2,0,0,0-.1-.62,1.31,1.31,0,0,0-.28-.49,1.12,1.12,0,0,0-.45-.32,1.46,1.46,0,0,0-.6-.12,1.5,1.5,0,0,0-1.11.41,1.86,1.86,0,0,0-.51,1.14Z" transform="translate(-56.07 -13.46)"/>
    <path d="M215,76.45a4.41,4.41,0,0,1-.28,1.62,3.47,3.47,0,0,1-2,2,4.28,4.28,0,0,1-1.59.28h-2.94V72.51h2.94a4.5,4.5,0,0,1,1.59.28,3.47,3.47,0,0,1,1.23.81,3.61,3.61,0,0,1,.79,1.24A4.39,4.39,0,0,1,215,76.45Zm-1.1,0a4,4,0,0,0-.19-1.29,2.88,2.88,0,0,0-.56-1,2.58,2.58,0,0,0-.88-.61,3.07,3.07,0,0,0-1.16-.2h-1.87v6.15h1.87a3.07,3.07,0,0,0,1.16-.21,2.55,2.55,0,0,0,.88-.6,2.88,2.88,0,0,0,.56-1A4,4,0,0,0,213.88,76.45Z" transform="translate(-56.07 -13.46)"/>
    <path d="M217.42,73.07a.6.6,0,0,1-.06.27.69.69,0,0,1-.16.22.86.86,0,0,1-.22.15.66.66,0,0,1-.27.06.6.6,0,0,1-.27-.06.72.72,0,0,1-.37-.37.76.76,0,0,1,0-.27.86.86,0,0,1,0-.27.91.91,0,0,1,.15-.23.86.86,0,0,1,.22-.15.76.76,0,0,1,.27,0,.66.66,0,0,1,.49.2.73.73,0,0,1,.16.23A.66.66,0,0,1,217.42,73.07Zm-.21,1.75v5.57h-1V74.82Z" transform="translate(-56.07 -13.46)"/>
    <path d="M219.74,75.94a2.61,2.61,0,0,1,.65-.9,1.45,1.45,0,0,1,.94-.32,1.86,1.86,0,0,1,.34,0,1.26,1.26,0,0,1,.29.12l-.07.73a.16.16,0,0,1-.17.14l-.22,0a1.72,1.72,0,0,0-.34,0,1.41,1.41,0,0,0-.47.07,1.1,1.1,0,0,0-.37.23,1.83,1.83,0,0,0-.29.37,3,3,0,0,0-.23.51v3.52h-1V74.82h.56a.3.3,0,0,1,.22.06.41.41,0,0,1,.09.21Z" transform="translate(-56.07 -13.46)"/>
    <path d="M227.11,79.61a1.57,1.57,0,0,1-.43.38,2.73,2.73,0,0,1-.54.27,4.44,4.44,0,0,1-.6.16,4.3,4.3,0,0,1-.61,0,2.87,2.87,0,0,1-1.07-.2,2.28,2.28,0,0,1-.84-.57,2.67,2.67,0,0,1-.55-.93,3.82,3.82,0,0,1-.2-1.28,3.18,3.18,0,0,1,.18-1.08,2.64,2.64,0,0,1,.51-.88,2.35,2.35,0,0,1,.83-.58,2.7,2.7,0,0,1,2,0,2,2,0,0,1,.74.49,2.19,2.19,0,0,1,.48.78,2.91,2.91,0,0,1,.18,1.06.64.64,0,0,1,0,.3.21.21,0,0,1-.19.08h-3.72a3.11,3.11,0,0,0,.15.92,1.64,1.64,0,0,0,.36.65,1.35,1.35,0,0,0,.55.39,1.8,1.8,0,0,0,.71.13,2,2,0,0,0,.64-.09,2.45,2.45,0,0,0,.46-.18l.32-.18a.4.4,0,0,1,.22-.09.23.23,0,0,1,.19.09ZM226.32,77a1.72,1.72,0,0,0-.1-.62,1.19,1.19,0,0,0-.28-.49,1.16,1.16,0,0,0-.44-.32,1.46,1.46,0,0,0-.6-.12,1.53,1.53,0,0,0-1.12.41,2,2,0,0,0-.51,1.14Z" transform="translate(-56.07 -13.46)"/>
    <path d="M232.28,75.81l-.09.09a.16.16,0,0,1-.12,0,.27.27,0,0,1-.18-.07,1.83,1.83,0,0,0-.25-.15,1.5,1.5,0,0,0-.36-.15,1.56,1.56,0,0,0-.52-.07,1.81,1.81,0,0,0-.72.14,1.46,1.46,0,0,0-.53.42,2.19,2.19,0,0,0-.32.67,3.38,3.38,0,0,0-.1.88,3.06,3.06,0,0,0,.11.89,1.86,1.86,0,0,0,.33.66,1.34,1.34,0,0,0,.51.41,1.6,1.6,0,0,0,.67.14,1.91,1.91,0,0,0,.59-.08,2,2,0,0,0,.39-.19l.25-.19a.3.3,0,0,1,.2-.09.23.23,0,0,1,.19.09l.27.36a2.16,2.16,0,0,1-.41.39,2.62,2.62,0,0,1-.5.26,2.12,2.12,0,0,1-.56.16,3.81,3.81,0,0,1-.59,0,2.4,2.4,0,0,1-1-.19,2.29,2.29,0,0,1-.78-.56,2.63,2.63,0,0,1-.52-.9,3.8,3.8,0,0,1-.18-1.21,3.62,3.62,0,0,1,.17-1.16,2.6,2.6,0,0,1,.5-.91,2.42,2.42,0,0,1,.82-.59,2.83,2.83,0,0,1,1.12-.22,2.76,2.76,0,0,1,1,.19,2.69,2.69,0,0,1,.8.54Z" transform="translate(-56.07 -13.46)"/>
    <path d="M235.36,80.48a1.31,1.31,0,0,1-1-.37,1.45,1.45,0,0,1-.36-1.06V75.64h-.67a.25.25,0,0,1-.15,0,.21.21,0,0,1-.06-.16V75l.92-.12.22-1.72a.25.25,0,0,1,.08-.14.21.21,0,0,1,.15,0H235v1.92h1.61v.71H235V79a.75.75,0,0,0,.17.53.62.62,0,0,0,.44.17,1.1,1.1,0,0,0,.27,0l.19-.09.14-.09a.21.21,0,0,1,.11,0c.05,0,.09,0,.13.1l.29.47a2,2,0,0,1-.61.37A2.06,2.06,0,0,1,235.36,80.48Z" transform="translate(-56.07 -13.46)"/>
    <path d="M239.92,74.73a2.8,2.8,0,0,1,1.1.21,2.41,2.41,0,0,1,.83.57,2.57,2.57,0,0,1,.53.91,3.79,3.79,0,0,1,0,2.37,2.44,2.44,0,0,1-.53.9,2.31,2.31,0,0,1-.83.58,3.15,3.15,0,0,1-2.21,0,2.26,2.26,0,0,1-.84-.58,2.44,2.44,0,0,1-.53-.9,3.79,3.79,0,0,1,0-2.37,2.57,2.57,0,0,1,.53-.91,2.36,2.36,0,0,1,.84-.57A2.82,2.82,0,0,1,239.92,74.73Zm0,5a1.43,1.43,0,0,0,1.23-.56,2.56,2.56,0,0,0,.4-1.54,2.6,2.6,0,0,0-.4-1.55,1.43,1.43,0,0,0-1.23-.56,1.64,1.64,0,0,0-.73.15,1.3,1.3,0,0,0-.52.41,1.84,1.84,0,0,0-.31.66,3.46,3.46,0,0,0-.1.89,2.56,2.56,0,0,0,.41,1.54A1.45,1.45,0,0,0,239.92,79.71Z" transform="translate(-56.07 -13.46)"/>
    <path d="M244.73,75.94a2.75,2.75,0,0,1,.65-.9,1.45,1.45,0,0,1,.94-.32,1.86,1.86,0,0,1,.34,0,1.1,1.1,0,0,1,.29.12l-.07.73a.16.16,0,0,1-.17.14l-.22,0a1.72,1.72,0,0,0-.34,0,1.41,1.41,0,0,0-.47.07,1.1,1.1,0,0,0-.37.23,2.27,2.27,0,0,0-.29.37,4.08,4.08,0,0,0-.23.51v3.52h-1V74.82h.57a.34.34,0,0,1,.22.06.54.54,0,0,1,.08.21Z" transform="translate(-56.07 -13.46)"/>
    <path d="M252.62,74.82,249.51,82a.59.59,0,0,1-.13.17.29.29,0,0,1-.22.07h-.73l1-2.21-2.3-5.25H248a.27.27,0,0,1,.2.07.31.31,0,0,1,.1.13l1.49,3.51a4,4,0,0,1,.15.49c.05-.17.1-.34.16-.49L251.55,75a.36.36,0,0,1,.11-.14.28.28,0,0,1,.18-.06Z" transform="translate(-56.07 -13.46)"/>
  </g>
  <g>
    <line x1="16.59" y1="216.51" x2="16.59" y2="226.17" fill="none" stroke="#000" stroke-linecap="round" stroke-linejoin="round"/>
    <path d="M116.87,225.54a12.23,12.23,0,0,1,11.9,9.39l5.8,21.18h-9.52l-3.39,16.08H112l-3.39-16.08H99.17l5.8-21.18A12.23,12.23,0,0,1,116.87,225.54Z" transform="translate(-56.07 -13.46)" fill="#fcd116"/>
    <path d="M84.09,272.19l1.61-19.3h8V241.63a16.09,16.09,0,1,0-32.17,0v11.26h8l1.61,19.3Z" transform="translate(-56.07 -13.46)" fill="#fcd116"/>
    <path d="M79.09,270.19l1.61-19.3h8V239.63a16.09,16.09,0,1,0-32.17,0v11.26h8l1.61,19.3Z" transform="translate(-56.07 -13.46)" fill="none" stroke="#000" stroke-linecap="round" stroke-linejoin="round"/>
    <polyline points="63.94 212.38 56.8 223.61 49.73 212.34" fill="none" stroke="#000" stroke-linecap="round" stroke-linejoin="round"/>
    <path d="M112.87,223.54a12.23,12.23,0,0,1,11.9,9.39l5.8,21.18h-9.52l-3.39,16.08H108l-3.39-16.08H95.17l5.8-21.18A12.23,12.23,0,0,1,112.87,223.54Z" transform="translate(-56.07 -13.46)" fill="none" stroke="#000" stroke-linecap="round" stroke-linejoin="round"/>
    <path d="M63,201.74a18.74,18.74,0,0,0,20.86,4.19" transform="translate(-56.07 -13.46)" fill="none" stroke="#000" stroke-linecap="round" stroke-linejoin="round"/>
    <circle cx="16.59" cy="193.99" r="11.26" fill="none" stroke="#000" stroke-linecap="round" stroke-linejoin="round"/>
    <path d="M101.76,209.31a14.92,14.92,0,0,0,11.11-5.16A14.92,14.92,0,0,0,124,209.3" transform="translate(-56.07 -13.46)" fill="none" stroke="#000" stroke-linecap="round" stroke-linejoin="round"/>
    <circle cx="56.8" cy="193.99" r="11.26" fill="none" stroke="#000" stroke-linecap="round" stroke-linejoin="round"/>
  </g>
  <path d="M411.81,210.06v39.46c0,5.45-12.52,9.87-28,9.87s-28-4.42-28-9.87V210.06" transform="translate(-56.07 -13.46)" fill="#fcd116"/>
  <ellipse cx="324.8" cy="194.6" rx="27.96" ry="9.87" fill="#fff" stroke="#000" stroke-linecap="round" stroke-linejoin="round"/>
  <path d="M408.81,221.21c0,5.45-12.52,9.87-28,9.87s-28-4.42-28-9.87" transform="translate(-56.07 -13.46)" fill="none" stroke="#000" stroke-linecap="round" stroke-linejoin="round"/>
  <path d="M408.81,234.37c0,5.45-12.52,9.86-28,9.86s-28-4.41-28-9.86" transform="translate(-56.07 -13.46)" fill="none" stroke="#000" stroke-linecap="round" stroke-linejoin="round"/>
  <path d="M408.81,208.06v39.46c0,5.45-12.52,9.87-28,9.87s-28-4.42-28-9.87V208.06" transform="translate(-56.07 -13.46)" fill="none" stroke="#000" stroke-linecap="round" stroke-linejoin="round"/>
  <line x1="286.97" y1="253.8" x2="318.21" y2="253.8" fill="none" stroke="#000" stroke-linecap="round" stroke-linejoin="round"/>
  <line x1="323.15" y1="243.93" x2="323.15" y2="248.87" fill="none" stroke="#000" stroke-linecap="round" stroke-linejoin="round"/>
  <circle cx="323.14" cy="253.8" r="4.93" fill="none" stroke="#000" stroke-linecap="round" stroke-linejoin="round"/>
  <line x1="328.08" y1="253.8" x2="356.03" y2="253.8" fill="none" stroke="#000" stroke-linecap="round" stroke-linejoin="round"/>
</svg>
