<svg id="Layer_93" data-name="Layer 93" xmlns="http://www.w3.org/2000/svg" width="237.98" height="278" viewBox="0 0 237.98 278">
  <g>
    <path d="M311.41,416.62A113.48,113.48,0,1,1,478.72,316.7" transform="translate(-240.75 -200.22)" fill="#fcd116"/>
    <path d="M305.13,352.26a142.71,142.71,0,0,1-6.52-37.56,150.94,150.94,0,0,1,46.93-113.07" transform="translate(-240.75 -200.22)" fill="none" stroke="#000" stroke-linecap="round" stroke-linejoin="round" stroke-width="2"/>
    <line x1="16.21" y1="171.22" x2="56.44" y2="171.22" fill="none" stroke="#000" stroke-linecap="round" stroke-linejoin="round" stroke-width="2"/>
    <line x1="16.21" y1="57.74" x2="114.49" y2="57.74" fill="none" stroke="#000" stroke-linecap="round" stroke-linejoin="round" stroke-width="2"/>
    <line x1="1.02" y1="114.48" x2="114.49" y2="114.48" fill="none" stroke="#000" stroke-linecap="round" stroke-linejoin="round" stroke-width="2"/>
    <path d="M411.88,314.7A150.94,150.94,0,0,0,365,201.63" transform="translate(-240.75 -200.22)" fill="none" stroke="#000" stroke-linecap="round" stroke-linejoin="round" stroke-width="2"/>
    <line x1="212.79" y1="57.74" x2="114.51" y2="57.74" fill="none" stroke="#000" stroke-linecap="round" stroke-linejoin="round" stroke-width="2"/>
    <line x1="227.98" y1="114.48" x2="114.51" y2="114.48" fill="none" stroke="#000" stroke-linecap="round" stroke-linejoin="round" stroke-width="2"/>
    <path d="M301.41,414.62A113.48,113.48,0,1,1,468.72,314.7" transform="translate(-240.75 -200.22)" fill="none" stroke="#000" stroke-linecap="round" stroke-linejoin="round" stroke-width="2"/>
    <line x1="114.5" y1="1" x2="114.49" y2="114.48" fill="none" stroke="#000" stroke-linecap="round" stroke-linejoin="round" stroke-width="2"/>
  </g>
  <g>
    <path d="M445.27,474.22H364.32L353.8,435.36a5.74,5.74,0,0,1,4.54-7,6.9,6.9,0,0,1,1.5-.17h89.91A6,6,0,0,1,456,434a5.41,5.41,0,0,1-.18,1.39Z" transform="translate(-240.75 -200.22)" fill="#5cbbff"/>
    <line x1="95.56" y1="274" x2="232.54" y2="274" fill="none" stroke="#5cbbff" stroke-linecap="round" stroke-miterlimit="10" stroke-width="8"/>
    <circle cx="164.05" cy="158.81" r="21.79" fill="#5cbbff"/>
    <path d="M434.34,412a30.92,30.92,0,0,0-59.09,0" transform="translate(-240.75 -200.22)" fill="#5cbbff"/>
  </g>
  <g>
    <path d="M441.27,474.22H360.32L349.8,432.14a6.23,6.23,0,0,1,4.54-7.55,6.34,6.34,0,0,1,1.5-.18h89.91a6.22,6.22,0,0,1,6.22,6.22,6.37,6.37,0,0,1-.18,1.51Z" transform="translate(-240.75 -200.22)" fill="none" stroke="#000" stroke-linecap="round" stroke-linejoin="round" stroke-width="2"/>
    <line x1="91.56" y1="274" x2="228.54" y2="274" fill="none" stroke="#000" stroke-linecap="round" stroke-linejoin="round" stroke-width="2"/>
    <line x1="160.05" y1="205.51" x2="160.05" y2="214.85" fill="none" stroke="#000" stroke-linecap="round" stroke-linejoin="round" stroke-width="2"/>
    <circle cx="160.05" cy="158.81" r="21.79" fill="none" stroke="#000" stroke-linecap="round" stroke-linejoin="round" stroke-width="2"/>
    <circle cx="160.05" cy="247.54" r="7.78" fill="none" stroke="#000" stroke-linecap="round" stroke-linejoin="round" stroke-width="2"/>
    <path d="M430.34,412a30.92,30.92,0,0,0-59.09,0" transform="translate(-240.75 -200.22)" fill="none" stroke="#000" stroke-linecap="round" stroke-linejoin="round" stroke-width="2"/>
  </g>
</svg>
