<svg data-name="Layer 17" xmlns="http://www.w3.org/2000/svg" width="304.8" height="298.8">
    <path d="m99.67 298.8 6.35-76.19h31.74v-44.42a63.5 63.5 0 0 0-127 0v44.42H42.5l6.35 76.17z" fill="#5cbbff"/>
    <path d="m90.67 293.8 6.35-76.19h31.74v-44.42a63.5 63.5 0 0 0-127 0v44.42H33.5l6.35 76.17z" fill="none" stroke="#000" stroke-linecap="round" stroke-linejoin="round" stroke-width="2"/>
    <circle cx="65.28" cy="46.23" r="44.43" fill="none" stroke="#000" stroke-linecap="round" stroke-linejoin="round" stroke-width="2"/>
    <path fill="none" stroke="#000" stroke-linecap="round" stroke-linejoin="round" stroke-width="2" d="M192.23 1.8v25.39"/>
    <path d="M146.11 38.19h146a12.7 12.7 0 0 1 12.69 12.7v114.26a12.7 12.7 0 0 1-12.69 12.7h-127" fill="#fcd116"/>
    <path d="M135.11 27.19h146a12.7 12.7 0 0 1 12.69 12.7v114.26a12.7 12.7 0 0 1-12.69 12.7h-127" fill="none" stroke="#000" stroke-linecap="round" stroke-linejoin="round" stroke-width="2"/>
    <path d="m149.8 113.04 13.4-13.43a6.34 6.34 0 0 1 9 0l8.89 8.89a6.34 6.34 0 0 0 9 0l20.13-20a6.34 6.34 0 0 1 9 0l15.63 15.62a6.35 6.35 0 0 0 9 0l26.81-26.82" fill="none" stroke="#f8842c" stroke-linecap="round" stroke-linejoin="round" stroke-width="8"/>
    <path d="m147.8 105.04 13.4-13.43a6.34 6.34 0 0 1 9 0l8.89 8.89a6.34 6.34 0 0 0 9 0l20.13-20a6.34 6.34 0 0 1 9 0l15.63 15.62a6.35 6.35 0 0 0 9 0l26.81-26.82M192.23 166.84v60.47M191.8 227.01l-31.3 22.36M191.8 227.01l31.3 22.36" fill="none" stroke="#000" stroke-linecap="round" stroke-linejoin="round" stroke-width="2"/>
</svg>
