<?xml version="1.0" encoding="utf-8"?>
<!-- Generator: Adobe Illustrator 25.3.1, SVG Export Plug-In . SVG Version: 6.00 Build 0)  -->
<svg version="1.1" id="Layer_1" xmlns="http://www.w3.org/2000/svg" xmlns:xlink="http://www.w3.org/1999/xlink" x="0px" y="0px"
	 width="309.8px" height="274.8px" viewBox="0 0 309.8 274.8" style="enable-background:new 0 0 309.8 274.8;" xml:space="preserve"
	>
<style type="text/css">
	.st0{fill:#5CBBFF;}
	.st1{fill:none;stroke:#FCD116;stroke-width:6;stroke-linecap:round;stroke-linejoin:round;}
	.st2{fill:none;stroke:#000000;stroke-width:2;stroke-linecap:round;stroke-linejoin:round;}
	.st3{fill:#FCD116;}
</style>
<path class="st0" d="M202.3,238.6H46c-10.6,0-19.3-8.7-19.3-19.3V109.9c0-10.6,8.7-19.3,19.3-19.3h156.3c10.6,0,19.3,8.7,19.3,19.3
	v109.3C221.7,229.9,213,238.6,202.3,238.6z"/>
<line class="st1" x1="74.9" y1="270.6" x2="160" y2="270.6"/>
<line class="st2" x1="71.9" y1="268.6" x2="157" y2="268.6"/>
<line class="st2" x1="114.4" y1="244.3" x2="114.4" y2="268.6"/>
<line class="st2" x1="17.1" y1="220" x2="211.7" y2="220"/>
<path class="st3" d="M261.6,111.6c18.8-2.3,33-18.1,33.3-37c0-20.4-16.5-37-36.9-37c-0.5,0-0.9,0-1.4,0
	c-12.1-25.9-42.9-37-68.8-24.9c-17.2,8.1-28.7,25-29.7,44c-15-3.1-29.7,6.5-32.8,21.5c-0.4,1.9-0.6,3.7-0.6,5.6
	c0.2,15.5,12.9,28,28.4,27.8c0.4,0,0.8,0,1.2,0L261.6,111.6z"/>
<path class="st2" d="M254.6,117.4c18.8-2.3,33-18.1,33.3-37c0-20.4-16.5-37-36.9-37c-0.5,0-0.9,0-1.4,0
	c-12.1-25.9-42.9-37-68.8-24.9c-17.2,8.1-28.7,25-29.7,44c-15-3.1-29.7,6.5-32.8,21.5c-0.4,1.9-0.6,3.7-0.6,5.6
	c0.2,15.5,12.9,28,28.4,27.8c0.4,0,0.8,0,1.2,0L254.6,117.4z"/>
<path class="st2" d="M211.7,128.7V225c0.3,10.4-7.9,19-18.2,19.3H35.4C25,244,16.8,235.3,17.1,225V116.6c0-10.1,8.2-18.2,18.2-18.2
	h60.8"/>
</svg>
