<svg xmlns="http://www.w3.org/2000/svg" xmlns:xlink="http://www.w3.org/1999/xlink" width="674.5" height="612.6" overflow="visible" viewBox="0 0 674.5 612.6">
  <path fill="#0072c6" d="M630.9 31.9H79.3c-24.1 0-43.5 19.5-43.5 43.5v377.4c0 24.1 19.5 43.5 43.5 43.5h123.4c4 0 7.3 3.2 7.3 7.3V598c0 8 6.5 14.5 14.5 14.5 3.8 0 7.5-1.5 10.2-4.2l109.8-109.8c1.4-1.4 3.2-2.1 5.1-2.1h281.2c24.1 0 43.5-19.5 43.5-43.5V75.5c.2-24.1-19.3-43.6-43.4-43.6z"/>
  <path d="M640.1 437.7c0 16-12.4 29-27.7 29H307.3l-111 116.2V466.7H30c-15.3 0-27.7-13-27.7-29V31.3c0-16 12.4-29 27.7-29h582.4c15.3 0 27.7 13 27.7 29v406.4zM140.9 292.5h360.5M140.9 147.4h360.5" style="fill:none;stroke:#111;stroke-width:4.4403;stroke-linecap:round;stroke-linejoin:round;"/>
</svg>