<svg xmlns="http://www.w3.org/2000/svg" width="108.39" height="81.79" viewBox="0 0 108.39 81.79"><g id="Layer_2" data-name="Layer 2"><g id="Layer_1-2" data-name="Layer 1"><g id="cloud-upload"><path id="Shape" d="M62.08,69.87a213.85,213.85,0,0,0,25.33-1.7A20.95,20.95,0,1,0,75.53,30,32.22,32.22,0,1,0,37.46,67.53,197.59,197.59,0,0,0,62.08,69.87Z" fill="#fcd116"/><path id="Shape-6" d="M71.13,64.65H76A21,21,0,1,0,64.09,26.47,32.23,32.23,0,1,0,26,64" fill="none" stroke="#000520" stroke-linecap="round" stroke-linejoin="round" stroke-width="0.37"/></g><ellipse cx="54.29" cy="68.97" rx="14.86" ry="5.94" fill="#0072c6"/><ellipse cx="54.29" cy="47.59" rx="14.86" ry="5.94" fill="none" stroke="#000520" stroke-linecap="round" stroke-linejoin="round" stroke-width="0.37"/><path d="M39.43,47.59v8.92c0,3.28,6.65,5.94,14.86,5.94s14.86-2.66,14.86-5.94V47.59" fill="none" stroke="#000520" stroke-linecap="round" stroke-linejoin="round" stroke-width="0.37"/><path d="M39.43,56.51v8.91c0,3.29,6.65,6,14.86,6s14.86-2.66,14.86-6V56.51" fill="none" stroke="#000520" stroke-linecap="round" stroke-linejoin="round" stroke-width="0.37"/><line x1="55.34" y1="81.6" x2="55.34" y2="76.88" fill="none" stroke="#000" stroke-linecap="round" stroke-linejoin="round" stroke-width="0.37"/><polyline points="56.91 78.46 55.34 76.88 53.76 78.46" fill="none" stroke="#000" stroke-linecap="round" stroke-linejoin="round" stroke-width="0.37"/><line x1="77.62" y1="77.07" x2="74.29" y2="73.73" fill="none" stroke="#000" stroke-linecap="round" stroke-linejoin="round" stroke-width="0.37"/><polyline points="76.51 73.73 74.29 73.73 74.29 75.95" fill="none" stroke="#000" stroke-linecap="round" stroke-linejoin="round" stroke-width="0.37"/><line x1="32.35" y1="77.77" x2="35.69" y2="74.43" fill="none" stroke="#000" stroke-linecap="round" stroke-linejoin="round" stroke-width="0.37"/><polyline points="35.69 76.65 35.69 74.43 33.46 74.43" fill="none" stroke="#000" stroke-linecap="round" stroke-linejoin="round" stroke-width="0.37"/><line x1="28.51" y1="59.67" x2="33.23" y2="59.67" fill="none" stroke="#000" stroke-linecap="round" stroke-linejoin="round" stroke-width="0.37"/><polyline points="31.66 61.24 33.23 59.67 31.66 58.1" fill="none" stroke="#000" stroke-linecap="round" stroke-linejoin="round" stroke-width="0.37"/><line x1="80.06" y1="59.67" x2="75.34" y2="59.67" fill="none" stroke="#000" stroke-linecap="round" stroke-linejoin="round" stroke-width="0.37"/><polyline points="76.92 58.1 75.34 59.67 76.92 61.24" fill="none" stroke="#000" stroke-linecap="round" stroke-linejoin="round" stroke-width="0.37"/><line x1="31.66" y1="39.13" x2="34.98" y2="42.47" fill="none" stroke="#000" stroke-linecap="round" stroke-linejoin="round" stroke-width="0.37"/><polyline points="32.76 42.47 34.99 42.47 34.99 40.24" fill="none" stroke="#000" stroke-linecap="round" stroke-linejoin="round" stroke-width="0.37"/><line x1="75.88" y1="39.83" x2="72.54" y2="43.17" fill="none" stroke="#000" stroke-linecap="round" stroke-linejoin="round" stroke-width="0.37"/><polyline points="72.54 40.94 72.54 43.17 74.77 43.17" fill="none" stroke="#000" stroke-linecap="round" stroke-linejoin="round" stroke-width="0.37"/><line x1="55.34" y1="33.9" x2="55.34" y2="38.62" fill="none" stroke="#000" stroke-linecap="round" stroke-linejoin="round" stroke-width="0.37"/><polyline points="53.76 37.04 55.34 38.62 56.91 37.04" fill="none" stroke="#000" stroke-linecap="round" stroke-linejoin="round" stroke-width="0.37"/></g></g></svg>