<svg id="Layer_17" data-name="Layer 17" xmlns="http://www.w3.org/2000/svg" width="389.68" height="336" viewBox="0 0 389.68 336">
  <g>
    <path d="M184.42,348.19a93,93,0,0,0,16.94-49.74" transform="translate(-28.95 -61.19)" fill="none" stroke="#000" stroke-linecap="round" stroke-linejoin="round" stroke-width="2"/>
    <path d="M255.6,348.19a93,93,0,0,1-16.94-49.74" transform="translate(-28.95 -61.19)" fill="none" stroke="#000" stroke-linecap="round" stroke-linejoin="round" stroke-width="2"/>
    <line x1="135.1" y1="287" x2="247.01" y2="287" fill="none" stroke="#000" stroke-linecap="round" stroke-linejoin="round" stroke-width="2"/>
    <line x1="48.06" y1="199.96" x2="334.06" y2="199.96" fill="none" stroke="#000" stroke-linecap="round" stroke-linejoin="round" stroke-width="2"/>
    <rect x="48.06" y="1" width="286" height="236.26" rx="12.43" fill="none" stroke="#000" stroke-linecap="round" stroke-linejoin="round" stroke-width="2"/>
    <g>
      <path d="M245.4,170.94h-8.89a42.91,42.91,0,0,0-3.64-8.78l6.29-6.29a7.16,7.16,0,0,0,0-10.13h0L232.4,139a7.16,7.16,0,0,0-10.13,0l-6.3,6.29a42.87,42.87,0,0,0-8.77-3.65v-8.89a7.17,7.17,0,0,0-7.17-7.17h-9.55a7.16,7.16,0,0,0-7.16,7.17v8.89a43,43,0,0,0-8.79,3.65L168.24,139a7.16,7.16,0,0,0-10.13,0l-6.76,6.75a7.16,7.16,0,0,0,0,10.13h0l6.29,6.29a42.28,42.28,0,0,0-3.64,8.77h-8.89a7.17,7.17,0,0,0-7.17,7.17v9.55a7.17,7.17,0,0,0,7.17,7.17H154a42.36,42.36,0,0,0,3.64,8.78l-6.3,6.3a7.18,7.18,0,0,0,0,10.13l6.76,6.75a7.37,7.37,0,0,0,10.13,0l6.3-6.29a42.8,42.8,0,0,0,8.79,3.65V233a7.16,7.16,0,0,0,7.16,7.17H200A7.17,7.17,0,0,0,207.2,233v-8.88a42.91,42.91,0,0,0,8.78-3.64l6.29,6.29a7.18,7.18,0,0,0,10.13,0l6.76-6.76a7.18,7.18,0,0,0,0-10.13l-6.29-6.29a42.36,42.36,0,0,0,3.64-8.78h8.89a7.17,7.17,0,0,0,7.17-7.17h0v-9.55A7.17,7.17,0,0,0,245.4,170.94Z" transform="translate(-28.95 -61.19)" fill="#fcd116"/>
      <path d="M237.37,167.93h-8.89a43,43,0,0,0-3.64-8.79l6.29-6.28a7.17,7.17,0,0,0,0-10.13h0L224.37,136a7.18,7.18,0,0,0-10.13,0l-6.3,6.29a42.14,42.14,0,0,0-8.78-3.64v-8.9a7.15,7.15,0,0,0-7.16-7.16h-9.55a7.16,7.16,0,0,0-7.17,7.16v8.9a42.91,42.91,0,0,0-8.78,3.64L160.21,136a7.18,7.18,0,0,0-10.13,0l-6.76,6.76a7.17,7.17,0,0,0,0,10.13h0l6.29,6.29a42.36,42.36,0,0,0-3.64,8.78h-8.89a7.17,7.17,0,0,0-7.17,7.16v9.56a7.17,7.17,0,0,0,7.17,7.16H146a42.14,42.14,0,0,0,3.64,8.78l-6.3,6.3a7.18,7.18,0,0,0,0,10.13l6.76,6.76a7.39,7.39,0,0,0,10.13,0l6.3-6.29a43,43,0,0,0,8.78,3.65V230a7.16,7.16,0,0,0,7.17,7.16H192a7.15,7.15,0,0,0,7.16-7.16v-8.88a43,43,0,0,0,8.79-3.65l6.29,6.29a7.16,7.16,0,0,0,10.13,0l6.76-6.75a7.18,7.18,0,0,0,0-10.13l-6.29-6.29a42.44,42.44,0,0,0,3.64-8.79h8.89a7.17,7.17,0,0,0,7.17-7.16h0v-9.56A7.17,7.17,0,0,0,237.37,167.93Zm-50.15,35.82a23.88,23.88,0,1,1,23.88-23.88A23.88,23.88,0,0,1,187.22,203.75Z" transform="translate(-28.95 -61.19)" fill="none" stroke="#000" stroke-miterlimit="10" stroke-width="0.49"/>
    </g>
    <g>
      <path d="M316.72,136.54h-4.29a21.2,21.2,0,0,0-1.76-4.24l3-3a3.46,3.46,0,0,0,0-4.89h0l-3.26-3.26a3.46,3.46,0,0,0-4.89,0l-3,3a19.67,19.67,0,0,0-4.24-1.76v-4.3a3.45,3.45,0,0,0-3.45-3.45h-4.61a3.46,3.46,0,0,0-3.46,3.45v4.3a21,21,0,0,0-4.24,1.76l-3-3a3.46,3.46,0,0,0-4.89,0l-3.26,3.26a3.46,3.46,0,0,0,0,4.89h0l3,3a20.88,20.88,0,0,0-1.76,4.23h-4.29a3.46,3.46,0,0,0-3.46,3.46v4.61a3.46,3.46,0,0,0,3.46,3.46h4.29a21.2,21.2,0,0,0,1.76,4.24l-3,3a3.45,3.45,0,0,0,0,4.88l3.26,3.26a3.55,3.55,0,0,0,4.89,0l3-3a20.73,20.73,0,0,0,4.24,1.76v4.29a3.45,3.45,0,0,0,3.46,3.45h4.61a3.44,3.44,0,0,0,3.45-3.45v-4.29a20.73,20.73,0,0,0,4.24-1.76l3,3a3.46,3.46,0,0,0,4.89,0l3.26-3.26a3.46,3.46,0,0,0,0-4.89l-3-3a20.73,20.73,0,0,0,1.76-4.24h4.29a3.46,3.46,0,0,0,3.46-3.46h0V140A3.46,3.46,0,0,0,316.72,136.54Z" transform="translate(-28.95 -61.19)" fill="#f8842c"/>
      <path d="M312.85,135.09h-4.3a20.15,20.15,0,0,0-1.75-4.24l3-3a3.45,3.45,0,0,0,0-4.88h0l-3.26-3.25a3.46,3.46,0,0,0-4.89,0l-3,3a20.88,20.88,0,0,0-4.23-1.76v-4.29a3.46,3.46,0,0,0-3.46-3.46h-4.61a3.46,3.46,0,0,0-3.46,3.46v4.29a20.88,20.88,0,0,0-4.23,1.76l-3-3a3.46,3.46,0,0,0-4.89,0l-3.26,3.26a3.46,3.46,0,0,0,0,4.89h0l3,3a19.88,19.88,0,0,0-1.76,4.24h-4.29a3.46,3.46,0,0,0-3.46,3.46v4.61a3.46,3.46,0,0,0,3.46,3.45h4.29a19.67,19.67,0,0,0,1.76,4.24l-3,3a3.46,3.46,0,0,0,0,4.89l3.25,3.26a3.57,3.57,0,0,0,4.9,0l3-3a20.09,20.09,0,0,0,4.24,1.76v4.29a3.46,3.46,0,0,0,3.46,3.46H291a3.46,3.46,0,0,0,3.46-3.46v-4.29a20.6,20.6,0,0,0,4.24-1.75l3,3a3.46,3.46,0,0,0,4.89,0l3.26-3.26a3.46,3.46,0,0,0,0-4.89l-3-3a20.6,20.6,0,0,0,1.75-4.24h4.3a3.45,3.45,0,0,0,3.45-3.46h0v-4.61A3.45,3.45,0,0,0,312.85,135.09Zm-24.2,17.28a11.52,11.52,0,1,1,11.52-11.52A11.52,11.52,0,0,1,288.65,152.37Z" transform="translate(-28.95 -61.19)" fill="none" stroke="#000" stroke-miterlimit="10" stroke-width="0.49"/>
    </g>
    <g>
      <path d="M380.08,384.41a4.79,4.79,0,0,1,1.43-3.42c5.46-5.42,25.2-25,34.29-34a9.66,9.66,0,0,0,2.84-6.84V271.26a4.82,4.82,0,0,0-4.82-4.82,4.74,4.74,0,0,0-1.59.27c-7,2.47-17.35,13.39-17.68,56.19a4.81,4.81,0,0,1-1.42,3.37l-21.28,21.29a2.41,2.41,0,0,1-4.06-2.24l4.76-20.75c3.31-13.87-9.36-19.78-16.27-9.05a226.37,226.37,0,0,0-14.75,38.18v41a2.4,2.4,0,0,0,2.41,2.41h33.73a2.4,2.4,0,0,0,2.41-2.41Z" transform="translate(-28.95 -61.19)" fill="#fcd116"/>
      <path d="M376.08,380.41a4.79,4.79,0,0,1,1.43-3.42c5.46-5.42,25.2-25,34.29-34a9.66,9.66,0,0,0,2.84-6.84V267.26a4.82,4.82,0,0,0-4.82-4.82,4.74,4.74,0,0,0-1.59.27c-7,2.47-17.35,13.39-17.68,56.19a4.81,4.81,0,0,1-1.42,3.37l-21.28,21.29a2.41,2.41,0,0,1-4.06-2.24l4.76-20.75c3.31-13.87-9.36-19.78-16.27-9.05a226.37,226.37,0,0,0-14.75,38.18v41a2.4,2.4,0,0,0,2.41,2.41h33.73a2.4,2.4,0,0,0,2.41-2.41Z" transform="translate(-28.95 -61.19)" fill="none" stroke="#000" stroke-miterlimit="10"/>
      <path d="M103.65,397.15a2.4,2.4,0,0,0,2.4-2.41v-41A226.37,226.37,0,0,0,91.3,315.52c-6.91-10.73-19.58-4.82-16.27,9.05l4.75,20.75a2.41,2.41,0,0,1-4,2.24L54.45,326.27A4.81,4.81,0,0,1,53,322.94c-.31-42.8-10.6-53.72-17.68-56.19a4.82,4.82,0,0,0-6.14,3A5.05,5.05,0,0,0,29,271.3v68.48a9.67,9.67,0,0,0,3.18,7.16c10,9,28.91,28.69,34,34.1a4.82,4.82,0,0,1,1.34,3.33v10.41a2.41,2.41,0,0,0,2.41,2.41Z" transform="translate(-28.95 -61.19)" fill="#fcd116"/>
      <path d="M107.65,393.15a2.4,2.4,0,0,0,2.4-2.41v-41A226.37,226.37,0,0,0,95.3,311.52c-6.91-10.73-19.58-4.82-16.27,9.05l4.75,20.75a2.41,2.41,0,0,1-4,2.24L58.45,322.27A4.81,4.81,0,0,1,57,318.94c-.31-42.8-10.6-53.72-17.68-56.19a4.82,4.82,0,0,0-6.14,3A5.05,5.05,0,0,0,33,267.3v68.48a9.67,9.67,0,0,0,3.18,7.16c10,9,28.91,28.69,34,34.1a4.82,4.82,0,0,1,1.34,3.33v10.41a2.41,2.41,0,0,0,2.41,2.41Z" transform="translate(-28.95 -61.19)" fill="none" stroke="#000" stroke-miterlimit="10"/>
    </g>
  </g>
</svg>
