<?xml version="1.0" encoding="utf-8"?>
<!-- Generator: Adobe Illustrator 25.4.1, SVG Export Plug-In . SVG Version: 6.00 Build 0)  -->
<svg version="1.1" id="Layer_1" xmlns="http://www.w3.org/2000/svg" xmlns:xlink="http://www.w3.org/1999/xlink" x="0px" y="0px"
	 width="318.2px" height="279px" viewBox="0 0 318.2 279" style="enable-background:new 0 0 318.2 279;" xml:space="preserve">
<style type="text/css">
	.st0{fill:#FCD116;}
	.st1{fill:none;stroke:#F8842C;stroke-width:5.9419;stroke-linecap:round;stroke-linejoin:round;stroke-miterlimit:10;}
	.st2{fill:none;stroke:#000000;stroke-width:2;stroke-linecap:round;stroke-linejoin:round;stroke-miterlimit:10;}
	.st3{fill:none;stroke:#F8842C;stroke-width:6.6021;stroke-linecap:round;stroke-linejoin:round;stroke-miterlimit:10;}
</style>
<g id="adress_book_x2F_directory_2_">
	<path class="st0" d="M74.7,61.5V42.4c0-8.5,6.9-15.3,15.3-15.3h160.7c8.5,0,15.3,6.9,15.3,15.3l0,206.6c0,8.5-6.9,15.3-15.3,15.3
		l-160.7,0c-8.5,0-15.3-6.9-15.3-15.3v-26.8"/>
	<g>
		<path class="st1" d="M268.9,45.2h3.8c4.2,0,7.7,3.4,7.7,7.7v26.8c0,4.2-3.4,7.7-7.7,7.7h-3.8"/>
		<path class="st1" d="M268.9,110.2h3.8c4.2,0,7.7,3.4,7.7,7.7v26.8c0,4.2-3.4,7.7-7.7,7.7h-3.8"/>
	</g>
	<g>
		<path class="st2" d="M271.1,39.7h3.8c4.2,0,7.7,3.4,7.7,7.7v26.8c0,4.2-3.4,7.7-7.7,7.7h-3.8"/>
		<path class="st2" d="M271.1,104.7h3.8c4.2,0,7.7,3.4,7.7,7.7v26.8c0,4.2-3.4,7.7-7.7,7.7h-3.8"/>
	</g>
	<g>
		<g>
			<path class="st3" d="M54.8,221.9c-10.6,0-19.1-6.9-19.1-15.3s8.6-15.3,19.1-15.3s19.1,6.9,19.1,15.3"/>
			<path class="st3" d="M54.8,153c-10.6,0-19.1-6.9-19.1-15.3c0-8.5,8.6-15.3,19.1-15.3s19.1,6.9,19.1,15.3"/>
			<path class="st3" d="M54.8,84.2c-10.6,0-19.1-6.9-19.1-15.3s8.6-15.3,19.1-15.3s19.1,6.9,19.1,15.3"/>
		</g>
		<g>
			<path class="st2" d="M59.9,217.5c-10.6,0-19.1-6.9-19.1-15.3s8.6-15.3,19.1-15.3S79,193.8,79,202.2"/>
			<path class="st2" d="M59.9,148.7c-10.6,0-19.1-6.9-19.1-15.3s8.6-15.3,19.1-15.3S79,124.9,79,133.4"/>
			<path class="st2" d="M59.9,79.8c-10.6,0-19.1-6.9-19.1-15.3s8.6-15.3,19.1-15.3S79,56,79,64.5"/>
		</g>
		<line class="st2" x1="59.9" y1="141" x2="59.9" y2="186.9"/>
		<line class="st2" x1="59.9" y1="72.1" x2="59.9" y2="118.1"/>
		<path class="st2" d="M59.9,49.2V30.1c0-8.5,6.9-15.3,15.3-15.3h160.7c8.5,0,15.3,6.9,15.3,15.3l0,206.6c0,8.5-6.9,15.3-15.3,15.3
			l-160.7,0c-8.5,0-15.3-6.9-15.3-15.3v-26.8"/>
	</g>
	<g>
		<path class="st2" d="M178.5,110.4v38.3c0.3,15.5,37.7,22.5,37.9-19.5c0-0.7,0-1.3,0-2c-0.5-21.8-17.2-41-39.8-45.8
			c-23.2-5-48.4,5.4-59.6,26.5c-12.2,22.9-8.4,54.5,13.2,70.3c12.3,9,27.9,12.5,43.2,12.4"/>
		<path class="st2" d="M178.5,114.2c-7.3-2.4-16.2-4.1-23.3-1.1c-13.1,5.5-18.3,20.5-14.7,32.1c1.8,5.9,6.8,11.3,13.6,13.2
			c13.6,3.8,20.6-2.2,24.5-9.8"/>
	</g>
</g>
</svg>
