<svg xmlns="http://www.w3.org/2000/svg" width="324.83" height="320.05">
  <g id="Ebene_2" data-name="Ebene 2">
    <g id="Layer_17" data-name="Layer 17">
      <g id="_6R_s" data-name="6R's">
        <path d="M96.62 163l149 .47M245.62 280.83a78.26 78.26 0 01-78.26-78.26v-78.26a78.26 78.26 0 0178.26-78.26" fill="none" stroke="#fcd116" stroke-linecap="round" stroke-linejoin="round" stroke-width="8px"/>
        <rect width="65.22" height="65.22" x="21.83" y="133.83" fill="#5cbbff" stroke="#5cbbff" rx="13.04" stroke-linecap="round" stroke-linejoin="round" stroke-width="8px"/>
        <rect width="65.22" height="65.22" x="255.61" y="133.83" fill="#5cbbff" stroke="#5cbbff" rx="13.04" stroke-linecap="round" stroke-linejoin="round" stroke-width="8px"/>
        <rect width="65.22" height="65.22" x="255.58" y="16.83" fill="#5cbbff" stroke="#5cbbff" rx="13.04" stroke-linecap="round" stroke-linejoin="round" stroke-width="8px"/>
        <rect width="65.22" height="65.22" x="255.58" y="250.83" fill="#5cbbff" stroke="#5cbbff" rx="13.04" stroke-linecap="round" stroke-linejoin="round" stroke-width="8px"/>
        <path d="M67 151.8h169.58M236.6 269.19a78.26 78.26 0 01-78.27-78.26v-78.26a78.26 78.26 0 0178.27-78.26" fill="none" stroke-linecap="round" stroke-linejoin="round" stroke="#111" stroke-width="3.6px"/>
        <rect width="65.22" height="65.22" x="1.8" y="119.19" stroke="#111" stroke-width="3.6px" rx="13.04" fill="none" stroke-linecap="round" stroke-linejoin="round"/>
        <rect width="65.22" height="65.22" x="236.58" y="119.19" stroke="#111" stroke-width="3.6px" rx="13.04" fill="none" stroke-linecap="round" stroke-linejoin="round"/>
        <rect width="65.22" height="65.22" x="236.58" y="236.58" stroke="#111" stroke-width="3.6px" rx="13.04" fill="none" stroke-linecap="round" stroke-linejoin="round"/>
        <rect width="65.22" height="65.22" x="236.58" y="1.8" stroke="#111" stroke-width="3.6px" rx="13.04" fill="none" stroke-linecap="round" stroke-linejoin="round"/>
      </g>
    </g>
  </g>
</svg>