
<svg xmlns="http://www.w3.org/2000/svg" xmlns:xlink="http://www.w3.org/1999/xlink" width="480.2" height="376.4" overflow="visible" viewBox="0 0 480.2 376.4">
  <g id="Cloud_Data_Transfer_1_">
    <path fill="#0072c6" d="M429.1 262.7c32.1-14.8 52.2-47.4 51.1-82.8-.8-53.2-44.5-95.7-97.7-94.9-1.2 0-2.4.1-3.6.1-23.3-46.8-71.3-76.3-123.6-76C184 8.1 124.2 62.8 118.8 134c-39.3-8.6-78.1 16.2-86.7 55.5-1 4.7-1.6 9.4-1.7 14.2-1.7 31.9 19.9 60.3 51.1 67.1"/>
    <path d="M370 270.9l-57-57v156.8m-57-99.8l57-57" style="fill:none;stroke:#f8842c;stroke-width:11.4175;stroke-linecap:round;stroke-linejoin:round;"/>
    <path d="M383 265.8l-60-59.9v164.8m-59.9-104.9l59.9-59.9" style="fill:none;stroke:#000000;stroke-width:2;stroke-linecap:round;stroke-linejoin:round;"/>
    <path d="M132.9 309.7l57 57V209.9m57.1 99.8l-57 57" style="fill:none;stroke:#f8842c;stroke-width:11.4175;stroke-linecap:round;stroke-linejoin:round;"/>
    <path d="M120 314.8l59.9 59.9V209.9m60 104.9L180 374.7" style="fill:none;stroke:#000000;stroke-width:2;stroke-linecap:round;stroke-linejoin:round;"/>
    <path d="M399.7 254.6c32.1-14.8 52.2-47.4 51.1-82.8-.8-53.2-44.5-95.7-97.7-94.9-1.2 0-2.4.1-3.6.1C326.3 30.2 278.3.7 226 1 154.7 0 94.9 54.7 89.6 125.9c-39.3-8.6-78.1 16.2-86.7 55.5-1 4.7-1.6 9.4-1.7 14.2-1.7 31.9 19.9 60.3 51.1 67.1" style="fill:none;stroke:#000000;stroke-width:2;stroke-linecap:round;stroke-linejoin:round;"/>
  </g>
</svg>