<svg xmlns="http://www.w3.org/2000/svg" width="77.75" height="79.16" viewBox="0 0 77.75 79.16"><g id="Layer_2" data-name="Layer 2"><g id="Layer_1-2" data-name="Layer 1"><path d="M5,20.79c0-1.88,0-3.75,0-5.62,0-.94.29-1.26,1.25-1.41a65.49,65.49,0,0,0,25-9.56,18.21,18.21,0,0,1,20.25,0,65.86,65.86,0,0,0,25,9.59c.84.14,1.3.3,1.33,1.33.44,12.32-1.7,24.09-7.38,35.11A67.3,67.3,0,0,1,42.7,78.73a2.51,2.51,0,0,1-2.8,0Q12.62,63.14,6.13,32.39A58.76,58.76,0,0,1,5,20.79Z" fill="#e44418"/><path d="M.18,19.84c0-1.88,0-3.75,0-5.62,0-.94.29-1.26,1.25-1.41a65.49,65.49,0,0,0,25-9.56,18.21,18.21,0,0,1,20.25,0,65.87,65.87,0,0,0,25,9.59c.84.14,1.31.3,1.34,1.33.44,12.32-1.71,24.09-7.38,35.11A67.32,67.32,0,0,1,37.92,77.78a2.51,2.51,0,0,1-2.79,0Q7.83,62.19,1.36,31.44A58.76,58.76,0,0,1,.18,19.84Z" fill="none" stroke="#000" stroke-miterlimit="10" stroke-width="0.32"/><path d="M19.71,24.57l-6,2.23v6.66l.74-.29,1-.39.27-.11V30c0-1.86,0-2.69,0-2.7s3.9-.94,3.9-.93,0,7.92,0,7.92l-2.93-.4-2.93-.4,2.91,1.08c1.61.6,2.93,1.08,3,1.08l1.66-.44L23,34.72l0-4.59V25.5L21.37,25Zm15.74,1.75a1.39,1.39,0,0,0-.7.15,1.45,1.45,0,0,0-.73.86,2.12,2.12,0,0,0-.08.84v.51h-.8v.66h.77v4.11h.77V29.34h1.84v4.11h.77V29.34H38.4v-.66H37.28v-.41a2,2,0,0,1,.13-.95.64.64,0,0,1,.48-.36,1.17,1.17,0,0,1,.64.07l.06,0v-.69h-.07a1.46,1.46,0,0,0-.46-.05,1.39,1.39,0,0,0-.7.14,1.48,1.48,0,0,0-.73.86,2.45,2.45,0,0,0-.08.85v.52H34.67v-.4a2.07,2.07,0,0,1,.12-1,.69.69,0,0,1,.48-.36,1.16,1.16,0,0,1,.64.07l.07,0v-.67l-.07,0a1.46,1.46,0,0,0-.46-.05Zm4,.19a.48.48,0,0,0-.42.27.5.5,0,0,0,.08.57.56.56,0,0,0,.24.13.5.5,0,0,0,.58-.67.52.52,0,0,0-.4-.3Zm13.07.17h-.18a2.75,2.75,0,0,0-1.11.27l-.18.1v.68l.14-.1a2.13,2.13,0,0,1,1.15-.38c.77,0,1.23.27,1.33.86a1.17,1.17,0,0,1-1,1.5,3.31,3.31,0,0,1-.8.06h-.38v.66H52s.5,0,.64,0a1.92,1.92,0,0,1,.85.31,1.27,1.27,0,0,1,.27.3,1.43,1.43,0,0,1,.08,1.15,1.27,1.27,0,0,1-.79.69,2.42,2.42,0,0,1-1.2,0,2.68,2.68,0,0,1-1-.44l0,0,0,.41v.41l.15.08a2.61,2.61,0,0,0,1,.26,6.26,6.26,0,0,0,.75,0,2.48,2.48,0,0,0,.81-.24,1.86,1.86,0,0,0,.89-.88,1.81,1.81,0,0,0,.18-.91,1.44,1.44,0,0,0-.15-.64A1.68,1.68,0,0,0,53.22,30l-.1,0,.13-.05a2.11,2.11,0,0,0,.46-.21,1.7,1.7,0,0,0,.33-.27,1.56,1.56,0,0,0,.38-.82,3.42,3.42,0,0,0,0-.64,1.48,1.48,0,0,0-.8-1.07,2.33,2.33,0,0,0-1.06-.22Zm-23,0a3.94,3.94,0,0,0-.9.1,2.85,2.85,0,0,0-1.24.62,3.32,3.32,0,0,0-1.07,2.1,5.08,5.08,0,0,0,0,1.56,3.2,3.2,0,0,0,1,1.8,2.92,2.92,0,0,0,1.13.59c.2,0,.39.08.59.1a6.43,6.43,0,0,0,.76,0,2.89,2.89,0,0,0,2.13-1.29,4.78,4.78,0,0,0,.32-.64,4.57,4.57,0,0,0,.22-.94,3.75,3.75,0,0,0,0-.61,3.21,3.21,0,0,0-.08-.9,2.93,2.93,0,0,0-2.26-2.39,3.08,3.08,0,0,0-.68-.08Zm28.63,0a2.19,2.19,0,0,0-.66.07,2.27,2.27,0,0,0-1.18.75,3.8,3.8,0,0,0-.78,1.64,6.69,6.69,0,0,0,0,2.48,3.36,3.36,0,0,0,.28.81,1.88,1.88,0,0,0,1.53,1.11,3.16,3.16,0,0,0,.61,0,2,2,0,0,0,1-.46,2.15,2.15,0,0,0,.67-1.17,3,3,0,0,0,0-1.11,1.82,1.82,0,0,0-1-1.32,2,2,0,0,0-1.73,0,1.65,1.65,0,0,0-.59.61l-.06.12a0,0,0,0,1,0,0,2.8,2.8,0,0,1,0-.73,2.37,2.37,0,0,1,1.42-2.11,1.42,1.42,0,0,1,.56-.06,2,2,0,0,1,.89.2l.11,0v-.71l-.08,0a2.71,2.71,0,0,0-1-.15Zm4.1.11H60.79s-.23,3.31-.23,3.31a.59.59,0,0,0,.14,0,7.84,7.84,0,0,1,1.45,0,1.47,1.47,0,0,1,1,.51,1.24,1.24,0,0,1,.27.85,1.34,1.34,0,0,1-.66,1.2,2.08,2.08,0,0,1-1.77.06,3.58,3.58,0,0,1-.48-.24l0,0v.81l.12.06a2,2,0,0,0,.43.14,4.58,4.58,0,0,0,.55.07,2.91,2.91,0,0,0,1.61-.31A2,2,0,0,0,64.09,32a2.52,2.52,0,0,0,0-1.42,1.88,1.88,0,0,0-1.54-1.15,3.64,3.64,0,0,0-.84,0,3.41,3.41,0,0,1-.35,0s.11-1.69.13-1.86v-.08h2.41V26.8Zm-32.83.58a2.59,2.59,0,0,1,.56.05,2.17,2.17,0,0,1,1.67,1.78,4.45,4.45,0,0,1,0,1.89,2.16,2.16,0,0,1-1.95,1.74,3.21,3.21,0,0,1-.62,0,2.38,2.38,0,0,1-2-2.36,5,5,0,0,1,0-.87,2.93,2.93,0,0,1,.51-1.32,2.68,2.68,0,0,1,.5-.51,2.42,2.42,0,0,1,.77-.34,2.2,2.2,0,0,1,.53-.06Zm13.66,1.21h-.24a2.33,2.33,0,0,0-1.23.39,2.4,2.4,0,0,0-1,1.78,4,4,0,0,0,0,.92A2.31,2.31,0,0,0,41.35,33a2.19,2.19,0,0,0,1.39.59,4.05,4.05,0,0,0,.59,0,2.36,2.36,0,0,0,.74-.23l.14-.08V32.5l-.11.08a1.91,1.91,0,0,1-.69.29,2,2,0,0,1-.64,0,1.5,1.5,0,0,1-.83-.39,1.74,1.74,0,0,1-.5-1.19,2.23,2.23,0,0,1,.2-1.17,1.69,1.69,0,0,1,.55-.63,1.45,1.45,0,0,1,1-.26,1.85,1.85,0,0,1,.94.29l.11.06s0-.17,0-.38v-.39l-.12,0a2.36,2.36,0,0,0-1-.2Zm3.77,0a2.06,2.06,0,0,0-1.34.52,2.56,2.56,0,0,0-.8,1.62,7.72,7.72,0,0,0,0,.83A2.32,2.32,0,0,0,45.44,33a1.7,1.7,0,0,0,.68.44,2.43,2.43,0,0,0,.63.12,5.24,5.24,0,0,0,.67,0,2.86,2.86,0,0,0,1.09-.37l.08-.06v-.71l-.16.11a2.24,2.24,0,0,1-1.32.41A1.49,1.49,0,0,1,46,32.53a1.64,1.64,0,0,1-.47-1.16v-.11h3.36v-.35c0-.2,0-.42,0-.51a2.13,2.13,0,0,0-.58-1.3,1.71,1.71,0,0,0-1.17-.5Zm-7.8.09v4.77h.77V28.68h-.77Zm7.8.55H47a1,1,0,0,1,.72.28,1.37,1.37,0,0,1,.39,1v.11H45.55v-.05a1.77,1.77,0,0,1,.44-.92,1.22,1.22,0,0,1,.93-.41Zm10.7.7a1.13,1.13,0,0,1,.86.31,1.18,1.18,0,0,1,.33.55,1.82,1.82,0,0,1,.09.56,1.65,1.65,0,0,1-.07.61,1.25,1.25,0,0,1-.89.91,1.56,1.56,0,0,1-.53,0,2.72,2.72,0,0,1-.37-.13,1.59,1.59,0,0,1-.65-.84,1.78,1.78,0,0,1-.1-.59,1.4,1.4,0,0,1,.08-.57,1.38,1.38,0,0,1,.74-.76,1.09,1.09,0,0,1,.51-.08Z" fill="#fff"/></g></g></svg>