<svg xmlns="http://www.w3.org/2000/svg" width="108.39" height="78.01" viewBox="0 0 108.39 78.01"><g id="Layer_2" data-name="Layer 2"><g id="Layer_1-2" data-name="Layer 1"><g id="cloud-upload"><path id="Shape" d="M62.08,69.87a213.85,213.85,0,0,0,25.33-1.7A20.95,20.95,0,1,0,75.53,30,32.22,32.22,0,1,0,37.46,67.53,197.59,197.59,0,0,0,62.08,69.87Z" fill="#fcd116"/><path id="Shape-6" d="M71.13,64.65H76A21,21,0,1,0,64.09,26.47,32.23,32.23,0,1,0,26,64" fill="none" stroke="#000520" stroke-linecap="round" stroke-linejoin="round" stroke-width="0.37"/></g><path d="M29.77,45.1c0-1.05,0-2.11,0-3.17,0-.52.17-.71.71-.79a36.76,36.76,0,0,0,14.07-5.39,10.26,10.26,0,0,1,11.41,0A37.17,37.17,0,0,0,70,41.14c.47.08.73.17.75.75a39.3,39.3,0,0,1-4.16,19.79A37.94,37.94,0,0,1,51.05,77.77a1.4,1.4,0,0,1-1.57,0,37.87,37.87,0,0,1-19-26.13A33.36,33.36,0,0,1,29.77,45.1Z" fill="#0072c6"/></g></g></svg>