<svg id="Layer_46" data-name="Layer 46" xmlns="http://www.w3.org/2000/svg" width="310.48" height="265.09" viewBox="0 0 310.48 265.09">
  <path d="M352.67,280.72a57.86,57.86,0,0,0,33.56-54.35,63.24,63.24,0,0,0-64.16-62.29c-.78,0-1.56,0-2.33.08a90,90,0,0,0-81.16-50,88.66,88.66,0,0,0-89.6,82,47.82,47.82,0,0,0-58,45.76,42.77,42.77,0,0,0,33.56,44" transform="translate(-75.78 -105.1)" fill="#acd653"/>
  <path d="M338.67,272.72a57.86,57.86,0,0,0,33.56-54.35,63.24,63.24,0,0,0-64.16-62.29c-.78,0-1.56,0-2.33.08a90,90,0,0,0-81.16-50,88.66,88.66,0,0,0-89.6,82,47.82,47.82,0,0,0-58,45.76,42.77,42.77,0,0,0,33.56,44" transform="translate(-75.78 -105.1)" fill="none" stroke="#000" stroke-linecap="round" stroke-linejoin="round" stroke-width="2.18"/>
  <g>
    <path d="M320,317.33v45.81a7,7,0,0,1-7,7.05H242.5a7,7,0,0,1-7.05-7.05V317.33" transform="translate(-75.78 -105.1)" fill="#fcd116"/>
    <path d="M320,317.33v-3.52a7.05,7.05,0,0,0-7-7.05H242.5a7.05,7.05,0,0,0-7.05,7.05v3.52l36.65,22.93a10.59,10.59,0,0,0,11.21,0Z" transform="translate(-75.78 -105.1)" fill="#fcd116"/>
    <path d="M277.74,225.71a17.62,17.62,0,0,0-17.62-17.62H175.54a17.62,17.62,0,0,0,0,35.24h84.58A17.62,17.62,0,0,0,277.74,225.71Z" transform="translate(-75.78 -105.1)" fill="#fcd116"/>
    <path d="M277.74,261a17.62,17.62,0,0,0-17.62-17.62H175.54a17.62,17.62,0,0,0,0,35.24h84.58A17.62,17.62,0,0,0,277.74,261Z" transform="translate(-75.78 -105.1)" fill="#fcd116"/>
    <path d="M274.22,285.62a17.62,17.62,0,0,0-14.1-7.05H175.54a17.62,17.62,0,0,0,0,35.24h38.77" transform="translate(-75.78 -105.1)" fill="#fcd116"/>
  </g>
  <g>
    <path d="M311,312.33v45.81a7,7,0,0,1-7,7.05H233.5a7,7,0,0,1-7.05-7.05V312.33" transform="translate(-75.78 -105.1)" fill="none" stroke="#000" stroke-linecap="round" stroke-linejoin="round" stroke-width="2.18"/>
    <path d="M311,312.33v-3.52a7.05,7.05,0,0,0-7-7.05H233.5a7.05,7.05,0,0,0-7.05,7.05v3.52l36.65,22.93a10.59,10.59,0,0,0,11.21,0Z" transform="translate(-75.78 -105.1)" fill="none" stroke="#000" stroke-linecap="round" stroke-linejoin="round" stroke-width="2.18"/>
    <line x1="108.38" y1="238.94" x2="129.53" y2="238.94" fill="none" stroke="#000" stroke-linecap="round" stroke-linejoin="round" stroke-width="2.18"/>
    <line x1="129.53" y1="203.7" x2="129.53" y2="238.94" fill="none" stroke="#000" stroke-linecap="round" stroke-linejoin="round" stroke-width="2.18"/>
    <path d="M168.31,340.52a1.77,1.77,0,1,0,1.76,1.77,1.77,1.77,0,0,0-1.76-1.77h0" transform="translate(-75.78 -105.1)" fill="none" stroke="#000" stroke-linecap="round" stroke-linejoin="round" stroke-width="2.18"/>
    <path d="M150.69,340.52a1.77,1.77,0,1,0,1.76,1.77,1.77,1.77,0,0,0-1.76-1.77h0" transform="translate(-75.78 -105.1)" fill="none" stroke="#000" stroke-linecap="round" stroke-linejoin="round" stroke-width="2.18"/>
    <path d="M175.35,219a1.76,1.76,0,1,0,1.77,1.76,1.76,1.76,0,0,0-1.77-1.76h0" transform="translate(-75.78 -105.1)" fill="none" stroke="#000" stroke-linecap="round" stroke-linejoin="round" stroke-width="2.18"/>
    <path d="M193,219a1.76,1.76,0,1,0,1.77,1.76A1.76,1.76,0,0,0,193,219h0" transform="translate(-75.78 -105.1)" fill="none" stroke="#000" stroke-linecap="round" stroke-linejoin="round" stroke-width="2.18"/>
    <path d="M268.74,220.71a17.62,17.62,0,0,0-17.62-17.62H166.54a17.62,17.62,0,0,0,0,35.24h84.58A17.62,17.62,0,0,0,268.74,220.71Z" transform="translate(-75.78 -105.1)" fill="none" stroke="#000" stroke-linecap="round" stroke-linejoin="round" stroke-width="2.18"/>
    <path d="M175.35,254.19a1.76,1.76,0,1,0,1.77,1.76,1.76,1.76,0,0,0-1.77-1.76h0" transform="translate(-75.78 -105.1)" fill="none" stroke="#000" stroke-linecap="round" stroke-linejoin="round" stroke-width="2.18"/>
    <path d="M193,254.19a1.76,1.76,0,1,0,1.77,1.76,1.76,1.76,0,0,0-1.77-1.76h0" transform="translate(-75.78 -105.1)" fill="none" stroke="#000" stroke-linecap="round" stroke-linejoin="round" stroke-width="2.18"/>
    <path d="M268.74,256a17.62,17.62,0,0,0-17.62-17.62H166.54a17.62,17.62,0,0,0,0,35.24h84.58A17.62,17.62,0,0,0,268.74,256Z" transform="translate(-75.78 -105.1)" fill="none" stroke="#000" stroke-linecap="round" stroke-linejoin="round" stroke-width="2.18"/>
    <path d="M175.35,289.43a1.76,1.76,0,1,0,1.77,1.76,1.76,1.76,0,0,0-1.77-1.76h0" transform="translate(-75.78 -105.1)" fill="none" stroke="#000" stroke-linecap="round" stroke-linejoin="round" stroke-width="2.18"/>
    <path d="M193,289.43a1.76,1.76,0,1,0,1.77,1.76,1.76,1.76,0,0,0-1.77-1.76h0" transform="translate(-75.78 -105.1)" fill="none" stroke="#000" stroke-linecap="round" stroke-linejoin="round" stroke-width="2.18"/>
    <path d="M265.22,280.62a17.62,17.62,0,0,0-14.1-7.05H166.54a17.62,17.62,0,0,0,0,35.24h38.77" transform="translate(-75.78 -105.1)" fill="none" stroke="#000" stroke-linecap="round" stroke-linejoin="round" stroke-width="2.18"/>
  </g>
</svg>
