
<svg xmlns="http://www.w3.org/2000/svg" width="344.5" height="350.7" overflow="visible">
  <path fill="#fcd116" d="M21.7 91.9c0-8.3.2-16.6-.1-24.9-.1-4.2 1.3-5.6 5.5-6.2C67 54.6 103.4 40 137.8 18.4 166.7.3 198.6.1 227.6 18.3c34.4 21.6 70.8 36.2 110.7 42.5 3.7.6 5.8 1.3 5.9 5.9 1.9 54.6-7.6 106.8-32.7 155.6-28.1 54.4-68.9 96.6-122.4 126.5-4.5 2.5-7.9 2.6-12.4 0C96 302.7 46.2 234.2 27 143.4c-3.6-17-5.1-34.2-5.3-51.5z"/>
  <path fill="none" stroke="#000" stroke-miterlimit="10" d="M.6 87.7c0-8.3.2-16.6-.1-24.9-.1-4.2 1.3-5.6 5.5-6.2 39.9-6.2 76.3-20.8 110.7-42.4 28.9-18.1 60.8-18.3 89.8-.1 34.4 21.6 70.8 36.2 110.7 42.5 3.7.6 5.8 1.3 5.9 5.9 1.9 54.6-7.6 106.8-32.7 155.6-28.1 54.4-68.9 96.6-122.4 126.5-4.5 2.5-7.9 2.6-12.4 0C74.9 298.5 25.1 230 5.8 139.2 2.2 122.2.7 105 .6 87.7z"/>
  <path fill="#f6fbfc" d="M209.7 100.7c-3.2 6.6-6.1 12.6-9 18.5-3.1 6.3-6.2 12.5-9.5 18.7-1.9 3.6-1.9 5.3 3 5.1 10.9-.3 21.9-.1 32.8-.1.8 0 1.6.1 1.2-.6-29.8 30-59.7 60-89 89.4 4.2-8.4 8.7-17.6 13.3-26.8 4.3-8.6 8.5-17.1 12.8-25.7 2.4-4.8 2.4-4.8-3.2-4.9-7.3 0-14.7-.1-22 0-3 .1-3.6-.7-2.2-3.4 11.4-22.6 22.6-45.2 33.9-67.8.7-1.4 1.5-2.6 3.4-2.6 11.2.3 22.4.2 34.5.2z"/>
</svg>