<svg data-name="Layer 17" xmlns="http://www.w3.org/2000/svg" width="401.92" height="343.2">
    <circle cx="311.87" cy="253.14" r="90.03" fill="#5cbbff"/>
    <circle cx="260.87" cy="232.22" r="9.79" fill="none" stroke="#fff" stroke-linecap="round" stroke-linejoin="round" stroke-width="2"/>
    <circle cx="299.16" cy="240.36" r="9.79" fill="none" stroke="#fff" stroke-linecap="round" stroke-linejoin="round" stroke-width="2"/>
    <circle cx="337.45" cy="248.5" r="9.79" fill="none" stroke="#fff" stroke-linecap="round" stroke-linejoin="round" stroke-width="2"/>
    <circle cx="299.16" cy="240.36" r="90.03" fill="none" stroke="#fff" stroke-linecap="round" stroke-linejoin="round" stroke-width="2"/>
    <path d="m69.18 164.9 57.21 66.89 3.9-50c55.78 1.37 102.61-32.08 106.13-77.26 3.67-47.1-41.09-89-100-93.6s-109.59 29.89-113.26 77a83.83 83.83 0 0 0 46.02 76.97z" fill="#fcd116"/>
    <path d="m47.79 156.22 57.22 66.88 3.9-50c55.78 1.37 102.6-32.08 106.12-77.27 3.67-47.09-41.08-89-100-93.6S5.5 32.1 1.79 79.2a83.86 83.86 0 0 0 46 77.02zM60.89 55.19l99.5 7.75M57.72 97.85l71.07 5.54" fill="none" stroke="#fff" stroke-linecap="round" stroke-linejoin="round" stroke-width="2"/>
</svg>
