<?xml version="1.0" encoding="utf-8"?>
<!-- Generator: Adobe Illustrator 25.4.1, SVG Export Plug-In . SVG Version: 6.00 Build 0)  -->
<svg version="1.1" id="Layer_1" xmlns="http://www.w3.org/2000/svg" xmlns:xlink="http://www.w3.org/1999/xlink" x="0px" y="0px"
	 width="318.2px" height="279px" viewBox="0 0 318.2 279" style="enable-background:new 0 0 318.2 279;" xml:space="preserve">
<style type="text/css">
	.st0{fill:#FCD116;}
	.st1{fill:none;stroke:#000000;stroke-width:2;stroke-linecap:round;stroke-linejoin:round;}
	.st2{fill:none;stroke:#F8842C;stroke-width:6.5553;stroke-linecap:round;stroke-linejoin:round;}
</style>
<path class="st0" d="M268.2,66.5c2,2,3,4.6,3,7.4v180c0,5.7-4.7,10.4-10.4,10.4H83.9c-5.7,0-10.4-4.7-10.4-10.4V35.3
	c0-5.7,4.7-10.4,10.4-10.4h138.3c2.8,0,5.4,1.1,7.4,3L268.2,66.5z"/>
<path class="st1" d="M243.1,56.4c2,2,3,4.6,3,7.4v180c0,5.7-4.7,10.4-10.4,10.4H58.8c-5.7,0-10.4-4.7-10.4-10.4V25.2
	c0-5.7,4.7-10.4,10.4-10.4h138.3c2.8,0,5.4,1.1,7.4,3L243.1,56.4z"/>
<line class="st1" x1="162.9" y1="87.6" x2="204.5" y2="87.6"/>
<line class="st1" x1="162.9" y1="139.6" x2="204.5" y2="139.6"/>
<path class="st2" d="M89.7,93.5l11.3,11.3c2,2,5.3,2,7.4,0c0.2-0.2,0.4-0.4,0.6-0.6l22.4-31.4"/>
<path class="st2" d="M89.7,145.5l11.3,11.3c2,2,5.3,2,7.4,0c0.2-0.2,0.4-0.4,0.6-0.6l22.4-31.4"/>
<path class="st2" d="M89.7,197.5l11.3,11.3c2,2,5.3,2,7.4,0c0.2-0.2,0.4-0.4,0.6-0.6l22.4-31.4"/>
<path class="st1" d="M84.9,90.4l11.3,11.3c2,2,5.3,2,7.4,0c0.2-0.2,0.4-0.4,0.6-0.6l22.4-31.4"/>
<path class="st1" d="M84.9,142.5l11.3,11.3c2,2,5.3,2,7.4,0c0.2-0.2,0.4-0.4,0.6-0.6l22.4-31.4"/>
<path class="st1" d="M84.9,194.5l11.3,11.3c2,2,5.3,2,7.4,0c0.2-0.2,0.4-0.4,0.6-0.6l22.4-31.4"/>
<line class="st1" x1="162.9" y1="191.7" x2="204.5" y2="191.7"/>
</svg>
