<svg data-name="Layer 17" xmlns="http://www.w3.org/2000/svg" width="365.93" height="363.8">
    <rect x="20.8" y="16.8" width="286" height="236.26" rx="12.43" fill="#5cbbff"/>
    <path d="M109.21 287.8a93 93 0 0 0 16.94-49.74M180.39 287.8a93 93 0 0 1-16.94-49.74M88.84 287.8h111.92M1.8 200.76h286" fill="none" stroke="#000" stroke-linecap="round" stroke-linejoin="round" stroke-width="2"/>
    <rect x="1.8" y="1.8" width="286" height="236.26" rx="12.43" fill="none" stroke="#000" stroke-linecap="round" stroke-linejoin="round" stroke-width="2"/>
    <path d="M171.07 178.25a53.59 53.59 0 0 1-21.89-7.71l10.7-37.14a36.24 36.24 0 0 0 23.18 7.54 60.17 60.17 0 0 0 20.23-3.85l-10.31 36a58 58 0 0 1-21.94 5.13M137.09 166.61a36.45 36.45 0 0 0-21.31-7.46 54.36 54.36 0 0 0-20.16 4.57l10.73-37.19a61.28 61.28 0 0 1 21.25-4.9 38.5 38.5 0 0 1 20.6 7.1c-1.43 4.88-8.91 30.38-11.11 37.88zM161.12 75.96c-2.2 7.54-8.73 29.9-10.92 37.33a36.27 36.27 0 0 0-20.6-7.37 56 56 0 0 0-20.81 4.86l10.58-37.12a56.06 56.06 0 0 1 20-4.68 37.9 37.9 0 0 1 21.75 6.98zM185.49 125.61a41.12 41.12 0 0 1-23.06-7.21l-.12-.08 10.85-37.5a36.85 36.85 0 0 0 22.91 7.67 51.53 51.53 0 0 0 20.73-4.74l-10.69 36.82h-.05v.04a47.92 47.92 0 0 1-20.55 4.94" fill="#fff"/>
    <path d="M166.07 172.25a53.59 53.59 0 0 1-21.89-7.71l10.7-37.14a36.24 36.24 0 0 0 23.18 7.54 60.17 60.17 0 0 0 20.23-3.85l-10.31 36a58 58 0 0 1-21.94 5.13M132.09 160.61a36.45 36.45 0 0 0-21.31-7.46 54.36 54.36 0 0 0-20.16 4.57l10.73-37.19a61.28 61.28 0 0 1 21.25-4.9 38.5 38.5 0 0 1 20.6 7.1c-1.43 4.88-8.91 30.38-11.11 37.88zM156.12 69.96h0c-2.2 7.54-8.73 29.9-10.92 37.33a36.27 36.27 0 0 0-20.6-7.37 56 56 0 0 0-20.81 4.86l10.58-37.12a56.06 56.06 0 0 1 20-4.68 37.9 37.9 0 0 1 21.75 6.98zM180.49 119.61a41.12 41.12 0 0 1-23.06-7.21l-.12-.08 10.85-37.5a36.85 36.85 0 0 0 22.91 7.67 51.53 51.53 0 0 0 20.73-4.74l-10.69 36.82h-.05v.04a47.92 47.92 0 0 1-20.55 4.94" fill="none" stroke="#000520" stroke-linecap="round" stroke-linejoin="round" stroke-width="2"/>
</svg>
