<svg data-name="Layer 17" xmlns="http://www.w3.org/2000/svg" width="365.93" height="363.8">
    <g data-name="Layer 28">
        <path d="M342.73 85.09h15.49a7.75 7.75 0 0 1 7.74 7.74v263.23a7.74 7.74 0 0 1-7.74 7.74H17.54a7.74 7.74 0 0 1-7.74-7.74V92.83a7.75 7.75 0 0 1 7.74-7.74h170.33" fill="#5cbbff"/>
        <path d="M224.79 157.14 169.38 173l15.83-55.49L298.34 4.13a7.92 7.92 0 0 1 11.2 0l28.38 28.48a7.94 7.94 0 0 1 0 11.21z" fill="#fcd116"/>
        <path d="M218.58 153.51 164.38 169l15.49-54.2L290.51 4.08a7.74 7.74 0 0 1 11 0h0l27.74 27.76a7.73 7.73 0 0 1 0 11zM179.83 114.75l38.71 38.71" fill="none" stroke="#000" stroke-linecap="round" stroke-linejoin="round" stroke-width="2"/>
        <path d="M334.73 76.09h15.49a7.75 7.75 0 0 1 7.74 7.74v263.23a7.74 7.74 0 0 1-7.74 7.74H9.54a7.74 7.74 0 0 1-7.74-7.74V83.83a7.75 7.75 0 0 1 7.74-7.74h170.33" fill="none" stroke="#000" stroke-linecap="round" stroke-linejoin="round" stroke-width="2"/>
        <path d="M117.93 122.54H55.99a7.75 7.75 0 0 0-7.74 7.75v170.32a7.74 7.74 0 0 0 7.74 7.74h131.62v-54.19a7.73 7.73 0 0 1 7.74-7.74h61.94a7.74 7.74 0 0 1 7.74 7.74v54.19h38.7a7.74 7.74 0 0 0 7.74-7.74V130.29M187.61 277.33h77.42M187.61 308.3h77.42M48.25 199.91h69.68M241.8 215.4h69.68M241.8 184.43h69.68" fill="none" stroke="#000" stroke-linecap="round" stroke-linejoin="round" stroke-width="2"/>
        <path d="M48.25 246.42h54.2a7.74 7.74 0 0 1 7.74 7.74v54.19" fill="none" stroke="#000" stroke-linecap="round" stroke-linejoin="round" stroke-width="2"/>
    </g>
</svg>
