<svg id="Layer_86" data-name="Layer 86" xmlns="http://www.w3.org/2000/svg" width="328.74" height="160.81" viewBox="0 0 328.74 160.81">
  <path d="M268.62,284.23A77.14,77.14,0,0,0,325,315.13a72.16,72.16,0,0,0,0-144.32c-51.54,0-82.46,72.16-82.46,72.16S211.59,315.13,160,315.13a72.16,72.16,0,0,1,0-144.32,77.23,77.23,0,0,1,56.36,31" transform="translate(-75.89 -161.81)" fill="none" stroke="#f8842c" stroke-linecap="round" stroke-linejoin="round" stroke-width="15"/>
  <path d="M257.62,276.23A77.14,77.14,0,0,0,314,307.13a72.16,72.16,0,0,0,0-144.32c-51.54,0-82.46,72.16-82.46,72.16S200.59,307.13,149,307.13a72.16,72.16,0,0,1,0-144.32,77.23,77.23,0,0,1,56.36,31" transform="translate(-75.89 -161.81)" fill="none" stroke="#000" stroke-linecap="round" stroke-linejoin="round" stroke-width="2"/>
</svg>
