
<svg xmlns="http://www.w3.org/2000/svg" width="334.8" height="323.1" overflow="visible">
  <g id="Agenda_Kopie">
    <path fill="#acd653" d="M168.6 208.9c38 0 68.8-30.8 68.8-68.8s-30.8-68.8-68.8-68.8S99.7 102 99.7 140s30.9 68.9 68.9 68.9z"/>
    <path fill="#5cbbff" d="M334.8 19.4c0-10.7-8.7-19.4-19.4-19.4h-272C32.7 0 24 8.8 24 19.5c0 9.6 7.1 17.8 16.6 19.2 1.6.2 2.8 1.6 2.8 3.2v188.4c0 1.5-1.1 2.9-2.6 3.2-7 1.4-11.5 8.3-10.1 15.3 1.2 6 6.5 10.4 12.7 10.4h123c1.8 0 3.2 1.4 3.2 3.2v4.1c0 1-.5 2-1.4 2.6-8.8 6.1-11 18.2-4.8 27 6.1 8.8 18.2 11 27 4.8 8.8-6.1 11-18.2 4.8-27-1.3-1.9-3-3.5-4.8-4.8-.9-.6-1.4-1.6-1.4-2.6v-4.1c0-1.8 1.4-3.2 3.2-3.2h123c7.2 0 13-5.8 13-12.9 0-6.2-4.3-11.5-10.4-12.7-1.5-.3-2.6-1.6-2.6-3.2V41.9c0-1.6 1.2-3 2.8-3.2 9.7-1.4 16.8-9.6 16.8-19.3zm-45.3 210.5c0 1.8-1.4 3.2-3.2 3.2H72.5c-1.8 0-3.2-1.4-3.2-3.2V42.1c0-1.8 1.4-3.2 3.2-3.2h213.7c1.8 0 3.2 1.4 3.2 3.2v187.8z"/>
    <g>
      <path d="M28.9 37.1H286v230H28.9v-230z" fill="none" stroke="#111" stroke-width="2" stroke-linecap="round" stroke-linejoin="round"/>
      <circle cx="157.5" cy="307.8" r="13.5" fill="none" stroke="#111" stroke-width="2" stroke-linecap="round" stroke-linejoin="round"/>
      <path d="M157.5 267.2v27.1M313 23.6c0 7.5-6.1 13.5-13.5 13.5H15.3C7.8 37.1 1.8 31 1.8 23.6s6.1-13.5 13.5-13.5h284.2c7.5 0 13.5 6 13.5 13.5zM15.4 267.2h284.2" fill="none" stroke="#111" stroke-width="2" stroke-linecap="round" stroke-linejoin="round"/>
      <circle cx="157.5" cy="152.1" r="67.7" fill="none" stroke="#111" stroke-width="2" stroke-linecap="round" stroke-linejoin="round"/>
      <path d="M157.5 111.5v40.6h27.1" fill="none" stroke="#111" stroke-width="2" stroke-linecap="round" stroke-linejoin="round"/>
    </g>
  </g>
</svg>