<svg data-name="Layer 17" xmlns="http://www.w3.org/2000/svg" width="309.79" height="274.8">
    <rect x="18.71" y="14.8" width="265.18" height="196" rx="23.06" fill="#fcd116"/>
    <path d="m98.89 70.67 42.78-5.83v41.27l-42.76.24V70.67zm42.76 40.19v41.3l-42.75-5.88v-35.67l42.73.28zm5.19-46.78 56.72-8.28v49.81l-56.72.45V64.08zm56.73 47.17v49.55l-56.72-8-.08-41.64z" fill="#5cbbff"/>
    <path d="M71.45 199.15H25.01A23.21 23.21 0 0 1 1.8 175.94V25.03A23.22 23.22 0 0 1 25.01 1.81h220.56a23.23 23.23 0 0 1 23.22 23.22v145.1M48.23 199.14V1.8" fill="none" stroke="#000" stroke-linecap="round" stroke-linejoin="round" stroke-width="2"/>
    <path d="M27.92 97.61h0a2.89 2.89 0 0 1 2.9 2.88h0a2.9 2.9 0 0 1-2.9 2.91h0a2.91 2.91 0 0 1-2.91-2.91h0a2.9 2.9 0 0 1 2.88-2.9h0" fill="none" stroke="#000" stroke-linecap="round" stroke-linejoin="round" stroke-width="2"/>
    <path d="m183.87 274.8-44.18-53.19a17.425 17.425 0 0 1 26.78-22.3l27.23 32.8V118.09a17.42 17.42 0 0 1 34.83 0v75.46h34.82a46.43 46.43 0 0 1 46.44 46.43v34.82" fill="#acd653"/>
    <path d="m175.87 268.8-44.18-53.19a17.425 17.425 0 0 1 26.78-22.3h0l27.23 32.8V112.09a17.42 17.42 0 0 1 34.83 0v75.46h34.82a46.43 46.43 0 0 1 46.44 46.43v34.82M245.57 83.06v34.82" fill="none" stroke="#000" stroke-linecap="round" stroke-linejoin="round" stroke-width="2"/>
</svg>
