<svg xmlns="http://www.w3.org/2000/svg" viewBox="0 0 530.28 575.37" height="530.28" width="575.37">
  <g id="Ebene_2" data-name="Ebene 2">
    <g id="Layer_17" data-name="Layer 17">
      <g id="Cloud_Data_Transfer" data-name="Cloud Data Transfer">
        <path fill="#0072c6" d="M439.93 262.7A88.12 88.12 0 00491 179.93a96.3 96.3 0 00-97.71-94.87c-1.19 0-2.37.06-3.56.12A137.06 137.06 0 00266.17 9.1 135 135 0 00129.73 134a72.82 72.82 0 00-88.42 69.68 65.13 65.13 0 0051.11 67.09"/>
        <path fill="none" stroke="#f8842c" stroke-linecap="round" stroke-linejoin="round" stroke-width="11.42" d="M210.79 301.68l57 57V201.89m57 99.79l-57 57"/>
        <path d="M197.88 306.77l59.93 59.93V201.89m59.93 104.88l-59.93 59.93" class="cls-3" stroke-width="2px" fill="none" stroke-linecap="round" stroke-linejoin="round" stroke="#000"/>
        <path d="M410.58 254.61a88.12 88.12 0 0051.11-82.77A96.3 96.3 0 00364 77c-1.18 0-2.37.06-3.55.12A137.1 137.1 0 00236.83 1a135 135 0 00-136.45 124.89A72.81 72.81 0 0012 195.58a65.14 65.14 0 0051.11 67.09" class="cls-3" stroke-width="2px" fill="none" stroke-linecap="round" stroke-linejoin="round" stroke="#000"/>
        <path d="M36.18 305.37h118c11.85 0 21.46 8.44 21.46 18.84v75.33c0 10.4-9.61 18.83-21.46 18.83h-118c-11.85 0-21.46-8.43-21.46-18.83v-75.33c0-10.4 9.61-18.84 21.46-18.84z" class="cls-4" fill="#fcd116"/>
        <path d="M108.21 442.37H54.57l5.37-32.18h42.91l5.36 32.18zM38.48 442.37h85.82" class="cls-3" stroke-width="2px" fill="none" stroke-linecap="round" stroke-linejoin="round" stroke="#000"/>
        <path d="M22.39 298.37h118c11.85 0 21.46 8.35 21.46 18.64v74.54c0 10.3-9.61 18.64-21.46 18.64h-118c-11.85 0-21.46-8.34-21.46-18.64V317c0-10.28 9.61-18.63 21.46-18.63z" class="cls-5" stroke-width="1.86px" fill="none" stroke-linecap="round" stroke-linejoin="round" stroke="#000"/>
        <path d="M189.18 437.37h118c11.85 0 21.46 8.44 21.46 18.84v75.33c0 10.4-9.61 18.83-21.46 18.83h-118c-11.85 0-21.46-8.43-21.46-18.83v-75.33c0-10.4 9.61-18.84 21.46-18.84z" class="cls-4" fill="#fcd116"/>
        <path d="M261.21 574.37h-53.64l5.37-32.18h42.91l5.36 32.18zM191.48 574.37h85.82" class="cls-3" stroke-width="2px" fill="none" stroke-linecap="round" stroke-linejoin="round" stroke="#000"/>
        <path d="M175.39 430.37h118c11.85 0 21.46 8.35 21.46 18.64v74.54c0 10.3-9.61 18.64-21.46 18.64h-118c-11.85 0-21.46-8.34-21.46-18.64V449c0-10.28 9.61-18.63 21.46-18.63z" class="cls-5" stroke-width="1.86px" fill="none" stroke-linecap="round" stroke-linejoin="round" stroke="#000"/>
        <path d="M390.82 332.6h118c11.85 0 21.46 8.43 21.46 18.83v75.33c0 10.4-9.61 18.84-21.46 18.84h-118c-11.85 0-21.46-8.44-21.46-18.84v-75.33c0-10.43 9.64-18.83 21.46-18.83z" class="cls-4" fill="#fcd116"/>
        <path d="M462.85 469.6h-53.64l5.36-32.19h42.91l5.37 32.19zM393.12 469.6h85.82" class="cls-3" fill="none" stroke-linecap="round" stroke-linejoin="round" stroke="#000" stroke-width="2px"/>
        <path d="M377 325.6h118c11.85 0 21.46 8.34 21.46 18.63v74.55c0 10.29-9.61 18.63-21.46 18.63H377c-11.85 0-21.46-8.34-21.46-18.63v-74.55c.03-10.29 9.64-18.63 21.46-18.63z" class="cls-5" stroke-width="1.86px" fill="none" stroke-linecap="round" stroke-linejoin="round" stroke="#000"/>
        <path d="M65.23 340.56l18-2.46v17.41l-18.05.11v-15.06zm18 17v17.43l-18.05-2.48V357.4l18 .12zm2.19-19.74l23.94-3.5v21l-23.94.19v-17.7zm23.94 19.9v20.88l-23.94-3.38v-17.58zM218.73 474.05l18.06-2.46V489l-18 .1v-15.05zm18.05 17v17.43l-18-2.48v-15.11l18 .12zm2.22-19.78l23.93-3.5v21L239 489v-17.7zm23.94 19.9v20.91L239 508.71v-17.58zM419.73 367.05l18.06-2.46V382l-18 .1v-15.05zm18 17v17.43l-18-2.48v-15.11l18 .12zm2.27-19.78l23.93-3.5v21L440 382v-17.7zm23.94 19.9v20.91L440 401.71v-17.58z" fill="#fff"/>
      </g>
    </g>
  </g>
</svg>