<svg xmlns="http://www.w3.org/2000/svg" width="77.75" height="79.16">
    <g data-name="Layer 2">
        <g data-name="Layer 1">
            <path d="M5 20.79v-5.62c0-.94.29-1.26 1.25-1.41a65.49 65.49 0 0 0 25-9.56 18.21 18.21 0 0 1 20.25 0 65.86 65.86 0 0 0 25 9.59c.84.14 1.3.3 1.33 1.33.44 12.32-1.7 24.09-7.38 35.11a67.3 67.3 0 0 1-27.75 28.5 2.51 2.51 0 0 1-2.8 0Q12.62 63.14 6.13 32.39A58.76 58.76 0 0 1 5 20.79z" fill="#fcd116"/>
            <path d="M.18 19.84v-5.62c0-.94.29-1.26 1.25-1.41a65.49 65.49 0 0 0 25-9.56 18.21 18.21 0 0 1 20.25 0 65.87 65.87 0 0 0 25 9.59c.84.14 1.31.3 1.34 1.33.44 12.32-1.71 24.09-7.38 35.11a67.32 67.32 0 0 1-27.72 28.5 2.51 2.51 0 0 1-2.79 0Q7.83 62.19 1.36 31.44a58.76 58.76 0 0 1-1.18-11.6z" fill="none" stroke="#000" stroke-miterlimit="10" stroke-width=".32"/>
            <path d="M47.35 22.77c-.73 1.5-1.37 2.84-2 4.17s-1.4 2.83-2.14 4.22c-.44.83-.43 1.19.68 1.16 2.47-.07 4.94 0 7.4 0 .18 0 .36 0 .28-.13L31.46 52.35c.93-1.88 2-4 3-6s1.93-3.86 2.88-5.79c.54-1.09.53-1.1-.73-1.1h-5c-.68 0-.82-.15-.5-.78Q35 31 38.79 23.35c.16-.31.34-.59.77-.58 2.53.01 5.06 0 7.79 0z" fill="#f6fbfc"/>
        </g>
    </g>
</svg>
