<svg xmlns="http://www.w3.org/2000/svg" width="77.7" height="79.11" viewBox="0 0 77.7 79.11"><g id="Layer_2" data-name="Layer 2"><g id="Layer_1-2" data-name="Layer 1"><path d="M4.9,20.74c0-1.87,0-3.75,0-5.62,0-.94.28-1.26,1.24-1.41a65.27,65.27,0,0,0,25-9.56,18.23,18.23,0,0,1,20.25,0,66,66,0,0,0,25,9.6c.84.13,1.3.29,1.34,1.33.43,12.31-1.71,24.08-7.39,35.1A67.25,67.25,0,0,1,42.65,78.68a2.49,2.49,0,0,1-2.79,0Q12.56,63.09,6.09,32.34A58,58,0,0,1,4.9,20.74Z" fill="#0072c6"/><path d="M.13,19.79c0-1.87,0-3.75,0-5.62,0-.94.29-1.26,1.25-1.41a65.49,65.49,0,0,0,25-9.56,18.23,18.23,0,0,1,20.25,0,66,66,0,0,0,25,9.6c.84.13,1.3.29,1.33,1.33.44,12.31-1.7,24.08-7.38,35.1A67.25,67.25,0,0,1,37.88,77.73a2.51,2.51,0,0,1-2.8,0Q7.8,62.14,1.31,31.39A58.68,58.68,0,0,1,.13,19.79Z" fill="none" stroke="#000" stroke-miterlimit="10" stroke-width="0.23"/><path d="M35.68,30.88,40.29,21l.07-.17L36.1,24.39,31.85,28l-3.64,6.31c-2,3.47-3.64,6.31-3.64,6.32h6.58Z" fill="#fff"/><path d="M47.24,32.63c-3.47-6-5.92-10.24-5.92-10.23s-3.62,9.93-3.62,10l3.48,4.15,3.48,4.14H44.6l-6.76,1.2L31.14,43h22.1l0-.08Z" fill="#fff"/></g></g></svg>