
<svg xmlns="http://www.w3.org/2000/svg" xmlns:xlink="http://www.w3.org/1999/xlink" width="100" overflow="visible" viewBox="0 0 605.6 605.3" xml:space="preserve">
  <path fill="#fcd116" d="M480.6 152.1v376.6c0 26.5-21.5 48.1-48.1 48.1H48.1C21.5 576.8 0 555.2 0 528.7V48.1C0 21.5 21.5 0 48.1 0h280.5c12.7 0 25 5.1 34 14.1l104 104c9 9 14 21.2 14 34z"/>
  <circle cx="455.1" cy="454.8" r="149.6" style="fill:none;stroke:#111;stroke-width:1.8853;stroke-linecap:round;stroke-linejoin:round;"/>
  <path d="M521.8 411.3l-72.4 96.6c-6.2 8.3-17.9 9.9-26.2 3.7-.7-.5-1.4-1.1-2-1.7l-37.4-37.4M280.6 604.4H56.3c-13.8 0-24.9-11.2-24.9-24.9V55.9C31.4 42.2 42.5 31 56.3 31h331.4c6.6 0 13 2.6 17.6 7.3l92.4 92.4c4.7 4.7 7.3 11 7.3 17.6v82.1" style="fill:none;stroke:#111;stroke-width:1.8853;stroke-linecap:round;stroke-linejoin:round;"/>
</svg>