
<svg xmlns="http://www.w3.org/2000/svg" viewBox="0 0 475.08 384.61">
  <g id="Ebene_2" data-name="Ebene 2">
    <g id="Layer_17" data-name="Layer 17">
      <g id="Cloud_Data_Transfer" data-name="Cloud Data Transfer">
        <path fill="#5cbbff" d="M398.37 252.25C490.28 211.16 446 65.74 348.2 74.74c-55.87-121.88-253.89-87-260 48.79C.84 103.76-39 237.22 50.86 260.31"/>
        <path fill="#fcd116" d="M467.66 213.87a186.62 186.62 0 00-147.73 0 12.5 12.5 0 00-7.27 11.41c-2.29 60.86-4.48 130.24 63.91 155.63 47.6 20.32 101.84-47.71 98.35-93v-62.63a12.48 12.48 0 00-7.26-11.41z"/>
        <path d="M347.14 253.73c-2 .3-1.88-.65-2.44-2.14h-3.59c-.6 1.54-.41 2.42-2.44 2.14l3.42-8.68h1.64zm-2.85-3.28c-.27-.77-1.2-3.15-1.39-3.91-.17.76-1.11 3.14-1.37 3.91zM355.86 249.39c.19 4.29-4.51 4.63-7.7 4.34v-8.68c3.19-.29 7.89.05 7.7 4.34zm-1.65 0c.2-2.63-2.29-3.35-4.43-3v6.1c2.14.25 4.63-.49 4.43-3.1zM366.81 245.05v8.68h-1.42v-6.33c-3.67 7.07-3 6.9-6.65 0 .08.3 0 5.89.05 6.35h-1.39v-8.68c.4.09 1.56-.23 1.76.26s2.83 5.13 3 5.63c.12-.48 2.65-5.08 2.93-5.63s1.33-.2 1.72-.28zM370.48 253.73h-1.62v-8.68h1.62zM379.86 245.05v8.68c-1.51.85-5.09-5.41-5.93-6.06.06.3 0 5.6 0 6.06h-1.42v-8.68c.38 0 1.16-.16 1.39.26l4.55 5.81c-.08-.4 0-5.54-.05-6.07zM383.53 253.73h-1.62v-8.68h1.62zM390.21 246.63c-.66.66-1.75-.86-2.69-.28-2.54 1.68 1.65 2.23 2.62 3.1 2.57 3.31-2.95 6-5.24 3.23.64-1.45 1-.85 2.13-.3 1.4.73 3.24-1.09 1.59-2.06-6.23-.86-2.52-7.94 2-4.45zM398.35 246.38h-2.62v7.35h-1.61v-7.35h-2.62v-1.33h6.85zM406.38 253.73c-.46-.08-1.82.23-2.06-.33-.67-.75-1.69-3.6-3.1-3.06v3.39h-1.61v-8.68a21.93 21.93 0 014.16.18c2.54.53 2.31 4.25-.09 4.79.48.17 2.32 3.31 2.7 3.71zm-4.15-4.55c3.16-.29 1.8-3.59-1-2.88v2.88zM414.88 253.73c-2 .3-1.88-.65-2.44-2.14h-3.59c-.6 1.54-.41 2.42-2.44 2.14l3.42-8.68h1.64zm-2.88-3.28c-.27-.77-1.2-3.15-1.39-3.91-.17.76-1.11 3.14-1.37 3.91zM421.11 246.38h-2.61v7.35h-1.62v-7.35h-2.61v-1.33h6.84zM430.36 249.39c.27 5.81-9.06 5.8-8.79 0-.27-5.81 9.06-5.8 8.79 0zm-1.65 0c.34-4-5.83-4-5.49 0-.34 4 5.83 4 5.49 0zM438.67 253.73c-.45-.08-1.82.23-2.05-.33-.68-.75-1.7-3.6-3.11-3.06v3.39h-1.61v-8.68a21.93 21.93 0 014.16.18c2.54.53 2.31 4.25-.09 4.79.48.16 2.37 3.31 2.7 3.71zm-4.15-4.55c3.16-.29 1.81-3.59-1-2.88v2.88z"/>
        <path d="M304.24 287.56h161.11M458.66 202.87a186.62 186.62 0 00-147.73 0 12.5 12.5 0 00-7.27 11.41c-2.29 60.86-4.48 130.24 63.91 155.63 47.6 20.32 101.84-47.71 98.35-93v-62.63a12.48 12.48 0 00-7.26-11.41z" stroke-width="2px" fill="none" stroke="#000" stroke-linecap="round" stroke-linejoin="round"/>
        <path d="M367 308.72l4.6 9.93c2 .53 11.34-1.61 11.26 2.11.62 1.87-7.64 6.15-8.53 7.16l4.32 9.91c1.18 8.19-11.48-2.34-13.77-2.93l-10.43 5.87a2.35 2.35 0 01-3.21-.86c-1.41-1.42 3.9-10.52 4.17-12-1.28-1.57-10.93-5.5-8-8.53.81-1.45 9.36-.47 10.7-.74 1.57-1.85 4.73-15.64 8.89-9.92zM414 308.72l4.6 9.93c2 .53 11.34-1.61 11.26 2.11.62 1.87-7.64 6.15-8.53 7.16l4.32 9.91c1.18 8.19-11.48-2.34-13.77-2.93l-10.43 5.87a2.35 2.35 0 01-3.21-.86c-1.41-1.42 3.9-10.52 4.17-12-1.28-1.57-10.93-5.5-8-8.53.81-1.45 9.36-.47 10.7-.74 1.57-1.85 4.73-15.64 8.89-9.92z" stroke-width="1.11px" fill="none" stroke="#000" stroke-linecap="round" stroke-linejoin="round"/>
        <path fill="#fff" d="M219.88 173.13c.39-.09 28.51-5 28.88-5.12-8.69-10.37-20.93-24.83-29.43-35.11 0-.08 15.2-41.94 15.28-42.08 1.65 2.64 41.65 72 50.48 87.33h-93.56l28.35-5zm-56.14-5.33c1.3-2.32 25.28-43.87 30.82-53.48 6.46-5.41 34.43-28.91 36-30.17-9.69 21.08-29.2 62.61-39 83.65h-27.85z"/>
      </g>
    </g>
  </g>
</svg>