<?xml version="1.0" encoding="utf-8"?>
<svg width="300px" xmlns="http://www.w3.org/2000/svg" viewBox="0 0 302.02 292.17">
  <path d="M139.41,397.81a12.56,12.56,0,0,1,0-25.1h49a3.19,3.19,0,0,0,3.18-3.2,3.08,3.08,0,0,0-.1-.8l-16.8-63a11.17,11.17,0,0,1,2.29-10.1,12.86,12.86,0,0,1,9.88-4.53H368.15a12.85,12.85,0,0,1,9.88,4.52,11.17,11.17,0,0,1,2.29,10.1l-16.8,63a3.19,3.19,0,0,0,2.27,3.9,3.15,3.15,0,0,0,.81.1h49a12.55,12.55,0,0,1,0,25.1Z" transform="translate(-125.79 -105.64)" style="fill:#fcd116"/>
  <path d="M346.28,382.56h-163L162.05,297.8a12.53,12.53,0,0,1,9.13-15.2,12.39,12.39,0,0,1,3-.38H355.29a12.55,12.55,0,0,1,12.54,12.55,12.89,12.89,0,0,1-.37,3Z" transform="translate(-125.79 -105.64)" style="fill:none;stroke:#000520;stroke-linecap:round;stroke-linejoin:round;stroke-width:2px"/>
  <path d="M126.79,382.56H402.71" transform="translate(-125.79 -105.64)" style="fill:none;stroke:#000520;stroke-linecap:round;stroke-linejoin:round;stroke-width:2px"/>
  <path d="M264.75,244.6v18.81" transform="translate(-125.79 -105.64)" style="fill:none;stroke:#000520;stroke-linecap:round;stroke-linejoin:round;stroke-width:2px"/>
  <circle cx="138.96" cy="44.9" r="43.9" style="fill:none;stroke:#000520;stroke-linecap:round;stroke-linejoin:round;stroke-width:2px"/>
  <circle cx="138.96" cy="223.61" r="15.68" style="fill:none;stroke:#000520;stroke-linecap:round;stroke-linejoin:round;stroke-width:2px"/>
  <path d="M324.26,257.14a62.28,62.28,0,0,0-119,0" transform="translate(-125.79 -105.64)" style="fill:none;stroke:#000520;stroke-linecap:round;stroke-linejoin:round;stroke-width:2px"/>
</svg>