<svg data-name="Layer 1" xmlns="http://www.w3.org/2000/svg" width="330.59" height="258">
    <path d="M248.33 63.52a32.14 32.14 0 0 0-32.12-32.18h-1.25a45 45 0 0 0-85.7 16.56 24.2 24.2 0 0 0-29.13 23.65c0 24.55 25.78 24.17 25.78 24.17h93.42s29-3.76 29-32.2z" fill="#5cbbff"/>
    <path d="M237.33 58.52a32.14 32.14 0 0 0-32.12-32.18h-1.25a45 45 0 0 0-85.7 16.56 24.2 24.2 0 0 0-29.13 23.65c0 24.55 25.78 24.17 25.78 24.17h93.42s29-3.76 29-32.2z" fill="none" stroke="#000520" stroke-miterlimit="10"/>
    <text transform="translate(304.16 244.01)" font-size=".61" font-family="Lato-Regular, Lato">
      <tspan letter-spacing="-.01em">Mic</tspan>
      <tspan x="1" y="0" letter-spacing="-.02em">r</tspan>
      <tspan x="1.21" y="0">os</tspan>
      <tspan x="1.81" y="0" letter-spacing="-.01em">o</tspan>
      <tspan x="2.15" y="0">ft </tspan>
      <tspan x=".08" y=".73" letter-spacing="-.01em">E</tspan>
      <tspan x=".42" y=".73">ndpoint </tspan>
      <tspan x=".11" y="1.46" letter-spacing="-.01em">M</tspan>
      <tspan x=".67" y="1.46">anage</tspan>
      <tspan x="2.25" y="1.46" letter-spacing="-.02em">r</tspan>
    </text>
    <rect x="4.5" y="203.94" width="56.57" height="44.45" rx="4.04" fill="#fcd116"/>
    <rect x=".5" y="200.94" width="56.57" height="44.45" rx="4.04" fill="none" stroke="#000" stroke-linecap="round" stroke-linejoin="round"/>
    <path fill="none" stroke="#000" stroke-linecap="round" stroke-linejoin="round" d="M28.78 245.38v12.12M16.65 257.5h24.24M53.03 192.86v-8.08a4 4 0 0 1 4-4h32.32a4 4 0 0 1 4 4v68.69a4 4 0 0 1-4 4H57.07a4 4 0 0 1-4-4M93.43 196.89H65.15M93.43 209.02H65.15"/>
    <circle cx="73.23" cy="235.28" r="6.06" fill="none" stroke="#000" stroke-linecap="round" stroke-linejoin="round"/>
    <g>
        <path d="M151.33 191.12a6.55 6.55 0 0 1 6.12-4.37h65.56c3.93 0 6.55 3.06 6.55 7v51.57c0 3.94-2.62 7-6.55 7h-59" fill="#fcd116"/>
        <path d="M144.33 187.12a6.55 6.55 0 0 1 6.12-4.37h65.56c3.93 0 6.55 3.06 6.55 7v51.57c0 3.94-2.62 7-6.55 7h-59" fill="none" stroke="#000"/>
        <path d="M201.75 208.56a5.38 5.38 0 0 1 2.88-4.88 6.19 6.19 0 0 0-4.87-2.57c-2-.16-4.28 1.19-5.09 1.19s-2.85-1.13-4.4-1.13c-3.21.05-6.62 2.56-6.62 7.66a14.09 14.09 0 0 0 .83 4.67c.73 2.12 3.39 7.29 6.16 7.21 1.45 0 2.48-1 4.36-1s2.78 1 4.4 1c2.8 0 5.2-4.75 5.9-6.87a5.69 5.69 0 0 1-3.55-5.28zm-3.25-9.44a5.44 5.44 0 0 0 1.38-4.17 6.09 6.09 0 0 0-3.91 2 5.47 5.47 0 0 0-1.47 4.13 4.82 4.82 0 0 0 4-1.96z"/>
        <path fill="none" stroke="#000" stroke-linecap="round" stroke-linejoin="round" d="M163.59 257.03h39.33M183.25 248.29v8.74M178.88 230.81h43.71"/>
        <path d="M135.18 208.96v-8.74a4.13 4.13 0 0 1 4.37-4.37h26.22a4.13 4.13 0 0 1 4.37 4.37v35a4.13 4.13 0 0 1-4.37 4.37h-8.74" fill="#fff" stroke="#000" stroke-linecap="round" stroke-linejoin="round"/>
        <path fill="none" stroke="#000" stroke-linecap="round" stroke-linejoin="round" d="M157.03 230.81h13.11M126.44 217.7h17.48a4.13 4.13 0 0 1 4.41 4.42v30.6a4.13 4.13 0 0 1-4.37 4.37h-17.52a4.13 4.13 0 0 1-4.37-4.37v-30.6a4.13 4.13 0 0 1 4.37-4.42zM122.07 248.29h26.22M122.07 226.44h26.22M135.18 204.59h34.96"/>
    </g>
    <g>
        <path d="M264.74 250.47h-4.84a4.83 4.83 0 0 1-4.83-4.83h0v-43.52a4.83 4.83 0 0 1 4.83-4.83h24.18a4.83 4.83 0 0 1 4.83 4.83v4.84M255.07 240.8h9.67M255.07 206.95h33.84" fill="none" stroke="#000" stroke-linecap="round" stroke-linejoin="round"/>
        <path d="M282.24 246.47a4.83 4.83 0 0 1-4.83-4.83v-24.18a4.83 4.83 0 0 1 4.83-4.83h43.52a4.83 4.83 0 0 1 4.83 4.83v14.51" fill="#fcd116"/>
        <path d="M279.24 250.47a4.83 4.83 0 0 1-4.83-4.83h0v-24.18a4.83 4.83 0 0 1 4.83-4.83h43.52a4.83 4.83 0 0 1 4.83 4.83v14.51M284.08 216.62v29.01M317.92 216.62v9.67" fill="none" stroke="#000" stroke-linecap="round" stroke-linejoin="round"/>
    </g>
    <path d="m309.81 227.19.59-.6a.5.5 0 0 0 0-.71.51.51 0 0 0-.71 0l-.74.74a7.09 7.09 0 0 0-6.84 0l-.74-.74a.51.51 0 0 0-.71 0 .5.5 0 0 0 0 .71l.6.6a7 7 0 0 0-2.75 5.57h14a7 7 0 0 0-2.7-5.57zm-7.29 3.56a1 1 0 1 1 1-1 1 1 0 0 1-1 1zm6 0a1 1 0 1 1 1-1 1 1 0 0 1-.98 1zm-12.54 3a1.52 1.52 0 0 0-1.51 1.51v6a1.51 1.51 0 1 0 3 0v-6a1.51 1.51 0 0 0-1.47-1.5zm2.51 11a2 2 0 0 0 2 2h1v3.51a1.51 1.51 0 1 0 3 0v-3.51h2v3.51a1.51 1.51 0 1 0 3 0v-3.51h1a2 2 0 0 0 2-2v-11h-14zm16.56-11a1.51 1.51 0 0 0-1.51 1.51v6a1.51 1.51 0 1 0 3 0v-6a1.51 1.51 0 0 0-1.47-1.5zM22.42 216.54l8.07-1.1v7.79h-8.06v-6.73zm8.07 7.58v7.79l-8.06-1.11v-6.68h8.06zm1-8.82 10.7-1.56v9.38l-10.7.08v-7.91zm10.71 8.9v9.34l-10.7-1.51v-7.85z" fill="#1a1a1a"/>
    <g>
        <path d="M161.55 44.98v7.14h-.85v-5.26a1.85 1.85 0 0 1 0-.23 1.94 1.94 0 0 1 0-.24l-2.46 4.48a.38.38 0 0 1-.36.22h-.13a.36.36 0 0 1-.35-.22l-2.52-4.5a4.6 4.6 0 0 1 0 .49v5.26h-.85v-7.16H154.94a.3.3 0 0 1 .13.14l2.48 4.41.12.25.11.27c0-.09.06-.18.1-.27l.12-.25 2.43-4.41a.3.3 0 0 1 .13-.14h.2zM164.23 45.49a.5.5 0 0 1-.06.24.56.56 0 0 1-.14.2.72.72 0 0 1-.2.14.7.7 0 0 1-.25.05.6.6 0 0 1-.25 0 .72.72 0 0 1-.2-.14.53.53 0 0 1-.13-.2.49.49 0 0 1 0-.24.53.53 0 0 1 0-.25.46.46 0 0 1 .13-.2.56.56 0 0 1 .2-.14.47.47 0 0 1 .24 0 .53.53 0 0 1 .25 0 .56.56 0 0 1 .2.14.48.48 0 0 1 .14.2.54.54 0 0 1 .07.2zm-.19 1.59v5.04h-.9v-5zM169.02 47.98l-.08.08a.18.18 0 0 1-.11 0 .35.35 0 0 1-.17-.06l-.22-.14a1.63 1.63 0 0 0-.32-.13 1.35 1.35 0 0 0-.48-.07 1.53 1.53 0 0 0-.66.14 1.15 1.15 0 0 0-.47.38 1.68 1.68 0 0 0-.29.6 2.87 2.87 0 0 0-.1.8 3 3 0 0 0 .11.82 1.68 1.68 0 0 0 .29.6 1.4 1.4 0 0 0 .47.37 1.48 1.48 0 0 0 .61.12 1.65 1.65 0 0 0 .54-.07 1.79 1.79 0 0 0 .34-.18l.23-.17a.29.29 0 0 1 .18-.08.19.19 0 0 1 .17.09l.25.32a1.37 1.37 0 0 1-.37.35 2.46 2.46 0 0 1-.45.25 2.73 2.73 0 0 1-.51.14 3.27 3.27 0 0 1-.54 0 2.3 2.3 0 0 1-.88-.17 2.11 2.11 0 0 1-.71-.51 2.26 2.26 0 0 1-.47-.82 3.39 3.39 0 0 1-.17-1.1 3.21 3.21 0 0 1 .16-1.05 2.27 2.27 0 0 1 .46-.82 2 2 0 0 1 .74-.55 2.54 2.54 0 0 1 1-.19 2.46 2.46 0 0 1 .94.17 2.36 2.36 0 0 1 .72.49zM171.11 48.12a2.43 2.43 0 0 1 .59-.81 1.33 1.33 0 0 1 .86-.29 1.55 1.55 0 0 1 .31 0 1 1 0 0 1 .26.11l-.07.67a.13.13 0 0 1-.14.12h-.21a1.42 1.42 0 0 0-.31 0 1.37 1.37 0 0 0-.42.07 1.08 1.08 0 0 0-.34.21 1.53 1.53 0 0 0-.26.34 2.78 2.78 0 0 0-.21.46v3.12h-.9v-5h.51a.32.32 0 0 1 .2.05.37.37 0 0 1 .08.19zM175.84 47a2.66 2.66 0 0 1 1 .18 2.17 2.17 0 0 1 .76.53 2.22 2.22 0 0 1 .48.82 3.52 3.52 0 0 1 0 2.16 2.31 2.31 0 0 1-.48.82 2 2 0 0 1-.76.52 2.66 2.66 0 0 1-1 .18 2.71 2.71 0 0 1-1-.18 2 2 0 0 1-.76-.52 2.31 2.31 0 0 1-.48-.82 3.52 3.52 0 0 1 0-2.16 2.22 2.22 0 0 1 .48-.82 2.17 2.17 0 0 1 .76-.53 2.71 2.71 0 0 1 1-.18zm0 4.52a1.32 1.32 0 0 0 1.12-.5 2.87 2.87 0 0 0 0-2.82 1.32 1.32 0 0 0-1.12-.5 1.53 1.53 0 0 0-.66.13 1.14 1.14 0 0 0-.47.37 1.63 1.63 0 0 0-.28.61 3.2 3.2 0 0 0-.09.8 2.34 2.34 0 0 0 .37 1.41 1.32 1.32 0 0 0 1.13.5zM182.33 47.91a.18.18 0 0 1-.18.11.3.3 0 0 1-.17 0l-.23-.12a1.75 1.75 0 0 0-.33-.13 1.53 1.53 0 0 0-.45-.06 1.35 1.35 0 0 0-.41.06.86.86 0 0 0-.3.16.63.63 0 0 0-.2.23.73.73 0 0 0-.07.29.44.44 0 0 0 .12.32 1 1 0 0 0 .29.23 4.08 4.08 0 0 0 .42.17l.49.15.48.18a1.73 1.73 0 0 1 .42.25 1.35 1.35 0 0 1 .3.37 1.21 1.21 0 0 1 .11.52 1.54 1.54 0 0 1-.13.65 1.35 1.35 0 0 1-.37.52 2 2 0 0 1-.59.34 2.59 2.59 0 0 1-.83.12 2.49 2.49 0 0 1-1-.17 2.24 2.24 0 0 1-.72-.44l.2-.34a.24.24 0 0 1 .1-.1.29.29 0 0 1 .14 0 .4.4 0 0 1 .19.07l.24.16a1.93 1.93 0 0 0 .35.15 1.81 1.81 0 0 0 1 0 1.06 1.06 0 0 0 .33-.19.61.61 0 0 0 .19-.26.87.87 0 0 0 .06-.32.51.51 0 0 0-.11-.35.8.8 0 0 0-.3-.23 1.6 1.6 0 0 0-.42-.17l-.48-.16a4.09 4.09 0 0 1-.49-.18 1.49 1.49 0 0 1-.42-.26 1.26 1.26 0 0 1-.3-.38 1.31 1.31 0 0 1-.11-.55 1.38 1.38 0 0 1 .12-.56 1.45 1.45 0 0 1 .35-.47 1.73 1.73 0 0 1 .57-.32 2.2 2.2 0 0 1 .76-.12 2.36 2.36 0 0 1 .9.16 1.92 1.92 0 0 1 .68.43zM185.84 47a2.66 2.66 0 0 1 1 .18 2.17 2.17 0 0 1 .76.53 2.22 2.22 0 0 1 .48.82 3.52 3.52 0 0 1 0 2.16 2.31 2.31 0 0 1-.48.82 2 2 0 0 1-.76.52 2.66 2.66 0 0 1-1 .18 2.71 2.71 0 0 1-1-.18 2 2 0 0 1-.76-.52 2.31 2.31 0 0 1-.48-.82 3.52 3.52 0 0 1 0-2.16 2.22 2.22 0 0 1 .48-.82 2.17 2.17 0 0 1 .76-.53 2.71 2.71 0 0 1 1-.18zm0 4.52a1.32 1.32 0 0 0 1.12-.5 2.87 2.87 0 0 0 0-2.82 1.32 1.32 0 0 0-1.12-.5 1.53 1.53 0 0 0-.66.13 1.14 1.14 0 0 0-.47.37 1.63 1.63 0 0 0-.28.61 3.2 3.2 0 0 0-.09.8 2.34 2.34 0 0 0 .37 1.41 1.32 1.32 0 0 0 1.13.5zM193.73 47.82v3a.66.66 0 0 0 .15.48.53.53 0 0 0 .39.15.9.9 0 0 0 .25 0l.18-.09.13-.08a.18.18 0 0 1 .09 0h.07l.05.07.27.42a1.59 1.59 0 0 1-.56.34 1.93 1.93 0 0 1-.67.12 1.22 1.22 0 0 1-.92-.33 1.34 1.34 0 0 1-.32-1v-3.1h-2.35v4.32h-.89v-4.3l-.57-.07a.44.44 0 0 1-.17-.07.22.22 0 0 1-.07-.16v-.36h.81v-.49a2.26 2.26 0 0 1 .12-.77 1.49 1.49 0 0 1 .35-.57 1.42 1.42 0 0 1 .54-.36 2.11 2.11 0 0 1 .73-.12 2.06 2.06 0 0 1 .62.1v.45a.13.13 0 0 1-.13.13h-.33a1.42 1.42 0 0 0-.42.06.8.8 0 0 0-.32.19.9.9 0 0 0-.21.36 1.73 1.73 0 0 0-.07.54v.47h2.4l.2-1.58a.25.25 0 0 1 .08-.12.19.19 0 0 1 .13-.05h.46v1.75h1.45v.64zM139.33 63.35v.77h-4.42v-7.16h4.42v.79h-3.45v2.37h2.79v.76h-2.79v2.44zM141.16 59.81a2.73 2.73 0 0 1 .35-.33 2 2 0 0 1 .39-.26 1.65 1.65 0 0 1 .44-.16 2 2 0 0 1 .5-.06 1.75 1.75 0 0 1 .74.14 1.46 1.46 0 0 1 .53.39 1.81 1.81 0 0 1 .32.6 2.79 2.79 0 0 1 .11.79v3.2h-.9v-3.2a1.31 1.31 0 0 0-.26-.89 1 1 0 0 0-.8-.32 1.42 1.42 0 0 0-.73.19 2.76 2.76 0 0 0-.64.51v3.71h-.88v-5h.53a.22.22 0 0 1 .24.18zM150.09 56.78v7.34h-.53a.22.22 0 0 1-.24-.18l-.08-.62a2.92 2.92 0 0 1-.74.63 1.9 1.9 0 0 1-1 .24 1.83 1.83 0 0 1-.79-.16 1.73 1.73 0 0 1-.61-.5 2.35 2.35 0 0 1-.38-.81 4.1 4.1 0 0 1-.14-1.11 3.49 3.49 0 0 1 .15-1 2.66 2.66 0 0 1 .43-.84 2.08 2.08 0 0 1 .69-.56 2.11 2.11 0 0 1 .92-.2 1.74 1.74 0 0 1 .79.16 2 2 0 0 1 .6.43v-2.8zm-.89 3.5a1.42 1.42 0 0 0-.54-.46 1.55 1.55 0 0 0-.65-.14 1.29 1.29 0 0 0-1.09.51 2.4 2.4 0 0 0-.38 1.44 3.52 3.52 0 0 0 .09.85 1.62 1.62 0 0 0 .25.58 1 1 0 0 0 .4.33 1.55 1.55 0 0 0 1.31-.1 2.27 2.27 0 0 0 .61-.56zM152.33 59.86a2.61 2.61 0 0 1 .74-.63 1.9 1.9 0 0 1 1-.24 1.7 1.7 0 0 1 .79.17 1.6 1.6 0 0 1 .61.49 2.53 2.53 0 0 1 .38.81 4.23 4.23 0 0 1 .14 1.12 3.49 3.49 0 0 1-.15 1 2.59 2.59 0 0 1-.44.84 1.87 1.87 0 0 1-.69.55 2.19 2.19 0 0 1-1.71.05 2.12 2.12 0 0 1-.59-.44v2.24h-.89v-6.7h.53a.22.22 0 0 1 .24.18zm0 3.06a1.47 1.47 0 0 0 .54.47 1.51 1.51 0 0 0 .65.13 1.28 1.28 0 0 0 1.09-.5 2.4 2.4 0 0 0 .38-1.44 3.52 3.52 0 0 0-.09-.85 1.64 1.64 0 0 0-.25-.58 1 1 0 0 0-.41-.34 1.33 1.33 0 0 0-.54-.1 1.43 1.43 0 0 0-.76.2 2.27 2.27 0 0 0-.61.56zM159.24 59a2.66 2.66 0 0 1 1 .18 2.26 2.26 0 0 1 .76.53 2.22 2.22 0 0 1 .48.82 3.52 3.52 0 0 1 0 2.16 2.31 2.31 0 0 1-.48.82 2.1 2.1 0 0 1-.76.52 2.9 2.9 0 0 1-2 0 2 2 0 0 1-.76-.52 2.49 2.49 0 0 1-.49-.82 3.72 3.72 0 0 1 0-2.16 2.39 2.39 0 0 1 .49-.82 2.17 2.17 0 0 1 .76-.53 2.67 2.67 0 0 1 1-.18zm0 4.52a1.32 1.32 0 0 0 1.12-.5 2.87 2.87 0 0 0 0-2.82 1.32 1.32 0 0 0-1.12-.5 1.47 1.47 0 0 0-.66.13 1.24 1.24 0 0 0-.48.37 1.8 1.8 0 0 0-.27.61 2.78 2.78 0 0 0-.1.8 2.41 2.41 0 0 0 .37 1.41 1.34 1.34 0 0 0 1.14.5zM163.9 57.49a.64.64 0 0 1-.05.24.72.72 0 0 1-.14.2.77.77 0 0 1-.21.14.64.64 0 0 1-.24.05.7.7 0 0 1-.25-.05.67.67 0 0 1-.19-.14.72.72 0 0 1-.14-.2.64.64 0 0 1-.05-.24.7.7 0 0 1 .05-.25.6.6 0 0 1 .14-.2.52.52 0 0 1 .19-.14.53.53 0 0 1 .25 0 .49.49 0 0 1 .24 0 .67.67 0 0 1 .35.34.7.7 0 0 1 .05.25zm-.19 1.59v5.04h-.89v-5zM166.01 59.81a3.61 3.61 0 0 1 .35-.33 2.94 2.94 0 0 1 .39-.26 1.79 1.79 0 0 1 .44-.16 2.1 2.1 0 0 1 .51-.06 1.7 1.7 0 0 1 .73.14 1.38 1.38 0 0 1 .53.39 1.64 1.64 0 0 1 .32.6 2.48 2.48 0 0 1 .11.79v3.2h-.89v-3.2a1.32 1.32 0 0 0-.27-.89.94.94 0 0 0-.79-.32 1.46 1.46 0 0 0-.74.19 2.52 2.52 0 0 0-.63.51v3.71h-.9v-5h.54a.22.22 0 0 1 .23.18zM172.24 64.22a1.26 1.26 0 0 1-.93-.33 1.38 1.38 0 0 1-.32-1v-3.1h-.61a.18.18 0 0 1-.13 0 .2.2 0 0 1-.06-.15v-.36l.83-.1.21-1.57a.23.23 0 0 1 .06-.12.24.24 0 0 1 .14-.05h.45v1.75h1.45v.64h-1.47v3a.62.62 0 0 0 .16.48.54.54 0 0 0 .4.15.88.88 0 0 0 .24 0l.18-.09.12-.08a.26.26 0 0 1 .1 0 .15.15 0 0 1 .12.09l.26.42a1.55 1.55 0 0 1-.55.34 1.93 1.93 0 0 1-.65.08zM184.49 56.98v7.14h-.85v-5.26a1.85 1.85 0 0 1 0-.23 1.94 1.94 0 0 1 0-.24l-2.46 4.48a.38.38 0 0 1-.35.22h-.14a.36.36 0 0 1-.35-.22l-2.51-4.5a4.42 4.42 0 0 1 0 .49v5.26h-.85v-7.16H177.89a.37.37 0 0 1 .14.14l2.47 4.41.12.25.11.27c0-.09.06-.18.1-.27l.12-.25 2.43-4.41a.36.36 0 0 1 .13-.14h.21zM185.83 59.79a2.77 2.77 0 0 1 .91-.6 2.65 2.65 0 0 1 1.07-.2 1.81 1.81 0 0 1 .76.14 1.45 1.45 0 0 1 .55.39 1.54 1.54 0 0 1 .34.6 2.45 2.45 0 0 1 .12.78v3.22h-.4a.4.4 0 0 1-.2 0 .28.28 0 0 1-.11-.17l-.1-.48a2.85 2.85 0 0 1-.39.33 1.63 1.63 0 0 1-.4.24 1.7 1.7 0 0 1-.45.15 2.09 2.09 0 0 1-.52.05 1.73 1.73 0 0 1-.56-.08 1.24 1.24 0 0 1-.45-.25 1.27 1.27 0 0 1-.31-.41 1.57 1.57 0 0 1-.11-.6 1.14 1.14 0 0 1 .17-.58 1.49 1.49 0 0 1 .53-.49 3.3 3.3 0 0 1 1-.35 6.49 6.49 0 0 1 1.46-.16v-.4a1.35 1.35 0 0 0-.26-.89.92.92 0 0 0-.74-.3 1.79 1.79 0 0 0-.56.08 2.69 2.69 0 0 0-.38.19c-.11.06-.2.13-.28.18a.38.38 0 0 1-.23.08.29.29 0 0 1-.16 0 .63.63 0 0 1-.11-.12zm2.88 2.07a8.94 8.94 0 0 0-1 .1 3.22 3.22 0 0 0-.71.2 1 1 0 0 0-.39.3.64.64 0 0 0-.12.38.86.86 0 0 0 .06.34.63.63 0 0 0 .18.24.82.82 0 0 0 .26.14 1.86 1.86 0 0 0 .33 0 1.88 1.88 0 0 0 .43-.05 1.66 1.66 0 0 0 .37-.14 3 3 0 0 0 .33-.21 2.81 2.81 0 0 0 .31-.29zM191.77 59.81a3.61 3.61 0 0 1 .35-.33 2.48 2.48 0 0 1 .4-.26 1.59 1.59 0 0 1 .43-.16 2.1 2.1 0 0 1 .51-.06 1.7 1.7 0 0 1 .73.14 1.38 1.38 0 0 1 .53.39 1.64 1.64 0 0 1 .32.6 2.79 2.79 0 0 1 .11.79v3.2h-.89v-3.2a1.32 1.32 0 0 0-.27-.89.94.94 0 0 0-.79-.32 1.46 1.46 0 0 0-.74.19 2.52 2.52 0 0 0-.63.51v3.71h-.9v-5h.54a.22.22 0 0 1 .23.18zM196.38 59.79a2.77 2.77 0 0 1 .91-.6 2.65 2.65 0 0 1 1.07-.2 1.81 1.81 0 0 1 .76.14 1.45 1.45 0 0 1 .55.39 1.68 1.68 0 0 1 .34.6 2.45 2.45 0 0 1 .12.78v3.22h-.4a.4.4 0 0 1-.2 0 .33.33 0 0 1-.11-.17l-.1-.48a2.85 2.85 0 0 1-.39.33 1.63 1.63 0 0 1-.4.24 1.7 1.7 0 0 1-.45.15 2.09 2.09 0 0 1-.52.05 1.73 1.73 0 0 1-.56-.08 1.24 1.24 0 0 1-.45-.25 1.27 1.27 0 0 1-.31-.41 1.57 1.57 0 0 1-.11-.6 1.14 1.14 0 0 1 .17-.58 1.49 1.49 0 0 1 .53-.49 3.3 3.3 0 0 1 1-.35 6.49 6.49 0 0 1 1.46-.16v-.4a1.35 1.35 0 0 0-.26-.89.92.92 0 0 0-.74-.3 1.79 1.79 0 0 0-.56.08 2.69 2.69 0 0 0-.38.19c-.11.06-.2.13-.28.18a.38.38 0 0 1-.23.08.27.27 0 0 1-.16 0 .63.63 0 0 1-.11-.12zm2.88 2.07a8.94 8.94 0 0 0-1 .1 3.22 3.22 0 0 0-.71.2 1 1 0 0 0-.39.3.64.64 0 0 0-.12.38.86.86 0 0 0 .06.34.63.63 0 0 0 .18.24.72.72 0 0 0 .26.14 1.86 1.86 0 0 0 .33 0 1.88 1.88 0 0 0 .43-.05 1.66 1.66 0 0 0 .37-.14 2.3 2.3 0 0 0 .33-.21 4.11 4.11 0 0 0 .31-.29zM205.76 59.28v.33q0 .17-.21.21l-.58.07a1.51 1.51 0 0 1 .17.73 1.69 1.69 0 0 1-.14.68 1.65 1.65 0 0 1-.39.51 1.6 1.6 0 0 1-.6.33 2.37 2.37 0 0 1-.76.12 2.41 2.41 0 0 1-.67-.09.92.92 0 0 0-.25.22.33.33 0 0 0-.08.22.34.34 0 0 0 .14.28 1.19 1.19 0 0 0 .39.13 4.15 4.15 0 0 0 .55.05h.63c.21 0 .42 0 .63.08a2.22 2.22 0 0 1 .55.18 1 1 0 0 1 .38.34 1 1 0 0 1 .15.57 1.28 1.28 0 0 1-.16.63 1.63 1.63 0 0 1-.47.55 2.63 2.63 0 0 1-.75.38 3.33 3.33 0 0 1-1 .14 3.93 3.93 0 0 1-1-.11 2.21 2.21 0 0 1-.69-.3 1.29 1.29 0 0 1-.42-.42 1.07 1.07 0 0 1-.13-.51 1 1 0 0 1 .23-.64 1.61 1.61 0 0 1 .65-.41 1 1 0 0 1-.36-.27.69.69 0 0 1-.13-.45.62.62 0 0 1 0-.23.57.57 0 0 1 .12-.23 1.07 1.07 0 0 1 .2-.23 1.34 1.34 0 0 1 .28-.18 1.56 1.56 0 0 1-.58-.56 1.53 1.53 0 0 1-.21-.81 1.49 1.49 0 0 1 .14-.67 1.42 1.42 0 0 1 .4-.51 1.6 1.6 0 0 1 .6-.33 2.45 2.45 0 0 1 .78-.12 2.37 2.37 0 0 1 .61.08 1.5 1.5 0 0 1 .52.21zm-.91 5.14a.42.42 0 0 0-.1-.3.65.65 0 0 0-.29-.18 1.47 1.47 0 0 0-.41-.09l-.5-.05h-.53a4.36 4.36 0 0 1-.52 0 1.47 1.47 0 0 0-.46.33.71.71 0 0 0-.17.46.69.69 0 0 0 .08.32.84.84 0 0 0 .27.26 1.93 1.93 0 0 0 .45.17 3.13 3.13 0 0 0 .65.06 2.51 2.51 0 0 0 .64-.07 1.5 1.5 0 0 0 .48-.18.87.87 0 0 0 .31-.29.65.65 0 0 0 .1-.44zm-1.6-2.75a1.32 1.32 0 0 0 .47-.08 1 1 0 0 0 .35-.21.89.89 0 0 0 .21-.32 1.3 1.3 0 0 0 .07-.41 1 1 0 0 0-.29-.74 1.08 1.08 0 0 0-.81-.28 1.13 1.13 0 0 0-.83.28 1 1 0 0 0-.28.74 1.3 1.3 0 0 0 .07.41.8.8 0 0 0 .22.32 1 1 0 0 0 .34.21 1.42 1.42 0 0 0 .48.08zM210.71 63.43a1.63 1.63 0 0 1-.39.35 2.3 2.3 0 0 1-.5.24 3.06 3.06 0 0 1-.54.15 3.39 3.39 0 0 1-.55 0 2.74 2.74 0 0 1-1-.17 2.28 2.28 0 0 1-.77-.52 2.45 2.45 0 0 1-.5-.85 3.49 3.49 0 0 1-.18-1.16 3.11 3.11 0 0 1 .16-1 2.45 2.45 0 0 1 .47-.8 2.17 2.17 0 0 1 .75-.53 2.4 2.4 0 0 1 1-.19 2.32 2.32 0 0 1 .84.15 1.91 1.91 0 0 1 .67.44 2 2 0 0 1 .44.71 2.61 2.61 0 0 1 .16 1 .58.58 0 0 1 0 .28.18.18 0 0 1-.17.07h-3.39a3.37 3.37 0 0 0 .13.84 1.77 1.77 0 0 0 .33.59 1.36 1.36 0 0 0 .5.36 1.93 1.93 0 0 0 .65.11 2 2 0 0 0 .58-.07c.16-.06.3-.11.42-.17l.29-.17a.4.4 0 0 1 .2-.08.19.19 0 0 1 .17.09zm-.72-2.37a1.7 1.7 0 0 0-.09-.57 1.12 1.12 0 0 0-.25-.44 1 1 0 0 0-.41-.29 1.33 1.33 0 0 0-.54-.11 1.38 1.38 0 0 0-1 .38 1.76 1.76 0 0 0-.46 1zM212.73 60.12a2.3 2.3 0 0 1 .59-.81 1.31 1.31 0 0 1 .85-.29 1.55 1.55 0 0 1 .31 0 .89.89 0 0 1 .26.11l-.06.67a.14.14 0 0 1-.15.12h-.21a1.42 1.42 0 0 0-.73 0 1.08 1.08 0 0 0-.34.21 1.9 1.9 0 0 0-.26.34 2.78 2.78 0 0 0-.21.46v3.19h-.9v-5h.51a.3.3 0 0 1 .2.05.37.37 0 0 1 .08.19z"/>
    </g>
    <g fill="none" stroke="#fcd116" stroke-linecap="round" stroke-linejoin="round" stroke-width="5">
        <path d="M247.91 136.79v18.94h-18.95M247.91 155.73l-37.65-37.8M97.68 139.79v18.94h18.94M97.68 158.73l37.65-37.8"/>
        <g>
            <path d="M172.29 124.97v37.76M187.32 151.49l-15.03 11.24-15.27-11.36"/>
        </g>
    </g>
    <g fill="none" stroke="#000" stroke-linecap="round" stroke-linejoin="round">
        <path d="M238.91 134.79v18.94h-18.95M238.91 153.73l-37.65-37.8M99.68 130.79v18.94h18.94M99.68 149.73l37.65-37.8"/>
        <g>
            <path d="M167.29 116.97v37.76M182.32 143.49l-15.03 11.24-15.27-11.36"/>
        </g>
    </g>
</svg>
