<?xml version="1.0" encoding="UTF-8"?>
<svg width="622px" height="664px" viewBox="0 0 622 664" version="1.1" xmlns="http://www.w3.org/2000/svg" xmlns:xlink="http://www.w3.org/1999/xlink">
    <title>23567403-38C5-45E1-8B27-F33ADFEB1E9B</title>
    <g id="Layouts" stroke="none" stroke-width="1" fill="none" fill-rule="evenodd">
        <g id="gkgab_Blog_Übersichtsseite_Header" transform="translate(-818.000000, 1.000000)">
            <g id="Group-5" transform="translate(818.000000, -1.000000)">
                <g id="Group-2" transform="translate(0.000000, 0.500000)">
                    <rect id="Rectangle-Copy-7" fill="#5CBBFF" x="352" y="0.5" width="270" height="662"></rect>
                    <g id="Group" transform="translate(0.000000, 331.500000)">
                        <rect id="Rectangle" fill="#F8842B" x="0" y="0" width="76" height="28"></rect>
                        <rect id="Rectangle-Copy-10" fill="#F8842B" x="0" y="166" width="76" height="27"></rect>
                        <rect id="Rectangle-Copy-5" fill="#F8842B" x="0" y="55" width="76" height="28"></rect>
                        <rect id="Rectangle-Copy-11" fill="#F8842B" x="0" y="221" width="76" height="27"></rect>
                        <rect id="Rectangle-Copy-8" fill="#F8842B" x="0" y="110" width="76" height="28"></rect>
                        <rect id="Rectangle-Copy-12" fill="#F8842B" x="0" y="276" width="76" height="27"></rect>
                        <rect id="Rectangle-Copy" fill="#FCD116" x="0" y="28" width="76" height="27"></rect>
                        <rect id="Rectangle-Copy-13" fill="#FCD116" x="0" y="193" width="76" height="28"></rect>
                        <rect id="Rectangle-Copy-6" fill="#FCD116" x="0" y="83" width="76" height="27"></rect>
                        <rect id="Rectangle-Copy-14" fill="#FCD116" x="0" y="248" width="76" height="28"></rect>
                        <rect id="Rectangle-Copy-9" fill="#FCD116" x="0" y="138" width="76" height="28"></rect>
                        <rect id="Rectangle-Copy-15" fill="#FCD116" x="0" y="303" width="76" height="28"></rect>
                    </g>
                    <polygon id="Rectangle-Copy-4" fill="#543B9C" transform="translate(214.000000, 497.000000) rotate(180.000000) translate(-214.000000, -497.000000) " points="76.0833333 331.5 351.916667 331.5 351.916667 662.5"></polygon>
                    <g id="Group" transform="translate(352.000000, 331.500000)">
                        <rect id="Rectangle" fill="#F8842B" x="0" y="0" width="270" height="28"></rect>
                        <rect id="Rectangle-Copy-10" fill="#F8842B" x="0" y="166" width="270" height="27"></rect>
                        <rect id="Rectangle-Copy-5" fill="#F8842B" x="0" y="55" width="270" height="28"></rect>
                        <rect id="Rectangle-Copy-11" fill="#F8842B" x="0" y="221" width="270" height="27"></rect>
                        <rect id="Rectangle-Copy-8" fill="#F8842B" x="0" y="110" width="270" height="28"></rect>
                        <rect id="Rectangle-Copy-12" fill="#F8842B" x="0" y="276" width="270" height="27"></rect>
                        <rect id="Rectangle-Copy" fill="#FCD116" x="0" y="28" width="270" height="27"></rect>
                        <rect id="Rectangle-Copy-13" fill="#FCD116" x="0" y="193" width="270" height="28"></rect>
                        <rect id="Rectangle-Copy-6" fill="#FCD116" x="0" y="83" width="270" height="27"></rect>
                        <rect id="Rectangle-Copy-14" fill="#FCD116" x="0" y="248" width="270" height="28"></rect>
                        <rect id="Rectangle-Copy-9" fill="#FCD116" x="0" y="138" width="270" height="28"></rect>
                        <rect id="Rectangle-Copy-15" fill="#FCD116" x="0" y="303" width="270" height="28"></rect>
                    </g>
                    <polygon id="Rectangle-Copy-4" fill="#F8842B" transform="translate(214.000000, 497.000000) scale(-1, -1) rotate(180.000000) translate(-214.000000, -497.000000) " points="76.0833333 331.5 351.916667 331.5 351.916667 662.5"></polygon>
                    <path d="M261.529963,560.5 C261.529963,517.974074 227.03659,483.5 184.486859,483.5 C141.937128,483.5 107.443756,517.974074 107.443756,560.5 C107.443756,560.193227 261.529963,560.193227 261.529963,560.5 Z" id="Oval-Copy-4" fill="#5CBBFF" transform="translate(184.486859, 522.000000) scale(1, -1) rotate(310.000000) translate(-184.486859, -522.000000) "></path>
                    <polygon id="Triangle" fill="#0072C6" transform="translate(486.000000, 497.000000) rotate(-90.000000) translate(-486.000000, -497.000000) " points="486 362 651.5 632 320.5 632"></polygon>
                    <polygon id="Triangle-Copy" fill="#0072C6" transform="translate(486.000000, 166.000000) rotate(-90.000000) translate(-486.000000, -166.000000) " points="486 31 651.5 301 320.5 301"></polygon>
                </g>
            </g>
        </g>
    </g>
</svg>
