<?xml version="1.0" encoding="utf-8"?>
<svg width="600px" height="754px" version="1.0" id="Layer_1" xmlns="http://www.w3.org/2000/svg" x="0" y="0" viewBox="0 0 800 1536.4" xml:space="preserve">
  <g>
    <path id="Mid_Blue_Triangle_2_" fill="#0072C6" d="M0 568.2h400v400z"/>
    <path id="Light_Blue_Circle_4_" d="M442.1 971.3c2.8 0 5.7.1 8.5.4 2.8.3 5.6.7 8.4 1.3 2.8.6 5.6 1.2 8.3 2.1s5.4 1.8 8 2.9c2.6 1.1 5.2 2.3 7.7 3.6 2.5 1.3 4.9 2.8 7.3 4.4 2.4 1.6 4.7 3.3 6.9 5.1a85.224 85.224 0 0112 12c1.8 2.2 3.5 4.5 5.1 6.9 1.6 2.4 3 4.8 4.4 7.3 1.3 2.5 2.6 5.1 3.6 7.7 1.1 2.6 2 5.3 2.9 8 .8 2.7 1.5 5.5 2.1 8.3.6 2.8 1 5.6 1.3 8.4.3 2.8.4 5.7.4 8.5s-.1 5.7-.4 8.5c-.3 2.8-.7 5.6-1.3 8.4-.6 2.8-1.2 5.6-2.1 8.3-.8 2.7-1.8 5.4-2.9 8-1.1 2.6-2.3 5.2-3.6 7.7-1.3 2.5-2.8 4.9-4.4 7.3-1.6 2.4-3.3 4.7-5.1 6.9a85.224 85.224 0 01-12 12c-2.2 1.8-4.5 3.5-6.9 5.1-2.4 1.6-4.8 3-7.3 4.4s-5.1 2.6-7.7 3.6c-2.6 1.1-5.3 2-8 2.9s-5.5 1.5-8.3 2.1c-2.8.6-5.6 1-8.4 1.3-2.8.3-5.7.4-8.5.4s-5.7-.1-8.5-.4-5.6-.7-8.4-1.3c-2.8-.6-5.6-1.2-8.3-2.1s-5.4-1.8-8-2.9c-2.6-1.1-5.2-2.3-7.7-3.6s-4.9-2.8-7.3-4.4c-2.4-1.6-4.7-3.3-6.9-5.1a85.224 85.224 0 01-12-12c-1.8-2.2-3.5-4.5-5.1-6.9-1.6-2.4-3-4.8-4.4-7.3-1.3-2.5-2.6-5.1-3.6-7.7-1.1-2.6-2-5.3-2.9-8-.8-2.7-1.5-5.5-2.1-8.3-.6-2.8-1-5.6-1.3-8.4-.3-2.8-.4-5.7-.4-8.5s.1-5.7.4-8.5c.3-2.8.7-5.6 1.3-8.4.6-2.8 1.2-5.6 2.1-8.3.8-2.7 1.8-5.4 2.9-8 1.1-2.6 2.3-5.2 3.6-7.7 1.3-2.5 2.8-4.9 4.4-7.3 1.6-2.4 3.3-4.7 5.1-6.9a85.224 85.224 0 0112-12c2.2-1.8 4.5-3.5 6.9-5.1 2.4-1.6 4.8-3 7.3-4.4 2.5-1.3 5.1-2.6 7.7-3.6 2.6-1.1 5.3-2 8-2.9s5.5-1.5 8.3-2.1c2.8-.6 5.6-1 8.4-1.3 2.8-.2 5.6-.4 8.5-.4z" fill="#FFFFFF"/>
    <path id="Orange_Square_3_" fill="#F8842C" d="M400 568.2h400v400H400z"/>
    <path id="Yellow_Triangle_v02_1_" fill="#FCD116" d="M800 568.2H400V0z"/>
    <path id="Green_Triangle_2_" fill="#ACD653" d="M400 968.2H0v568.2z"/>
    <path id="Light_Blue_Triangle_1_" fill="#FFFFFF" d="M400 968.2H0v-400z"/>
    <path id="Yellow_Triangle_v01_1_" fill="#FCD116" d="M599.6 568.2l199.7 400H400z"/>
  </g>
</svg>