<svg id="Layer_1" data-name="Layer 1" xmlns="http://www.w3.org/2000/svg" width="785.66" height="1047.54" viewBox="0 0 785.66 1047.54">
  <g>
    <polygon points="0 283.71 785.66 0 720.18 1047.54 218.24 785.66 0 283.71" fill="#2687ce"/>
    <path d="M565.45,875.35a29.23,29.23,0,0,1-24-11.57L354.85,627.43H323.21V857.89a16.8,16.8,0,0,1-4.8,12.44,17.69,17.69,0,0,1-12.44,5H240.06a17,17,0,0,1-12.44-5,16.13,16.13,0,0,1-5-12.44v-558a17.24,17.24,0,0,1,17-17.46h65.91a16.8,16.8,0,0,1,17.25,16.35c0,.37,0,.74,0,1.11V533.59h27.5L541,293.53a30.35,30.35,0,0,1,26.41-11.13h75.51a16.36,16.36,0,0,1,12,4.58,13.94,13.94,0,0,1,4.58,10.26,21.71,21.71,0,0,1-4.14,10.91L438.66,575.06,654.71,851.13a18.53,18.53,0,0,1,4.15,10.69,15,15,0,0,1-4.37,10.48,16.57,16.57,0,0,1-12.22,4.58Z" fill="#fff"/>
  </g>
</svg>
