<svg data-name="Layer 1" xmlns="http://www.w3.org/2000/svg" width="883.8" height="1178.4">
    <path fill="#f9f9f9" d="M736.5 0v441.9H0V0zM0 441.9v736.5h883.8V441.9z"/>
    <path fill="#202349" d="M589.2 0h294.6v294.6H589.2z"/>
    <path fill="#4262f3" d="M883.8 294.6 589.2 0h294.6v294.6z"/>
    <path fill="#202349" d="m0 0 441.9 441.9H0V0z"/>
    <circle cx="515.55" cy="73.65" r="73.65" fill="#ffd433"/>
    <circle cx="515.55" cy="220.95" r="73.65" fill="#a7dff2"/>
    <path d="M883.8 883.8c-122 0-220.95-98.92-220.95-221s98.92-220.9 220.95-220.9z" fill="#a7dff2"/>
    <path fill="#202349" d="M883.8 1178.4 662.85 957.45v220.95H883.8zM662.85 1178.4 441.9 957.45v220.95h220.95z"/>
    <path d="M220.95 957.45C99.11 957.45 0 1056.57 0 1178.45h6c0-118.54 96.44-215 215-215s215 96.43 215 215h6c-.1-121.88-99.22-221-221.05-221z" fill="#4262f3"/>
    <path d="M220.95 1011.65c-91.95 0-166.75 74.8-166.75 166.75h6c0-88.65 72.12-160.77 160.78-160.77s160.77 72.12 160.77 160.77h6c-.06-91.95-74.86-166.75-166.8-166.75z" fill="#4262f3"/>
    <path d="M220.95 1066.43a112.1 112.1 0 0 0-112 112h6a106.12 106.12 0 0 1 106-106 106.11 106.11 0 0 1 106 106h6a112.1 112.1 0 0 0-112-112z" fill="#4262f3"/>
    <path d="M220.95 1113.84a64.63 64.63 0 0 0-64.56 64.56h6a58.65 58.65 0 0 1 58.59-58.59 58.65 58.65 0 0 1 58.55 58.59h6a64.64 64.64 0 0 0-64.58-64.56zM662.85 662.85h-441.9L441.9 441.9l220.95 220.95z" fill="#4262f3"/>
    <circle cx="441.9" cy="810.15" r="73.65" fill="#a7dff2"/>
    <circle cx="294.6" cy="810.15" r="73.65" fill="#ffd433"/>
    <path fill="#a7dff2" d="M147.3 441.9v515.55H0V441.9z"/>
    <path d="M105.07 489.61a9.94 9.94 0 0 1-9.93-9.94 9.94 9.94 0 0 1 9.93-9.94 9.94 9.94 0 0 1 9.94 9.94 9.94 9.94 0 0 1-9.94 9.94zM105.07 552.47a9.94 9.94 0 0 1-9.93-9.94 9.94 9.94 0 0 1 9.93-9.94 9.94 9.94 0 0 1 9.94 9.94 9.94 9.94 0 0 1-9.94 9.94zM105.07 615.33a9.94 9.94 0 0 1-9.93-9.94 9.94 9.94 0 0 1 9.93-9.94 9.94 9.94 0 0 1 9.94 9.94 9.94 9.94 0 0 1-9.94 9.94zM105.07 678.2a9.94 9.94 0 0 1-9.93-9.94 9.94 9.94 0 0 1 9.93-9.94 9.94 9.94 0 0 1 9.94 9.94 9.94 9.94 0 0 1-9.94 9.94zM42.22 489.61a9.94 9.94 0 0 1-9.94-9.94 9.94 9.94 0 0 1 9.94-9.94 9.94 9.94 0 0 1 9.94 9.94 9.94 9.94 0 0 1-9.94 9.94zM42.22 552.47a9.94 9.94 0 0 1-9.94-9.94 9.94 9.94 0 0 1 9.94-9.94 9.94 9.94 0 0 1 9.94 9.94 9.94 9.94 0 0 1-9.94 9.94zM42.22 615.33a9.94 9.94 0 0 1-9.94-9.94 9.94 9.94 0 0 1 9.94-9.94 9.94 9.94 0 0 1 9.94 9.94 9.94 9.94 0 0 1-9.94 9.94zM42.22 678.2a9.94 9.94 0 0 1-9.94-9.94 9.94 9.94 0 0 1 9.94-9.94 9.94 9.94 0 0 1 9.94 9.94 9.94 9.94 0 0 1-9.94 9.94zM105.07 741.04a9.94 9.94 0 0 1-9.94-9.94 9.93 9.93 0 0 1 9.93-9.93 9.93 9.93 0 0 1 9.94 9.93 9.94 9.94 0 0 1-9.93 9.94zM105.07 803.9a9.94 9.94 0 0 1-9.93-9.94 9.94 9.94 0 0 1 9.93-9.94 9.94 9.94 0 0 1 9.94 9.94 9.94 9.94 0 0 1-9.94 9.94zM105.07 866.76a9.94 9.94 0 0 1-9.93-9.94 9.94 9.94 0 0 1 9.93-9.94 9.94 9.94 0 0 1 9.94 9.94 9.94 9.94 0 0 1-9.94 9.94zM105.07 929.62a9.94 9.94 0 0 1-9.93-9.94 9.94 9.94 0 0 1 9.93-9.94 9.94 9.94 0 0 1 9.94 9.94 9.94 9.94 0 0 1-9.94 9.94zM42.22 741.04a9.94 9.94 0 0 1-9.94-9.94 9.93 9.93 0 0 1 9.94-9.93 9.93 9.93 0 0 1 9.91 9.93 9.94 9.94 0 0 1-9.91 9.94zM42.22 803.9a9.94 9.94 0 0 1-9.94-9.94 9.94 9.94 0 0 1 9.94-9.94 9.94 9.94 0 0 1 9.94 9.94 9.94 9.94 0 0 1-9.94 9.94zM42.22 866.76a9.94 9.94 0 0 1-9.94-9.94 9.94 9.94 0 0 1 9.94-9.94 9.94 9.94 0 0 1 9.94 9.94 9.94 9.94 0 0 1-9.94 9.94zM42.22 929.62a9.94 9.94 0 0 1-9.94-9.94 9.94 9.94 0 0 1 9.94-9.94 9.94 9.94 0 0 1 9.94 9.94 9.94 9.94 0 0 1-9.94 9.94z" fill="#f9f9f9"/>
    <path fill="#ffd433" d="M441.9 294.6h441.9v147.3H441.9z"/>
    <path d="M841.48 399.68a9.94 9.94 0 1 1 9.94 9.94 9.94 9.94 0 0 1-9.94-9.94zM778.62 399.68a9.94 9.94 0 1 1 9.94 9.94 9.94 9.94 0 0 1-9.94-9.94zM715.76 399.68a9.94 9.94 0 1 1 9.94 9.94 9.94 9.94 0 0 1-9.94-9.94zM841.48 336.82a9.94 9.94 0 1 1 9.94 9.94 9.94 9.94 0 0 1-9.94-9.94zM778.62 336.82a9.94 9.94 0 1 1 9.94 9.94 9.94 9.94 0 0 1-9.94-9.94zM715.76 336.82a9.94 9.94 0 1 1 9.94 9.94 9.94 9.94 0 0 1-9.94-9.94zM652.91 399.68a9.94 9.94 0 1 1 9.94 9.94 9.94 9.94 0 0 1-9.94-9.94zM590.05 399.68a9.94 9.94 0 1 1 9.94 9.94 9.94 9.94 0 0 1-9.94-9.94zM527.19 399.68a9.94 9.94 0 1 1 9.94 9.94 9.94 9.94 0 0 1-9.94-9.94zM464.33 399.68a9.94 9.94 0 1 1 9.94 9.94 9.94 9.94 0 0 1-9.94-9.94zM652.91 336.82a9.94 9.94 0 1 1 9.94 9.94 9.94 9.94 0 0 1-9.94-9.94zM590.05 336.82a9.94 9.94 0 1 1 9.94 9.94 9.94 9.94 0 0 1-9.94-9.94zM527.19 336.82a9.94 9.94 0 1 1 9.94 9.94 9.94 9.94 0 0 1-9.94-9.94zM464.33 336.82a9.94 9.94 0 1 1 9.94 9.94 9.94 9.94 0 0 1-9.94-9.94z" fill="#f9f9f9"/>
</svg>
