<svg data-name="Layer 1" xmlns="http://www.w3.org/2000/svg" width="800" height="1600">
    <g data-name="Layer 23">
        <path data-name="Orange Square-6" fill="#f8842c" d="M0 1200h400v400H0z"/>
        <path data-name="Light Blue Square-10" fill="#5cbbff" d="M400 0h400v400H400z"/>
        <path data-name="Mid Blue Square-4" fill="#0072c6" d="M400 398h400v400H400z"/>
        <path data-name="White Trapezoid-16" fill="#fff" d="m398.73 605.69 201.59-152.61v190.25L398.73 795.94V605.69z"/>
        <path data-name="Yellow Trapezoid-4" fill="#fcd116" d="M799.73 606.69 601.32 454.08v190.25l198.41 152.61V606.69z"/>
        <path data-name="Green Square-7" fill="#acd653" d="M400 798h400v400H400z"/>
        <path data-name="White Circle-3" d="M797.9 1176.31c-3 0-5.91-.08-8.86-.22s-5.89-.36-8.83-.65-5.87-.66-8.79-1.09-5.83-.94-8.72-1.52-5.78-1.23-8.65-2-5.71-1.51-8.53-2.36-5.63-1.79-8.41-2.79-5.54-2.06-8.26-3.2-5.43-2.33-8.1-3.6-5.31-2.59-7.91-4-5.17-2.85-7.71-4.38-5-3.1-7.48-4.75-4.87-3.35-7.24-5.11-4.7-3.59-7-5.47-4.52-3.81-6.71-5.8-4.33-4-6.41-6.12-4.13-4.24-6.11-6.44-3.91-4.43-5.78-6.72-3.69-4.62-5.45-7-3.46-4.8-5.1-7.26-3.22-5-4.74-7.51-3-5.11-4.37-7.73-2.72-5.25-4-7.93-2.46-5.38-3.59-8.12-2.19-5.5-3.19-8.28-1.92-5.6-2.77-8.44-1.65-5.68-2.37-8.56-1.36-5.76-1.94-8.66-1.08-5.82-1.51-8.75-.79-5.87-1.08-8.82-.51-5.9-.66-8.86-.21-5.91-.21-8.88.07-5.92.21-8.87.37-5.91.66-8.86.65-5.89 1.08-8.82.94-5.84 1.51-8.75 1.23-5.79 1.94-8.66 1.51-5.73 2.37-8.56 1.78-5.65 2.77-8.44 2.06-5.55 3.19-8.28 2.33-5.45 3.59-8.12 2.59-5.32 4-7.94 2.85-5.18 4.37-7.72 3.1-5 4.74-7.51 3.34-4.88 5.1-7.26 3.57-4.71 5.45-7 3.8-4.53 5.78-6.73 4-4.33 6.11-6.43 4.22-4.13 6.41-6.12 4.42-3.92 6.71-5.8 4.61-3.7 7-5.47 4.78-3.47 7.24-5.11 5-3.23 7.48-4.75 5.1-3 7.71-4.38 5.24-2.73 7.91-4 5.37-2.47 8.1-3.6 5.48-2.2 8.26-3.2 5.58-1.93 8.41-2.79 5.67-1.65 8.53-2.36 5.75-1.37 8.65-2 5.8-1.08 8.72-1.52 5.85-.8 8.79-1.09 5.88-.5 8.83-.65 5.9-.22 8.86-.22" fill="#fff"/>
        <path data-name="Light Blue Circle-6" d="M797.9 1041.39c-1.5 0-3-.08-4.5-.23a42.06 42.06 0 0 1-4.46-.66 44.33 44.33 0 0 1-4.37-1.1 42.81 42.81 0 0 1-4.24-1.52 45.8 45.8 0 0 1-7.93-4.25c-1.25-.84-2.45-1.74-3.62-2.69s-2.28-2-3.34-3a33 33 0 0 1-3-3.34c-.93-1.16-1.84-2.38-2.68-3.63a48.2 48.2 0 0 1-4.24-8c-.58-1.39-1.08-2.81-1.52-4.25a44.47 44.47 0 0 1-1.09-4.38 42.25 42.25 0 0 1-.66-4.47c-.15-1.5-.22-3-.22-4.52s.07-3 .22-4.51a42.25 42.25 0 0 1 .66-4.47c.29-1.47.66-2.93 1.09-4.38a42.09 42.09 0 0 1 1.52-4.25 48.2 48.2 0 0 1 4.24-8q1.26-1.87 2.68-3.63c1-1.16 2-2.28 3-3.34a31.87 31.87 0 0 1 3.34-3c1.16-.92 2.37-1.85 3.62-2.69a45.8 45.8 0 0 1 7.93-4.25 42.81 42.81 0 0 1 4.24-1.52 44.33 44.33 0 0 1 4.37-1.1 44.84 44.84 0 0 1 4.46-.67c1.49-.14 3-.22 4.5-.22" fill="#5cbbff"/>
        <path data-name="Yellow Triangle-11" fill="#fcd116" d="M800 1600H400v-400l400 400z"/>
    </g>
</svg>
