<svg data-name="Layer 1" xmlns="http://www.w3.org/2000/svg" width="771.33" height="1061.3">
    <path fill="#fcd116" d="M0 271.1 771.33 0l-98.11 857.88L83.25 1061.3 0 271.1z"/>
    <path d="M265.56 946.44a325.36 325.36 0 0 1-81.84-40.68 13.93 13.93 0 0 1-5.66-8.84 15.37 15.37 0 0 1 0-11.8l29.25-52.71a17 17 0 0 1 16.15-10.14 25.79 25.79 0 0 1 12.5 3.3 221 221 0 0 0 117.93 38.8 105 105 0 0 0 69.81-22 69.44 69.44 0 0 0 25.58-55.78A58.92 58.92 0 0 0 436.9 749a107.83 107.83 0 0 0-33.49-26.18 659.84 659.84 0 0 0-60.84-27.12l-24.3-10a313 313 0 0 1-95.75-62.15 146 146 0 0 1-39-110.14 176.07 176.07 0 0 1 22-90.56 158.79 158.79 0 0 1 64-61.08 198.48 198.48 0 0 1 94.34-21.94 289.7 289.7 0 0 1 167.33 55.54 13.8 13.8 0 0 1 6 8.73 17 17 0 0 1 0 11.79l-27.83 52.83a16.4 16.4 0 0 1-15.8 9.91 25.22 25.22 0 0 1-12.61-3.31 265.63 265.63 0 0 0-62.15-28.65 180.77 180.77 0 0 0-53.06-9.2 83.49 83.49 0 0 0-59.79 20.05 73.34 73.34 0 0 0 0 103.73l2.71 2.59A275.38 275.38 0 0 0 385.25 608c5.07 1.53 24.18 9.19 57.43 22a185 185 0 0 1 79.13 60 153.39 153.39 0 0 1 29.6 92.81 176.86 176.86 0 0 1-24.77 92.57 169.47 169.47 0 0 1-69.22 63.2 224 224 0 0 1-103.06 22.05 278.8 278.8 0 0 1-88.8-14.19z" fill="#fff"/>
</svg>
