<svg id="Layer_1" data-name="Layer 1" xmlns="http://www.w3.org/2000/svg" width="801.24" height="1204.83" viewBox="0 0 801.24 1204.83">
  <g id="Layer_26" data-name="Layer 26">
    <g>
      <rect x="400.29" y="402.45" width="400.84" height="401.19" fill="#0072c6"/>
      <polygon points="400.3 603.04 801.13 603.04 600.71 803.64 400.3 603.04" fill="#fcd116"/>
      <polygon points="400.3 402.45 801.13 402.45 600.71 603.04 400.3 402.45" fill="#fcd116"/>
    </g>
    <polyline points="801.24 1204.84 400.39 1204.84 400.39 803.64" fill="#5cbbff"/>
    <rect x="400.33" y="0.18" width="400.84" height="401.19" fill="#acd653"/>
    <path d="M600.75,355.86c85.57,0,154.94-69.44,154.94-155.08S686.32,45.7,600.75,45.7,445.83,115.13,445.83,200.78,515.18,355.86,600.75,355.86Zm0-229.32a74.24,74.24,0,1,1-74.17,74.31v-.07a74.2,74.2,0,0,1,74.15-74.25h0Z" fill="#f9f9f9"/>
    <g>
      <rect width="400.49" height="400.84" fill="#f8842c"/>
      <polygon points="0 400.84 0 0 200.24 200.42 0 400.84" fill="#fcd116"/>
      <polygon points="200.24 200.42 0 400.84 0 200.42 200.24 200.42" fill="#f9f9f9"/>
    </g>
  </g>
</svg>
