<svg data-name="Layer 1" xmlns="http://www.w3.org/2000/svg" width="800.86" height="1200.67">
    <path fill="#acd653" d="M400.53 1200.05V799.72h400.33v400.33z"/>
    <path fill="#0072c6" d="m400.31 800.33 400.33 400.34H400.31V800.33z"/>
    <path fill="#fcd116" d="M400.62 800.89v-400.6h400.25v400.6z"/>
    <path d="M600.75 445.74c-85.45 0-154.72 69.33-154.72 154.85s69.27 154.85 154.72 154.85 154.71-69.32 154.71-154.85-69.27-154.85-154.71-154.85zm0 229a74.13 74.13 0 1 1 74.06-74.13 74.1 74.1 0 0 1-74.06 74.11z" fill="#f9f9f9"/>
    <path fill="#f8842c" d="M0 800.76V400.43h400.33v400.33z"/>
    <path fill="#fcd116" d="M400.33 195.59v204.74H0V194.58"/>
    <path fill="#5cbbff" d="M400.33 400.33 200.17 203.35 0 400.33V196.98L200.17 0l200.16 196.98v203.35z"/>
</svg>
