<?xml version="1.0" encoding="utf-8"?>
<svg width="436px" height="669px" viewbox="0 0 436 669" version="1.1" xmlns:xlink="http://www.w3.org/1999/xlink" xmlns="http://www.w3.org/2000/svg">
  <g id="Group-3" transform="translate(0.5 0.5)">
    <g id="Group-2">
      <path d="M0 0L218 0L218 233L0 233L0 0Z" id="Rectangle" fill="#5CBBFF" fill-rule="evenodd" stroke="none" />
      <path d="M0 83.0738L109.596 1.33585e-12L109.596 103.564L0 186.638L0 83.0738Z" transform="translate(0 46.362244)" id="Rectangle" fill="#FFFFFF" fill-rule="evenodd" stroke="none" />
      <path d="M0 83.0738L108.404 1.33585e-12L108.404 93.5044L108.404 103.564L0 186.638L0 83.0738Z" transform="matrix(-1 0 0 1 218 46.362244)" id="Rectangle-Copy-2" fill="#F8842C" fill-rule="evenodd" stroke="none" />
    </g>
    <path d="M0 0L218 0L218 218L0 218L0 0Z" transform="translate(0 233)" id="Rectangle-Copy-3" fill="#F8842C" fill-rule="evenodd" stroke="none" />
    <g id="Group-2-Copy" transform="translate(217 233)">
      <path d="M0 0L218 0L218 218L0 218L0 0Z" id="Rectangle" fill="#0072C6" fill-rule="evenodd" stroke="none" />
      <path d="M0 83.2472L109.596 1.33864e-12L109.596 103.78L0 187.027L0 83.2472Z" transform="translate(0 30.972677)" id="Rectangle" fill="#FFFFFF" fill-rule="evenodd" stroke="none" />
      <path d="M0 83.2472L108.404 1.33864e-12L108.404 93.6996L108.404 103.78L0 187.027L0 83.2472Z" transform="matrix(-1 0 0 1 218 30.972677)" id="Rectangle-Copy-2" fill="#FCD116" fill-rule="evenodd" stroke="none" />
    </g>
    <g id="Group" transform="translate(119 450)">
      <path d="M0 0L217.398 0L217.398 218L0 218L0 0Z" transform="translate(98.6015 0)" id="Rectangle-Copy-4" fill="#ACD653" fill-rule="evenodd" stroke="none" />
      <path d="M98.6015 197.749C153.058 197.749 197.203 153.481 197.203 98.8743C197.203 44.2675 153.058 0 98.6015 0C44.1454 0 0 44.2675 0 98.8743C0 153.481 44.1454 197.749 98.6015 197.749Z" transform="translate(0 9.530055)" id="Oval" fill="#FFFFFF" fill-rule="evenodd" stroke="none" />
      <path d="M24.9474 50.0328C38.7254 50.0328 49.8947 38.8326 49.8947 25.0164C49.8947 11.2002 38.7254 0 24.9474 0C11.1693 0 0 11.2002 0 25.0164C0 38.8326 11.1693 50.0328 24.9474 50.0328Z" transform="translate(73.65414 83.38798)" id="Oval" fill="#5CBBFF" fill-rule="evenodd" stroke="none" />
    </g>
  </g>
</svg>
