<svg id="Layer_1" data-name="Layer 1" xmlns="http://www.w3.org/2000/svg" width="779.15" height="1201.3" viewBox="0 0 779.15 1201.3"><rect x="447.55" y="722.08" width="374.04" height="375.68" transform="translate(1098.68 377.97) rotate(90)" fill="#0072c6"/><polygon points="4.71 1201.3 0 1196.58 0 1152.39 48.91 1201.3 4.71 1201.3" fill="#5cbbff"/><polygon points="92.39 1201.3 0 1108.91 0 1064.71 136.58 1201.3 92.39 1201.3" fill="#5cbbff"/><polygon points="377.51 1201.3 355.42 1201.3 0 845.88 0 823.78 22.1 823.78 377.51 1179.2 377.51 1201.3" fill="#5cbbff"/><polygon points="377.51 960.37 240.93 823.78 285.12 823.78 377.51 916.17 377.51 960.37" fill="#5cbbff"/><polygon points="377.51 872.69 328.61 823.78 372.8 823.78 377.51 828.5 377.51 872.69" fill="#5cbbff"/><polygon points="377.51 1048.04 153.25 823.78 197.45 823.78 377.51 1003.85 377.51 1048.04" fill="#5cbbff"/><polygon points="267.74 1201.3 0 933.55 0 889.36 311.93 1201.3 267.74 1201.3" fill="#5cbbff"/><polygon points="377.51 1135.72 65.58 823.78 109.77 823.78 377.51 1091.52 377.51 1135.72" fill="#5cbbff"/><polygon points="180.06 1201.3 0 1021.23 0 977.04 224.26 1201.3 180.06 1201.3" fill="#5cbbff"/><polygon points="0 1201.3 0 1196.58 4.71 1201.3 0 1201.3" fill="#5cbbff"/><polygon points="377.51 828.5 372.8 823.78 377.51 823.78 377.51 828.5" fill="#5cbbff"/><rect x="377.51" width="401.64" height="823.78" fill="#acd653"/><rect x="645.27" width="133.88" height="274.59" fill="#fcd116"/><rect x="511.39" y="274.59" width="133.88" height="274.59" fill="#0072c6"/><rect x="377.51" y="549.19" width="133.88" height="274.59" fill="#f8842c"/><rect x="645.27" y="549.19" width="133.88" height="274.59" fill="#0072c6"/><rect x="378.36" y="823.78" width="400.79" height="377.51" fill="#fcd116"/></svg>