<svg data-name="Layer 1" xmlns="http://www.w3.org/2000/svg" width="801.86" height="1197.37">
    <path fill="#f8842c" d="M0 400.88h401.19v396H0z"/>
    <path fill="#fcd116" d="M200.6 796.88v-396l200.59 198-200.59 198zM0 796.88v-396l200.6 198L0 796.88z"/>
    <path fill="#673ab7" d="M.18 796.88h400.84v400.49H.18z"/>
    <path fill="#f8842c" d="M401.02 1197.37H.18L200.6 997.12l200.42 200.25z"/>
    <path fill="#fcd116" d="m200.6 997.12 200.42 200.25H200.6V997.12z"/>
    <path fill="#acd653" d="M801.86 401.19v395.9H401.02v-395.9z"/>
    <path fill="#673ab7" d="M801.85 0v401.19H401.01V0z"/>
    <path d="M601.44 355.68c85.57 0 154.94-69.44 154.94-155.08S687.01 45.52 601.44 45.52 446.5 114.95 446.5 200.6s69.37 155.08 154.94 155.08zm0-229.32a74.24 74.24 0 1 1-74.17 74.24 74.21 74.21 0 0 1 74.17-74.24z" fill="#fcd116"/>
</svg>
