
<svg xmlns="http://www.w3.org/2000/svg" xmlns:xlink="http://www.w3.org/1999/xlink" width="800.5" height="1201.8" overflow="visible">
  <path d="M.026 1201.8208v-400.6h400.2v400.6z" fill="#0072c6"/>
  <path d="M1.1 800.1c0 221.2 179.2 400.6 400.2 400.6V800.1H1.1z" fill="#ffd433"/>
  <path d="M400.2709 400.5698v-400.6h400.2v400.6z" fill="#5cbbff"/>
  <path d="M400.2206 200.3201V.0201h400.2v200.3z" fill="#0072c6"/>
  <path d="M.025 801.2219v-400.6h400.2v400.6z" fill="#5cbbff"/>
  <path d="M200.1 600.9L0 400.6h200.1zM400.2 600.9L200.1 400.6h200.1zM200.1 801.2L0 600.9h200.1zM400.2 801.2L200.1 600.9h200.1z" fill="#f9f9f9"/>
  <g>
    <path d="M400.2719 801.1688v-400.6h400.2v400.6z" fill="#ffd433"/>
    <path d="M600.4 400.6H400.2v400.6h200.1c110.5 0 200.1-89.7 200.1-200.3s-89.5-200.3-200-200.3z" fill="#0072c6"/>
  </g>
  <g>
    <path d="M.0239 400.6229V.0229h400.2v400.6z" fill="#acd653"/>
    <path d="M400.2 400.6h-10.6c0-107.4-85-194.8-189.5-194.8S10.6 293.2 10.6 400.6H0c0-113.5 89.8-205.8 200.1-205.8s200.1 92.3 200.1 205.8z" fill="#008187"/>
    <path d="M329.1 400.6h-10.6c0-67.1-53.1-121.7-118.4-121.7S81.8 333.5 81.8 400.6H71.1c0-73.1 57.9-132.6 129-132.6 71.2 0 129 59.5 129 132.6z" fill="#008187"/>
    <path d="M258 400.6h-10.6c0-26.8-21.2-48.6-47.2-48.6-26.1 0-47.3 21.8-47.3 48.6h-10.6c0-32.8 26-59.5 57.9-59.5 31.8 0 57.8 26.7 57.8 59.5z" fill="#008187"/>
  </g>
  <g>
    <path d="M400.2729 1201.7678v-400.6h400.2v400.6z" fill="#acd653"/>
    <path d="M600.4 846.6c-85.4 0-154.7 69.3-154.7 154.8s69.3 154.8 154.7 154.8 154.7-69.3 154.7-154.8-69.3-154.8-154.7-154.8zm0 229c-40.9 0-74.1-33.2-74.1-74.1 0-40.9 33.2-74.1 74.1-74.1 40.9 0 74.1 33.2 74.1 74.1-.1 40.9-33.2 74.1-74.1 74.1z" fill="#f9f9f9"/>
  </g>
</svg>