<svg data-name="Layer 1" xmlns="http://www.w3.org/2000/svg" width="777.46" height="897.09">
    <path fill="#f8842c" d="m94.9 0 587.66 279.13 94.9 617.96L0 757.52 94.9 0z"/>
    <path d="M48.01 834.83a15.2 15.2 0 0 1-4.57-11.14V330.37a32.2 32.2 0 0 1 31.72-32.53h142.49A169.39 169.39 0 0 1 302.41 319a163.9 163.9 0 0 1 61.38 59.82 161.63 161.63 0 0 1-9.69 179.33A163.48 163.48 0 0 1 269.16 618l125.59 194.77a20.4 20.4 0 0 1 2.9 11.14 14.94 14.94 0 0 1-4.79 11.14 18.46 18.46 0 0 1-12.48 4.57h-61.37a22.3 22.3 0 0 1-19.94-11.14L173.43 626.76h-37.65v196.59a15.89 15.89 0 0 1-4.34 11.14 16.76 16.76 0 0 1-11.14 4.57H59.82a15.76 15.76 0 0 1-11.81-4.23zm165.07-295.4a79.71 79.71 0 0 0 57.25-21.16 72.94 72.94 0 0 0 22.28-55 74.6 74.6 0 0 0-22.28-55.69 78 78 0 0 0-57.25-22.28h-77.3v154.6zM427.39 834.83a15.38 15.38 0 0 1-4.35-11.14V768a15.37 15.37 0 0 1 14.7-15.92H495a39.79 39.79 0 0 0 29.85-11.14 46.28 46.28 0 0 0 11.14-32.3V313.77a15.7 15.7 0 0 1 15.47-15.93h60.27a15.26 15.26 0 0 1 15.7 14.81v395.64a139.61 139.61 0 0 1-16.15 66.83A122.55 122.55 0 0 1 566.73 822a127.57 127.57 0 0 1-65.16 17.15h-63.05a16.22 16.22 0 0 1-11.13-4.32z" fill="#fff"/>
</svg>
