<svg data-name="Layer 1" xmlns="http://www.w3.org/2000/svg" width="800.64" height="1200">
    <path data-name="Orange Square" fill="#f8842c" d="M0 800h400v400H0z"/>
    <path data-name="Light Blue Square" fill="#5cbbff" d="M400 400h400v400H400z"/>
    <path data-name="Mid Blue Square" fill="#0072c6" d="M400.64 0h400v400h-400z"/>
    <path data-name="White Trapezoid" fill="#fff" d="M399.36 207.69 600.95 55.08v190.25L399.36 397.94V207.69z"/>
    <path data-name="Yellow Trapezoid" fill="#fcd116" d="M800.36 208.69 601.95 56.08v190.25l198.41 152.61V208.69z"/>
    <path data-name="Green Square" fill="#acd653" d="M400 800h400v400H400z"/>
    <path data-name="White Circle" d="M797.86 1178.3q-4.44 0-8.86-.21t-8.83-.66q-4.41-.43-8.79-1.08c-2.92-.44-5.83-.94-8.73-1.52s-5.77-1.23-8.64-1.95-5.71-1.51-8.53-2.37-5.63-1.79-8.41-2.78-5.54-2.07-8.27-3.2-5.42-2.33-8.09-3.6-5.31-2.6-7.91-4-5.18-2.86-7.71-4.38-5-3.11-7.48-4.75-4.87-3.35-7.24-5.12-4.7-3.58-7-5.46-4.52-3.81-6.71-5.8-4.33-4-6.41-6.12-4.13-4.24-6.11-6.44-3.91-4.43-5.79-6.72-3.69-4.63-5.45-7-3.45-4.8-5.1-7.27-3.22-5-4.73-7.5-3-5.12-4.37-7.73-2.72-5.25-4-7.93-2.46-5.38-3.59-8.12-2.19-5.5-3.19-8.29-1.92-5.6-2.77-8.43-1.65-5.69-2.37-8.56-1.36-5.76-1.94-8.67-1.08-5.82-1.51-8.75-.8-5.86-1.09-8.81-.5-5.9-.65-8.86-.21-5.92-.21-8.88.07-5.92.21-8.88.36-5.91.65-8.85.66-5.89 1.09-8.82.94-5.84 1.51-8.75 1.23-5.79 1.94-8.67 1.51-5.72 2.37-8.56 1.78-5.64 2.77-8.43 2.06-5.55 3.19-8.28 2.33-5.45 3.59-8.12 2.59-5.33 4-7.94 2.85-5.19 4.37-7.73 3.09-5 4.73-7.5 3.35-4.88 5.1-7.26 3.58-4.71 5.45-7 3.81-4.53 5.79-6.73 4-4.34 6.11-6.43 4.22-4.14 6.41-6.12 4.42-3.93 6.71-5.81 4.61-3.7 7-5.46 4.78-3.47 7.24-5.11 5-3.23 7.48-4.76 5.1-3 7.71-4.37 5.24-2.73 7.91-4 5.37-2.46 8.09-3.6 5.49-2.19 8.27-3.19 5.58-1.93 8.41-2.79 5.67-1.65 8.53-2.37 5.75-1.37 8.64-1.94 5.81-1.09 8.73-1.52 5.85-.8 8.79-1.09 5.88-.51 8.83-.65 5.9-.22 8.86-.22" fill="#fff"/>
    <path data-name="Light Blue Circle" d="M797.86 1043.38a44.9 44.9 0 0 1-4.5-.22c-1.5-.15-3-.37-4.46-.66a44.33 44.33 0 0 1-4.37-1.1 45.519 45.519 0 0 1-8.31-3.45c-1.32-.71-2.62-1.49-3.87-2.32s-2.45-1.74-3.61-2.69a43.78 43.78 0 0 1-3.34-3q-1.59-1.59-3-3.35c-1-1.16-1.85-2.37-2.68-3.62s-1.61-2.55-2.32-3.88-1.35-2.69-1.92-4.08a44.89 44.89 0 0 1-1.52-4.26 43.78 43.78 0 0 1-1.09-4.38 45 45 0 0 1-.67-4.47c-.14-1.5-.22-3-.22-4.51s.08-3 .22-4.51a45 45 0 0 1 .67-4.47 43.78 43.78 0 0 1 1.09-4.38c.44-1.44.94-2.86 1.52-4.25s1.22-2.76 1.92-4.09a44.49 44.49 0 0 1 2.32-3.87c.83-1.25 1.73-2.46 2.68-3.63s2-2.28 3-3.35 2.17-2.07 3.34-3 2.36-1.85 3.61-2.69a44.49 44.49 0 0 1 3.87-2.32c1.32-.71 2.68-1.36 4.07-1.94s2.8-1.08 4.24-1.52 2.9-.8 4.37-1.09a44.4 44.4 0 0 1 4.46-.67 44.9 44.9 0 0 1 4.5-.22" fill="#5cbbff"/>
</svg>
