<svg xmlns="http://www.w3.org/2000/svg" width="800" height="1143.2" overflow="visible">
  <path id="Orange_Trapezoid_1_" d="M400 152.7L201.1 0v190.4L400 343.2z" fill="#E44418"/>
  <path id="Orange_Square_1_" d="M0 343.2h400v400H0z" fill="#fcd116"/>
  <path id="Mid_Blue_Square_1_" fill="#0072c6" d="M400 343.2h400v400H400z"/>
  <path id="White_Trapezoid_1_" d="M400 552.7L601.1 400v190.4L400 743.2z" fill="#fff"/>
  <path id="Yellow_Trapezoid_1_" d="M800 552.7L601.1 400v190.4L800 743.2z" fill="#fcd116"/>
  <path id="Green_Square_1_" fill="#e44418" d="M400 743.2h400v400H400z"/>
  <path id="White_Circle_1_" d="M400 760.7c3 0 5.9.1 8.9.2s5.9.4 8.9.7c3 .3 5.9.7 8.8 1.1 2.9.4 5.9.9 8.8 1.5 2.9.6 5.8 1.2 8.7 2 2.9.7 5.7 1.5 8.6 2.4 2.8.9 5.7 1.8 8.5 2.8 2.8 1 5.6 2.1 8.3 3.2 2.7 1.1 5.5 2.3 8.1 3.6 2.7 1.3 5.3 2.6 8 4 2.6 1.4 5.2 2.9 7.7 4.4 2.5 1.5 5.1 3.1 7.5 4.8 2.5 1.6 4.9 3.4 7.3 5.1 2.4 1.8 4.7 3.6 7 5.5s4.5 3.8 6.7 5.8 4.3 4 6.4 6.1c2.1 2.1 4.1 4.2 6.1 6.4s3.9 4.4 5.8 6.7 3.7 4.6 5.5 7c1.8 2.4 3.5 4.8 5.1 7.3l4.8 7.5c1.5 2.5 3 5.1 4.4 7.7 1.4 2.6 2.7 5.3 4 8 1.3 2.7 2.5 5.4 3.6 8.1 1.1 2.7 2.2 5.5 3.2 8.3 1 2.8 1.9 5.6 2.8 8.5.9 2.8 1.7 5.7 2.4 8.6.7 2.9 1.4 5.8 2 8.7.6 2.9 1.1 5.8 1.5 8.8.4 2.9.8 5.9 1.1 8.8.3 3 .5 5.9.7 8.9.1 3 .2 5.9.2 8.9s-.1 5.9-.2 8.9-.4 5.9-.7 8.9c-.3 3-.7 5.9-1.1 8.8-.4 2.9-.9 5.9-1.5 8.8-.6 2.9-1.2 5.8-2 8.7-.7 2.9-1.5 5.7-2.4 8.6-.9 2.8-1.8 5.7-2.8 8.5-1 2.8-2.1 5.6-3.2 8.3-1.1 2.7-2.3 5.5-3.6 8.1-1.3 2.7-2.6 5.3-4 8-1.4 2.6-2.9 5.2-4.4 7.7-1.5 2.5-3.1 5.1-4.8 7.5-1.6 2.5-3.4 4.9-5.1 7.3-1.8 2.4-3.6 4.7-5.5 7s-3.8 4.5-5.8 6.7-4 4.3-6.1 6.4c-2.1 2.1-4.2 4.1-6.4 6.1s-4.4 3.9-6.7 5.8-4.6 3.7-7 5.5c-2.4 1.8-4.8 3.5-7.3 5.1l-7.5 4.8c-2.5 1.5-5.1 3-7.7 4.4-2.6 1.4-5.3 2.7-8 4-2.7 1.3-5.4 2.5-8.1 3.6-2.7 1.1-5.5 2.2-8.3 3.2-2.8 1-5.6 1.9-8.5 2.8-2.8.9-5.7 1.7-8.6 2.4-2.9.7-5.8 1.4-8.7 2-2.9.6-5.8 1.1-8.8 1.5-2.9.4-5.9.8-8.8 1.1-3 .3-5.9.5-8.9.7-3 .1-5.9.2-8.9.2s-5.9-.1-8.9-.2-5.9-.4-8.9-.7-5.9-.7-8.8-1.1c-2.9-.4-5.9-.9-8.8-1.5-2.9-.6-5.8-1.2-8.7-2-2.9-.7-5.7-1.5-8.6-2.4-2.8-.9-5.7-1.8-8.5-2.8-2.8-1-5.6-2.1-8.3-3.2-2.7-1.1-5.5-2.3-8.1-3.6-2.7-1.3-5.3-2.6-8-4-2.6-1.4-5.2-2.9-7.7-4.4-2.5-1.5-5.1-3.1-7.5-4.8-2.5-1.6-4.9-3.4-7.3-5.1-2.4-1.8-4.7-3.6-7-5.5s-4.5-3.8-6.7-5.8-4.3-4-6.4-6.1c-2.1-2.1-4.1-4.2-6.1-6.4s-3.9-4.4-5.8-6.7-3.7-4.6-5.5-7c-1.8-2.4-3.5-4.8-5.1-7.3l-4.8-7.5c-1.5-2.5-3-5.1-4.4-7.7-1.4-2.6-2.7-5.3-4-8-1.3-2.7-2.5-5.4-3.6-8.1-1.1-2.7-2.2-5.5-3.2-8.3-1-2.8-1.9-5.6-2.8-8.5-.9-2.8-1.7-5.7-2.4-8.6-.7-2.9-1.4-5.8-2-8.7-.6-2.9-1.1-5.8-1.5-8.8-.4-2.9-.8-5.9-1.1-8.8-.3-3-.5-5.9-.7-8.9-.1-3-.2-5.9-.2-8.9s.1-5.9.2-8.9.4-5.9.7-8.9c.3-3 .7-5.9 1.1-8.8.4-2.9.9-5.9 1.5-8.8.6-2.9 1.2-5.8 2-8.7.7-2.9 1.5-5.7 2.4-8.6.9-2.8 1.8-5.7 2.8-8.5 1-2.8 2.1-5.6 3.2-8.3 1.1-2.7 2.3-5.5 3.6-8.1 1.3-2.7 2.6-5.3 4-8 1.4-2.6 2.9-5.2 4.4-7.7 1.5-2.5 3.1-5.1 4.8-7.5 1.6-2.5 3.4-4.9 5.1-7.3 1.8-2.4 3.6-4.7 5.5-7s3.8-4.5 5.8-6.7 4-4.3 6.1-6.4c2.1-2.1 4.2-4.1 6.4-6.1s4.4-3.9 6.7-5.8 4.6-3.7 7-5.5c2.4-1.8 4.8-3.5 7.3-5.1l7.5-4.8c2.5-1.5 5.1-3 7.7-4.4 2.6-1.4 5.3-2.7 8-4 2.7-1.3 5.4-2.5 8.1-3.6 2.7-1.1 5.5-2.2 8.3-3.2 2.8-1 5.6-1.9 8.5-2.8 2.8-.9 5.7-1.7 8.6-2.4 2.9-.7 5.8-1.4 8.7-2 2.9-.6 5.8-1.1 8.8-1.5 2.9-.4 5.9-.8 8.8-1.1 3-.3 5.9-.5 8.9-.7 3-.2 5.9-.2 8.9-.2z" fill="#fff"/>
  <path id="Light_Blue_Circle_2_" d="M400 896.2c1.5 0 3 .1 4.5.2s3 .4 4.5.7c1.5.3 2.9.7 4.4 1.1 1.4.4 2.9.9 4.2 1.5 1.4.6 2.7 1.2 4.1 1.9 1.3.7 2.6 1.5 3.9 2.3 1.3.8 2.5 1.7 3.6 2.7 1.2 1 2.3 2 3.3 3 1.1 1.1 2.1 2.2 3 3.3 1 1.2 1.8 2.4 2.7 3.6.8 1.2 1.6 2.5 2.3 3.9.7 1.3 1.4 2.7 1.9 4.1.6 1.4 1.1 2.8 1.5 4.2.4 1.4.8 2.9 1.1 4.4.3 1.5.5 3 .7 4.5.1 1.5.2 3 .2 4.5s-.1 3-.2 4.5-.4 3-.7 4.5c-.3 1.5-.7 2.9-1.1 4.4-.4 1.4-.9 2.9-1.5 4.2-.6 1.4-1.2 2.7-1.9 4.1s-1.5 2.6-2.3 3.9c-.8 1.3-1.7 2.5-2.7 3.6-1 1.2-2 2.3-3 3.3-1.1 1.1-2.2 2.1-3.3 3-1.2 1-2.4 1.8-3.6 2.7-1.2.8-2.5 1.6-3.9 2.3-1.3.7-2.7 1.4-4.1 1.9-1.4.6-2.8 1.1-4.2 1.5-1.4.4-2.9.8-4.4 1.1-1.5.3-3 .5-4.5.7-1.5.1-3 .2-4.5.2s-3-.1-4.5-.2-3-.4-4.5-.7c-1.5-.3-2.9-.7-4.4-1.1-1.4-.4-2.9-.9-4.2-1.5-1.4-.6-2.7-1.2-4.1-1.9s-2.6-1.5-3.9-2.3c-1.3-.8-2.5-1.7-3.6-2.7-1.2-1-2.3-2-3.3-3-1.1-1.1-2.1-2.2-3-3.3-1-1.2-1.8-2.4-2.7-3.6-.8-1.2-1.6-2.5-2.3-3.9s-1.4-2.7-1.9-4.1-1.1-2.8-1.5-4.2c-.4-1.4-.8-2.9-1.1-4.4-.3-1.5-.5-3-.7-4.5-.1-1.5-.2-3-.2-4.5s.1-3 .2-4.5.4-3 .7-4.5c.3-1.5.7-2.9 1.1-4.4.4-1.4.9-2.9 1.5-4.2.6-1.4 1.2-2.7 1.9-4.1.7-1.3 1.5-2.6 2.3-3.9.8-1.3 1.7-2.5 2.7-3.6 1-1.2 2-2.3 3-3.3 1.1-1.1 2.2-2.1 3.3-3 1.2-1 2.4-1.8 3.6-2.7 1.2-.8 2.5-1.6 3.9-2.3s2.7-1.4 4.1-1.9c1.4-.6 2.8-1.1 4.2-1.5 1.4-.4 2.9-.8 4.4-1.1 1.5-.3 3-.5 4.5-.7 1.5-.2 3-.2 4.5-.2z" fill="#0072c6"/>
</svg>