
<svg xmlns="http://www.w3.org/2000/svg" xmlns:xlink="http://www.w3.org/1999/xlink" width="801.3" height="1205.4" overflow="visible" >
  <path fill="#acd653" d="M400.41422296 803.4479236l.00012324-401.2 400.8.00012313-.00012324 401.2z"/>
  <path d="M801.3 602.9H400.5l200.4-200.6zM801.3 803.5H400.5l200.4-200.6z" fill="#0072c6"/>
  <path fill="#f8842c" d="M400.88740012 402.24636857l-.00023075 401.2-400.8-.00023051.00023075-401.2z"/>
  <g>
    <path d="M801.3175-.0239v401.2h-400.8v-401.2z" fill="#fff" />
    <path d="M600.9 355.7c85.6 0 154.9-69.4 154.9-155.1S686.5 45.5 600.9 45.5c-85.6 0-154.9 69.4-154.9 155.1s69.3 155.1 154.9 155.1zm0-229.3c41 0 74.2 33.2 74.2 74.2s-33.2 74.2-74.2 74.2-74.2-33.2-74.2-74.2 33.3-74.2 74.2-74.2z" fill="#e44418"/>
  </g>
  <g>
    <path d="M.4 804.9h400.8v400.5H.4z" fill="#e44418"/>
    <path d="M401.2 1205.4H.4l200.4-200.2z" fill="#acd653"/>
    <path d="M200.8 1005.2l200.4 200.2H200.8z" fill="#acd653"/>
  </g>
</svg>