<svg id="Layer_1" data-name="Layer 1" xmlns="http://www.w3.org/2000/svg" width="801.03" height="1202.33" viewBox="0 0 801.03 1202.33">
  <g id="Layer_25" data-name="Layer 25">
    <rect x="400.78" width="400.25" height="400.6" fill="#0072c6"/>
    <path d="M800,401.13C800,179.88,620.79.53,399.74.53v400.6Z" transform="translate(0 0.53)" fill="#ffd433"/>
    <rect x="0.01" y="0.53" width="400.25" height="400.6" fill="#5cbbff"/>
    <polygon points="200.13 200.83 0 0.53 200.13 0.53 200.13 200.83" fill="#fff"/>
    <polygon points="400.25 200.83 200.13 0.53 400.25 0.53 400.25 200.83" fill="#fff"/>
    <polygon points="200.13 401.13 0 200.83 200.13 200.83 200.13 401.13" fill="#fff"/>
    <polygon points="400.25 401.13 200.13 200.83 400.25 200.83 400.25 401.13" fill="#fff"/>
    <rect x="400.08" y="401.3" width="400.6" height="400.25" fill="#f8842c"/>
    <path d="M400.07,600.83,400,801l400.6.15L800.67,601c.05-110.53-89.6-200.15-200.22-200.19S400.12,490.3,400.07,600.83Z" transform="translate(0 0.53)" fill="#5cbbff"/>
    <rect x="400.26" y="801.73" width="400.25" height="400.6" fill="#acd653"/>
    <path d="M600.37,846.65c-85.45,0-154.71,69.33-154.71,154.85a154.75,154.75,0,0,0,154.71,154.82c85.45,0,154.71-69.33,154.71-154.85A154.75,154.75,0,0,0,600.37,846.65Zm0,229a74.13,74.13,0,1,1,74.06-74.2v.07a74.1,74.1,0,0,1-74.06,74.11Z" transform="translate(0 0.53)" fill="#f9f9f9"/>
  </g>
</svg>
