<svg id="Layer_1" data-name="Layer 1" xmlns="http://www.w3.org/2000/svg" width="777.64" height="877.3" viewBox="0 0 777.64 877.3">
  <line x1="269.15" x2="269.15" y2="877.3" fill="none"/>
  <g>
    <polygon points="0 276.3 678.2 66.38 775.08 712.28 113.03 663.84 0 276.3" fill="#543b9c"/>
    <path d="M69.73,695.68a11.79,11.79,0,0,1-3.23-8.24V329.94a23.42,23.42,0,0,1,23.25-23.58h103a122.25,122.25,0,0,1,61.53,16.15,120.14,120.14,0,0,1,44.4,43.27,117.24,117.24,0,0,1-7.1,130.48,118.89,118.89,0,0,1-61.53,42.47l91.24,141.12a16.25,16.25,0,0,1,2.1,7.76,10.82,10.82,0,0,1-3.56,8.23,13.25,13.25,0,0,1-9,3.23H265.76a16.16,16.16,0,0,1-14.21-7.75L160.32,544.7H133.51V687.44a11.3,11.3,0,0,1-11.13,11.47H78A11.81,11.81,0,0,1,69.73,695.68ZM189.38,481.56a57.62,57.62,0,0,0,41.5-16.14A53.15,53.15,0,0,0,247,425.53,53.92,53.92,0,0,0,230.88,385a56.55,56.55,0,0,0-41.5-16.15H133.51V480.92Z" transform="translate(-4.01 -34.43)" fill="#fff"/>
    <path d="M526.87,698.91a16.12,16.12,0,0,1-6.3-8.72L447.74,468.32,434,418.91l-5.49,51L405.28,685.18a17.16,17.16,0,0,1-5.5,9.85,15,15,0,0,1-10,3.88H348.6a11.17,11.17,0,0,1-9.21-3.88,12.09,12.09,0,0,1-2.74-9.85l45.53-364A16.17,16.17,0,0,1,388,309.43a18.51,18.51,0,0,1,12.75-4.68h50.06a16.16,16.16,0,0,1,10.66,3.55,17.82,17.82,0,0,1,6.3,9l82.35,253,10.66,38,11-37.3,83-254.16a15.2,15.2,0,0,1,6.3-8.88,18.44,18.44,0,0,1,10.66-3.23h45.54a18.72,18.72,0,0,1,12.91,4.68A16.13,16.13,0,0,1,736,321.22l45.53,364a12.6,12.6,0,0,1-2.74,9.85,11.8,11.8,0,0,1-9.37,3.88H726.93A16.15,16.15,0,0,1,716.44,695a13.74,13.74,0,0,1-4.85-9.36l-24.7-219.61-5.49-47.15L667,470.58l-70.73,219a17.1,17.1,0,0,1-6.3,9.05,17.42,17.42,0,0,1-10.82,3.55H537.52A17.41,17.41,0,0,1,526.87,698.91Z" transform="translate(-4.01 -34.43)" fill="#fff"/>
  </g>
</svg>
