<svg data-name="Layer 1" xmlns="http://www.w3.org/2000/svg" width="775.4" height="988.67">
    <path data-name="Fill 1" d="m0 988.67 775.4-239.1-193.84-465.26L0 0z" fill="#abcb58"/>
    <path d="M533.28 824.23c.23.41.44.83.64 1.26-.32-.69-.67-1.37-1.06-2L393.4 607.58a182.54 182.54 0 0 0 94.07-65.1 179 179 0 0 0 10.93-199.41 185.09 185.09 0 0 0-68-66.36 188 188 0 0 0-94.09-24.36H179.17a35.87 35.87 0 0 0-36.12 36.13v547.63a17.25 17.25 0 0 0 17.6 16.84h68.1a17.2 17.2 0 0 0 16.75-17.65V616.89h41.16l139.5 224.36a24.51 24.51 0 0 0 15.74 11.16zm-202.05-304h-85.69V348.94h85.69a87.06 87.06 0 0 1 63.42 24.36 84 84 0 0 1 24.78 62.22 81.42 81.42 0 0 1-24.78 60.84 87.91 87.91 0 0 1-63.42 23.91z" fill="#fefefe"/>
</svg>
