<?xml version="1.0" encoding="utf-8"?>
<svg width="46px" height="75px" viewbox="0 0 46 75" version="1.1" xmlns:xlink="http://www.w3.org/1999/xlink" xmlns="http://www.w3.org/2000/svg">
  <g id="award-star" transform="translate(0.75 0.75)">
    <g id="Group-6">
      <path d="M36.4444 2.94915C36.4444 1.32038 35.0847 0 33.4074 0L3.03704 0C1.35973 0 0 1.32038 0 2.94915L0 8.84746L36.4444 8.84746L36.4444 2.94915Z" transform="translate(7.5555553 64.15254)" id="Path" fill="none" fill-rule="evenodd" stroke="#5CBBFF" stroke-width="1.5" stroke-linecap="round" stroke-linejoin="round" />
      <path d="M24.6 18.6102L24.6 6.20339C24.529 4.40644 23.3285 2.85587 21.6173 2.35108L12.3 0L2.98275 2.35108C1.27097 2.85504 0.0700196 4.40609 0 6.20339L0 18.6102" transform="translate(13.325926 45.23729)" id="Path" fill="none" fill-rule="evenodd" stroke="#5CBBFF" stroke-width="1.5" stroke-linecap="round" stroke-linejoin="round" />
      <path d="M5.78845 2.78924L16.6971 7.1452L23.0937 0.714395C23.73 0.0246183 24.7287 -0.190079 25.5903 0.177698C26.4519 0.545475 26.9912 1.41666 26.9383 2.35546L26.3343 12.8996L36.494 16.9249C37.4366 17.3133 38.0261 18.2639 37.9576 19.2849C37.8891 20.306 37.1779 21.1685 36.192 21.4264L24.5736 24.6782L21.33 36.3568C21.0732 37.3471 20.2144 38.0614 19.1978 38.1302C18.1813 38.199 17.2349 37.6069 16.8481 36.6602L12.8465 26.4528L2.35457 27.0595C1.41905 27.1166 0.548604 26.5774 0.179483 25.7121C-0.189637 24.8468 0.0221109 23.8419 0.708607 23.201L7.10522 16.7914L2.77135 5.8196C2.51002 4.96143 2.74157 4.02846 3.37336 3.39389C4.00515 2.75933 4.93403 2.52677 5.78845 2.78924Z" transform="translate(6.037037 4.0508475)" id="Path" fill="#FCD116" fill-rule="evenodd" stroke="none" />
      <path d="M5.78845 2.78924L16.6971 7.1452L23.0937 0.714395C23.73 0.0246183 24.7287 -0.190079 25.5903 0.177698C26.4519 0.545475 26.9912 1.41666 26.9383 2.35546L26.3343 12.8996L36.494 16.9249C37.4366 17.3133 38.0261 18.2639 37.9576 19.2849C37.8891 20.306 37.1779 21.1685 36.192 21.4264L24.5736 24.6782L21.33 36.3568C21.0732 37.3471 20.2144 38.0614 19.1978 38.1302C18.1813 38.199 17.2349 37.6069 16.8481 36.6602L12.8465 26.4528L2.35457 27.0595C1.41905 27.1166 0.548604 26.5774 0.179483 25.7121C-0.189637 24.8468 0.0221109 23.8419 0.708607 23.201L7.10522 16.7914L2.77135 5.8196C2.51002 4.96143 2.74157 4.02846 3.37336 3.39389C4.00515 2.75933 4.93403 2.52677 5.78845 2.78924Z" id="Path" fill="none" fill-rule="evenodd" stroke="#F8842C" stroke-width="1" stroke-linecap="round" stroke-linejoin="round" />
    </g>
  </g>
</svg>