<?xml version="1.0" encoding="utf-8"?>
<svg width="300px" version="1.0" id="Layer_1" xmlns="http://www.w3.org/2000/svg" x="0" y="0" viewBox="0 0 491.5 498.7" xml:space="preserve">
  <path d="M1.5 451.5h322.1c0-35.6-28.8-64.4-64.4-64.4h-80.5c0-35.6-28.8-64.4-64.4-64.4H1.5" fill="#5CBBFF"/>
  <path fill="none" stroke="#0072C6" stroke-width="10" stroke-linecap="round" stroke-linejoin="round" d="M7.5 300.4v193.3"/>
  <path fill="none" stroke="#000000" stroke-width="3" stroke-linecap="round" stroke-linejoin="round" d="M1.5 291.4v193.3"/>
  <path d="M1.5 452.5h322.1c0-35.6-28.8-64.4-64.4-64.4h-80.5c0-35.6-28.8-64.4-64.4-64.4H1.5" fill="none" stroke="#000000" stroke-width="3" stroke-linecap="round" stroke-linejoin="round"/>
  <path fill="none" stroke="#000000" stroke-width="3" stroke-linecap="round" stroke-linejoin="round" d="M114.3 387.1h64.4"/>
  <path d="M479.2 264.1l-35.1-27.5c3.2-15.8 3.2-32.1 0-47.9l35.1-27.5c12.6-9.9 16-27.6 7.9-41.4l-4.3-7.4c-8-13.9-25-19.8-39.9-13.8l-41.7 16.8c-12.1-10.4-26-18.4-41-23.6l-6.4-44.5c-2.2-15.9-15.9-27.8-32-27.7h-8.6c-16 .1-29.5 11.8-31.8 27.6L275 91.7c-15 5.2-28.9 13.3-41 23.6l-41.7-16.7c-14.9-6-31.9-.1-39.9 13.8l-4.3 7.4c-8 13.9-4.6 31.5 8 41.4l35.1 27.5a120.7 120.7 0 000 47.9L156 264.1l200.6 93.5 3.4-23.9c15.1-5.3 29-13.3 41.1-23.7l41.8 16.8c14.9 6 31.9.1 39.9-13.8l4.3-7.4c8.1-13.9 4.7-31.6-7.9-41.5zM317.5 261c-26.7 0-48.3-21.6-48.3-48.3 0-26.7 21.6-48.3 48.3-48.3 26.7 0 48.3 21.6 48.3 48.3 0 26.6-21.6 48.3-48.3 48.3z" fill="#FCD116"/>
  <circle cx="307.5" cy="194.8" r="48.3" fill="none" stroke="#000000" stroke-width="3" stroke-linecap="round" stroke-linejoin="round"/>
  <path d="M346.6 339.7l3.4-23.9c15.1-5.3 29-13.3 41.1-23.7l41.8 16.8c14.9 6 31.9.1 39.9-13.8l4.3-7.4c8-13.9 4.6-31.6-8-41.4L434 218.8c3.2-15.8 3.2-32.1 0-47.9l35.1-27.5c12.6-9.9 16-27.6 7.9-41.4l-4.3-7.4c-8-13.9-25-19.8-39.9-13.8l-41.7 16.8c-12.1-10.4-26-18.4-41-23.6l-6.4-44.5c-2.2-15.9-15.9-27.8-32-27.7h-8.6c-16 .1-29.5 11.8-31.8 27.6l-6.4 44.5c-15 5.2-28.9 13.3-41 23.6l-41.7-16.7c-14.9-6-31.9-.1-39.9 13.8L138 102c-8 13.9-4.6 31.5 8 41.4l35.1 27.5a120.7 120.7 0 000 47.9L146 246.3" fill="none" stroke="#000000" stroke-width="3" stroke-linecap="round" stroke-linejoin="round"/>
</svg>