
<svg xmlns="http://www.w3.org/2000/svg" xmlns:xlink="http://www.w3.org/1999/xlink" width="615.8" height="601.9" overflow="visible" viewBox="0 0 615.8 601.9">
  <path fill="#3fa9f5" d="M579.1 247.6h-45.5c-4.5-15.6-10.8-30.7-18.6-45l32.2-32.2c14.3-14.3 14.3-37.5 0-51.8l-34.6-34.5c-14.3-14.3-37.5-14.3-51.8 0l-32.2 32.2c-14.2-7.9-29.3-14.1-44.9-18.6V52.1c0-20.2-16.4-36.7-36.6-36.7h-48.9c-20.2 0-36.6 16.4-36.6 36.7v45.5c-15.6 4.5-30.7 10.8-44.9 18.6L184.5 84c-14.3-14.3-37.5-14.3-51.8 0L98 118.6c-14.3 14.3-14.3 37.5 0 51.8l32.2 32.2c-7.9 14.2-14.1 29.3-18.6 44.9H66.1c-20.2 0-36.6 16.4-36.6 36.7v48.9c0 20.2 16.4 36.7 36.6 36.7h45.5c4.5 15.6 10.8 30.7 18.6 44.9L98 446.9c-14.3 14.3-14.3 37.5 0 51.8l34.5 34.6c14.5 13.7 37.3 13.7 51.8 0l32.2-32.2c14.2 7.9 29.3 14.1 45 18.7v45.5c0 20.2 16.4 36.7 36.6 36.7H347c20.2 0 36.6-16.4 36.6-36.7v-45.5c15.6-4.5 30.7-10.8 44.9-18.6l32.2 32.2c14.3 14.3 37.5 14.3 51.8 0l34.5-34.6c14.3-14.3 14.3-37.5 0-51.8l-32-32.2c7.9-14.2 14.1-29.3 18.6-45h45.5c20.2 0 36.6-16.4 36.6-36.7v-48.9c.1-20.2-16.3-36.6-36.6-36.6zM322.6 430.8c-67.5 0-122.1-54.7-122.1-122.2s54.7-122.2 122.1-122.2 122.1 54.7 122.1 122.2-54.6 122.2-122.1 122.2z"/>
  <path d="M390.8 105.8c-22.6-11.3-46.6-19.5-71.3-24.4v-55c0-13.5-10.9-24.4-24.4-24.4h-24.4c-13.5 0-24.4 10.9-24.4 24.4v55c-24.8 5-48.8 13.2-71.4 24.4L136 66.9c-9.5-9.5-25-9.5-34.5 0L67 101.5c-9.5 9.5-9.5 25 0 34.6l38.8 38.8c-11.2 22.6-19.4 46.6-24.4 71.4h-55C12.9 246.3 2 257.2 2 270.7v24.4c0 13.5 10.9 24.4 24.4 24.4h54.9c5 24.8 13.2 48.8 24.4 71.4l-38.8 38.9c-9.5 9.5-9.5 25 0 34.6l34.7 34.6c9.5 9.5 25 9.5 34.5 0l38.8-38.9c22.6 11.2 46.6 19.5 71.4 24.4v55c0 13.5 10.9 24.4 24.4 24.4H295c13.5 0 24.4-10.9 24.4-24.4v-54.9c24.7-5 48.7-13.2 71.3-24.4l38.9 38.8c9.5 9.5 25 9.5 34.5 0l34.5-34.6c9.5-9.5 9.5-25 0-34.6L459.9 391c11.2-22.6 19.4-46.6 24.4-71.4h55c13.5 0 24.4-10.9 24.4-24.4v-24.4c0-13.5-10.9-24.4-24.4-24.4h-54.9c-3-12.2-7-28.1-12-42.9" style="fill:none;stroke:#111;stroke-width:3.7628;stroke-linecap:round;stroke-linejoin:round;"/>
  <path d="M563.8 1.9L282.8 344l-97.7-110" style="fill:none;stroke:#111;stroke-width:3.7628;stroke-linecap:round;stroke-linejoin:round;"/>
</svg>