<svg xmlns="http://www.w3.org/2000/svg" xmlns:xlink="http://www.w3.org/1999/xlink" viewBox="0 0 545.43 558.72"><defs><linearGradient id="a" x1="-185.05" y1="-2339.07" x2="-119.63" y2="-2225.78" gradientTransform="translate(501.99 2454.14)" gradientUnits="userSpaceOnUse"><stop offset="0" stop-color="#5a62c3"/><stop offset="0.5" stop-color="#4d55bd"/><stop offset="1" stop-color="#3940ab"/></linearGradient></defs><path d="M436.22,148.94h50.64a8.67,8.67,0,0,1,8.67,8.66h0v46.12a31.85,31.85,0,0,1-31.84,31.84h-.15a31.84,31.84,0,0,1-31.85-31.83h0V153.47a4.53,4.53,0,0,1,4.53-4.53Z" style="fill:#5059c9"/><circle cx="470.43" cy="119.28" r="20.51" style="fill:#5059c9"/><circle cx="406.62" cy="110.17" r="29.63" style="fill:#7b83eb"/><path d="M446.11,148.94H362.57a8.57,8.57,0,0,0-8.35,8.77V210.3a50.18,50.18,0,1,0,100.24,0V157.71A8.57,8.57,0,0,0,446.11,148.94Z" style="fill:#7b83eb"/><path d="M408.92,148.94v73.7a8.39,8.39,0,0,1-5.2,7.7,7.91,7.91,0,0,1-3.14.64H358.23c-.59-1.5-1.14-3-1.59-4.56a55.45,55.45,0,0,1-2.42-16.13v-52.6a8.55,8.55,0,0,1,8.34-8.75Z" style="opacity:0.10000000149011612;isolation:isolate"/><path d="M404.34,148.94v78.27a8.13,8.13,0,0,1-.63,3.15,8.42,8.42,0,0,1-7.7,5.2H360.37c-.77-1.51-1.5-3-2.14-4.56a43.36,43.36,0,0,1-1.59-4.56,55.52,55.52,0,0,1-2.42-16.14V157.69a8.56,8.56,0,0,1,8.34-8.75Z" style="opacity:0.20000000298023224;isolation:isolate"/><path d="M404.34,148.94v69.13a8.39,8.39,0,0,1-8.33,8.34H356.64a55.45,55.45,0,0,1-2.42-16.13V157.69a8.55,8.55,0,0,1,8.34-8.75Z" style="opacity:0.20000000298023224;isolation:isolate"/><path d="M399.77,148.94v69.13a8.4,8.4,0,0,1-8.33,8.34h-34.8a55.45,55.45,0,0,1-2.42-16.13V157.69a8.55,8.55,0,0,1,8.34-8.75Z" style="opacity:0.20000000298023224;isolation:isolate"/><path d="M408.92,125.36v14.36c-.78.05-1.51.09-2.28.09s-1.51,0-2.28-.09a25.05,25.05,0,0,1-4.56-.73,29.62,29.62,0,0,1-20.51-17.41,25.22,25.22,0,0,1-1.46-4.56h22.75A8.38,8.38,0,0,1,408.92,125.36Z" style="opacity:0.10000000149011612;isolation:isolate"/><path d="M404.34,129.94v9.8a26,26,0,0,1-4.55-.73,29.63,29.63,0,0,1-20.51-17.41H396A8.36,8.36,0,0,1,404.34,129.94Z" style="opacity:0.20000000298023224;isolation:isolate"/><path d="M404.34,129.94v9.8a26,26,0,0,1-4.55-.73,29.63,29.63,0,0,1-20.51-17.41H396A8.36,8.36,0,0,1,404.34,129.94Z" style="opacity:0.20000000298023224;isolation:isolate"/><path d="M399.77,129.94V139a29.65,29.65,0,0,1-20.51-17.41h12.17A8.37,8.37,0,0,1,399.77,129.94Z" style="opacity:0.20000000298023224;isolation:isolate"/><path d="M307.88,121.6h83.54a8.35,8.35,0,0,1,8.35,8.35v83.53a8.35,8.35,0,0,1-8.35,8.36H307.88a8.35,8.35,0,0,1-8.35-8.36V130A8.35,8.35,0,0,1,307.88,121.6Z" style="fill:url(#a)"/><path d="M371.63,153.34h-16.7V198.8H344.29V153.34H327.67v-8.79h44Z" style="fill:#fff"/><path d="M37.85,92.05V37.85A36.13,36.13,0,0,1,74,1.72h433.6a36.13,36.13,0,0,1,36.14,36.13V326.92a36.14,36.14,0,0,1-36.14,36.13H326.92" style="fill:none;stroke:#000;stroke-linecap:round;stroke-linejoin:round;stroke-width:3.4303797468354316px"/><line x1="399.18" y1="363.05" x2="399.18" y2="435.32" style="fill:none;stroke:#000;stroke-linecap:round;stroke-linejoin:round;stroke-width:3.4303797468354316px"/><line x1="363.05" y1="435.32" x2="453.38" y2="435.32" style="fill:none;stroke:#000;stroke-linecap:round;stroke-linejoin:round;stroke-width:3.4303797468354316px"/><path d="M32.72,558.72a162.6,162.6,0,0,1,325.2,0" style="fill:#fcd116"/><path d="M1.72,544.72a162.6,162.6,0,0,1,325.2,0" style="fill:none;stroke:#000;stroke-linecap:round;stroke-linejoin:round;stroke-width:3.4303797468354316px"/><path d="M278.77,229.18a165.19,165.19,0,0,1-184.08-37,99.37,99.37,0,0,1,184.08,37Z" style="fill:#5cbbff"/><path d="M78.68,196.17a165.16,165.16,0,0,0,184.09,37" style="fill:none;stroke:#000;stroke-linecap:round;stroke-linejoin:round;stroke-width:3.4303797468354316px"/><circle cx="164.32" cy="246.62" r="99.37" style="fill:none;stroke:#000;stroke-linecap:round;stroke-linejoin:round;stroke-width:3.4303797468354316px"/></svg>