
<svg xmlns="http://www.w3.org/2000/svg" xmlns:xlink="http://www.w3.org/1999/xlink" width="615.8" height="601.9" overflow="visible" viewBox="0 0 615.8 601.9" xml:space="preserve">
  <g id="Azure_Process_Phase_1_Kopie">
    <path fill="#fcd116" d="M579.5 251.3h-45c-4.5-15.5-10.7-30.4-18.4-44.5l31.8-31.8c14.2-14.2 14.2-37.1 0-51.3l-34.2-34.2c-14.2-14.2-37.1-14.2-51.3 0l-31.9 31.8c-14.1-7.8-29-14-44.4-18.4v-45c0-20-16.2-36.3-36.3-36.3h-48.4c-20 0-36.3 16.2-36.3 36.3v45c-15.5 4.5-30.4 10.7-44.5 18.4l-31.9-31.8c-14.2-14.2-37.1-14.2-51.3 0l-34.2 34.2c-14.2 14.2-14.2 37.1 0 51.3l31.9 31.8c-7.8 14.1-14 29-18.4 44.4h-45c-20 0-36.3 16.2-36.3 36.3v48.4c0 20 16.2 36.3 36.3 36.3h45c4.5 15.5 10.7 30.4 18.4 44.5l-31.9 31.9c-14.2 14.2-14.2 37.1 0 51.3l34.2 34.2c14.4 13.6 36.9 13.6 51.3 0l31.9-31.8c14.1 7.8 29 14 44.5 18.5v45c0 20 16.2 36.3 36.3 36.3h48.4c20 0 36.3-16.2 36.3-36.3v-45c15.5-4.5 30.4-10.7 44.5-18.4l31.9 31.8c14.2 14.2 37.1 14.2 51.3 0L548 500c14.2-14.2 14.2-37.1 0-51.3l-32-32c7.8-14.1 14-29 18.4-44.5h45c20 0 36.3-16.2 36.3-36.3v-48.4c.1-20-16.2-36.2-36.2-36.2zM325.6 432.6c-66.8 0-120.9-54.1-120.9-120.9s54.1-120.9 120.9-120.9 120.9 54.1 120.9 120.9c-.1 66.7-54.2 120.8-120.9 120.9z"/>
    <path d="M488.5 322.1h55.3c13.6 0 24.6-11 24.6-24.6v-24.6c0-13.6-11-24.6-24.6-24.6h-55.3c-5-25-13.3-49.2-24.6-72l39.1-39.1c9.6-9.6 9.6-25.2 0-34.8l-35-35c-9.6-9.6-25.2-9.6-34.8 0L394 106.6C371.2 95.3 347 87 322.1 82V26.5c0-13.6-11-24.6-24.6-24.6h-24.6c-13.6 0-24.6 11-24.6 24.6v55.4c-25 5-49.2 13.3-72 24.6l-39.2-39.1c-9.6-9.6-25.2-9.6-34.8 0l-34.9 34.9c-9.6 9.6-9.6 25.2 0 34.8l39.2 39.1c-11.3 22.8-19.6 47-24.6 72H26.5c-13.6 0-24.6 11-24.6 24.6v24.6c0 13.6 11 24.6 24.6 24.6h55.3c5 25 13.3 49.1 24.6 72l-39.2 39.2c-9.6 9.6-9.6 25.2 0 34.8l35 34.8c9.6 9.6 25.2 9.6 34.8 0l39.1-39.2c22.8 11.3 47 19.6 72 24.6v55.4c0 13.6 11 24.6 24.6 24.6h24.6c13.6 0 24.6-11 24.6-24.6v-55.3c25-5 49.1-13.3 71.9-24.6l39.2 39.1c9.6 9.6 25.2 9.6 34.8 0l34.8-34.8c9.6-9.6 9.6-25.2 0-34.8L463.5 394c11.6-22.7 19.9-46.9 25-71.9z" style="fill:none;stroke:#111;stroke-width:3.7237;stroke-linecap:round;stroke-linejoin:round;"/>
    <circle cx="285.1" cy="285.2" r="110.8" style="fill:none;stroke:#111;stroke-width:3.7237;stroke-linecap:round;stroke-linejoin:round;"/>
  </g>
</svg>