
<svg xmlns="http://www.w3.org/2000/svg" viewBox="0 0 615.1 540.7">
  <path fill="#f8842c" d="M408.9 290.1h-32.2c-3.2-11.1-7.6-21.7-13.2-31.8l22.8-22.7c10.1-10.1 10.1-26.5 0-36.7l-24.4-24.4c-10.1-10.1-26.5-10.1-36.6 0l-22.8 22.8c-10.1-5.6-20.7-10-31.8-13.2v-32.2c0-14.3-11.6-25.9-25.9-25.9h-34.6c-14.3 0-25.9 11.6-25.9 25.9v32.2c-11 3.2-21.7 7.6-31.8 13.2l-22.8-22.8c-10.1-10.1-26.5-10.1-36.6 0L68.7 199c-10.1 10.1-10.1 26.5 0 36.7l22.8 22.8c-5.6 10.1-10 20.7-13.2 31.8H46.1c-14.3 0-25.9 11.6-25.9 25.9v34.6c0 14.3 11.6 25.9 25.9 25.9h32.2c3.2 11.1 7.6 21.7 13.2 31.8l-22.8 22.8c-10.1 10.1-10.1 26.5 0 36.6l24.4 24.4c10.3 9.7 26.4 9.7 36.7 0l22.8-22.8c10.1 5.6 20.7 10 31.8 13.2v32.1c0 14.3 11.6 25.9 25.9 25.9h34.6c14.3 0 25.9-11.6 25.9-25.9v-32.1c11-3.2 21.7-7.6 31.8-13.2l22.8 22.8c10.1 10.1 26.5 10.1 36.6 0l24.4-24.4c10.1-10.1 10.1-26.5 0-36.6l-22.8-22.8c5.6-10.1 10-20.7 13.2-31.8H409c14.3 0 25.9-11.6 25.9-25.9V316c-.1-14.3-11.7-25.9-26-25.9zM227.5 419.7c-47.7 0-86.4-38.7-86.4-86.4s38.7-86.4 86.4-86.4 86.4 38.7 86.4 86.4c-.1 47.7-38.7 86.4-86.4 86.4z"/>
  <ellipse cx="227.7" cy="329.5" fill="#f8842c" rx="104.9" ry="90.1"/>
  <circle cx="502.9" cy="122.6" r="54.9" fill="#f8842c"/>
  <path fill="#f8842c" d="M601.5 95.9h-16.9c-1.7-5.8-4-11.4-6.9-16.7l12-12c5.3-5.3 5.3-13.9 0-19.3l-12.9-12.8c-5.3-5.3-13.9-5.3-19.3 0l-12 12c-5.3-2.9-10.9-5.3-16.7-6.9v-17c0-7.5-6.1-13.6-13.6-13.6H497c-7.5 0-13.6 6.1-13.6 13.6v16.9c-5.8 1.7-11.4 4-16.7 6.9l-12-12c-5.3-5.3-13.9-5.3-19.3 0l-12.8 13c-5.3 5.3-5.3 13.9 0 19.3l12 12c-2.9 5.3-5.3 10.9-6.9 16.7h-16.9c-7.5 0-13.6 6.1-13.6 13.6v18.2c0 7.5 6.1 13.6 13.6 13.6h16.9c1.7 5.8 4 11.4 6.9 16.7l-12 12c-5.3 5.3-5.3 13.9 0 19.3l12.8 12.8c5.4 5.1 13.9 5.1 19.3 0l12-12c5.3 2.9 10.9 5.3 16.7 6.9V214c0 7.5 6.1 13.6 13.6 13.6h18.2c7.5 0 13.6-6.1 13.6-13.6v-16.9c5.8-1.7 11.4-4 16.7-6.9l12 12c5.3 5.3 13.9 5.3 19.3 0l12.8-12.8c5.3-5.3 5.3-13.9 0-19.3l-12-12c2.9-5.3 5.3-10.9 6.9-16.7h16.9c7.5 0 13.6-6.1 13.6-13.6v-18.2c.1-7.6-6-13.7-13.5-13.7zM506.1 164c-25.1 0-45.4-20.3-45.4-45.4s20.3-45.4 45.4-45.4c25.1 0 45.4 20.3 45.4 45.4 0 25.1-20.3 45.4-45.4 45.4z"/>
  <g fill="none" stroke="#111" stroke-linecap="round" stroke-linejoin="round" stroke-width="2.634">
    <path d="M337.7 332.6h38.2c9.4 0 17-7.6 17-17v-17c0-9.4-7.6-17-17-17h-38.3c-3.5-17.3-9.2-34-17-49.8l27.1-27c6.6-6.6 6.6-17.4 0-24.1l-24.1-24.1c-6.6-6.6-17.4-6.6-24.1 0l-27.1 27.1c-15.8-7.8-32.5-13.6-49.7-17v-38.3c0-9.4-7.6-17-17-17h-17c-9.4 0-17 7.6-17 17v38.3c-17.3 3.5-34 9.2-49.7 17l-27.1-27c-6.6-6.6-17.4-6.6-24.1 0l-24.1 24.1c-6.6 6.6-6.6 17.4 0 24.1L73.8 232c-7.8 15.8-13.6 32.5-17 49.7H18.3c-9.4 0-17 7.6-17 17v17c0 9.4 7.6 17 17 17h38.2c3.5 17.3 9.2 34 17 49.7l-27.1 27.1c-6.6 6.6-6.6 17.4 0 24.1l24.2 24.1c6.6 6.6 17.4 6.6 24.1 0l27.1-27.1c15.8 7.8 32.5 13.6 49.8 17v38.3c0 9.4 7.6 17 17 17h17c9.4 0 17-7.6 17-17v-38.2c17.2-3.5 34-9.2 49.7-17l27.1 27.1c6.6 6.6 17.4 6.6 24.1 0l24.1-24.1c6.6-6.6 6.6-17.4 0-24.1l-27.1-27.1c7.9-15.9 13.7-32.6 17.2-49.9z"/>
    <circle cx="197.1" cy="307" r="76.6"/>
  </g>
  <g fill="none" stroke="#111" stroke-linecap="round" stroke-linejoin="round" stroke-width="2.634">
    <path d="M559 120.4h20.6c5.1 0 9.2-4.1 9.2-9.2V102c0-5.1-4.1-9.2-9.2-9.2H559c-1.9-9.3-4.9-18.3-9.2-26.8l14.6-14.5c3.6-3.6 3.6-9.4 0-12.9l-13-12.9c-3.6-3.6-9.4-3.6-12.9 0l-14.6 14.6c-8.5-4.2-17.5-7.3-26.7-9.2V10.5c0-5.1-4.1-9.2-9.2-9.2h-9.2c-5.1 0-9.2 4.1-9.2 9.2v20.6c-9.3 1.9-18.3 4.9-26.7 9.2l-14.6-14.5c-3.6-3.6-9.4-3.6-12.9 0l-13 13c-3.6 3.6-3.6 9.4 0 12.9L417 66.2c-4.2 8.5-7.3 17.5-9.2 26.7h-20.6c-5.1 0-9.2 4.1-9.2 9.2v9.2c0 5.1 4.1 9.2 9.2 9.2h20.6c1.9 9.3 4.9 18.3 9.2 26.7l-14.6 14.6c-3.6 3.6-3.6 9.4 0 12.9l13 12.9c3.6 3.6 9.4 3.6 12.9 0l14.6-14.6c8.5 4.2 17.5 7.3 26.8 9.2v20.6c0 5.1 4.1 9.2 9.2 9.2h9.2c5.1 0 9.2-4.1 9.2-9.2v-20.6c9.3-1.9 18.3-4.9 26.7-9.2l14.6 14.6c3.6 3.6 9.4 3.6 12.9 0l12.9-12.9c3.6-3.6 3.6-9.4 0-12.9l-14.6-14.6c4.2-8.5 7.3-17.5 9.2-26.8z"/>
    <circle cx="483.4" cy="106.6" r="41.2"/>
  </g>
</svg>