<?xml version="1.0" encoding="utf-8"?>
<svg width="303px" height="297px" viewbox="0 0 303 297" version="1.1" xmlns:xlink="http://www.w3.org/1999/xlink" xmlns="http://www.w3.org/2000/svg">
  <g id="office-employee" transform="translate(1 1)">
    <path d="M288.359 81.6134L239.343 81.6134C238.355 81.6107 237.425 81.1503 236.823 80.367C236.221 79.5836 236.016 78.5655 236.268 77.6103L253.068 14.6278C254.008 11.0887 253.153 7.31394 250.781 4.52469C248.314 1.63199 244.695 -0.0237364 240.894 0.000520048L59.6221 0.000520048C55.8203 -0.0237364 52.2019 1.63199 49.735 4.52469C47.3627 7.31394 46.508 11.0887 47.4475 14.6278L64.2479 77.6103C64.4998 78.5655 64.2949 79.5836 63.693 80.367C63.0912 81.1503 62.1603 81.6107 61.1725 81.6134L12.1564 81.6134C5.38096 81.8291 7.05454e-16 87.384 0 94.1629C-7.05454e-16 100.942 5.38096 106.497 12.1564 106.712L288.359 106.712C295.135 106.497 300.516 100.942 300.516 94.1629C300.516 87.384 295.135 81.8291 288.359 81.6134ZM150.258 31.3774C158.926 31.3774 165.953 38.4042 165.953 47.0722C165.953 55.7402 158.926 62.767 150.258 62.767C141.59 62.767 134.563 55.7402 134.563 47.0722C134.563 38.4042 141.59 31.3774 150.258 31.3774Z" transform="translate(0.45825195 188)" id="Shape" fill="#FCD116" stroke="none" />
    <path d="M184.597 100.333L21.5558 100.333L0.372899 15.5767C-0.561269 11.8313 0.281402 7.86431 2.65743 4.82201C5.03347 1.77971 8.67812 0.00106634 12.5383 0L193.615 0C197.475 0.00106634 201.12 1.77971 203.496 4.82201C205.872 7.86431 206.714 11.8313 205.78 15.5767L184.597 100.333Z" transform="translate(34.88159 179.125)" id="Shape" fill="none" fill-rule="evenodd" stroke="#000520" stroke-width="2" stroke-linecap="round" stroke-linejoin="round" />
    <path d="M0 0L275.917 0" transform="translate(0 279.45837)" id="Shape" fill="none" fill-rule="evenodd" stroke="#000520" stroke-width="1" stroke-linecap="round" stroke-linejoin="round" />
    <path d="M0 0L0 18.8125" transform="translate(137.95825 141.5)" id="Shape" fill="none" fill-rule="evenodd" stroke="#000520" stroke-width="2" stroke-linecap="round" stroke-linejoin="round" />
    <path d="M87 40.7317C84.4388 20.8831 69.4667 4.86917 49.7789 0.920541C30.0911 -3.02809 10.0676 5.96709 0 23.2829C14.7414 38.4453 35.0228 47.0031 56.2085 46.9999C66.7923 47.0087 77.2677 44.8762 87 40.7317Z" transform="translate(107.45825 0)" id="Shape" fill="#5CBBFF" fill-rule="evenodd" stroke="none" />
    <path d="M52.3364 43.9165C62.191 43.9247 71.9448 41.9321 81.0066 38.0596C78.6219 19.5131 64.6812 4.54973 46.3497 0.860149C28.0181 -2.82943 9.37409 5.57562 0 21.7554C13.7258 35.9232 32.6101 43.9195 52.3364 43.9165L52.3364 43.9165Z" transform="translate(100.25806 3.520996)" id="Shape" fill="none" fill-rule="evenodd" stroke="#000520" stroke-width="2" stroke-linecap="round" stroke-linejoin="round" />
    <path d="M43.8958 87.7917C68.1388 87.7917 87.7917 68.1388 87.7917 43.8958C87.7917 19.6528 68.1388 0 43.8958 0C19.6528 0 0 19.6528 0 43.8958C0 68.1388 19.6528 87.7917 43.8958 87.7917Z" transform="translate(94.0625 3.541687)" id="Oval" fill="none" fill-rule="evenodd" stroke="#000520" stroke-width="2" stroke-linecap="round" stroke-linejoin="round" />
    <path d="M15.6771 31.3542C24.3353 31.3542 31.3542 24.3353 31.3542 15.6771C31.3542 7.01887 24.3353 0 15.6771 0C7.01887 0 0 7.01887 0 15.6771C0 24.3353 7.01887 31.3542 15.6771 31.3542Z" transform="translate(122.28113 210.47919)" id="Oval" fill="none" fill-rule="evenodd" stroke="#000520" stroke-width="2" stroke-linecap="round" stroke-linejoin="round" />
    <path d="M119.02 43.9088C110.961 17.8045 86.8303 0 59.5102 0C32.1901 0 8.05941 17.8045 0 43.9088" transform="translate(78.448 110.13287)" id="Shape" fill="none" fill-rule="evenodd" stroke="#000520" stroke-width="2" stroke-linecap="round" stroke-linejoin="round" />
  </g>
</svg>