<svg xmlns="http://www.w3.org/2000/svg" xmlns:xlink="http://www.w3.org/1999/xlink" x="0px" y="0px"
	 viewBox="0 0 1920 330" style="enable-background:new 0 0 1920 330;" xml:space="preserve">
    <g fill="none" stroke="#fff" stroke-linecap="round" stroke-linejoin="round" stroke-width="5">
        <path d="m1453 156.4 47.3-53.4M1453 183.4l47.3-53.4M1453 210.4l47.3-53.4"/>
    </g>
    <path d="M0 90a90 90 0 0 0 90 90h.08V90z" fill="#acd653"/>
    <path d="M90.08 0v180A90 90 0 0 0 180 90 90 90 0 0 0 90.08 0z" fill="#008187"/>
    <g>
        <g fill="#fcd116">
            <path d="m1549 46.72-44.99 45.02H1549V46.72z"/>
            <path d="M1549 91.74h-44.99v89.98h89.98V91.74H1549z"/>
        </g>
        <g fill="#fcd116">
            <path d="M1593.99 1.73 1549 46.72h44.99V1.73zM1684 1.73h-90.01v179.99H1684V1.73z"/>
        </g>
        <path fill="#0072c6" d="M1549 1.73v44.99h-44.99L1549 1.73z"/>
        <path d="M1684 91.72a90 90 0 0 0-89.93-90v45.45l-.08-.45-45 45h53.24z" fill="#f8842c"/>
        <path d="M1504 91.72a90 90 0 0 0 90 90 90 90 0 0 0 90-90h-180z" fill="#acd653"/>
        <path d="M1594 181.72v-.07a90 90 0 0 0-90-90v90.07z" fill="#0072c6"/>
    </g>
</svg>
