<?xml version="1.0" encoding="utf-8"?>
<!-- Generator: Adobe Illustrator 25.3.0, SVG Export Plug-In . SVG Version: 6.00 Build 0)  -->
<svg version="1.1" id="Layer_1" xmlns="http://www.w3.org/2000/svg" xmlns:xlink="http://www.w3.org/1999/xlink" x="0px" y="0px"
	 viewBox="0 0 398.4 248.4" style="enable-background:new 0 0 398.4 248.4;" xml:space="preserve">
<style type="text/css">
	.st0{fill:#FCD116;}
	.st1{fill:none;stroke:#000520;stroke-width:0.3103;stroke-linecap:round;stroke-linejoin:round;}
	.st2{fill:#0072C6;}
	.st3{fill:none;stroke:#000000;stroke-width:0.3103;stroke-linecap:round;stroke-linejoin:round;}
	.st4{fill:none;stroke:#000000;stroke-width:0.1936;stroke-miterlimit:10;}
	.st5{fill:#FFFFFF;}
	.st6{fill:#E44418;}
	.st7{fill:none;stroke:#000000;stroke-width:0.2815;stroke-miterlimit:10;}
	.st8{font-family:'Lato-Regular';}
	.st9{font-size:11px;}
	.st10{fill:none;stroke:#000520;stroke-width:0.3196;stroke-linecap:round;stroke-linejoin:round;}
	.st11{fill:none;stroke:#000520;stroke-width:0.3226;stroke-linecap:round;stroke-linejoin:round;}
	.st12{fill:none;stroke:#0072C6;stroke-width:2.3108;stroke-miterlimit:10;}
	.st13{fill:#FCD116;stroke:#FCD116;stroke-width:0.2529;stroke-miterlimit:10;}
	.st14{fill:none;stroke:#000000;stroke-width:0.277;stroke-miterlimit:10;}
	.st15{fill:#F6FBFC;}
</style>
<path class="st0" d="M338.3,206.1c7.1-0.1,14.2-0.5,21.2-1.4c9.7,0,17.6-7.8,17.6-17.5c0-9.7-7.8-17.6-17.5-17.6
	c-3.6,0-7.1,1.1-10.1,3.1c-2.8-14.7-16.9-24.3-31.6-21.6c-14.7,2.8-24.3,16.9-21.6,31.6c2,10.8,10.4,19.3,21.2,21.5
	C324.5,205.2,331.4,205.9,338.3,206.1L338.3,206.1z"/>
<path class="st1" d="M345.9,201.7h4.1c9.7,0.1,17.7-7.7,17.8-17.4c0.1-9.7-7.7-17.7-17.4-17.8c-3.7,0-7.3,1.1-10.3,3.2
	c-2.8-14.7-16.9-24.3-31.6-21.6s-24.3,16.9-21.6,31.6c2,10.8,10.4,19.3,21.2,21.5"/>
<ellipse class="st2" cx="331.8" cy="205.4" rx="12.5" ry="5"/>
<ellipse class="st1" cx="331.8" cy="187.4" rx="12.5" ry="5"/>
<path class="st1" d="M319.3,187.4v7.5c0,2.8,5.6,5,12.5,5s12.5-2.2,12.5-5v-7.5"/>
<path class="st1" d="M319.3,194.9v7.5c0,2.8,5.6,5,12.5,5s12.5-2.2,12.5-5v-7.5"/>
<path class="st3" d="M332.6,216v-4 M334,213.3l-1.3-1.3l-1.3,1.3 M351.3,212.2l-2.8-2.8 M350.4,209.4h-1.9v1.9 M313.4,212.7l2.8-2.8
	 M316.2,211.8v-1.9h-1.9 M310.1,197.6h4 M312.8,198.9l1.3-1.3l-1.3-1.3 M353.4,197.6h-4 M350.7,196.3l-1.3,1.3l1.3,1.3 M312.8,180.3
	l2.8,2.8 M313.7,183.1h1.9v-1.9 M349.9,180.9l-2.8,2.8 M347.1,181.9v1.9h1.9 M332.6,176v4 M331.3,178.6l1.3,1.3l1.3-1.3"/>
<path d="M326.2,229.8h-0.8c-0.1,0-0.2,0-0.2-0.1c-0.1,0-0.1-0.1-0.1-0.2l-0.7-1.9h-3.5l-0.7,1.9c0,0.1-0.1,0.1-0.1,0.2
	c-0.1,0-0.1,0.1-0.2,0.1h-0.8l3.1-7.9h1.1L326.2,229.8z M324,226.9l-1.2-3.2c0-0.1-0.1-0.2-0.1-0.3c0-0.1-0.1-0.3-0.1-0.4
	c-0.1,0.3-0.1,0.5-0.2,0.8l-1.2,3.2L324,226.9z M330.9,224.7c0,0.1,0,0.1,0,0.2c0,0.1,0,0.1-0.1,0.2l-3,4h3v0.8h-4.2v-0.4
	c0-0.1,0-0.1,0-0.2c0-0.1,0.1-0.1,0.1-0.2l3-4h-3v-0.8h4.1L330.9,224.7z M336.6,224.2v5.6H336c-0.1,0-0.2-0.1-0.3-0.2l-0.1-0.6
	c-0.2,0.3-0.5,0.5-0.8,0.6c-0.3,0.2-0.7,0.2-1,0.2c-0.3,0-0.6,0-0.8-0.1c-0.2-0.1-0.4-0.2-0.6-0.4c-0.2-0.2-0.3-0.4-0.4-0.7
	c-0.1-0.3-0.1-0.6-0.1-0.9v-3.6h1v3.6c0,0.4,0.1,0.7,0.3,1c0.2,0.2,0.5,0.4,0.9,0.4c0.3,0,0.6-0.1,0.8-0.2c0.3-0.1,0.5-0.3,0.7-0.6
	v-4.1L336.6,224.2z M339.1,225.4c0.1-0.3,0.4-0.7,0.6-0.9c0.3-0.2,0.6-0.3,0.9-0.3c0.1,0,0.2,0,0.3,0c0.1,0,0.2,0.1,0.3,0.1
	l-0.1,0.7c0,0.1-0.1,0.1-0.2,0.1c0,0,0,0,0,0h-0.2c-0.1,0-0.2,0-0.3,0c-0.2,0-0.3,0-0.5,0.1c-0.1,0.1-0.3,0.1-0.4,0.2
	c-0.1,0.1-0.2,0.2-0.3,0.4c-0.1,0.2-0.2,0.3-0.2,0.5v3.5h-1v-5.6h0.6c0.1,0,0.2,0,0.2,0.1c0,0.1,0.1,0.1,0.1,0.2L339.1,225.4z
	 M346.4,229c-0.1,0.2-0.3,0.3-0.4,0.4c-0.2,0.1-0.3,0.2-0.5,0.3c-0.2,0.1-0.4,0.1-0.6,0.2c-0.2,0-0.4,0-0.6,0.1
	c-0.4,0-0.7-0.1-1.1-0.2c-0.3-0.1-0.6-0.3-0.8-0.6c-0.2-0.3-0.4-0.6-0.5-0.9c-0.1-0.4-0.2-0.8-0.2-1.3c0-0.4,0.1-0.7,0.2-1.1
	c0.1-0.3,0.3-0.6,0.5-0.9c0.2-0.3,0.5-0.4,0.8-0.6c0.3-0.2,0.7-0.2,1.1-0.2c0.3,0,0.6,0.1,0.9,0.2c0.3,0.1,0.5,0.3,0.7,0.5
	c0.2,0.2,0.4,0.5,0.5,0.8c0.1,0.3,0.2,0.7,0.2,1.1c0,0.1,0,0.2,0,0.3c0,0.1-0.1,0.1-0.2,0.1h-3.7c0,0.3,0.1,0.6,0.1,0.9
	c0.1,0.2,0.2,0.5,0.4,0.6c0.2,0.2,0.3,0.3,0.5,0.4c0.2,0.1,0.5,0.1,0.7,0.1c0.2,0,0.4,0,0.6-0.1c0.2,0,0.3-0.1,0.5-0.2l0.3-0.2
	c0.1-0.1,0.1-0.1,0.2-0.1c0.1,0,0.1,0,0.2,0.1L346.4,229z M345.6,226.4c0-0.2,0-0.4-0.1-0.6c-0.1-0.2-0.2-0.3-0.3-0.5
	c-0.1-0.1-0.3-0.3-0.5-0.3c-0.2-0.1-0.4-0.1-0.6-0.1c-0.4,0-0.8,0.1-1.1,0.4c-0.3,0.3-0.5,0.7-0.5,1.1H345.6z M318.4,237.2
	c0,0.1-0.1,0.1-0.1,0.1c0,0-0.1,0-0.1,0c-0.1,0-0.2,0-0.2-0.1c-0.1-0.1-0.2-0.1-0.3-0.2c-0.1-0.1-0.3-0.2-0.5-0.2
	c-0.2-0.1-0.4-0.1-0.6-0.1c-0.2,0-0.4,0-0.6,0.1c-0.2,0.1-0.3,0.1-0.5,0.3c-0.1,0.1-0.2,0.2-0.3,0.4c-0.1,0.2-0.1,0.3-0.1,0.5
	c0,0.2,0.1,0.4,0.2,0.5c0.1,0.2,0.3,0.3,0.4,0.4c0.2,0.1,0.4,0.2,0.6,0.3l0.7,0.2l0.7,0.3c0.2,0.1,0.4,0.2,0.6,0.4
	c0.2,0.2,0.3,0.4,0.4,0.6c0.1,0.3,0.2,0.5,0.2,0.8c0,0.3-0.1,0.7-0.2,1c-0.1,0.3-0.3,0.6-0.5,0.8c-0.2,0.2-0.5,0.4-0.8,0.5
	c-0.4,0.1-0.7,0.2-1.1,0.2c-0.5,0-1-0.1-1.4-0.3c-0.4-0.2-0.8-0.4-1.1-0.8l0.3-0.5c0,0,0.1-0.1,0.1-0.1c0,0,0.1,0,0.1,0
	c0.1,0,0.1,0,0.2,0.1l0.2,0.1l0.3,0.2c0.1,0.1,0.2,0.1,0.3,0.2c0.1,0.1,0.3,0.1,0.4,0.1c0.2,0,0.4,0.1,0.5,0.1c0.2,0,0.5,0,0.7-0.1
	c0.2-0.1,0.4-0.2,0.5-0.3c0.1-0.1,0.2-0.3,0.3-0.5c0.1-0.2,0.1-0.4,0.1-0.6c0-0.2,0-0.4-0.2-0.6c-0.1-0.2-0.3-0.3-0.4-0.4
	c-0.2-0.1-0.4-0.2-0.6-0.3l-0.7-0.2c-0.2-0.1-0.5-0.2-0.7-0.3c-0.2-0.1-0.4-0.2-0.6-0.4c-0.2-0.2-0.3-0.4-0.4-0.6
	c-0.1-0.3-0.2-0.6-0.2-0.9c0-0.3,0.1-0.6,0.2-0.8c0.1-0.3,0.3-0.5,0.5-0.7c0.2-0.2,0.5-0.4,0.8-0.5c0.3-0.1,0.7-0.2,1-0.2
	c0.4,0,0.8,0.1,1.2,0.2c0.4,0.1,0.7,0.3,1,0.6L318.4,237.2z M324.5,243c-0.1,0.2-0.3,0.3-0.4,0.4c-0.2,0.1-0.4,0.2-0.5,0.3
	c-0.2,0.1-0.4,0.1-0.6,0.2c-0.2,0-0.4,0-0.6,0.1c-0.4,0-0.7-0.1-1.1-0.2c-0.3-0.1-0.6-0.3-0.8-0.6c-0.2-0.3-0.4-0.6-0.5-0.9
	c-0.1-0.4-0.2-0.8-0.2-1.3c0-0.4,0.1-0.7,0.2-1.1c0.1-0.3,0.3-0.6,0.5-0.9c0.2-0.2,0.5-0.4,0.8-0.6c0.3-0.2,0.7-0.2,1.1-0.2
	c0.3,0,0.6,0.1,0.9,0.2c0.3,0.1,0.5,0.3,0.7,0.5c0.2,0.2,0.4,0.5,0.5,0.8c0.1,0.3,0.2,0.7,0.2,1.1c0,0.1,0,0.2,0,0.3
	c0,0.1-0.1,0.1-0.2,0.1h-3.8c0,0.3,0.1,0.6,0.1,0.9c0.1,0.2,0.2,0.5,0.4,0.6c0.2,0.2,0.3,0.3,0.5,0.4c0.2,0.1,0.5,0.1,0.7,0.1
	c0.2,0,0.4,0,0.6-0.1c0.2,0,0.3-0.1,0.5-0.2l0.3-0.2c0.1-0.1,0.1-0.1,0.2-0.1c0.1,0,0.1,0,0.2,0.1L324.5,243z M323.8,240.4
	c0-0.2,0-0.4-0.1-0.6c-0.1-0.2-0.1-0.4-0.3-0.5c-0.1-0.1-0.3-0.3-0.5-0.3c-0.2-0.1-0.4-0.1-0.6-0.1c-0.4,0-0.8,0.1-1.1,0.4
	c-0.3,0.3-0.5,0.7-0.5,1.1H323.8z M326.8,239.1c0.1-0.1,0.2-0.3,0.4-0.4c0.1-0.1,0.3-0.2,0.4-0.3c0.2-0.1,0.3-0.1,0.5-0.2
	c0.2,0,0.4-0.1,0.6-0.1c0.3,0,0.5,0,0.8,0.2c0.2,0.1,0.4,0.2,0.6,0.4c0.2,0.2,0.3,0.4,0.4,0.7c0.1,0.3,0.1,0.6,0.1,0.9v3.5h-1v-3.5
	c0-0.4-0.1-0.7-0.3-1c-0.2-0.2-0.5-0.4-0.9-0.4c-0.3,0-0.6,0.1-0.8,0.2c-0.3,0.2-0.5,0.3-0.7,0.6v4.1h-1v-5.6h0.6
	c0.1,0,0.2,0.1,0.3,0.2L326.8,239.1z M337.1,243.8h-1v-4.8h-2.9v3.3c0,0.2,0,0.4,0.2,0.5c0.1,0.1,0.3,0.2,0.4,0.2c0.1,0,0.2,0,0.3,0
	l0.2-0.1l0.1-0.1c0,0,0.1,0,0.1-0.1c0.1,0,0.1,0,0.1,0.1l0.3,0.5c-0.2,0.2-0.4,0.3-0.6,0.4c-0.2,0.1-0.5,0.1-0.7,0.1
	c-0.4,0-0.7-0.1-1-0.4c-0.3-0.3-0.4-0.7-0.4-1.1v-3.4h-0.7c0,0-0.1,0-0.1,0c0,0-0.1-0.1-0.1-0.2v-0.4l0.9-0.1l0.2-1.7
	c0-0.1,0-0.1,0.1-0.1c0,0,0.1-0.1,0.1-0.1h0.5v1.9h3.9L337.1,243.8z M337.3,236.5c0,0.1,0,0.2-0.1,0.3c0,0.1-0.1,0.2-0.1,0.2
	c-0.1,0.1-0.3,0.2-0.5,0.2c-0.1,0-0.2,0-0.3-0.1c-0.1,0-0.2-0.1-0.2-0.1c-0.1-0.1-0.1-0.1-0.1-0.2c0-0.1-0.1-0.2-0.1-0.3
	c0-0.1,0-0.2,0.1-0.3c0-0.1,0.1-0.2,0.1-0.2c0.1-0.1,0.1-0.1,0.2-0.1c0.1,0,0.2-0.1,0.3-0.1c0.1,0,0.2,0,0.3,0.1
	c0.1,0,0.2,0.1,0.2,0.1C337.2,236.1,337.3,236.3,337.3,236.5z M339.6,239.1c0.1-0.1,0.2-0.3,0.4-0.4c0.1-0.1,0.3-0.2,0.4-0.3
	c0.2-0.1,0.3-0.1,0.5-0.2c0.2,0,0.4-0.1,0.5-0.1c0.3,0,0.6,0,0.8,0.2c0.2,0.1,0.4,0.2,0.6,0.4c0.2,0.2,0.3,0.4,0.4,0.7
	c0.1,0.3,0.1,0.6,0.1,0.9v3.5h-1v-3.5c0-0.4-0.1-0.7-0.3-1c-0.2-0.2-0.5-0.4-0.9-0.4c-0.3,0-0.6,0.1-0.8,0.2
	c-0.3,0.1-0.5,0.3-0.7,0.6v4.1h-1v-5.6h0.6c0.1,0,0.2,0.1,0.3,0.2L339.6,239.1z M349.3,243c-0.1,0.2-0.3,0.3-0.4,0.4
	c-0.2,0.1-0.4,0.2-0.5,0.3c-0.2,0.1-0.4,0.1-0.6,0.2c-0.2,0-0.4,0-0.6,0.1c-0.4,0-0.7-0.1-1.1-0.2c-0.3-0.1-0.6-0.3-0.8-0.6
	c-0.3-0.3-0.4-0.6-0.6-0.9c-0.1-0.4-0.2-0.8-0.2-1.3c0-0.4,0.1-0.7,0.2-1.1c0.1-0.3,0.3-0.6,0.5-0.9c0.2-0.3,0.5-0.5,0.8-0.6
	c0.6-0.3,1.4-0.3,2,0c0.3,0.1,0.5,0.3,0.7,0.5c0.2,0.2,0.4,0.5,0.5,0.8c0.1,0.3,0.2,0.7,0.2,1.1c0,0.1,0,0.2,0,0.3
	c0,0.1-0.1,0.1-0.2,0.1h-3.7c0,0.3,0.1,0.6,0.1,0.9c0.1,0.2,0.2,0.5,0.4,0.6c0.2,0.2,0.3,0.3,0.5,0.4c0.2,0.1,0.5,0.1,0.7,0.1
	c0.2,0,0.4,0,0.6-0.1c0.2,0,0.3-0.1,0.5-0.2l0.4-0.2c0.1-0.1,0.1-0.1,0.2-0.1c0.1,0,0.1,0,0.2,0.1L349.3,243z M348.5,240.4
	c0-0.2,0-0.4-0.1-0.6c-0.1-0.2-0.2-0.3-0.3-0.5c-0.1-0.1-0.3-0.2-0.5-0.3c-0.2-0.1-0.4-0.1-0.6-0.1c-0.4,0-0.8,0.1-1.1,0.4
	c-0.3,0.3-0.5,0.7-0.5,1.1H348.5z M351.6,235.7v8.1h-1v-8.1H351.6z"/>
<path class="st2" d="M170.4,162v-4.7c0-0.8,0.2-1.1,1.1-1.2c7.5-1.2,14.7-3.9,21-8c5.2-3.5,11.9-3.5,17,0c6.4,4.1,13.6,6.8,21,8.1
	c0.7,0.1,1.1,0.3,1.1,1.1c0.4,10.4-1.4,20.3-6.2,29.6c-5.2,10.2-13.3,18.5-23.3,24c-0.7,0.5-1.6,0.5-2.4,0
	c-15.3-8.8-24.8-21.8-28.4-39C170.8,168.5,170.4,165.2,170.4,162z"/>
<path class="st4" d="M166.4,161.2v-4.7c0-0.8,0.2-1.1,1.1-1.2c7.5-1.2,14.7-3.9,21-8c5.2-3.5,11.9-3.5,17,0c6.4,4.1,13.6,6.8,21,8.1
	c0.7,0.1,1.1,0.3,1.1,1.1c0.4,10.4-1.4,20.3-6.2,29.6c-5.2,10.2-13.3,18.5-23.2,24c-0.7,0.5-1.6,0.5-2.4,0
	c-15.3-8.8-24.8-21.8-28.4-39C166.8,167.7,166.4,164.5,166.4,161.2L166.4,161.2z"/>
<path class="st5" d="M196.3,170.5l3.9-8.3c0,0,0-0.1,0.1-0.1c0,0-1.6,1.4-3.6,3l-3.6,3l-3.1,5.3l-3.1,5.3h5.5L196.3,170.5z
	 M206.1,172c-2.9-5.1-5-8.6-5-8.6c0,0-3,8.3-3,8.4l2.9,3.5l2.9,3.5l-5.7,1l-5.6,1h18.6v-0.1C211.1,180.7,208.8,176.7,206.1,172z"/>
<path d="M192.1,229.8h-0.8c-0.1,0-0.2,0-0.2-0.1c-0.1,0-0.1-0.1-0.1-0.2l-0.7-1.9h-3.5l-0.7,1.9c0,0.1-0.1,0.1-0.1,0.2
	c-0.1,0.1-0.1,0.1-0.2,0.1h-0.8l3.1-7.9h1.1L192.1,229.8z M189.9,226.9l-1.2-3.2c0-0.1-0.1-0.2-0.1-0.3c0-0.1-0.1-0.3-0.1-0.4
	c-0.1,0.3-0.1,0.5-0.2,0.7l-1.2,3.2L189.9,226.9z M196.8,224.7c0,0.1,0,0.1,0,0.2c0,0.1-0.1,0.1-0.1,0.2l-3,4h3v0.7h-4.2v-0.4
	c0-0.1,0-0.1,0-0.2c0-0.1,0.1-0.1,0.1-0.2l3-4h-3v-0.8h4.1L196.8,224.7z M202.5,224.3v5.5h-0.6c-0.1,0-0.2-0.1-0.3-0.2l-0.1-0.6
	c-0.2,0.3-0.5,0.5-0.8,0.6c-0.3,0.2-0.7,0.3-1,0.2c-0.3,0-0.6,0-0.8-0.1c-0.2-0.1-0.4-0.2-0.6-0.4c-0.2-0.2-0.3-0.4-0.4-0.7
	c-0.1-0.3-0.1-0.6-0.1-0.9v-3.6h1v3.6c0,0.4,0.1,0.7,0.3,1c0.2,0.2,0.5,0.4,0.9,0.4c0.3,0,0.6-0.1,0.8-0.2c0.3-0.1,0.5-0.3,0.7-0.6
	v-4.1H202.5z M204.9,225.4c0.1-0.3,0.4-0.6,0.6-0.9c0.3-0.2,0.6-0.3,0.9-0.3c0.1,0,0.2,0,0.3,0c0.1,0,0.2,0.1,0.3,0.1l-0.1,0.7
	c0,0.1-0.1,0.1-0.2,0.1c0,0,0,0,0,0c-0.1,0-0.2,0-0.2,0c-0.1,0-0.2,0-0.3,0c-0.2,0-0.3,0-0.5,0.1c-0.1,0-0.3,0.1-0.4,0.2
	c-0.1,0.1-0.2,0.2-0.3,0.4c-0.1,0.2-0.2,0.3-0.2,0.5v3.4h-1v-5.6h0.6c0.1,0,0.2,0,0.2,0.1c0,0.1,0.1,0.1,0.1,0.2L204.9,225.4z
	 M212.3,229.1c-0.1,0.1-0.3,0.3-0.4,0.4c-0.2,0.1-0.3,0.2-0.5,0.3c-0.2,0.1-0.4,0.1-0.6,0.1c-0.2,0-0.4,0.1-0.6,0.1
	c-0.4,0-0.7-0.1-1.1-0.2c-0.3-0.1-0.6-0.3-0.8-0.6c-0.2-0.3-0.4-0.6-0.6-0.9c-0.1-0.4-0.2-0.8-0.2-1.3c0-0.4,0.1-0.7,0.2-1.1
	c0.1-0.3,0.3-0.6,0.5-0.9c0.2-0.2,0.5-0.4,0.8-0.6c0.3-0.1,0.7-0.2,1.1-0.2c0.3,0,0.6,0.1,0.9,0.2c0.3,0.1,0.5,0.3,0.7,0.5
	c0.2,0.2,0.4,0.5,0.5,0.8c0.1,0.3,0.2,0.7,0.2,1.1c0,0.1,0,0.2-0.1,0.3c0,0.1-0.1,0.1-0.2,0.1h-3.7c0,0.3,0.1,0.6,0.1,0.9
	c0.1,0.2,0.2,0.5,0.4,0.7c0.2,0.2,0.3,0.3,0.6,0.4c0.4,0.1,0.9,0.1,1.4,0c0.2-0.1,0.3-0.1,0.5-0.2c0.1-0.1,0.2-0.1,0.3-0.2
	c0.1,0,0.1-0.1,0.2-0.1c0.1,0,0.1,0,0.2,0.1L212.3,229.1z M211.5,226.5c0-0.2,0-0.4-0.1-0.6c-0.1-0.2-0.2-0.3-0.3-0.5
	c-0.1-0.1-0.3-0.2-0.4-0.3c-0.2-0.1-0.4-0.1-0.6-0.1c-0.4,0-0.8,0.1-1.1,0.4c-0.3,0.3-0.5,0.7-0.5,1.1L211.5,226.5z M183.9,239.9
	c0,0.5-0.1,1.1-0.3,1.6c-0.2,0.5-0.4,0.9-0.8,1.2c-0.4,0.4-0.8,0.6-1.2,0.8c-0.5,0.2-1,0.3-1.6,0.3h-2.9V236h2.9
	c0.5,0,1.1,0.1,1.6,0.3c0.5,0.2,0.9,0.5,1.2,0.8c0.3,0.4,0.6,0.8,0.8,1.2C183.8,238.8,183.9,239.4,183.9,239.9z M182.8,239.9
	c0-0.4-0.1-0.9-0.2-1.3c-0.1-0.4-0.3-0.7-0.6-1c-0.2-0.3-0.5-0.5-0.9-0.6c-0.4-0.1-0.8-0.2-1.1-0.2h-1.9v6.2h1.9
	c0.4,0,0.8-0.1,1.1-0.2c0.3-0.1,0.6-0.3,0.9-0.6c0.3-0.3,0.5-0.6,0.6-1C182.7,240.8,182.8,240.3,182.8,239.9L182.8,239.9z
	 M189.6,243.1c-0.1,0.1-0.3,0.3-0.4,0.4c-0.2,0.1-0.4,0.2-0.5,0.3c-0.2,0.1-0.4,0.1-0.6,0.1c-0.2,0-0.4,0.1-0.6,0.1
	c-0.4,0-0.7-0.1-1.1-0.2c-0.3-0.1-0.6-0.3-0.8-0.6c-0.2-0.3-0.4-0.6-0.6-0.9c-0.1-0.4-0.2-0.8-0.2-1.3c0-0.4,0.1-0.7,0.2-1.1
	c0.1-0.3,0.3-0.6,0.5-0.9c0.2-0.2,0.5-0.4,0.8-0.6c0.3-0.1,0.7-0.2,1.1-0.2c0.3,0,0.6,0.1,0.9,0.2c0.3,0.1,0.5,0.3,0.7,0.5
	c0.2,0.2,0.4,0.5,0.5,0.8c0.1,0.3,0.2,0.7,0.2,1.1c0,0.1,0,0.2-0.1,0.3c0,0.1-0.1,0.1-0.2,0.1h-3.7c0,0.3,0.1,0.6,0.1,0.9
	c0.1,0.2,0.2,0.5,0.4,0.7c0.2,0.2,0.3,0.3,0.6,0.4c0.2,0.1,0.5,0.1,0.7,0.1c0.2,0,0.4,0,0.6-0.1c0.2-0.1,0.3-0.1,0.5-0.2l0.3-0.2
	c0.1,0,0.1-0.1,0.2-0.1c0.1,0,0.1,0,0.2,0.1L189.6,243.1z M188.8,240.5c0-0.2,0-0.4-0.1-0.6c-0.1-0.2-0.2-0.3-0.3-0.5
	c-0.1-0.1-0.3-0.2-0.4-0.3c-0.2-0.1-0.4-0.1-0.6-0.1c-0.4,0-0.8,0.1-1.1,0.4c-0.3,0.3-0.5,0.7-0.5,1.1L188.8,240.5z M191.2,243.8
	v-4.7l-0.6-0.1c-0.1,0-0.1,0-0.2-0.1c0,0-0.1-0.1-0.1-0.2v-0.4h0.9v-0.6c0-0.3,0-0.6,0.1-0.9c0.1-0.2,0.2-0.5,0.4-0.6
	c0.2-0.2,0.4-0.3,0.6-0.4c0.3-0.1,0.5-0.1,0.8-0.1c0.2,0,0.5,0,0.7,0.1v0.5c0,0.1-0.1,0.1-0.1,0.1c0,0,0,0,0,0h-0.4
	c-0.2,0-0.3,0-0.5,0.1c-0.1,0-0.3,0.1-0.4,0.2c-0.1,0.1-0.2,0.2-0.2,0.4c-0.1,0.2-0.1,0.4-0.1,0.6v0.5h1.6v0.7h-1.6v4.8H191.2z
	 M199.1,243.1c-0.1,0.1-0.3,0.3-0.4,0.4c-0.2,0.1-0.4,0.2-0.5,0.3c-0.2,0.1-0.4,0.1-0.6,0.1c-0.2,0-0.4,0.1-0.6,0.1
	c-0.4,0-0.7-0.1-1.1-0.2c-0.3-0.1-0.6-0.3-0.8-0.6c-0.2-0.3-0.4-0.6-0.6-0.9c-0.1-0.4-0.2-0.8-0.2-1.3c0-0.4,0.1-0.7,0.2-1.1
	c0.1-0.3,0.3-0.6,0.5-0.9c0.2-0.3,0.5-0.4,0.8-0.6c0.3-0.1,0.7-0.2,1.1-0.2c0.3,0,0.6,0.1,0.9,0.2c0.3,0.1,0.5,0.3,0.7,0.5
	c0.2,0.2,0.4,0.5,0.5,0.8c0.1,0.3,0.2,0.7,0.2,1.1c0,0.1,0,0.2-0.1,0.3c0,0.1-0.1,0.1-0.2,0.1h-3.7c0,0.3,0.1,0.6,0.1,0.9
	c0.1,0.2,0.2,0.5,0.4,0.7c0.2,0.2,0.3,0.3,0.6,0.4c0.2,0.1,0.5,0.1,0.7,0.1c0.2,0,0.4,0,0.6-0.1l0.5-0.2l0.3-0.2
	c0.1,0,0.1-0.1,0.2-0.1c0.1,0,0.1,0,0.2,0.1L199.1,243.1z M198.3,240.5c0-0.2,0-0.4-0.1-0.6c-0.1-0.2-0.2-0.3-0.3-0.5
	c-0.1-0.1-0.3-0.2-0.4-0.3c-0.2-0.1-0.4-0.1-0.6-0.1c-0.4,0-0.8,0.1-1.1,0.4c-0.3,0.3-0.5,0.7-0.5,1.1L198.3,240.5z M201.3,239.1
	c0.1-0.1,0.2-0.3,0.4-0.4c0.3-0.2,0.6-0.4,0.9-0.5c0.2,0,0.4-0.1,0.6-0.1c0.3,0,0.5,0,0.8,0.1c0.2,0.1,0.4,0.2,0.6,0.4
	c0.2,0.2,0.3,0.4,0.4,0.7c0.1,0.3,0.1,0.6,0.1,0.9v3.5h-1v-3.6c0-0.4-0.1-0.7-0.3-1c-0.2-0.2-0.5-0.4-0.9-0.4
	c-0.3,0-0.6,0.1-0.8,0.2c-0.3,0.2-0.5,0.3-0.7,0.6v4.1h-1v-5.6h0.6c0.1,0,0.2,0.1,0.3,0.2L201.3,239.1z M211.1,235.8v8.1h-0.6
	c-0.1,0-0.2-0.1-0.3-0.2l-0.1-0.7c-0.2,0.3-0.5,0.5-0.8,0.7c-0.6,0.3-1.3,0.4-1.9,0.1c-0.3-0.1-0.5-0.3-0.7-0.5
	c-0.2-0.3-0.3-0.6-0.4-0.9c-0.1-0.4-0.2-0.8-0.1-1.2c0-0.4,0.1-0.8,0.2-1.1c0.1-0.3,0.3-0.7,0.5-0.9c0.2-0.3,0.5-0.5,0.8-0.6
	c0.3-0.2,0.7-0.2,1-0.2c0.3,0,0.6,0.1,0.9,0.2c0.2,0.1,0.5,0.3,0.6,0.5v-3.1L211.1,235.8z M210.1,239.6c-0.3-0.4-0.8-0.7-1.3-0.7
	c-0.5,0-0.9,0.2-1.2,0.6c-0.3,0.5-0.4,1-0.4,1.6c0,0.3,0,0.6,0.1,0.9c0,0.2,0.1,0.5,0.3,0.6c0.1,0.2,0.3,0.3,0.4,0.4
	c0.2,0.1,0.4,0.1,0.6,0.1c0.3,0,0.6-0.1,0.8-0.2c0.3-0.2,0.5-0.4,0.7-0.6V239.6z M217.2,243.1c-0.1,0.1-0.3,0.3-0.4,0.4
	c-0.2,0.1-0.3,0.2-0.5,0.3c-0.2,0.1-0.4,0.1-0.6,0.1c-0.2,0-0.4,0.1-0.6,0.1c-0.4,0-0.7-0.1-1.1-0.2c-0.3-0.1-0.6-0.3-0.8-0.6
	c-0.2-0.3-0.4-0.6-0.6-0.9c-0.1-0.4-0.2-0.8-0.2-1.3c0-0.4,0.1-0.7,0.2-1.1c0.1-0.3,0.3-0.6,0.5-0.9c0.2-0.2,0.5-0.4,0.8-0.6
	c0.3-0.1,0.7-0.2,1.1-0.2c0.3,0,0.6,0.1,0.9,0.2c0.3,0.1,0.5,0.3,0.7,0.5c0.2,0.2,0.4,0.5,0.5,0.8c0.1,0.3,0.2,0.7,0.2,1.1
	c0,0.1,0,0.2-0.1,0.3c0,0.1-0.1,0.1-0.2,0.1h-3.7c0,0.3,0.1,0.6,0.1,0.9c0.1,0.2,0.2,0.5,0.4,0.7c0.2,0.2,0.3,0.3,0.6,0.4
	c0.4,0.1,0.9,0.1,1.4,0c0.2-0.1,0.3-0.1,0.5-0.2c0.1-0.1,0.2-0.1,0.3-0.2c0.1,0,0.1-0.1,0.2-0.1c0.1,0,0.1,0,0.2,0.1L217.2,243.1z
	 M216.4,240.5c0-0.2,0-0.4-0.1-0.6c-0.1-0.2-0.2-0.3-0.3-0.5c-0.1-0.1-0.3-0.2-0.4-0.3c-0.2-0.1-0.4-0.1-0.6-0.1
	c-0.4,0-0.8,0.1-1.1,0.4c-0.3,0.3-0.5,0.7-0.5,1.1L216.4,240.5z M219.4,239.4c0.2-0.3,0.4-0.6,0.6-0.9c0.3-0.2,0.6-0.3,0.9-0.3
	c0.1,0,0.2,0,0.3,0c0.1,0,0.2,0.1,0.3,0.1l-0.1,0.7c0,0.1-0.1,0.1-0.2,0.1c-0.1,0-0.1,0-0.2,0c-0.1,0-0.2,0-0.3,0
	c-0.2,0-0.3,0-0.5,0.1c-0.1,0-0.3,0.1-0.4,0.2c-0.1,0.1-0.2,0.2-0.3,0.4c-0.1,0.2-0.2,0.3-0.2,0.5v3.4h-1v-5.6h0.6
	c0.1,0,0.2,0,0.2,0.1c0,0.1,0.1,0.1,0.1,0.2L219.4,239.4z"/>
<path class="st6" d="M303.6,29v-4.9c0-0.8,0.3-1.1,1.1-1.2c7.8-1.3,15.3-4.1,22-8.4c5.4-3.6,12.4-3.6,17.8,0
	c6.7,4.3,14.2,7.2,22,8.4c0.7,0.1,1.1,0.3,1.2,1.2c0.4,10.8-1.5,21.2-6.5,30.9c-5.4,10.6-13.9,19.4-24.3,25.1
	c-0.7,0.5-1.7,0.5-2.5,0c-16-9.1-25.9-22.7-29.7-40.8C304,35.9,303.6,32.5,303.6,29L303.6,29z"/>
<path class="st7" d="M299.4,28.2v-4.9c0-0.8,0.2-1.1,1.1-1.2c7.8-1.3,15.3-4.1,22-8.4c5.4-3.6,12.4-3.6,17.8,0
	c6.7,4.3,14.2,7.2,22,8.4c0.7,0.1,1.1,0.3,1.2,1.2c0.4,10.8-1.5,21.2-6.5,30.9c-5.4,10.6-13.9,19.4-24.3,25.1
	c-0.7,0.5-1.7,0.5-2.5,0c-16-9.2-25.9-22.8-29.7-40.8C299.8,35.1,299.4,31.6,299.4,28.2L299.4,28.2z"/>
<path class="st5" d="M316.6,32.3l-5.3,2v5.9l0.7-0.3l0.9-0.4l0.2-0.1v-4.8c0,0,3.4-0.8,3.4-0.8s0,7,0,7l-2.6-0.4l-2.6-0.4l2.6,1
	c1.4,0.5,2.6,1,2.6,1l1.5-0.4l1.4-0.4v-8.1l-1.4-0.4L316.6,32.3z M330.5,33.9c-0.6,0-1.1,0.3-1.3,0.9c-0.1,0.2-0.1,0.5-0.1,0.7V36
	h-0.7v0.6h0.7v3.6h0.7v-3.6h1.6v3.6h0.7v-3.6h1V36h-1v-0.4c0-0.3,0-0.6,0.1-0.9c0.1-0.2,0.2-0.3,0.4-0.3c0.2,0,0.4,0,0.6,0.1h0.1
	v-0.6h-0.1c-0.1,0-0.3,0-0.4,0c-0.2,0-0.4,0-0.6,0.1c-0.3,0.2-0.5,0.4-0.6,0.8c-0.1,0.2-0.1,0.5-0.1,0.7V36h-1.7v-0.4
	c0-0.3,0-0.6,0.1-0.9c0.1-0.2,0.2-0.3,0.4-0.3c0.2,0,0.4,0,0.6,0.1h0.1v-0.6h-0.1C330.7,33.8,330.6,33.8,330.5,33.9L330.5,33.9z
	 M334,34.1c-0.2,0-0.3,0.1-0.4,0.2c-0.1,0.2-0.1,0.4,0.1,0.5c0.1,0.1,0.1,0.1,0.2,0.1c0.2,0.1,0.5-0.1,0.5-0.3c0-0.1,0-0.2,0-0.3
	C334.4,34.2,334.2,34.1,334,34.1L334,34.1z M345.5,34.2h-0.1c-0.3,0-0.7,0.1-1,0.2l-0.2,0.1v0.6l0.1-0.1c0.3-0.2,0.6-0.3,1-0.3
	c0.7,0,1.1,0.2,1.2,0.8c0.1,0.3,0,0.7-0.2,1c-0.2,0.2-0.4,0.3-0.7,0.4c-0.2,0-0.5,0.1-0.7,0.1h-0.3v0.6h1c0.3,0,0.5,0.1,0.7,0.3
	c0.1,0.1,0.2,0.2,0.2,0.3c0.2,0.3,0.2,0.7,0.1,1c-0.1,0.3-0.4,0.5-0.7,0.6c-0.3,0.1-0.7,0.1-1.1,0c-0.3-0.1-0.6-0.2-0.8-0.4h0v0.7
	l0.1,0.1c0.3,0.1,0.6,0.2,0.9,0.2c0.2,0,0.4,0,0.7,0c0.2,0,0.5-0.1,0.7-0.2c0.3-0.2,0.6-0.4,0.8-0.8c0.1-0.2,0.2-0.5,0.2-0.8
	c0-0.2,0-0.4-0.1-0.6c-0.2-0.4-0.7-0.7-1.2-0.8c0,0-0.1,0-0.1,0h0.1c0.1-0.1,0.3-0.1,0.4-0.2c0.1-0.1,0.2-0.1,0.3-0.2
	c0.2-0.2,0.3-0.5,0.3-0.7c0-0.2,0-0.4,0-0.6c-0.1-0.4-0.3-0.8-0.7-0.9C346.1,34.3,345.7,34.2,345.5,34.2L345.5,34.2z M325.3,34.2
	c-0.3,0-0.5,0-0.8,0.1c-0.4,0.1-0.8,0.3-1.1,0.5c-0.5,0.5-0.9,1.1-0.9,1.8c-0.1,0.5-0.1,0.9,0,1.4c0.1,0.6,0.4,1.2,0.9,1.6
	c0.3,0.2,0.6,0.4,1,0.5c0.2,0,0.3,0.1,0.5,0.1c0.2,0,0.4,0,0.7,0c0.8-0.1,1.4-0.5,1.9-1.1c0.1-0.2,0.2-0.4,0.3-0.6
	c0.1-0.3,0.2-0.6,0.2-0.8c0-0.2,0-0.4,0-0.5c0-0.3,0-0.5-0.1-0.8c-0.2-1-1-1.9-2-2.1C325.6,34.3,325.4,34.2,325.3,34.2L325.3,34.2z
	 M350.4,34.2c-0.2,0-0.4,0-0.6,0.1c-0.4,0.1-0.8,0.3-1,0.7c-0.3,0.4-0.6,0.9-0.7,1.5c-0.1,0.7-0.1,1.5,0,2.2c0,0.2,0.1,0.5,0.2,0.7
	c0.2,0.5,0.8,0.9,1.3,1c0.2,0,0.4,0,0.5,0c0.3,0,0.6-0.2,0.9-0.4c0.3-0.3,0.5-0.6,0.6-1c0.1-0.3,0.1-0.6,0-1
	c-0.1-0.5-0.4-0.9-0.9-1.2c-0.5-0.2-1-0.2-1.5,0c-0.2,0.1-0.4,0.3-0.5,0.5c0,0,0,0.1-0.1,0.1c0-0.2,0-0.4,0-0.6
	c0-0.8,0.5-1.5,1.3-1.8c0.2,0,0.3-0.1,0.5-0.1c0.3,0,0.5,0.1,0.8,0.2l0.1,0c0-0.1,0-0.2,0-0.3v-0.3h-0.1
	C351.1,34.3,350.8,34.2,350.4,34.2L350.4,34.2z M354,34.3h-1.3l-0.2,2.9h0.1c0.4,0,0.8,0,1.3,0c0.3,0,0.7,0.2,0.9,0.4
	c0.2,0.2,0.2,0.5,0.2,0.7c0,0.4-0.2,0.8-0.5,1.1c-0.5,0.2-1.1,0.3-1.6,0.1c-0.1-0.1-0.3-0.1-0.4-0.2V40l0.1,0.1
	c0.1,0.1,0.3,0.1,0.4,0.1l0.5,0.1c0.5,0,1,0,1.4-0.3c0.4-0.2,0.7-0.6,0.8-1.1c0.1-0.4,0.1-0.8-0.1-1.2c-0.2-0.6-0.7-0.9-1.3-1
	c-0.2,0-0.5,0-0.7,0h-0.3c0,0,0.1-1.5,0.1-1.6V35h2.1v-0.6L354,34.3z M325.2,34.8c0.2,0,0.3,0,0.5,0c0.8,0.1,1.4,0.8,1.5,1.6
	c0.1,0.5,0.1,1.1,0,1.7c-0.2,0.9-0.9,1.5-1.8,1.5c-0.2,0-0.4,0-0.6,0c-1-0.2-1.8-1-1.8-2.1c0-0.3,0-0.5,0-0.8
	c0.1-0.4,0.2-0.8,0.5-1.2c0.1-0.2,0.3-0.3,0.4-0.4c0.2-0.1,0.4-0.2,0.7-0.3C324.8,34.9,325,34.8,325.2,34.8L325.2,34.8z M337.2,35.9
	H337c-0.4,0-0.8,0.1-1.1,0.3c-0.5,0.4-0.8,0.9-0.9,1.6c0,0.3,0,0.5,0,0.8c0.1,0.4,0.3,0.8,0.6,1.1c0.3,0.3,0.8,0.5,1.2,0.5
	c0.2,0,0.4,0,0.5,0c0.2,0,0.4-0.1,0.7-0.2l0.1-0.1v-0.6l-0.1,0.1c-0.2,0.1-0.4,0.2-0.6,0.3c-0.2,0-0.4,0-0.6,0
	c-0.3,0-0.5-0.2-0.7-0.3c-0.3-0.3-0.4-0.7-0.4-1.1c0-0.3,0-0.7,0.2-1c0.1-0.2,0.3-0.4,0.5-0.6c0.3-0.2,0.6-0.3,0.9-0.2
	c0.3,0,0.6,0.1,0.8,0.2l0.1,0.1c0-0.1,0-0.2,0-0.3v-0.3l-0.1,0C337.7,35.9,337.4,35.9,337.2,35.9L337.2,35.9z M340.5,35.9
	c-0.4,0-0.9,0.2-1.2,0.4c-0.4,0.4-0.6,0.9-0.7,1.4c0,0.2,0,0.5,0,0.7c0,0.5,0.2,0.9,0.6,1.3c0.2,0.2,0.4,0.3,0.6,0.4
	c0.2,0.1,0.4,0.1,0.5,0.1h0.6c0.3,0,0.7-0.2,1-0.3l0.1,0v-0.6l-0.1,0.1c-0.3,0.2-0.7,0.4-1.2,0.4c-0.3,0-0.7-0.1-1-0.3
	c-0.3-0.3-0.4-0.6-0.4-1v-0.1h3v-0.8c0-0.4-0.2-0.8-0.5-1.1c-0.3-0.3-0.6-0.4-1-0.4L340.5,35.9z M333.6,36v4.2h0.7V36H333.6z
	 M340.5,36.5L340.5,36.5c0.3,0,0.5,0.1,0.7,0.2c0.2,0.2,0.4,0.6,0.4,0.9v0.1h-2.3c0-0.3,0.2-0.6,0.4-0.8
	C339.9,36.6,340.2,36.5,340.5,36.5L340.5,36.5z M349.9,37.1c0.1,0,0.2,0,0.3,0c0.2,0,0.3,0.1,0.4,0.2c0.1,0.1,0.2,0.3,0.3,0.5
	c0.1,0.2,0.1,0.3,0.1,0.5c0,0.2,0,0.4-0.1,0.5c-0.1,0.4-0.4,0.7-0.8,0.8c-0.2,0-0.3,0-0.5,0c-0.1,0-0.2-0.1-0.3-0.1
	c-0.3-0.2-0.5-0.4-0.6-0.7c-0.1-0.2-0.1-0.3-0.1-0.5c0-0.2,0-0.3,0.1-0.5c0.1-0.3,0.3-0.5,0.6-0.7C349.6,37,349.7,37,349.9,37.1
	L349.9,37.1z"/>
<text transform="matrix(1 0 0 1 286.2992 97.5597)" class="st8 st9">M</text>
<text transform="matrix(1 0 0 1 296.4027 97.5597)" class="st8 st9"> </text>
<text transform="matrix(1 0 0 1 296.4291 97.5597)" class="st8 st9">ic</text>
<text transform="matrix(1 0 0 1 304.3214 97.5597)" class="st8 st9"> </text>
<text transform="matrix(1 0 0 1 304.3192 97.5597)" class="st8 st9">r</text>
<text transform="matrix(1 0 0 1 308.1031 97.5597)" class="st8 st9"> </text>
<text transform="matrix(1 0 0 1 308.099 97.5597)" class="st8 st9">os</text>
<text transform="matrix(1 0 0 1 319.099 97.5597)" class="st8 st9"> </text>
<text transform="matrix(1 0 0 1 319.099 97.5597)" class="st8 st9">o</text>
<text transform="matrix(1 0 0 1 325.226 97.5597)" class="st8 st9"> </text>
<text transform="matrix(1 0 0 1 325.2191 97.5597)" class="st8 st9">ft </text>
<text transform="matrix(1 0 0 1 335.5592 97.5597)" class="st8 st9">D</text>
<text transform="matrix(1 0 0 1 343.8146 97.5597)" class="st8 st9"> </text>
<text transform="matrix(1 0 0 1 343.849 97.5597)" class="st8 st9">e</text>
<text transform="matrix(1 0 0 1 349.547 97.5597)" class="st8 st9"> </text>
<text transform="matrix(1 0 0 1 349.599 97.5597)" class="st8 st9">f</text>
<text transform="matrix(1 0 0 1 353.2345 97.5597)" class="st8 st9"> </text>
<text transform="matrix(1 0 0 1 353.2792 97.5597)" class="st8 st9">ende</text>
<text transform="matrix(1 0 0 1 377.193 97.5597)" class="st8 st9"> </text>
<text transform="matrix(1 0 0 1 377.1891 97.5597)" class="st8 st9">r</text>
<text transform="matrix(1 0 0 1 380.973 97.5597)" class="st8 st9"> </text>
<text transform="matrix(1 0 0 1 310.639 111.5597)" class="st8 st9">f</text>
<text transform="matrix(1 0 0 1 314.2745 111.5597)" class="st8 st9"> </text>
<text transform="matrix(1 0 0 1 314.3092 111.5597)" class="st8 st9">o</text>
<text transform="matrix(1 0 0 1 320.546 111.5597)" class="st8 st9"> </text>
<text transform="matrix(1 0 0 1 320.5492 111.5597)" class="st8 st9">r</text>
<text transform="matrix(1 0 0 1 324.3331 111.5597)" class="st8 st9"> </text>
<text transform="matrix(1 0 0 1 327.139 111.5597)" class="st8 st9">O</text>
<text transform="matrix(1 0 0 1 335.9445 111.5597)" class="st8 st9"> </text>
<text transform="matrix(1 0 0 1 335.899 111.5597)" class="st8 st9">ffi</text>
<text transform="matrix(1 0 0 1 346.2499 111.5597)" class="st8 st9"> </text>
<text transform="matrix(1 0 0 1 345.6591 111.5597)" class="st8 st9">c</text>
<text transform="matrix(1 0 0 1 350.8016 111.5597)" class="st8 st9"> </text>
<text transform="matrix(1 0 0 1 350.8192 111.5597)" class="st8 st9">e</text>
<g>
	<path class="st0" d="M73,204.8c7.3-0.1,14.6-0.6,21.9-1.5c10,0.1,18.2-7.9,18.3-18c0.1-10-7.9-18.2-18-18.3
		c-3.8,0-7.5,1.1-10.6,3.3c-2.8-15.1-17.4-25.1-32.5-22.2C37,151,27.1,165.5,29.9,180.6c2.1,11.1,10.7,19.9,21.8,22.2
		C58.8,203.9,65.9,204.6,73,204.8L73,204.8z"/>
	<path class="st10" d="M80.8,200.3H85c10,0.1,18.2-8,18.3-18c0.1-10-8-18.2-18-18.3c-3.8,0-7.5,1.1-10.6,3.3
		c-2.8-15.1-17.4-25.1-32.5-22.2S17.2,162.5,20,177.6c2.1,11.1,10.7,19.9,21.8,22.2"/>
</g>
<path class="st2" d="M45.1,183.4v-2.7c0-0.5,0.1-0.6,0.6-0.7c4.3-0.7,8.5-2.3,12.2-4.7c3-2,6.9-2,9.9,0c3.7,2.4,7.8,4,12.2,4.7
	c0.4,0.1,0.6,0.1,0.6,0.6c0.3,5.9-0.9,11.8-3.6,17.1c-3,5.9-7.7,10.7-13.5,13.9c-0.4,0.3-0.9,0.3-1.4,0c-8.6-4.7-14.6-13-16.4-22.6
	C45.3,187.2,45.1,185.3,45.1,183.4L45.1,183.4z"/>
<path d="M31.7,221.2v7.9h-0.9v-6.3l-2.7,5c-0.1,0.2-0.2,0.3-0.4,0.2h-0.1c-0.2,0-0.3-0.1-0.4-0.2l-2.8-5v6.4h-0.9v-7.9h0.8
	c0.1,0,0.1,0,0.2,0c0.1,0,0.1,0.1,0.1,0.1l2.7,4.9l0.1,0.3c0.1,0.1,0.1,0.2,0.1,0.3l0.1-0.3c0-0.1,0.1-0.2,0.1-0.3l2.7-4.9
	c0-0.1,0.1-0.1,0.1-0.1c0.1,0,0.1,0,0.2,0L31.7,221.2z M34.6,221.7c0,0.1,0,0.2-0.1,0.3c0,0.1-0.1,0.2-0.1,0.2
	c-0.1,0.1-0.1,0.1-0.2,0.1c-0.1,0-0.2,0.1-0.3,0.1c-0.1,0-0.2,0-0.3-0.1c-0.1,0-0.1-0.1-0.2-0.1c-0.1-0.1-0.1-0.1-0.2-0.2
	c-0.1-0.2-0.1-0.4,0-0.5c0-0.1,0.1-0.2,0.2-0.2c0.1-0.1,0.1-0.1,0.2-0.1c0.1,0,0.2,0,0.3-0.1c0.2,0,0.4,0.1,0.5,0.2
	c0.1,0.1,0.1,0.1,0.1,0.2C34.6,221.6,34.6,221.6,34.6,221.7L34.6,221.7z M34.4,223.5v5.5h-1v-5.6L34.4,223.5z M39.9,224.5
	C39.9,224.5,39.9,224.5,39.9,224.5c-0.1,0.1-0.2,0.1-0.2,0.1c-0.1,0-0.1,0-0.2-0.1c-0.1-0.1-0.2-0.1-0.2-0.1
	c-0.1-0.1-0.2-0.1-0.4-0.1c-0.2-0.1-0.3-0.1-0.5-0.1c-0.2,0-0.5,0-0.7,0.1c-0.2,0.1-0.4,0.2-0.5,0.4c-0.1,0.2-0.3,0.4-0.3,0.7
	c-0.1,0.3-0.1,0.6-0.1,0.9c0,0.3,0,0.6,0.1,0.9c0.1,0.2,0.2,0.5,0.3,0.7c0.1,0.2,0.3,0.3,0.5,0.4c0.2,0.1,0.4,0.1,0.7,0.1
	c0.2,0,0.4,0,0.6-0.1c0.1,0,0.3-0.1,0.4-0.2c0.1-0.1,0.2-0.1,0.3-0.2c0.1,0,0.1-0.1,0.2-0.1c0.1,0,0.1,0,0.2,0.1l0.3,0.4
	c-0.1,0.1-0.3,0.3-0.4,0.4c-0.2,0.1-0.3,0.2-0.5,0.3c-0.2,0.1-0.4,0.1-0.6,0.2c-0.2,0-0.4,0-0.6,0.1c-0.3,0-0.7-0.1-1-0.2
	c-0.3-0.1-0.6-0.3-0.8-0.6c-0.2-0.3-0.4-0.6-0.5-0.9c-0.1-0.4-0.2-0.8-0.2-1.2c0-0.4,0.1-0.8,0.2-1.1c0.1-0.3,0.3-0.6,0.5-0.9
	c0.2-0.3,0.5-0.5,0.8-0.6c0.4-0.2,0.7-0.2,1.1-0.2c0.3,0,0.7,0.1,1,0.2c0.3,0.1,0.6,0.3,0.8,0.5L39.9,224.5z M42.2,224.6
	c0.1-0.3,0.4-0.7,0.7-0.9c0.3-0.2,0.6-0.3,0.9-0.3c0.1,0,0.2,0,0.3,0c0.1,0,0.2,0.1,0.3,0.1l-0.1,0.7c0,0.1-0.1,0.1-0.2,0.1H44
	c-0.1,0-0.2,0-0.3,0c-0.2,0-0.3,0-0.5,0.1c-0.1,0.1-0.3,0.1-0.4,0.2c-0.1,0.1-0.2,0.2-0.3,0.4c-0.1,0.2-0.2,0.3-0.2,0.5v3.5h-1v-5.6
	h0.6c0.1,0,0.2,0,0.2,0.1c0,0.1,0.1,0.1,0.1,0.2L42.2,224.6z M47.4,223.4c0.4,0,0.8,0.1,1.1,0.2c0.3,0.1,0.6,0.3,0.8,0.6
	c0.2,0.3,0.4,0.6,0.5,0.9c0.3,0.8,0.3,1.6,0,2.4c-0.1,0.3-0.3,0.6-0.5,0.9c-0.2,0.2-0.5,0.4-0.8,0.6c-0.7,0.3-1.5,0.3-2.2,0
	c-0.3-0.1-0.6-0.3-0.8-0.6c-0.2-0.3-0.4-0.6-0.5-0.9c-0.2-0.8-0.2-1.6,0-2.4c0.1-0.3,0.3-0.6,0.5-0.9c0.2-0.3,0.5-0.4,0.8-0.6
	C46.7,223.5,47,223.4,47.4,223.4z M47.4,228.4c0.5,0,0.9-0.2,1.2-0.6c0.5-1,0.5-2.1,0-3.1c-0.3-0.4-0.8-0.6-1.2-0.6
	c-0.3,0-0.5,0-0.7,0.1c-0.2,0.1-0.4,0.2-0.5,0.4c-0.1,0.2-0.3,0.4-0.3,0.7c-0.1,0.3-0.1,0.6-0.1,0.9c0,0.5,0.1,1.1,0.4,1.5
	C46.5,228.2,46.9,228.4,47.4,228.4L47.4,228.4z M54.6,224.4c0,0.1-0.1,0.1-0.2,0.1c-0.1,0-0.1,0-0.2-0.1l-0.3-0.1
	c-0.1-0.1-0.2-0.1-0.4-0.1c-0.2-0.1-0.3-0.1-0.5-0.1c-0.2,0-0.3,0-0.5,0.1c-0.1,0-0.2,0.1-0.3,0.2c-0.1,0.1-0.2,0.2-0.2,0.3
	c0,0.1-0.1,0.2-0.1,0.3c0,0.1,0,0.3,0.1,0.4c0.1,0.1,0.2,0.2,0.3,0.2c0.1,0.1,0.3,0.1,0.5,0.2l0.5,0.2l0.5,0.2
	c0.2,0.1,0.3,0.2,0.5,0.3c0.1,0.1,0.3,0.2,0.3,0.4c0.1,0.2,0.1,0.4,0.1,0.6c0,0.2,0,0.5-0.1,0.7c-0.1,0.2-0.2,0.4-0.4,0.6
	c-0.2,0.2-0.4,0.3-0.7,0.4c-0.3,0.1-0.6,0.1-0.9,0.1c-0.7,0-1.3-0.2-1.9-0.7l0.2-0.4c0-0.1,0.2-0.2,0.3-0.1c0.1,0,0.1,0,0.2,0.1
	l0.3,0.2c0.1,0.1,0.3,0.1,0.4,0.2c0.2,0.1,0.4,0.1,0.6,0.1c0.2,0,0.3,0,0.5-0.1c0.1,0,0.2-0.1,0.3-0.2c0.1-0.1,0.2-0.2,0.2-0.3
	c0-0.1,0.1-0.2,0.1-0.4c0-0.1,0-0.3-0.1-0.4c-0.1-0.1-0.2-0.2-0.3-0.2c-0.1-0.1-0.3-0.1-0.5-0.2l-0.5-0.2c-0.2-0.1-0.4-0.1-0.5-0.2
	c-0.2-0.1-0.3-0.2-0.5-0.3c-0.1-0.1-0.2-0.3-0.3-0.4c-0.2-0.4-0.2-0.8,0-1.2c0.1-0.2,0.2-0.4,0.4-0.5c0.2-0.2,0.4-0.3,0.6-0.4
	c0.3-0.1,0.6-0.1,0.8-0.1c0.3,0,0.7,0.1,1,0.2c0.3,0.1,0.5,0.3,0.8,0.5L54.6,224.4z M58.4,223.4c0.4,0,0.8,0.1,1.1,0.2
	c0.3,0.1,0.6,0.3,0.8,0.6c0.2,0.3,0.4,0.6,0.5,0.9c0.3,0.8,0.3,1.6,0,2.4c-0.1,0.3-0.3,0.6-0.5,0.9c-0.2,0.2-0.5,0.4-0.8,0.6
	c-0.7,0.3-1.5,0.3-2.2,0c-0.3-0.1-0.6-0.3-0.8-0.6c-0.2-0.3-0.4-0.6-0.5-0.9c-0.2-0.8-0.2-1.6,0-2.4c0.1-0.3,0.3-0.6,0.5-0.9
	c0.2-0.3,0.5-0.4,0.8-0.6C57.7,223.5,58,223.4,58.4,223.4z M58.4,228.4c0.5,0,0.9-0.2,1.2-0.6c0.5-1,0.5-2.1,0-3.1
	c-0.3-0.4-0.8-0.6-1.2-0.6c-0.3,0-0.5,0-0.7,0.1c-0.2,0.1-0.4,0.2-0.5,0.4c-0.1,0.2-0.3,0.4-0.3,0.7c-0.1,0.3-0.1,0.6-0.1,0.9
	c0,0.5,0.1,1.1,0.4,1.5C57.5,228.2,57.9,228.4,58.4,228.4L58.4,228.4z M67.1,224.3v3.3c0,0.2,0,0.4,0.2,0.5c0.1,0.1,0.3,0.2,0.4,0.2
	c0.1,0,0.2,0,0.3,0c0.1,0,0.1-0.1,0.2-0.1l0.1-0.1c0,0,0.1,0,0.1,0h0.1c0,0,0,0,0.1,0.1l0.3,0.5c-0.2,0.2-0.4,0.3-0.6,0.4
	c-0.2,0.1-0.5,0.1-0.7,0.1c-0.4,0-0.7-0.1-1-0.4c-0.3-0.3-0.4-0.7-0.4-1.1v-3.4h-2.6v4.7h-1v-4.7l-0.6-0.1c-0.1,0-0.1,0-0.2-0.1
	c0,0-0.1-0.1-0.1-0.2v-0.4h0.9V223c0-0.3,0-0.6,0.1-0.9c0.1-0.2,0.2-0.5,0.4-0.6c0.2-0.2,0.4-0.3,0.6-0.4c0.5-0.2,1-0.2,1.5,0v0.5
	c0,0.1-0.1,0.1-0.2,0.1h-0.4c-0.2,0-0.3,0-0.5,0.1c-0.1,0-0.3,0.1-0.4,0.2c-0.1,0.1-0.2,0.2-0.2,0.4c-0.1,0.2-0.1,0.4-0.1,0.6v0.5
	h2.6l0.2-1.7c0-0.1,0-0.1,0.1-0.1c0.1,0,0.1,0,0.2,0h0.5v1.9h1.6v0.7L67.1,224.3z M78.3,227.4c0.1,0,0.1,0,0.2,0.1l0.4,0.5
	c-0.3,0.4-0.7,0.7-1.2,0.9c-0.5,0.2-1.1,0.3-1.7,0.3c-0.5,0-1.1-0.1-1.5-0.3c-0.4-0.2-0.8-0.5-1.2-0.8c-0.3-0.4-0.6-0.8-0.8-1.3
	c-0.2-0.5-0.3-1.1-0.3-1.6c0-0.6,0.1-1.1,0.3-1.6c0.2-0.5,0.4-0.9,0.8-1.3c0.3-0.4,0.8-0.6,1.2-0.8c0.5-0.2,1-0.3,1.6-0.3
	c0.5,0,1,0.1,1.5,0.3c0.4,0.2,0.8,0.4,1.1,0.7l-0.3,0.5c0,0.1-0.1,0.1-0.2,0.1c-0.1,0-0.2-0.1-0.2-0.1c-0.1-0.1-0.2-0.2-0.4-0.2
	c-0.2-0.1-0.4-0.2-0.6-0.2c-0.3-0.1-0.6-0.1-0.8-0.1c-0.4,0-0.8,0.1-1.1,0.2c-0.3,0.1-0.6,0.3-0.9,0.6c-0.3,0.3-0.5,0.6-0.6,1
	c-0.1,0.4-0.2,0.9-0.2,1.3c0,0.4,0.1,0.9,0.2,1.3c0.1,0.4,0.3,0.7,0.6,1c0.2,0.3,0.5,0.4,0.9,0.6c0.3,0.1,0.7,0.2,1.1,0.2
	c0.2,0,0.4,0,0.6,0c0.2,0,0.4-0.1,0.5-0.1c0.2-0.1,0.3-0.1,0.4-0.2c0.1-0.1,0.3-0.2,0.4-0.3C78.2,227.5,78.2,227.5,78.3,227.4
	L78.3,227.4z M80.9,221v8.1h-1v-8.1L80.9,221z M84.8,223.4c0.4,0,0.8,0.1,1.1,0.2c0.3,0.1,0.6,0.3,0.8,0.6c0.2,0.3,0.4,0.6,0.5,0.9
	c0.2,0.8,0.2,1.6,0,2.4c-0.1,0.3-0.3,0.6-0.5,0.9c-0.2,0.3-0.5,0.4-0.8,0.6c-0.4,0.1-0.7,0.2-1.1,0.2c-0.4,0-0.8-0.1-1.1-0.2
	c-0.3-0.1-0.6-0.3-0.8-0.6c-0.2-0.3-0.4-0.6-0.5-0.9c-0.3-0.8-0.3-1.6,0-2.4c0.1-0.3,0.3-0.7,0.5-0.9c0.2-0.2,0.5-0.4,0.8-0.6
	C84.1,223.5,84.4,223.4,84.8,223.4z M84.8,228.4c0.5,0,0.9-0.2,1.2-0.6c0.5-1,0.5-2.1,0-3.1c-0.3-0.4-0.8-0.6-1.2-0.6
	c-0.3,0-0.5,0-0.7,0.1c-0.2,0.1-0.4,0.2-0.5,0.4c-0.1,0.2-0.3,0.4-0.3,0.7c-0.1,0.3-0.1,0.6-0.1,0.9c0,0.5,0.1,1.1,0.4,1.5
	C83.9,228.2,84.4,228.4,84.8,228.4L84.8,228.4z M93.3,223.5v5.5h-0.6c-0.1,0-0.2-0.1-0.3-0.2l-0.1-0.6c-0.2,0.3-0.5,0.5-0.8,0.6
	c-0.3,0.2-0.7,0.3-1,0.2c-0.3,0-0.6,0-0.8-0.1c-0.2-0.1-0.4-0.2-0.6-0.4c-0.2-0.2-0.3-0.4-0.4-0.7c-0.1-0.3-0.1-0.6-0.1-0.9v-3.6h1
	v3.6c0,0.4,0.1,0.7,0.3,1c0.2,0.2,0.6,0.4,0.9,0.4c0.3,0,0.6-0.1,0.8-0.2c0.3-0.1,0.5-0.3,0.7-0.6v-4.1L93.3,223.5z M99.5,221v8.1
	h-0.6c-0.1,0-0.2-0.1-0.3-0.2l-0.1-0.7c-0.2,0.3-0.5,0.5-0.8,0.7c-0.3,0.2-0.6,0.3-1,0.3c-0.3,0-0.6-0.1-0.9-0.2
	c-0.3-0.1-0.5-0.3-0.7-0.5c-0.2-0.3-0.3-0.6-0.4-0.9c-0.1-0.4-0.2-0.8-0.2-1.2c0-0.4,0.1-0.8,0.2-1.1c0.1-0.3,0.3-0.6,0.5-0.9
	c0.2-0.3,0.5-0.5,0.8-0.6c0.3-0.2,0.7-0.2,1-0.2c0.3,0,0.6,0.1,0.9,0.2c0.2,0.1,0.5,0.3,0.7,0.5v-3.1L99.5,221z M98.5,224.8
	c-0.1-0.2-0.4-0.4-0.6-0.5c-0.2-0.1-0.5-0.2-0.7-0.1c-0.5,0-0.9,0.2-1.2,0.6c-0.3,0.5-0.5,1-0.4,1.6c0,0.3,0,0.6,0.1,0.9
	c0,0.2,0.1,0.4,0.3,0.6c0.1,0.2,0.3,0.3,0.4,0.4c0.2,0.1,0.4,0.1,0.6,0.1c0.3,0,0.6-0.1,0.8-0.2c0.3-0.2,0.5-0.4,0.7-0.6L98.5,224.8
	z M37.9,243h-0.8c-0.1,0-0.2,0-0.2-0.1c-0.1-0.1-0.1-0.1-0.1-0.2l-0.7-1.9h-3.6l-0.7,1.9c0,0.1-0.1,0.1-0.1,0.2
	c-0.1,0.1-0.1,0.1-0.2,0.1h-0.8l3.1-7.9h1.1L37.9,243z M35.7,240.1l-1.2-3.2c0-0.1-0.1-0.2-0.1-0.3c-0.1-0.1-0.1-0.3-0.1-0.4
	c-0.1,0.3-0.1,0.5-0.2,0.7l-1.2,3.2H35.7z M39.7,238.4c0.2-0.3,0.5-0.5,0.8-0.7c0.3-0.2,0.7-0.3,1-0.3c0.3,0,0.6,0.1,0.9,0.2
	c0.3,0.1,0.5,0.3,0.7,0.6c0.2,0.3,0.3,0.6,0.4,0.9c0.1,0.4,0.2,0.8,0.2,1.2c0,0.4,0,0.8-0.2,1.1c-0.1,0.3-0.3,0.6-0.5,0.9
	c-0.2,0.3-0.5,0.5-0.8,0.6c-0.3,0.1-0.7,0.2-1,0.2c-0.3,0-0.6-0.1-0.9-0.2c-0.2-0.1-0.5-0.3-0.7-0.5v2.5h-1v-7.5h0.6
	c0.1,0,0.2,0.1,0.3,0.2L39.7,238.4z M39.7,241.7c0.3,0.4,0.8,0.7,1.3,0.7c0.5,0,0.9-0.2,1.2-0.6c0.3-0.5,0.5-1,0.4-1.6
	c0-0.3,0-0.6-0.1-0.9c-0.1-0.2-0.1-0.4-0.3-0.6c-0.1-0.2-0.3-0.3-0.5-0.4c-0.2-0.1-0.4-0.1-0.6-0.1c-0.3,0-0.6,0.1-0.8,0.2
	c-0.3,0.2-0.5,0.4-0.7,0.6V241.7z M45.8,238.4c0.2-0.3,0.5-0.5,0.8-0.7c0.3-0.2,0.7-0.3,1.1-0.3c0.3,0,0.6,0.1,0.9,0.2
	c0.3,0.1,0.5,0.3,0.7,0.6c0.2,0.3,0.3,0.6,0.4,0.9c0.1,0.4,0.2,0.8,0.2,1.2c0,0.4-0.1,0.8-0.2,1.1c-0.1,0.3-0.3,0.6-0.5,0.9
	c-0.4,0.5-1.1,0.8-1.8,0.8c-0.3,0-0.6-0.1-0.9-0.2c-0.2-0.1-0.5-0.3-0.6-0.5v2.5h-1v-7.5h0.6c0.1,0,0.2,0.1,0.3,0.2L45.8,238.4z
	 M45.8,241.7c0.1,0.2,0.4,0.4,0.6,0.5c0.2,0.1,0.5,0.2,0.7,0.1c0.5,0,0.9-0.2,1.2-0.6c0.3-0.5,0.5-1,0.4-1.6c0-0.3,0-0.6-0.1-0.9
	c-0.1-0.2-0.1-0.4-0.3-0.6c-0.1-0.2-0.3-0.3-0.4-0.4c-0.2-0.1-0.4-0.1-0.6-0.1c-0.3,0-0.6,0.1-0.8,0.2c-0.3,0.2-0.5,0.4-0.7,0.6
	L45.8,241.7z M58.1,236.4c0,0-0.1,0.1-0.1,0.1c0,0-0.1,0-0.1,0c-0.1,0-0.2,0-0.2-0.1c-0.1-0.1-0.2-0.1-0.3-0.2
	c-0.3-0.2-0.7-0.3-1.1-0.3c-0.2,0-0.4,0-0.6,0.1c-0.2,0.1-0.3,0.1-0.5,0.3c-0.1,0.1-0.2,0.2-0.3,0.4c-0.1,0.2-0.1,0.3-0.1,0.5
	c0,0.2,0.1,0.4,0.2,0.6c0.1,0.2,0.3,0.3,0.4,0.4c0.2,0.1,0.4,0.2,0.6,0.3l0.7,0.2c0.2,0.1,0.5,0.2,0.7,0.3c0.2,0.1,0.4,0.2,0.6,0.4
	c0.2,0.2,0.3,0.3,0.4,0.6c0.1,0.3,0.2,0.5,0.2,0.8c0,0.3-0.1,0.7-0.2,1c-0.1,0.3-0.3,0.6-0.5,0.8c-0.2,0.2-0.5,0.4-0.8,0.5
	c-0.4,0.1-0.7,0.2-1.1,0.2c-0.5,0-1-0.1-1.4-0.3c-0.4-0.2-0.8-0.4-1.1-0.8l0.3-0.5c0,0,0.1-0.1,0.1-0.1c0,0,0.1,0,0.1,0
	c0.1,0,0.1,0,0.2,0.1l0.2,0.1l0.3,0.2c0.2,0.2,0.5,0.3,0.8,0.3c0.2,0,0.4,0,0.5,0c0.2,0,0.5,0,0.7-0.1c0.2-0.1,0.4-0.2,0.5-0.3
	c0.1-0.1,0.3-0.3,0.3-0.4c0.1-0.2,0.1-0.4,0.1-0.6c0-0.2,0-0.4-0.2-0.6c-0.1-0.2-0.3-0.3-0.4-0.4c-0.2-0.1-0.4-0.2-0.6-0.3l-0.7-0.2
	c-0.2-0.1-0.5-0.2-0.7-0.3c-0.2-0.1-0.4-0.2-0.6-0.4c-0.2-0.2-0.3-0.4-0.4-0.6c-0.1-0.3-0.2-0.6-0.2-0.9c0-0.3,0.1-0.6,0.2-0.8
	c0.1-0.3,0.3-0.5,0.5-0.7c0.2-0.2,0.5-0.4,0.8-0.5c0.3-0.1,0.7-0.2,1-0.2c0.4,0,0.8,0.1,1.2,0.2c0.4,0.1,0.7,0.3,1,0.6L58.1,236.4z
	 M64.3,242.3c-0.1,0.1-0.3,0.3-0.4,0.4c-0.2,0.1-0.3,0.2-0.5,0.3c-0.2,0.1-0.4,0.1-0.6,0.2c-0.2,0-0.4,0-0.6,0.1
	c-0.4,0-0.7-0.1-1.1-0.2c-0.3-0.1-0.6-0.3-0.8-0.6c-0.2-0.3-0.4-0.6-0.5-0.9c-0.1-0.4-0.2-0.8-0.2-1.3c0-0.4,0.1-0.7,0.2-1.1
	c0.1-0.3,0.3-0.6,0.5-0.9c0.2-0.3,0.5-0.5,0.8-0.6c0.3-0.1,0.7-0.2,1.1-0.2c0.3,0,0.6,0.1,0.9,0.2c0.3,0.1,0.5,0.3,0.7,0.5
	c0.2,0.2,0.4,0.5,0.5,0.8c0.1,0.3,0.2,0.7,0.2,1.1c0,0.1,0,0.2,0,0.3c0,0.1-0.1,0.1-0.2,0.1h-3.7c0,0.3,0.1,0.6,0.1,0.9
	c0.1,0.2,0.2,0.5,0.4,0.6c0.2,0.2,0.3,0.3,0.5,0.4c0.4,0.1,0.9,0.1,1.3,0c0.2,0,0.3-0.1,0.5-0.2c0.1-0.1,0.2-0.1,0.3-0.2
	c0.1,0,0.1-0.1,0.2-0.1c0.1,0,0.1,0,0.2,0.1L64.3,242.3z M63.5,239.7c0-0.2,0-0.4-0.1-0.6c-0.1-0.2-0.2-0.3-0.3-0.5
	c-0.1-0.1-0.3-0.2-0.5-0.3c-0.2-0.1-0.4-0.1-0.6-0.1c-0.4,0-0.8,0.1-1.1,0.4c-0.3,0.3-0.5,0.7-0.5,1.1H63.5z M69.5,238.5
	C69.5,238.5,69.4,238.5,69.5,238.5l-0.2,0.1c-0.1,0-0.1,0-0.2-0.1c-0.1-0.1-0.2-0.1-0.2-0.1c-0.1-0.1-0.2-0.1-0.4-0.1
	c-0.2-0.1-0.3-0.1-0.5-0.1c-0.3,0-0.5,0-0.7,0.1c-0.2,0.1-0.4,0.2-0.5,0.4c-0.1,0.2-0.3,0.4-0.3,0.7c-0.1,0.3-0.1,0.6-0.1,0.9
	c0,0.3,0,0.6,0.1,0.9c0.1,0.2,0.2,0.5,0.3,0.7c0.1,0.2,0.3,0.3,0.5,0.4c0.2,0.1,0.4,0.1,0.7,0.1c0.2,0,0.4,0,0.6-0.1
	c0.1,0,0.3-0.1,0.4-0.2c0.1-0.1,0.2-0.1,0.2-0.2c0.1,0,0.1-0.1,0.2-0.1c0.1,0,0.1,0,0.2,0.1l0.3,0.4c-0.1,0.1-0.3,0.3-0.4,0.4
	c-0.2,0.1-0.3,0.2-0.5,0.3c-0.2,0.1-0.4,0.1-0.6,0.2c-0.2,0-0.4,0-0.6,0.1c-0.3,0-0.7-0.1-1-0.2c-0.3-0.1-0.6-0.3-0.8-0.6
	c-0.2-0.3-0.4-0.6-0.5-0.9c-0.1-0.4-0.2-0.8-0.2-1.2c0-0.4,0.1-0.8,0.2-1.1c0.1-0.3,0.3-0.6,0.5-0.9c0.2-0.3,0.5-0.5,0.8-0.6
	c0.4-0.2,0.7-0.2,1.1-0.2c0.3,0,0.7,0.1,1,0.2c0.3,0.1,0.6,0.3,0.8,0.5L69.5,238.5z M75.4,237.5v5.5h-0.6c-0.1,0-0.2-0.1-0.3-0.2
	l-0.1-0.6c-0.2,0.3-0.5,0.5-0.8,0.6c-0.3,0.2-0.7,0.3-1,0.2c-0.3,0-0.6,0-0.8-0.1c-0.2-0.1-0.4-0.2-0.6-0.4
	c-0.2-0.2-0.3-0.4-0.4-0.7c-0.1-0.3-0.1-0.6-0.1-0.9v-3.6h1v3.6c0,0.4,0.1,0.7,0.3,1c0.2,0.2,0.5,0.4,0.9,0.4c0.3,0,0.6-0.1,0.8-0.2
	c0.3-0.1,0.5-0.3,0.7-0.6v-4.1L75.4,237.5z M77.9,238.6c0.1-0.3,0.4-0.7,0.7-0.9c0.3-0.2,0.6-0.3,0.9-0.3c0.1,0,0.2,0,0.3,0
	c0.1,0,0.2,0.1,0.3,0.1l-0.1,0.7c0,0.1-0.1,0.1-0.2,0.1c0,0,0,0,0,0h-0.2c-0.1,0-0.2,0-0.3,0c-0.2,0-0.3,0-0.5,0.1
	c-0.1,0.1-0.3,0.1-0.4,0.2c-0.1,0.1-0.2,0.2-0.3,0.4c-0.1,0.2-0.2,0.3-0.2,0.5v3.5H77v-5.6h0.6c0.1,0,0.2,0,0.2,0.1
	c0,0.1,0.1,0.1,0.1,0.2L77.9,238.6z M82.2,235.7c0,0.1,0,0.2-0.1,0.3c0,0.1-0.1,0.2-0.2,0.2c-0.1,0.1-0.1,0.1-0.2,0.1
	c-0.1,0-0.2,0.1-0.3,0.1c-0.1,0-0.2,0-0.3-0.1c-0.1,0-0.2-0.1-0.2-0.1c-0.1-0.1-0.1-0.1-0.1-0.2c-0.1-0.2-0.1-0.4,0-0.5
	c0-0.1,0.1-0.2,0.1-0.2c0.1-0.1,0.1-0.1,0.2-0.1c0.1,0,0.2,0,0.3-0.1c0.1,0,0.2,0,0.3,0.1c0.2,0.1,0.3,0.2,0.4,0.4
	C82.2,235.6,82.2,235.6,82.2,235.7L82.2,235.7z M82,237.5v5.5h-1v-5.6L82,237.5z M85.3,243.2c-0.4,0-0.7-0.1-1-0.4
	c-0.3-0.3-0.4-0.7-0.3-1.1v-3.4h-0.7c-0.1,0-0.1,0-0.1-0.1c0,0-0.1-0.1-0.1-0.2v-0.4l0.9-0.1l0.2-1.7c0-0.1,0-0.1,0.1-0.1
	c0,0,0.1,0,0.2,0H85v1.9h1.6v0.7H85v3.3c0,0.2,0,0.4,0.2,0.5c0.1,0.1,0.3,0.2,0.4,0.2c0.1,0,0.2,0,0.3,0l0.2-0.1l0.1-0.1
	c0,0,0.1,0,0.1,0c0.1,0,0.1,0,0.1,0.1l0.3,0.5c-0.2,0.1-0.4,0.2-0.7,0.3C85.8,243.1,85.6,243.2,85.3,243.2z M92.4,237.5l-3.1,7.2
	c0,0.1-0.1,0.1-0.1,0.2c-0.1,0.1-0.1,0.1-0.2,0.1h-0.7l1-2.2l-2.3-5.2h0.8c0.1,0,0.1,0,0.2,0.1c0,0,0.1,0.1,0.1,0.1l1.5,3.5
	c0.1,0.2,0.1,0.3,0.2,0.5c0-0.2,0.1-0.3,0.2-0.5l1.4-3.5c0-0.1,0.1-0.1,0.1-0.1c0.1,0,0.1-0.1,0.2-0.1H92.4z"/>
<g>
	<path class="st0" d="M202.2,73.2c7.4-0.1,14.8-0.6,22.1-1.5c10.1,0,18.3-8.1,18.4-18.2c0-10.1-8.1-18.3-18.2-18.4
		c-3.8,0-7.4,1.1-10.5,3.3C211,23.2,196.4,13.1,181.1,16c-15.3,2.9-25.3,17.5-22.5,32.8c2.1,11.2,10.8,20.1,22,22.4
		C187.8,72.3,195,73,202.2,73.2L202.2,73.2z"/>
	<path class="st11" d="M210.1,68.6h4.2c10.1,0,18.3-8.1,18.3-18.2s-8.1-18.3-18.2-18.3c-3.7,0-7.4,1.1-10.5,3.3
		c-2.9-15.2-17.6-25.3-32.8-22.4c-15.2,2.9-25.3,17.6-22.4,32.8c2.1,11.2,10.8,20.1,22,22.3"/>
	<path class="st2" d="M179.5,57.5h23c1.4,0,2.6,1.1,2.6,2.6V78c0,1.4-1.1,2.6-2.6,2.6h-23c-1.4,0-2.6-1.1-2.6-2.6V60.1
		C176.9,58.7,178.1,57.5,179.5,57.5z"/>
	<path class="st12" d="M182.1,57.5v-6.4c0.2-4.9,4.3-8.8,9.2-8.7c4.7,0.1,8.5,3.9,8.7,8.7v6.4"/>
	<path class="st13" d="M191,67.8c-0.4,0-0.6,0.3-0.7,0.6c0,0.4,0.3,0.6,0.6,0.7c0.4,0,0.6-0.3,0.7-0.6c0,0,0,0,0,0
		C191.6,68.1,191.4,67.8,191,67.8"/>
</g>
<text transform="matrix(1 0 0 1 151.858 97.5599)" class="st8 st9">M</text>
<text transform="matrix(1 0 0 1 161.9615 97.5599)" class="st8 st9"> </text>
<text transform="matrix(1 0 0 1 161.988 97.5599)" class="st8 st9">ic</text>
<text transform="matrix(1 0 0 1 169.8804 97.5599)" class="st8 st9"> </text>
<text transform="matrix(1 0 0 1 169.8781 97.5599)" class="st8 st9">r</text>
<text transform="matrix(1 0 0 1 173.662 97.5599)" class="st8 st9"> </text>
<text transform="matrix(1 0 0 1 173.658 97.5599)" class="st8 st9">os</text>
<text transform="matrix(1 0 0 1 184.6579 97.5599)" class="st8 st9"> </text>
<text transform="matrix(1 0 0 1 184.658 97.5599)" class="st8 st9">o</text>
<text transform="matrix(1 0 0 1 190.7849 97.5599)" class="st8 st9"> </text>
<text transform="matrix(1 0 0 1 190.778 97.5599)" class="st8 st9">ft </text>
<text transform="matrix(1 0 0 1 201.118 97.5599)" class="st8 st9">D</text>
<text transform="matrix(1 0 0 1 209.3735 97.5599)" class="st8 st9"> </text>
<text transform="matrix(1 0 0 1 209.408 97.5599)" class="st8 st9">e</text>
<text transform="matrix(1 0 0 1 215.106 97.5599)" class="st8 st9"> </text>
<text transform="matrix(1 0 0 1 215.158 97.5599)" class="st8 st9">f</text>
<text transform="matrix(1 0 0 1 218.7935 97.5599)" class="st8 st9"> </text>
<text transform="matrix(1 0 0 1 218.8381 97.5599)" class="st8 st9">ende</text>
<text transform="matrix(1 0 0 1 242.752 97.5599)" class="st8 st9"> </text>
<text transform="matrix(1 0 0 1 242.748 97.5599)" class="st8 st9">r</text>
<text transform="matrix(1 0 0 1 246.532 97.5599)" class="st8 st9"> </text>
<text transform="matrix(1 0 0 1 172.408 111.5599)" class="st8 st9">f</text>
<text transform="matrix(1 0 0 1 176.0435 111.5599)" class="st8 st9"> </text>
<text transform="matrix(1 0 0 1 176.0781 111.5599)" class="st8 st9">o</text>
<text transform="matrix(1 0 0 1 182.3149 111.5599)" class="st8 st9"> </text>
<text transform="matrix(1 0 0 1 182.3181 111.5599)" class="st8 st9">r</text>
<text transform="matrix(1 0 0 1 186.102 111.5599)" class="st8 st9"> </text>
<text transform="matrix(1 0 0 1 188.908 111.5599)" class="st8 st9">I</text>
<text transform="matrix(1 0 0 1 191.768 111.5599)" class="st8 st9"> </text>
<text transform="matrix(1 0 0 1 191.8281 111.5599)" class="st8 st9">de</text>
<text transform="matrix(1 0 0 1 203.796 111.5599)" class="st8 st9"> </text>
<text transform="matrix(1 0 0 1 203.788 111.5599)" class="st8 st9">n</text>
<text transform="matrix(1 0 0 1 209.816 111.5599)" class="st8 st9"> </text>
<text transform="matrix(1 0 0 1 209.848 111.5599)" class="st8 st9">tit</text>
<text transform="matrix(1 0 0 1 220.3747 111.5599)" class="st8 st9"> </text>
<text transform="matrix(1 0 0 1 220.5681 111.5599)" class="st8 st9">y</text>
<path class="st0" d="M27.8,28.7v-4.9c0-0.8,0.3-1.1,1.1-1.2c7.7-1.2,15.1-4.1,21.6-8.3c5.3-3.5,12.2-3.5,17.5,0
	c6.6,4.2,13.9,7,21.6,8.3c0.7,0.1,1.1,0.3,1.2,1.2c0.4,10.7-1.5,20.9-6.4,30.4c-5.3,10.4-13.7,19-24,24.7c-0.7,0.5-1.7,0.5-2.4,0
	c-15.7-9-25.5-22.4-29.2-40.1C28.1,35.5,27.8,32.1,27.8,28.7z"/>
<path class="st14" d="M23.7,27.9V23c0-0.8,0.2-1.1,1.1-1.2c7.7-1.2,15.1-4.1,21.6-8.3c5.3-3.5,12.2-3.5,17.5,0
	c6.6,4.2,13.9,7,21.6,8.3c0.7,0.1,1.1,0.3,1.2,1.2c0.3,10.6-1.5,20.8-6.4,30.4c-5.3,10.4-13.6,19-23.9,24.7c-0.7,0.5-1.7,0.5-2.4,0
	c-15.8-9-25.5-22.4-29.2-40.1C24,34.6,23.7,31.3,23.7,27.9z"/>
<path class="st15" d="M64.5,30.4c-0.6,1.3-1.2,2.5-1.7,3.6c-0.5,1.2-1.2,2.4-1.9,3.7c-0.4,0.7-0.4,1,0.6,1c2.1-0.1,4.3,0,6.4,0
	c0.2,0,0.3,0,0.2-0.1L50.7,56l2.6-5.2c0.9-1.7,1.7-3.3,2.5-5c0.5-0.9,0.5-0.9-0.6-0.9h-4.3c-0.6,0-0.7-0.1-0.4-0.7
	c2.2-4.4,4.4-8.8,6.6-13.2c0.1-0.3,0.3-0.5,0.7-0.5L64.5,30.4z"/>
<text transform="matrix(1 0 0 1 7.8491 97.5598)" class="st8 st9">M</text>
<text transform="matrix(1 0 0 1 17.9526 97.5598)" class="st8 st9"> </text>
<text transform="matrix(1 0 0 1 17.9791 97.5598)" class="st8 st9">ic</text>
<text transform="matrix(1 0 0 1 25.8715 97.5598)" class="st8 st9"> </text>
<text transform="matrix(1 0 0 1 25.8691 97.5598)" class="st8 st9">r</text>
<text transform="matrix(1 0 0 1 29.6531 97.5598)" class="st8 st9"> </text>
<text transform="matrix(1 0 0 1 29.6491 97.5598)" class="st8 st9">os</text>
<text transform="matrix(1 0 0 1 40.6489 97.5598)" class="st8 st9"> </text>
<text transform="matrix(1 0 0 1 40.6491 97.5598)" class="st8 st9">o</text>
<text transform="matrix(1 0 0 1 46.7759 97.5598)" class="st8 st9"> </text>
<text transform="matrix(1 0 0 1 46.7691 97.5598)" class="st8 st9">ft </text>
<text transform="matrix(1 0 0 1 57.1091 97.5598)" class="st8 st9">D</text>
<text transform="matrix(1 0 0 1 65.3646 97.5598)" class="st8 st9"> </text>
<text transform="matrix(1 0 0 1 65.3991 97.5598)" class="st8 st9">e</text>
<text transform="matrix(1 0 0 1 71.0971 97.5598)" class="st8 st9"> </text>
<text transform="matrix(1 0 0 1 71.1491 97.5598)" class="st8 st9">f</text>
<text transform="matrix(1 0 0 1 74.7845 97.5598)" class="st8 st9"> </text>
<text transform="matrix(1 0 0 1 74.8291 97.5598)" class="st8 st9">ende</text>
<text transform="matrix(1 0 0 1 98.7431 97.5598)" class="st8 st9"> </text>
<text transform="matrix(1 0 0 1 98.7391 97.5598)" class="st8 st9">r</text>
<text transform="matrix(1 0 0 1 102.5231 97.5598)" class="st8 st9"> </text>
<text transform="matrix(1 0 0 1 25.1591 111.5598)" class="st8 st9">f</text>
<text transform="matrix(1 0 0 1 28.7946 111.5598)" class="st8 st9"> </text>
<text transform="matrix(1 0 0 1 28.8391 111.5598)" class="st8 st9">o</text>
<text transform="matrix(1 0 0 1 35.076 111.5598)" class="st8 st9"> </text>
<text transform="matrix(1 0 0 1 35.0691 111.5598)" class="st8 st9">r</text>
<text transform="matrix(1 0 0 1 38.8531 111.5598)" class="st8 st9"> </text>
<text transform="matrix(1 0 0 1 41.6591 111.5598)" class="st8 st9">E</text>
<text transform="matrix(1 0 0 1 47.9016 111.5598)" class="st8 st9"> </text>
<text transform="matrix(1 0 0 1 47.8591 111.5598)" class="st8 st9">ndpoi</text>
<text transform="matrix(1 0 0 1 75.1992 111.5598)" class="st8 st9"> </text>
<text transform="matrix(1 0 0 1 75.1991 111.5598)" class="st8 st9">n</text>
<text transform="matrix(1 0 0 1 81.2271 111.5598)" class="st8 st9"> </text>
<text transform="matrix(1 0 0 1 81.2592 111.5598)" class="st8 st9">t</text>
</svg>
