<svg id="Layer_1" data-name="Layer 1" xmlns="http://www.w3.org/2000/svg" viewBox="0 0 178.91 211.35">
  <defs>
    <style>
      .cls-1 {
        fill: #212633;
      }

      .cls-2 {
        fill: #fff;
      }
    </style>
  </defs>
  <path class="cls-1"
    d="M91.29,24.46c8.4-2.83,35-3.63,43.78-.16,0,0,10.06-14.71,23.64-20.41,4.3-1.81,6.11-.57,8.07,1.81,5.79,7,16.61,25,13.62,59.06,0,0,.7,39.75-31.67,56.15-19.15,9.71-46.74,12-70.65.26C46.15,105.53,48.2,66,48.2,66S46.18,25.48,60.84,5c2.06-2.87,3.4-4.36,8-1.42A89.08,89.08,0,0,1,91.29,24.46Z"
    transform="translate(-2 -2)" />
  <path class="cls-2"
    d="M62.24,74.74c4.05-17.71,28-21.9,39.86-21.94,23.58-.09,49,4.93,52.31,23.7,3.63,20.32-13,25.27-24.61,22.16-13.35-3.59-20-4.06-29.46-4-7.1.25-10.76,1.3-17.2,3.21C71.66,101.25,57.64,94.86,62.24,74.74Z"
    transform="translate(-2 -2)" />
  <path class="cls-1"
    d="M120.11,79.22c-.25,4.64,2.7,8.56,6.59,8.77s7.25-3.39,7.49-8-2.71-8.56-6.6-8.77S120.35,74.58,120.11,79.22Z"
    transform="translate(-2 -2)" />
  <path class="cls-1"
    d="M84.14,79.13c.28,4.59-2.4,8.49-6,8.7s-6.71-3.33-7-7.92,2.41-8.49,6-8.71S83.87,74.54,84.14,79.13Z"
    transform="translate(-2 -2)" />
  <path class="cls-1"
    d="M133.62,106.41c3.91,6.22,8.87,12.11,3.43,36.41-1.9,8.54-6.58,18.8-11,32.91,0,0,6.46,5.16,6.56,13.75.07,5.24-3.53,22.59-33.92,23.81-26.43,1.07-29.51-12.58-27.82-16.94,3.94-10.13,17.16-4.78,16-11.17-1.26-6.68-7.46-9.7-15.11-9.07-27.44,2.24-55,15.37-64.43,13.83-6.79-1.11-9.59-17.78,7.42-27.29s36.73-14.27,49.36-17c8.24-23.86,22-39.86,28.05-39.34C103.83,107.3,133.62,106.41,133.62,106.41Z"
    transform="translate(-2 -2)" />
  <path class="cls-2"
    d="M103.08,162.9A54.11,54.11,0,0,0,94.65,178a3.62,3.62,0,0,0,1.9,4.5,36.75,36.75,0,0,0,6.39,2.22,3.6,3.6,0,0,0,4.3-2.79c1.07-4.79,2.45-13.87,2-19.12C108.64,155.36,103.08,162.9,103.08,162.9Z"
    transform="translate(-2 -2)" />
  <path class="cls-1"
    d="M103.73,186.82a5.4,5.4,0,0,1-1.25-.15,39.44,39.44,0,0,1-6.74-2.34,5.58,5.58,0,0,1-3-7,56.27,56.27,0,0,1,8.72-15.65h0c1.11-1.49,4-4.87,6.85-4.06,1.71.48,2.7,2.16,2.93,5,.47,5.62-1,14.88-2.06,19.73a5.72,5.72,0,0,1-2.53,3.6A5.51,5.51,0,0,1,103.73,186.82Zm.68-22.43a54.24,54.24,0,0,0-7.87,14.26,1.63,1.63,0,0,0,.82,2,35.92,35.92,0,0,0,6,2.11,1.49,1.49,0,0,0,1.14-.2,1.73,1.73,0,0,0,.76-1.08c1-4.44,2.4-13.39,2-18.53a6.93,6.93,0,0,0-.21-1.26,11.47,11.47,0,0,0-2.37,2.37A1.67,1.67,0,0,1,104.41,164.39Zm-.3.22Zm-1-1.71h0Z"
    transform="translate(-2 -2)" />
  <path class="cls-2" d="M130,158.11s-36.25-19.54-61.43-17.48l-1.75,3.48S95.22,158,125.75,169.5Z"
    transform="translate(-2 -2)" />
  <path class="cls-1"
    d="M125.75,171.5a2.16,2.16,0,0,1-.71-.12C94.78,160,66.22,146.05,65.94,145.91a2,2,0,0,1-.91-2.7l1.76-3.48a2,2,0,0,1,1.62-1.09c10.73-.88,24.54,1.84,41,8.09A197.76,197.76,0,0,1,131,156.34a2,2,0,0,1,.93,2.46l-4.26,11.4a2,2,0,0,1-1,1.12A2,2,0,0,1,125.75,171.5ZM69.52,143.19c6.58,3.16,30,14.2,55.06,23.73l2.93-7.85c-7-3.56-36.34-17.69-57.66-16.52Z"
    transform="translate(-2 -2)" />
  <path class="cls-2"
    d="M114.47,164.41a38.61,38.61,0,0,1,9.39,13.67,3.7,3.7,0,0,1-1.4,4.35,30.59,30.59,0,0,1-5.61,3,4.17,4.17,0,0,1-5.4-2.07c-1.94-4.84-2.31-14.42-2.1-19.66C109.64,156.27,114.47,164.41,114.47,164.41Z"
    transform="translate(-2 -2)" />
  <path class="cls-1"
    d="M115.24,187.77a6,6,0,0,1-5.65-3.63c-2.2-5.5-2.43-15.8-2.24-20.48,0-1.08.17-4.36,2.64-5s4.56,2,6,4.45a41.14,41.14,0,0,1,9.7,14.25,5.65,5.65,0,0,1-2.15,6.72,31.87,31.87,0,0,1-6,3.24A6.39,6.39,0,0,1,115.24,187.77Zm-3.88-24.29c0,.1,0,.22,0,.34-.19,4.9.17,14.35,2,18.83a2.18,2.18,0,0,0,2.81,1,28.87,28.87,0,0,0,5.24-2.84,1.69,1.69,0,0,0,.64-2,37.88,37.88,0,0,0-8.65-12.73,2.09,2.09,0,0,1-.59-.63A14.45,14.45,0,0,0,111.36,163.48Zm2,2.59.18.12Z"
    transform="translate(-2 -2)" />
  <path class="cls-2"
    d="M105.66,163.75a13.61,13.61,0,0,0,4.92,1.72c2.29.34,3.31-.47,4.46-2s2.5-6.95,2.65-8.87a5.48,5.48,0,0,0-2.41-5,10.14,10.14,0,0,0-4.67-1.26,4.77,4.77,0,0,0-4.14,1.82c-1.11,1.55-2.41,6.22-2.72,8.51S104,162.78,105.66,163.75Z"
    transform="translate(-2 -2)" />
  <path class="cls-1"
    d="M111.52,167.55a7.82,7.82,0,0,1-1.23-.1,15.62,15.62,0,0,1-5.65-2h0c-1.32-.78-3.45-2.73-2.87-7,.3-2.2,1.62-7.38,3.08-9.41a6.58,6.58,0,0,1,5.71-2.65h.06a12.06,12.06,0,0,1,5.62,1.51,7.38,7.38,0,0,1,3.44,6.86c-.14,1.91-1.52,7.95-3.05,9.94A6.09,6.09,0,0,1,111.52,167.55ZM106.68,162a11.86,11.86,0,0,0,4.2,1.47c1.33.2,1.7-.07,2.57-1.22.75-1,2.1-5.89,2.24-7.81a3.5,3.5,0,0,0-1.37-3,8,8,0,0,0-3.72-1,2.73,2.73,0,0,0-2.5,1c-.81,1.14-2.06,5.39-2.37,7.63s.57,2.79,1,3Z"
    transform="translate(-2 -2)" />
  <path class="cls-1"
    d="M176.72,145.94c-5-9.12-12.48-17.15-19.7-23.1-4.25-3.5-9.59-5.62-14.46-7.91-.73-.34-10.09-4.2-10.37-3.24,0,0-10.3,31.25,4.3,33.41,7.93,1.17,17.61,7,19.58,10.81,2.74,5.31,1.3,7.45,3.84,12.39,1.76,3.43,5.62,5.09,9.23,5.25,5.76.25,9.7-3.72,10.82-10C181,157.66,179.34,150.71,176.72,145.94Z"
    transform="translate(-2 -2)" />
  <path class="cls-1"
    d="M85.61,111.3s-45.2,6.45-51.48,5.72-10.63-10.45-16.31-3.59-2,21.5,11.2,24.38,47.49-.69,47.49-.69Z"
    transform="translate(-2 -2)" />
</svg>