<svg id="Layer_1" data-name="Layer 1" xmlns="http://www.w3.org/2000/svg" width="98" height="98" viewBox="0 0 98 98"><circle id="HG" cx="49" cy="49" r="49" fill="#5cbbff" opacity="0.7" style="isolation:isolate"/><path d="M49.41,71.63a10.5,10.5,0,0,0-21,0Z" transform="translate(-2.59 -2.22)" fill="none" stroke="#000" stroke-linecap="round" stroke-linejoin="round" stroke-width="1.5"/><circle cx="36.22" cy="49.85" r="6.2" fill="none" stroke="#000" stroke-linecap="round" stroke-linejoin="round" stroke-width="1.5"/><circle cx="52.55" cy="34.58" r="3.34" fill="none" stroke="#000" stroke-linecap="round" stroke-linejoin="round" stroke-width="1.5"/><path d="M61.82,46.81a6.9,6.9,0,0,0-13.37,0" transform="translate(-2.59 -2.22)" fill="none" stroke="#000" stroke-linecap="round" stroke-linejoin="round" stroke-width="1.5"/><path d="M68.5,50.63V31.54a1.92,1.92,0,0,0-1.91-1.91H41.77a1.92,1.92,0,0,0-1.91,1.91V42" transform="translate(-2.59 -2.22)" fill="none" stroke="#000" stroke-linecap="round" stroke-linejoin="round" stroke-width="1.5"/><path d="M50.36,50.63h22a3.82,3.82,0,0,1-3.82,3.82H50.36" transform="translate(-2.59 -2.22)" fill="none" stroke="#000" stroke-linecap="round" stroke-linejoin="round" stroke-width="1.5"/></svg>