<svg xmlns="http://www.w3.org/2000/svg" xmlns:xlink="http://www.w3.org/1999/xlink" width="98" height="98" overflow="visible" viewBox="0 0 98 98">
  <circle id="HG_2_" cx="49" cy="49" r="49" fill="#5cbbff" opacity=".7"/>
  <g id="talking-people_Kopie">
    <path d="M72 72.4c-2-5.6-7.3-9.4-13.2-9.4-5.9 0-11.2 3.8-13.2 9.4" fill="none" stroke="#000" stroke-width="1.5" stroke-linecap="round" stroke-linejoin="round"/>
    <circle cx="58.8" cy="51.3" r="8.6" fill="none" stroke="#000" stroke-width="1.5" stroke-linecap="round" stroke-linejoin="round"/>
    <path d="M47.9 41.2h-3.1v4.7l-6.2-4.7h-9.4c-1.7 0-3.1-1.4-3.1-3.1v-9.4c0-1.7 1.4-3.1 3.1-3.1h18.7c1.7 0 3.1 1.4 3.1 3.1v9.4c0 1.7-1.4 3.1-3.1 3.1zM42 31.2h-7.8M46.7 35.9H34.2" fill="none" stroke="#000" stroke-width="1.5" stroke-linecap="round" stroke-linejoin="round"/>
    <circle cx="36.1" cy="56.8" r="6.2" fill="none" stroke="#000" stroke-width="1.5" stroke-linecap="round" stroke-linejoin="round"/>
    <path d="M41.6 68c-1.6-1.2-3.5-1.8-5.5-1.8-4 0-7.5 2.5-8.8 6.2M58.8 68v4.4" fill="none" stroke="#000" stroke-width="1.5" stroke-linecap="round" stroke-linejoin="round"/>
  </g>
</svg>