<svg id="Layer_1" data-name="Layer 1" xmlns="http://www.w3.org/2000/svg" width="98" height="98" viewBox="0 0 98 98">
  <circle id="HG" cx="49" cy="49" r="49" fill="#5cbbff" opacity="0.7" style="isolation: isolate"/>
  <g>
    <circle cx="48.45" cy="32.35" r="4.14" fill="none" stroke="#000" stroke-linecap="round" stroke-linejoin="round" stroke-width="1.5"/>
    <path d="M56.1,44A5.27,5.27,0,0,0,46,44" transform="translate(-2.59 -2.22)" fill="none" stroke="#000" stroke-linecap="round" stroke-linejoin="round" stroke-width="1.5"/>
    <line x1="41.67" y1="44.76" x2="55.22" y2="44.76" fill="none" stroke="#000" stroke-linecap="round" stroke-linejoin="round" stroke-width="1.5"/>
    <polyline points="43.49 49.21 43.18 44.76 53.72 44.76 53.4 49.25" fill="none" stroke="#000" stroke-linecap="round" stroke-linejoin="round" stroke-width="1.5"/>
    <path d="M51,50.4a.38.38,0,1,0,0,.75.38.38,0,0,0,0-.75h0" transform="translate(-2.59 -2.22)" fill="none" stroke="#000" stroke-linecap="round" stroke-linejoin="round" stroke-width="1.5"/>
    <circle cx="49.33" cy="55.08" r="3.54" fill="none" stroke="#000" stroke-linecap="round" stroke-linejoin="round" stroke-width="1.5"/>
    <circle cx="38.2" cy="55.08" r="3.54" fill="none" stroke="#000" stroke-linecap="round" stroke-linejoin="round" stroke-width="1.5"/>
    <circle cx="60.21" cy="55.08" r="3.54" fill="none" stroke="#000" stroke-linecap="round" stroke-linejoin="round" stroke-width="1.5"/>
    <path d="M68.34,65A7,7,0,0,0,58.43,64,7.15,7.15,0,0,0,57.36,65a7.32,7.32,0,0,0-5.58-2.62" transform="translate(-2.59 -2.22)" fill="none" stroke="#000" stroke-linecap="round" stroke-linejoin="round" stroke-width="1.5"/>
    <path d="M35.22,65A7.05,7.05,0,0,1,45.13,64,7.15,7.15,0,0,1,46.2,65a7.33,7.33,0,0,1,5.58-2.62" transform="translate(-2.59 -2.22)" fill="none" stroke="#000" stroke-linecap="round" stroke-linejoin="round" stroke-width="1.5"/>
  </g>
</svg>
