<svg data-name="Layer 1" xmlns="http://www.w3.org/2000/svg" width="98" height="98">
    <circle cx="49" cy="49" r="49" fill="#5cbbff" opacity=".7" style="isolation:isolate"/>
    <path d="M66.54 47.87a17.84 17.84 0 0 0-2.69-5.94 18.12 18.12 0 0 0-4.61-4.59 17.94 17.94 0 0 0-5.95-2.67l-.18.76a17.31 17.31 0 0 1 12.67 12.63 17.58 17.58 0 0 1 .39 6.22 17.41 17.41 0 0 1-5.68 10.87 17.3 17.3 0 0 1-17.59 3.26 17.23 17.23 0 0 1-9.19-8.11 17.1 17.1 0 0 1-1.87-5.94 17.64 17.64 0 0 1 .36-6.23 17.34 17.34 0 0 1 2.54-5.69 17.56 17.56 0 0 1 4.4-4.41 17.29 17.29 0 0 1 5.68-2.58l-.19-.76a17.84 17.84 0 0 0-5.94 2.69A18.16 18.16 0 0 0 34.1 42a17.82 17.82 0 0 0-2.66 6 18.23 18.23 0 0 0-.38 6.5 18.06 18.06 0 0 0 29.95 11.28 18.17 18.17 0 0 0 4-5.13 17.78 17.78 0 0 0 1.92-6.23 18 18 0 0 0-.39-6.55z" fill="#000520"/>
    <path d="M47.56 44.23v-5.45a13.59 13.59 0 0 0-11.1 8.29 13.53 13.53 0 0 0 2.95 14.71 13.58 13.58 0 0 0 14.78 3 13.56 13.56 0 0 0 0-25.06 12.83 12.83 0 0 0-3.55-.94v5.5a8.16 8.16 0 1 1-3.08 0z" fill="#000520"/>
    <path d="M48.6 38.67v12.65l-1.42-2.94-.7.34L49 53.94l2.52-5.22-.71-.34-1.4 2.94V35.63l2.57-2.05v-6.37l-2.63 2.11h-.73l-2.67-2.14v6.4l2.67 2.14zm-1.89-5.47v-4.35l1.89 1.51v4.35z" fill="#000520"/>
</svg>
