<svg id="Layer_1" data-name="Layer 1" xmlns="http://www.w3.org/2000/svg" width="98" height="98" viewBox="0 0 98 98">
  <circle id="HG" cx="49" cy="49" r="49" fill="#5cbbff" opacity="0.7" style="isolation: isolate"/>
  <g>
    <path d="M48.63,30.45H65.14a3.93,3.93,0,0,0-3.93,3.93V60.32a6.29,6.29,0,0,1-6.29,6.29h-16a.78.78,0,0,1-.8-.77.76.76,0,0,1,.27-.61,6.29,6.29,0,0,0,2.36-4.91V54" transform="translate(-2.59 -2.22)" fill="none" stroke="#000" stroke-linecap="round" stroke-linejoin="round" stroke-width="1.64"/>
    <circle cx="62.55" cy="32.16" r="3.93" fill="none" stroke="#000" stroke-linecap="round" stroke-linejoin="round" stroke-width="1.64"/>
    <path d="M52.53,38a.79.79,0,0,0-.22-1.09.75.75,0,0,0-.43-.13h-3.6a.79.79,0,0,1-.67-.37l-3-4.86a.79.79,0,0,0-1.09-.25.85.85,0,0,0-.25.25l-3,4.86a.78.78,0,0,1-.67.37h-3.6a.78.78,0,0,0-.78.78.76.76,0,0,0,.13.44l2,3.06a.77.77,0,0,1,0,.87l-2,3.06A.79.79,0,0,0,35.51,46a.83.83,0,0,0,.43.13h3.6a.78.78,0,0,1,.67.37l3,4.85a.79.79,0,0,0,1.09.25.75.75,0,0,0,.25-.25l3-4.85a.79.79,0,0,1,.67-.37h3.6a.78.78,0,0,0,.78-.79.75.75,0,0,0-.13-.43l-2-3.06a.77.77,0,0,1,0-.87Z" transform="translate(-2.59 -2.22)" fill="none" stroke="#000" stroke-linecap="round" stroke-linejoin="round" stroke-width="1.64"/>
    <circle cx="41.32" cy="39.24" r="3.15" fill="none" stroke="#000" stroke-linecap="round" stroke-linejoin="round" stroke-width="1.64"/>
    <line x1="45.26" y1="51.82" x2="51.55" y2="51.82" fill="none" stroke="#000" stroke-linecap="round" stroke-linejoin="round" stroke-width="1.64"/>
    <line x1="42.9" y1="56.53" x2="53.9" y2="56.53" fill="none" stroke="#000" stroke-linecap="round" stroke-linejoin="round" stroke-width="1.64"/>
  </g>
</svg>
