<svg data-name="Layer 1" xmlns="http://www.w3.org/2000/svg" width="98" height="98">
    <circle cx="49" cy="49" r="49" fill="#5cbbff" opacity=".7" style="isolation:isolate"/>
    <g fill="none" stroke="#000" stroke-linecap="round" stroke-linejoin="round" stroke-width="1.5">
        <path d="M67.27 52.98a9 9 0 0 0 5.22-8.46 9.84 9.84 0 0 0-10-9.69h-.36a14 14 0 0 0-12.61-7.75 13.79 13.79 0 0 0-13.93 12.75 7.43 7.43 0 0 0-8.86 5.66 8 8 0 0 0-.17 1.46 6.66 6.66 0 0 0 5.22 6.83M49.53 32.3v11.48"/>
        <path d="m54.75 38.56-5.22 5.22-5.22-5.22M44.98 64.78c0 1.43 2 2.59 4.54 2.59s4.54-1.16 4.54-2.59h6.49V50.07a2.16 2.16 0 0 0-2.14-2.16H40.66a2.16 2.16 0 0 0-2.16 2.16v14.71z"/>
        <path d="M54.06 64.78c0 1.43-2 2.59-4.54 2.59s-4.54-1.17-4.54-2.59H34.61a6.85 6.85 0 0 0 6.64 5.19H57.8a6.85 6.85 0 0 0 6.61-5.19z"/>
    </g>
</svg>
