<svg id="Layer_1" data-name="Layer 1" xmlns="http://www.w3.org/2000/svg" width="98" height="98" viewBox="0 0 98 98">
  <circle id="HG" cx="49" cy="49" r="49" fill="#5cbbff" opacity="0.7" style="isolation: isolate"/>
  <g>
    <rect x="43.12" y="41.17" width="11.76" height="9.8" rx="1.96" fill="none" stroke="#000" stroke-linecap="round" stroke-linejoin="round" stroke-width="1.5"/>
    <path d="M51.59,37.5h0a3.92,3.92,0,0,0-3.92,3.92v2h7.84v-2A3.93,3.93,0,0,0,51.59,37.5Z" transform="translate(-2.59 -2.22)" fill="none" stroke="#000" stroke-linecap="round" stroke-linejoin="round" stroke-width="1.5"/>
    <path d="M51.59,47.83a.49.49,0,1,1-.49.49.49.49,0,0,1,.49-.49" transform="translate(-2.59 -2.22)" fill="none" stroke="#000" stroke-linecap="round" stroke-linejoin="round" stroke-width="1.5"/>
    <path d="M44.73,57.11c0,2.15,3.07,3.92,6.86,3.92s6.86-1.77,6.86-3.92h9.8V34.89A3.26,3.26,0,0,0,65,31.62H38.19a3.27,3.27,0,0,0-3.27,3.27V57.11Z" transform="translate(-2.59 -2.22)" fill="none" stroke="#000" stroke-linecap="round" stroke-linejoin="round" stroke-width="1.5"/>
    <path d="M58.45,57.11c0,2.15-3.07,3.92-6.86,3.92s-6.86-1.77-6.86-3.92H29A10.37,10.37,0,0,0,39.09,65h25a10.36,10.36,0,0,0,10-7.84Z" transform="translate(-2.59 -2.22)" fill="none" stroke="#000" stroke-linecap="round" stroke-linejoin="round" stroke-width="1.5"/>
  </g>
</svg>
