<svg id="Layer_1" data-name="Layer 1" xmlns="http://www.w3.org/2000/svg" width="98" height="98" viewBox="0 0 98 98">
  <circle id="HG" cx="49" cy="49" r="49" fill="#5cbbff" opacity="0.7" style="isolation: isolate"/>
  <g>
    <path d="M49.72,63.2a1.86,1.86,0,0,1-1.86,1.86H32.94a1.86,1.86,0,0,1-1.86-1.86V53.88A1.87,1.87,0,0,1,32.94,52H47.86a1.87,1.87,0,0,1,1.86,1.87Z" transform="translate(-2.59 -2.22)" fill="none" stroke="#000" stroke-linecap="round" stroke-linejoin="round" stroke-width="1.5"/>
    <line x1="37.81" y1="62.85" x2="37.81" y2="68.44" fill="none" stroke="#000" stroke-linecap="round" stroke-linejoin="round" stroke-width="1.5"/>
    <line x1="32.22" y1="68.44" x2="43.41" y2="68.44" fill="none" stroke="#000" stroke-linecap="round" stroke-linejoin="round" stroke-width="1.5"/>
    <path d="M72.1,63.2a1.87,1.87,0,0,1-1.87,1.86H55.32a1.87,1.87,0,0,1-1.87-1.86V53.88A1.87,1.87,0,0,1,55.32,52H70.23a1.87,1.87,0,0,1,1.87,1.87Z" transform="translate(-2.59 -2.22)" fill="none" stroke="#000" stroke-linecap="round" stroke-linejoin="round" stroke-width="1.5"/>
    <line x1="60.19" y1="62.85" x2="60.19" y2="68.44" fill="none" stroke="#000" stroke-linecap="round" stroke-linejoin="round" stroke-width="1.5"/>
    <line x1="54.59" y1="68.44" x2="65.78" y2="68.44" fill="none" stroke="#000" stroke-linecap="round" stroke-linejoin="round" stroke-width="1.5"/>
    <path d="M62.77,40.83a1.86,1.86,0,0,1-1.86,1.86H42.27a1.87,1.87,0,0,1-1.87-1.86V29.64a1.87,1.87,0,0,1,1.87-1.86H60.91a1.86,1.86,0,0,1,1.86,1.86Z" transform="translate(-2.59 -2.22)" fill="none" stroke="#000" stroke-linecap="round" stroke-linejoin="round" stroke-width="1.5"/>
    <line x1="49" y1="40.47" x2="49" y2="46.07" fill="none" stroke="#000" stroke-linecap="round" stroke-linejoin="round" stroke-width="1.5"/>
    <line x1="43.41" y1="46.07" x2="54.59" y2="46.07" fill="none" stroke="#000" stroke-linecap="round" stroke-linejoin="round" stroke-width="1.5"/>
  </g>
</svg>
