<svg data-name="Layer 1" xmlns="http://www.w3.org/2000/svg" width="98" height="98">
    <circle cx="49" cy="49" r="49" fill="#5cbbff" opacity=".7" style="isolation:isolate"/>
    <path fill="none" stroke="#000" stroke-linecap="round" stroke-linejoin="round" stroke-width="1.5" d="M38.79 60.01h7.5M29.42 48.75H61.3M44.41 54.38v2.81A2.81 2.81 0 0 1 41.59 60"/>
    <path d="M66.92 45V30a1.88 1.88 0 0 0-1.88-1.88H31.29A1.88 1.88 0 0 0 29.41 30v22.5a1.88 1.88 0 0 0 1.88 1.88h18.75" fill="none" stroke="#000" stroke-linecap="round" stroke-linejoin="round" stroke-width="1.5"/>
    <circle cx="54.26" cy="61.41" r="4.22" fill="none" stroke="#000" stroke-linecap="round" stroke-linejoin="round" stroke-width="1.5"/>
    <circle cx="68.33" cy="67.04" r="4.22" fill="none" stroke="#000" stroke-linecap="round" stroke-linejoin="round" stroke-width="1.5"/>
    <circle cx="68.33" cy="52.97" r="4.22" fill="none" stroke="#000" stroke-linecap="round" stroke-linejoin="round" stroke-width="1.5"/>
    <path fill="none" stroke="#000" stroke-linecap="round" stroke-linejoin="round" stroke-width="1.5" d="m57.87 59.25 6.85-4.11M58.18 62.98l6.23 2.49"/>
</svg>
