<svg data-name="Layer 1" xmlns="http://www.w3.org/2000/svg" width="98" height="98">
    <circle cx="49" cy="49" r="49" fill="#5cbbff" opacity=".7" style="isolation:isolate"/>
    <path d="M67.71 69.99V65.2l5.86-8.79c2-3.38-.42-8.7-2.37-13.9M66.66 57.61l-2.13-7.74a2.74 2.74 0 0 0-5.34 1.22 2 2 0 0 0 .06.23l2.36 8.53-1.6 2.93a23.27 23.27 0 0 0-1.1 7.27M30.29 69.99V65.2l-5.88-8.79c-2-3.38.42-8.7 2.37-13.9M31.33 57.61l2.13-7.74a2.744 2.744 0 0 1 5.35 1.22l-.06.23-2.34 8.52 1.58 2.94a23.57 23.57 0 0 1 1.1 7.27M49 62.82l-.01-.01 6.11 3.79" fill="none" stroke="#000" stroke-linecap="round" stroke-linejoin="round" stroke-width="1.5"/>
    <path d="m32.6 53-7.83-14.13a2.21 2.21 0 0 1 .72-2.91l11.92-7.78a1.1 1.1 0 0 1 1.52.32 1 1 0 0 1 .18.6v7.87h3.3a1.1 1.1 0 0 1 1.1 1.1v7.71l6.61 9.91v-9.66a1 1 0 0 1 .12-.49l4-8a1.08 1.08 0 0 1 1-.61h3.67V29.1a1.1 1.1 0 0 1 1.1-1.1 1.08 1.08 0 0 1 .6.18l11.89 7.78a2.19 2.19 0 0 1 .73 2.91L65.41 53M49 62.82l.01-.01-6.11 3.79" fill="none" stroke="#000" stroke-linecap="round" stroke-linejoin="round" stroke-width="1.5"/>
</svg>
