<svg id="Layer_1" data-name="Layer 1" xmlns="http://www.w3.org/2000/svg" width="98" height="98" viewBox="0 0 98 98">
  <circle id="HG" cx="49" cy="49" r="49" fill="#5cbbff" opacity="0.7" style="isolation: isolate"/>
  <g>
    <circle cx="36.07" cy="41.62" r="3.46" fill="none" stroke="#000" stroke-linecap="round" stroke-linejoin="round" stroke-width="1.5"/>
    <path d="M38.66,48.83a4.6,4.6,0,0,0-4.61,4.61v3.84h2.31l.76,6.91H40.2L41,57.28h2.31V53.44A4.61,4.61,0,0,0,38.66,48.83Z" transform="translate(-2.59 -2.22)" fill="none" stroke="#000" stroke-linecap="round" stroke-linejoin="round" stroke-width="1.5"/>
    <circle cx="62.18" cy="41.62" r="3.46" fill="none" stroke="#000" stroke-linecap="round" stroke-linejoin="round" stroke-width="1.5"/>
    <path d="M64.77,48.83a4.6,4.6,0,0,0-4.61,4.61v3.84h2.31l.76,6.91H66.3l.77-6.91h2.31V53.44A4.61,4.61,0,0,0,64.77,48.83Z" transform="translate(-2.59 -2.22)" fill="none" stroke="#000" stroke-linecap="round" stroke-linejoin="round" stroke-width="1.5"/>
    <line x1="49.9" y1="46.62" x2="48.36" y2="46.62" fill="none" stroke="#000" stroke-linecap="round" stroke-linejoin="round" stroke-width="1.5"/>
    <line x1="51.43" y1="43.54" x2="46.82" y2="43.54" fill="none" stroke="#000" stroke-linecap="round" stroke-linejoin="round" stroke-width="1.5"/>
    <line x1="49.13" y1="26.65" x2="49.13" y2="28.19" fill="none" stroke="#000" stroke-linecap="round" stroke-linejoin="round" stroke-width="1.5"/>
    <line x1="40.37" y1="34.33" x2="42.22" y2="34.33" fill="none" stroke="#000" stroke-linecap="round" stroke-linejoin="round" stroke-width="1.5"/>
    <line x1="57.57" y1="34.33" x2="56.04" y2="34.33" fill="none" stroke="#000" stroke-linecap="round" stroke-linejoin="round" stroke-width="1.5"/>
    <line x1="41.45" y1="28.95" x2="42.98" y2="30.49" fill="none" stroke="#000" stroke-linecap="round" stroke-linejoin="round" stroke-width="1.5"/>
    <line x1="56.81" y1="28.95" x2="55.27" y2="30.49" fill="none" stroke="#000" stroke-linecap="round" stroke-linejoin="round" stroke-width="1.5"/>
    <path d="M56.32,37.31a4.61,4.61,0,0,0-9.21,0,4.5,4.5,0,0,0,2.3,3.84v1.54H54V41.15A4.5,4.5,0,0,0,56.32,37.31Z" transform="translate(-2.59 -2.22)" fill="none" stroke="#000" stroke-linecap="round" stroke-linejoin="round" stroke-width="1.5"/>
  </g>
</svg>
