<svg data-name="Layer 1" xmlns="http://www.w3.org/2000/svg" width="98" height="98">
    <circle cx="49" cy="49" r="49" fill="#5cbbff" opacity=".7" style="isolation:isolate"/>
    <circle cx="61.72" cy="36.21" r="2.71" fill="none" stroke="#000" stroke-linecap="round" stroke-linejoin="round" stroke-width="1.5"/>
    <path d="m63.5 28.1.62 2a1.38 1.38 0 0 0 1.64.94l2.07-.44a1.87 1.87 0 0 1 1.78 3.1l-1.44 1.55a1.39 1.39 0 0 0 0 1.9l1.44 1.55a1.88 1.88 0 0 1-.1 2.65 1.85 1.85 0 0 1-1.68.43l-2.06-.47a1.4 1.4 0 0 0-1.64 1l-.62 2a1.86 1.86 0 0 1-3.56 0l-.62-2a1.39 1.39 0 0 0-1.63-.94l-2.07.41a1.87 1.87 0 0 1-1.8-3.06l1.44-1.56a1.41 1.41 0 0 0 0-1.9l-1.44-1.55a1.87 1.87 0 0 1 .09-2.64 1.89 1.89 0 0 1 1.69-.46l2.06.48a1.39 1.39 0 0 0 1.63-.94l.62-2a1.86 1.86 0 0 1 3.56 0zM39.05 43.04a2.45 2.45 0 0 0 3.46.2l.19-.2 1.19-1.26a2.46 2.46 0 0 1 4.29 1.78l-.09 1.76a2.47 2.47 0 0 0 2.33 2.59h.25l1.76-.13a2.46 2.46 0 0 1 1.78 4.28l-1.31 1.19a2.45 2.45 0 0 0-.19 3.46 1.7 1.7 0 0 0 .19.19l1.31 1.18a2.46 2.46 0 0 1-1.78 4.29l-1.76-.09a2.46 2.46 0 0 0-2.58 2.34 1 1 0 0 0 0 .25l.09 1.76a2.46 2.46 0 0 1-4.29 1.77l-1.18-1.32a2.46 2.46 0 0 0-3.46-.19l-.2.19-1.22 1.31a2.47 2.47 0 0 1-3.48.18 2.44 2.44 0 0 1-.81-2l.09-1.76a2.47 2.47 0 0 0-2.33-2.59h-.25l-1.76.09a2.46 2.46 0 0 1-1.78-4.29l1.32-1.13a2.45 2.45 0 0 0 .19-3.46l-.19-.19-1.31-1.19a2.46 2.46 0 0 1 1.81-4.27l1.76.09a2.46 2.46 0 0 0 2.58-2.34 1 1 0 0 0 0-.25l-.1-1.76a2.48 2.48 0 0 1 2.35-2.58 2.5 2.5 0 0 1 1.91.84z" fill="none" stroke="#000" stroke-linecap="round" stroke-linejoin="round" stroke-width="1.5"/>
    <path d="M43.7 49.41h-3.2a2.45 2.45 0 0 0-1.37 4.5l3.47 2.31a2.45 2.45 0 0 1-1.35 4.5h-3.21M41.81 49.41v-1.89M39.93 62.61v-1.89" fill="none" stroke="#000" stroke-linecap="round" stroke-linejoin="round" stroke-width="1.5"/>
</svg>
