<svg data-name="Layer 1" xmlns="http://www.w3.org/2000/svg" width="98" height="98">
    <circle cx="49" cy="49" r="49" fill="#5cbbff" opacity=".7" style="isolation:isolate"/>
    <path fill="none" stroke="#000" stroke-linecap="round" stroke-linejoin="round" stroke-width="1.4" d="M56.64 50.78v18.64M42.44 60.54l4.44-12.43 4.43 12.43"/>
    <circle cx="56.64" cy="48.11" r="2.66" fill="none" stroke="#000" stroke-linecap="round" stroke-linejoin="round" stroke-width="1.4"/>
    <path fill="none" stroke="#000" stroke-linecap="round" stroke-linejoin="round" stroke-width="1.4" d="M59.31 48.11h8.87M45.1 48.11h8.88M51.31 69.42h10.66M51.32 60.54a4.44 4.44 0 0 1-8.88 0zM70.85 60.54l-4.44-12.43-4.44 12.43M61.97 60.54a4.44 4.44 0 0 0 8.88 0z"/>
    <path d="M45.99 69.42H31.83a1.78 1.78 0 0 1-1.78-1.78V30.35a1.78 1.78 0 0 1 1.78-1.78h16a5 5 0 0 1 3 1.26l6.37 6.37a5 5 0 0 1 1.25 3v2.66" fill="none" stroke="#000" stroke-linecap="round" stroke-linejoin="round" stroke-width="1.4"/>
    <path d="M49.54 29.01v6.67a1.78 1.78 0 0 0 1.78 1.77h6.67M35.33 37.46h4.44M35.33 42.78h9.77" fill="none" stroke="#000" stroke-linecap="round" stroke-linejoin="round" stroke-width="1.4"/>
</svg>
