<svg id="Layer_1" data-name="Layer 1" xmlns="http://www.w3.org/2000/svg" width="98" height="98" viewBox="0 0 98 98">
  <circle id="HG" cx="49" cy="49" r="49" fill="#5cbbff" opacity="0.7" style="isolation: isolate"/>
  <g>
    <line x1="31.5" y1="63.5" x2="65.96" y2="63.5" fill="none" stroke="#000" stroke-linecap="round" stroke-linejoin="round" stroke-width="1.5"/>
    <path d="M40.07,65.71V59a.75.75,0,0,0-.75-.75h-3a.75.75,0,0,0-.75.75v6.74" transform="translate(-2.59 -2.22)" fill="none" stroke="#000" stroke-linecap="round" stroke-linejoin="round" stroke-width="1.5"/>
    <path d="M49.06,65.71V51.48a.75.75,0,0,0-.75-.75h-3a.75.75,0,0,0-.75.75V65.71" transform="translate(-2.59 -2.22)" fill="none" stroke="#000" stroke-linecap="round" stroke-linejoin="round" stroke-width="1.5"/>
    <path d="M58.05,65.71V54.48a.74.74,0,0,0-.74-.75h-3a.74.74,0,0,0-.75.75V65.71" transform="translate(-2.59 -2.22)" fill="none" stroke="#000" stroke-linecap="round" stroke-linejoin="round" stroke-width="1.5"/>
    <path d="M67.05,65.71V44a.75.75,0,0,0-.75-.75h-3a.75.75,0,0,0-.75.75V65.71" transform="translate(-2.59 -2.22)" fill="none" stroke="#000" stroke-linecap="round" stroke-linejoin="round" stroke-width="1.5"/>
    <path d="M65.55,32.75l-8.42,9.07a3,3,0,0,1-3.15.81l-5.57-1.86a3,3,0,0,0-2.87.54l-7.71,6.42" transform="translate(-2.59 -2.22)" fill="none" stroke="#000" stroke-linecap="round" stroke-linejoin="round" stroke-width="1.5"/>
    <polyline points="56.97 30.53 62.97 30.53 62.97 36.53" fill="none" stroke="#000" stroke-linecap="round" stroke-linejoin="round" stroke-width="1.5"/>
  </g>
</svg>
