<svg data-name="Layer 1" xmlns="http://www.w3.org/2000/svg" width="98" height="98">
    <circle cx="49" cy="49" r="49" fill="#5cbbff" opacity=".7" style="isolation:isolate"/>
    <path d="m40.76 70.08.91-11h4.59v-6.41a9.16 9.16 0 1 0-18.32 0v6.41h4.58l.92 11z" fill="none" stroke="#000" stroke-linecap="round" stroke-linejoin="round" stroke-width="1.5"/>
    <circle cx="37.09" cy="34.34" r="6.41" fill="none" stroke="#000" stroke-linecap="round" stroke-linejoin="round" stroke-width="1.5"/>
    <path fill="none" stroke="#000" stroke-linecap="round" stroke-linejoin="round" stroke-width="1.5" d="M55.41 27.93v3.66M47.17 31.59h21.09a1.83 1.83 0 0 1 1.84 1.83v16.5a1.83 1.83 0 0 1-1.84 1.86H49.92"/>
    <path d="m49 42.83 1.94-1.93a.91.91 0 0 1 1.29 0l1.28 1.28a.92.92 0 0 0 1.3 0l2.9-2.89a.92.92 0 0 1 1.3 0l2.25 2.25a.91.91 0 0 0 1.29 0l3.87-3.87M55.41 51.75v8.73M55.35 60.43l-4.52 3.23M55.35 60.43l4.52 3.23" fill="none" stroke="#000" stroke-linecap="round" stroke-linejoin="round" stroke-width="1.5"/>
</svg>
