<svg data-name="Layer 1" xmlns="http://www.w3.org/2000/svg" width="98" height="98">
    <circle cx="49" cy="49" r="49" fill="#5cbbff" opacity=".7" style="isolation:isolate"/>
    <path d="M46.28 31.15a3.65 3.65 0 0 0 5.16.27 3.44 3.44 0 0 0 .27-.27l1.76-1.95a3.66 3.66 0 0 1 6.37 2.64l-.14 2.62a3.67 3.67 0 0 0 3.47 3.84h.37l2.62-.14a3.66 3.66 0 0 1 2.63 6.37l-1.95 1.76a3.65 3.65 0 0 0-.26 5.16 3.31 3.31 0 0 0 .26.27l1.95 1.75a3.66 3.66 0 0 1 .26 5.17 3.62 3.62 0 0 1-2.9 1.2l-2.61-.13a3.66 3.66 0 0 0-3.84 3.47 2.28 2.28 0 0 0 0 .37l.13 2.61a3.66 3.66 0 0 1-6.36 2.62l-1.76-2a3.64 3.64 0 0 0-5.16-.26 3.31 3.31 0 0 0-.27.26l-1.75 2a3.66 3.66 0 0 1-6.36-2.64l.13-2.61a3.64 3.64 0 0 0-3.46-3.84h-.43l-2.61.13a3.65 3.65 0 0 1-2.63-6.37l1.94-1.75a3.66 3.66 0 0 0 .3-5.15 3.19 3.19 0 0 0-.26-.26l-1.94-1.76a3.66 3.66 0 0 1-.25-5.17 3.69 3.69 0 0 1 2.88-1.19l2.61.14a3.66 3.66 0 0 0 3.84-3.46 2.54 2.54 0 0 0 0-.39l-.12-2.62a3.64 3.64 0 0 1 3.48-3.82 3.69 3.69 0 0 1 2.88 1.19zM39.2 56.01h21" fill="none" stroke="#000" stroke-linecap="round" stroke-linejoin="round" stroke-width="1.5"/>
    <path fill="none" stroke="#000" stroke-linecap="round" stroke-linejoin="round" stroke-width="1.5" d="M40.6 42.01h5.6v14h-5.6zM51.8 47.61h5.6v8.4h-5.6z"/>
</svg>
