<svg data-name="Layer 1" xmlns="http://www.w3.org/2000/svg" width="98" height="98">
    <circle cx="49" cy="49" r="49" fill="#5cbbff" opacity=".7" style="isolation:isolate"/>
    <path fill="none" stroke="#000" stroke-linecap="round" stroke-linejoin="round" stroke-width="1.5" d="M43.24 29.99v3.84M45.16 31.91h-3.84M56.68 66.47v3.84M58.6 68.39h-3.84M70.12 53.03h-3.27a2.48 2.48 0 0 0-2.51 2.47 2.51 2.51 0 0 0 1.12 2.11L69 59.96a2.5 2.5 0 0 1-1.38 4.58h-3.21M68.2 53.03v-1.92M66.28 66.47v-1.92M33.64 29.99h-3.23a2.49 2.49 0 0 0-1.38 4.58l3.53 2.36a2.49 2.49 0 0 1-1.38 4.58h-3.3M31.73 29.99v-1.91M29.81 43.43v-1.92M39.5 65.4c-1.91 1.9-7.78 2-7.78 2s.45-5.55 2.35-7.45 3.89-.19 4.75.67 2.59 2.87.68 4.78zM43.25 48.41l7.49 7.5M63.28 35.87l2.04-2.04M63.96 43.33l-.68-7.46-7.47-.68a5.7 5.7 0 0 0-5.4 2.71l-11.54 17 2.71 2.71 2.72 2.72 16.94-11.55a5.72 5.72 0 0 0 2.72-5.45zM43.24 48.41l-2.07-.8a3.82 3.82 0 0 0-4.08.88l-3.76 3.75a1 1 0 0 0 0 1.36.9.9 0 0 0 .49.26l5 1"/>
    <path d="m50.74 55.91.79 2.06a3.85 3.85 0 0 1-.87 4.09l-3.76 3.72a1 1 0 0 1-1.35 0 1 1 0 0 1-.27-.49l-1-5" fill="none" stroke="#000" stroke-linecap="round" stroke-linejoin="round" stroke-width="1.5"/>
    <circle cx="55.82" cy="43.34" r="2.88" fill="none" stroke="#000" stroke-linecap="round" stroke-linejoin="round" stroke-width="1.5"/>
</svg>
