
<svg xmlns="http://www.w3.org/2000/svg" xmlns:xlink="http://www.w3.org/1999/xlink" width="98" height="98" overflow="visible" viewBox="0 0 98 98">
  <circle id="HG_1_" cx="49" cy="49" r="49" fill="#fcd116" />
  <g id="Remote-Meeting_Kopie">
    <path d="M35.9 25.9h26c2.2 0 4 1.8 4 4v16c0 2.2-1.8 4-4 4h-26c-2.2 0-4-1.8-4-4v-16c0-2.2 1.8-4 4-4z" style="fill:none;stroke:#111;stroke-linecap:round;stroke-linejoin:round;" stroke-width="1.5"/>
    <path d="M58.3 45.9c-.8-1.2-3.3-2.1-6.5-3.2-.9-.3-.8-2.7-.4-3.1 1.3-1.4 1.9-3.3 1.7-5.2.2-2.3-1.6-4.4-4-4.5s-4.4 1.6-4.5 4v.6c-.2 1.9.4 3.8 1.7 5.2.4.4.5 2.8-.4 3.1-3.2 1.2-5.8 2.1-6.5 3.2M57.9 71.9c0-1.1-.3-2.2-.8-3.2-.6-1.1-2.9-1.9-5.8-2.9-.8-.3-.7-2.1-.3-2.5 1.1-1.2 1.7-2.8 1.5-4.5.1-2-1.4-3.8-3.4-3.9-2-.1-3.8 1.4-3.9 3.4v.5c-.2 1.6.4 3.3 1.5 4.5.3.4.5 2.2-.3 2.5-2.9 1.1-5.2 1.8-5.8 2.9-.5 1-.7 2.1-.8 3.2M71.9 66.7c-.8-.3-1.6-.6-2.5-.9-.8-.3-.7-2.1-.3-2.5 1.1-1.2 1.7-2.8 1.5-4.5.1-2-1.4-3.8-3.4-3.9-2-.1-3.8 1.4-3.9 3.4v.5c-.2 1.6.4 3.3 1.5 4.5.3.4.5 2.2-.3 2.5-2.9 1.1-5.2 1.8-5.8 2.9-.5 1-.7 2.1-.8 3.2" style="fill:none;stroke:#111;stroke-linecap:round;stroke-linejoin:round;" stroke-width="1.5"/>
    <path d="M39.9 71.9c0-1.1-.3-2.2-.8-3.2-.6-1.1-2.9-1.9-5.8-2.9-.8-.3-.7-2.1-.3-2.5 1.1-1.2 1.7-2.8 1.5-4.5.2-2-1.3-3.7-3.2-3.9h-.4c-2-.1-3.6 1.5-3.7 3.5v.4c-.2 1.6.4 3.3 1.5 4.5.3.4.5 2.2-.3 2.5-.9.3-1.8.6-2.5.9" style="fill:none;stroke:#111;stroke-linecap:round;stroke-linejoin:round;" stroke-width="1.5" />
  </g>
</svg>