<svg xmlns="http://www.w3.org/2000/svg" width="98" height="98"><circle cx="49" cy="49" r="49" style="fill:#5cbbff;opacity:0.699999988079071;isolation:isolate"/><rect x="27.32" y="30.27" width="43.48" height="37.81" rx="3.78" style="fill:none;stroke:#000520;stroke-linecap:round;stroke-linejoin:round;stroke-width:1.5px"/><line x1="27.32" y1="39.72" x2="70.8" y2="39.72" style="fill:none;stroke:#000520;stroke-linecap:round;stroke-linejoin:round;stroke-width:1.5px"/><path d="M33.94,34.53a.47.47,0,1,1-.47.47.47.47,0,0,1,.47-.47" style="fill:none;stroke:#000520;stroke-linecap:round;stroke-linejoin:round;stroke-width:1.5px"/><path d="M39.61,34.53a.47.47,0,1,1-.47.47.47.47,0,0,1,.47-.47" style="fill:none;stroke:#000520;stroke-linecap:round;stroke-linejoin:round;stroke-width:1.5px"/><path d="M45.28,34.53a.47.47,0,1,1,0,.94.47.47,0,0,1,0-.94" style="fill:none;stroke:#000520;stroke-linecap:round;stroke-linejoin:round;stroke-width:1.5px"/><rect x="34.88" y="47.29" width="5.67" height="5.67" rx="0.95" style="fill:none;stroke:#000520;stroke-linecap:round;stroke-linejoin:round;stroke-width:1.5px"/><rect x="34.88" y="56.74" width="5.67" height="5.67" rx="0.95" style="fill:none;stroke:#000520;stroke-linecap:round;stroke-linejoin:round;stroke-width:1.5px"/><rect x="46.23" y="47.29" width="5.67" height="5.67" rx="0.95" style="fill:none;stroke:#000520;stroke-linecap:round;stroke-linejoin:round;stroke-width:1.5px"/><rect x="46.23" y="56.74" width="5.67" height="5.67" rx="0.95" style="fill:none;stroke:#000520;stroke-linecap:round;stroke-linejoin:round;stroke-width:1.5px"/><rect x="57.57" y="47.29" width="5.67" height="5.67" rx="0.95" style="fill:none;stroke:#000520;stroke-linecap:round;stroke-linejoin:round;stroke-width:1.5px"/><rect x="57.57" y="56.74" width="5.67" height="5.67" rx="0.95" style="fill:none;stroke:#000520;stroke-linecap:round;stroke-linejoin:round;stroke-width:1.5px"/></svg>