<svg id="Layer_1" data-name="Layer 1" xmlns="http://www.w3.org/2000/svg" width="98" height="98" viewBox="0 0 98 98"><circle id="HG" cx="49" cy="49" r="49" fill="#5cbbff" opacity="0.7" style="isolation:isolate"/><line x1="52.95" y1="56.48" x2="66.97" y2="56.48" fill="none" stroke="#000" stroke-linecap="round" stroke-linejoin="round" stroke-width="1.5"/><line x1="52.95" y1="60.22" x2="62.3" y2="60.22" fill="none" stroke="#000" stroke-linecap="round" stroke-linejoin="round" stroke-width="1.5"/><path d="M57.41,51.22a8.1,8.1,0,0,1,7.78-8.42h.63a8.1,8.1,0,0,1,8.41,7.79q0,.31,0,.63Z" transform="translate(-2.59 -2.22)" fill="none" stroke="#000" stroke-linecap="round" stroke-linejoin="round" stroke-width="1.5"/><circle cx="63.23" cy="32.17" r="5.61" fill="none" stroke="#000" stroke-linecap="round" stroke-linejoin="round" stroke-width="1.5"/><path d="M71.38,33.61a6.84,6.84,0,0,1-3.22.78,7,7,0,0,1-6.31-3.95" transform="translate(-2.59 -2.22)" fill="none" stroke="#000" stroke-linecap="round" stroke-linejoin="round" stroke-width="1.5"/><path d="M31.23,71.78A8.11,8.11,0,0,1,39,63.37h.63a8.1,8.1,0,0,1,8.41,7.78q0,.31,0,.63Z" transform="translate(-2.59 -2.22)" fill="none" stroke="#000" stroke-linecap="round" stroke-linejoin="round" stroke-width="1.5"/><circle cx="37.06" cy="52.74" r="5.61" fill="none" stroke="#000" stroke-linecap="round" stroke-linejoin="round" stroke-width="1.5"/><path d="M45.21,54.21A6.85,6.85,0,0,1,42,55a7,7,0,0,1-6.33-4" transform="translate(-2.59 -2.22)" fill="none" stroke="#000" stroke-linecap="round" stroke-linejoin="round" stroke-width="1.5"/><path d="M53.67,55a1.87,1.87,0,0,0-1.87,1.86v9.35A1.87,1.87,0,0,0,53.67,68h2.8v3.74L61.15,68H72.36a1.86,1.86,0,0,0,1.87-1.87V56.82A1.86,1.86,0,0,0,72.36,55Z" transform="translate(-2.59 -2.22)" fill="none" stroke="#000" stroke-linecap="round" stroke-linejoin="round" stroke-width="1.5"/><line x1="46.41" y1="30.3" x2="32.39" y2="30.3" fill="none" stroke="#000" stroke-linecap="round" stroke-linejoin="round" stroke-width="1.5"/><line x1="41.73" y1="34.04" x2="32.39" y2="34.04" fill="none" stroke="#000" stroke-linecap="round" stroke-linejoin="round" stroke-width="1.5"/><path d="M51.8,28.78a1.87,1.87,0,0,1,1.87,1.87V40a1.87,1.87,0,0,1-1.87,1.87H49v4.67l-4.68-4.67H33.1A1.87,1.87,0,0,1,31.23,40V30.65a1.87,1.87,0,0,1,1.87-1.87Z" transform="translate(-2.59 -2.22)" fill="none" stroke="#000" stroke-linecap="round" stroke-linejoin="round" stroke-width="1.5"/></svg>