<svg data-name="Layer 1" xmlns="http://www.w3.org/2000/svg" width="98" height="98">
    <circle cx="49" cy="49" r="49" fill="#5cbbff" opacity=".7" style="isolation:isolate"/>
    <path fill="none" stroke="#000" stroke-linecap="round" stroke-linejoin="round" stroke-width="1.5" d="m56.19 49 5.76 5.75-5.76 5.76M41.81 49l-5.76 5.75 5.76 5.76M51.88 49l-5.76 11.51"/>
    <rect x="26.94" y="31.74" width="44.12" height="34.53" rx="3.84" fill="none" stroke="#000" stroke-linecap="round" stroke-linejoin="round" stroke-width="1.5"/>
    <path fill="none" stroke="#000" stroke-linecap="round" stroke-linejoin="round" stroke-width="1.5" d="M26.94 41.33h44.12M33.66 36.05a.48.48 0 0 1 .48.48.49.49 0 0 1-.48.48.48.48 0 0 1-.48-.48.47.47 0 0 1 .48-.48M39.41 36.05a.47.47 0 0 1 .48.48.48.48 0 0 1-.48.48.49.49 0 0 1-.48-.48.48.48 0 0 1 .48-.48M45.17 36.05a.48.48 0 0 1 .48.48.49.49 0 0 1-.48.48.48.48 0 0 1-.48-.48.47.47 0 0 1 .48-.48"/>
</svg>
