<svg data-name="Layer 1" xmlns="http://www.w3.org/2000/svg" width="98" height="98">
    <circle cx="49" cy="49" r="49" fill="#5cbbff" opacity=".7" style="isolation:isolate"/>
    <path d="m53.55 44.78-6.59 1.89 1.88-6.6L62.3 26.62a1 1 0 0 1 1.34 0h0L67.01 30a.94.94 0 0 1 0 1.33zM59.21 29.73l4.71 4.71M48.84 40.09l4.71 4.71" fill="none" stroke="#000520" stroke-linecap="round" stroke-linejoin="round" stroke-width="1.5"/>
    <path d="M67.68 35.38h1.88a1 1 0 0 1 .95.94v32a1 1 0 0 1-.95.94H28.12a.94.94 0 0 1-.94-.94v-32a.94.94 0 0 1 .94-.94h20.72" fill="none" stroke="#000520" stroke-linecap="round" stroke-linejoin="round" stroke-width="1.5"/>
    <path d="M41.31 41.03h-7.54a1 1 0 0 0-.94 1V62.7a.94.94 0 0 0 .94.94h16v-6.59a.94.94 0 0 1 1-.94h7.53a.94.94 0 0 1 .94.94v6.59h4.67a.94.94 0 0 0 .94-.94V41.98M49.79 59.87h9.42M49.79 63.64h9.42M32.83 50.45h8.48M56.38 52.34h8.48M56.38 48.57h8.48" fill="none" stroke="#000520" stroke-linecap="round" stroke-linejoin="round" stroke-width="1.5"/>
    <path d="M32.83 56.11h6.58a.94.94 0 0 1 .94.94v6.59" fill="none" stroke="#000520" stroke-linecap="round" stroke-linejoin="round" stroke-width="1.5"/>
</svg>
