<svg id="Layer_1" data-name="Layer 1" xmlns="http://www.w3.org/2000/svg" height="98" width="98" viewBox="0 0 98 98">
  <circle id="HG" cx="49" cy="49" r="49" style="isolation:isolate" fill="#5cbbff" opacity=".7"/>
  <path fill="none" stroke="#000" stroke-linecap="round" stroke-linejoin="round" stroke-width="1.5px" d="M66.47 48.26c.81-3.4 2-6.75 2.32-10.2.47-4.26-.39-7.06-4.88-8.84-6.45-2.57-13-2.66-19.37.5a6.55 6.55 0 00-3.13 2.82 1.89 1.89 0 01-1.82 1.18c-3.58 0-5.52 2.22-4.91 5.76.5 2.91 1.28 5.76 1.94 8.64M66.69 60.59c0 3.38-.21 6.75-2.35 9.61a15.9 15.9 0 01-9.46 6.53c-9.09 2-17.19-4.22-18.38-11.9-.22-1.4-.25-2.83-.37-4.24" transform="translate(-2.59 -2.22)"/>
  <path fill="none" stroke="#000" stroke-linecap="round" stroke-linejoin="round" stroke-width="1.5px" d="M66.19 62.28l-4.95-.42a13.62 13.62 0 01-7.64-3.26c-1.6-1.29-2.56-1.38-4.1-.13A15.77 15.77 0 0139 62a13.65 13.65 0 00-2.41.41M43.84 43.45a12 12 0 011.4 1.14c2.92 3.13 6.64 4.35 10.77 4.66a33.35 33.35 0 0010.2-.75c.55-.13 1.59.91 2.06 1.63a5.13 5.13 0 01.48 4.64 6.55 6.55 0 00-.15 1.41M43.48 40.48a12.75 12.75 0 01.19 2.12 2.35 2.35 0 01-.55 1.26c-.86 1-1.74 1.94-2.69 2.83a5.28 5.28 0 01-3.23 1.48 3.21 3.21 0 00-2.8 2.36 17.22 17.22 0 00-.31 3.67c0 .9.08 1.79.13 2.69M51.48 64.41v8.91" transform="translate(-2.59 -2.22)"/>
</svg>