<svg xmlns="http://www.w3.org/2000/svg" xmlns:xlink="http://www.w3.org/1999/xlink" width="98" height="98" overflow="visible" viewBox="0 0 98 98">
  <circle id="HG_1_" cx="49" cy="49" r="49" fill="#fcd116" />
  <g id="Jobs_Kopie">
    <circle cx="46.9" cy="45" r="20" stroke-width="1.5" style="fill:none;stroke:#111;stroke-linecap:round;stroke-linejoin:round;"/>
    <path d="M61.1 59.1L72.9 71M52.9 43c0 1.1-.9 2-2 2h-2v-4h2c1.1 0 2 .9 2 2zM52.9 47c0 1.1-.9 2-2 2h-2v-4h2c1.1 0 2 .9 2 2zM44.9 47c0 1.1-.9 2-2 2s-2-.9-2-2v-4c0-1.1.9-2 2-2s2 .9 2 2v4zM36.9 41v6c0 1.1-.9 2-2 2s-2-.9-2-2M60.9 41h-2c-1.1 0-2 .9-2 2s.9 2 2 2 2 .9 2 2-.9 2-2 2h-2" stroke-width="1.5" style="fill:none;stroke:#111;stroke-linecap:round;stroke-linejoin:round;"/>
  </g>
</svg>