<svg data-name="Layer 1" xmlns="http://www.w3.org/2000/svg" width="98" height="98">
    <circle cx="49" cy="49" r="49" fill="#5cbbff" opacity=".7" style="isolation:isolate"/>
    <path d="M62.75 52.78s8.43-1.09 8.43-9.65a9.67 9.67 0 0 0-9.67-9.69h-.38a13.56 13.56 0 0 0-25.8 5 7.26 7.26 0 0 0-8.61 5.62 7 7 0 0 0-.16 1.5c0 7.39 7.44 7.27 7.44 7.27M67.3 65.44a4.85 4.85 0 0 1-4.85 4.85H35.29a4.85 4.85 0 0 1-4.85-4.85v-4.85H67.3z" fill="none" stroke="#000" stroke-linecap="round" stroke-linejoin="round" stroke-width="1.5"/>
    <path d="m30.44 60.59 4.53-9.88a3.29 3.29 0 0 1 2.75-1.76h20.85a3.76 3.76 0 0 1 2.91 1.67l5.82 10zM54.69 66.41h5.82" fill="none" stroke="#000" stroke-linecap="round" stroke-linejoin="round" stroke-width="1.5"/>
</svg>
