<svg data-name="Layer 1" xmlns="http://www.w3.org/2000/svg" width="98" height="98">
    <circle cx="49" cy="49" r="49" fill="#5cbbff" opacity=".7" style="isolation:isolate"/>
    <path d="M54.41 63.27a9.9 9.9 0 0 0 4-7.78c0-5.89-5.72-10.71-12.8-10.71a14.82 14.82 0 0 0-4.13.58 6.77 6.77 0 0 0-3.22-2.46.89.89 0 0 0-1.13.55.87.87 0 0 0 0 .28v3.85a9.59 9.59 0 0 0-3.26 4.2h-1.78a.89.89 0 0 0-.89.89v5.34a.89.89 0 0 0 .89.89h1.78a10.63 10.63 0 0 0 3.59 4.78l-1.11 3a2.152 2.152 0 1 0 4 1.59.76.76 0 0 0 0-.11l1-2.64a15 15 0 0 0 9.26-.2l1 2.84a2.13 2.13 0 1 0 4-1.37v-.1zM58.41 55.49c2.85 0 4.28-1.42 4.28-3.55" fill="none" stroke="#000" stroke-linecap="round" stroke-linejoin="round" stroke-width="1.5"/>
    <path d="M39.66 52.67a.45.45 0 1 1-.45.44.44.44 0 0 1 .45-.44M46.76 39.78a10 10 0 1 1 16.65 6.4M57.01 33.1v-1.78" fill="none" stroke="#000" stroke-linecap="round" stroke-linejoin="round" stroke-width="1.5"/>
    <path d="M59.67 33.09h-3.61a2.39 2.39 0 0 0-.89 4.61l3.67 1.47a2.39 2.39 0 0 1-.88 4.6h-3.63M57.01 45.55v-1.78" fill="none" stroke="#000" stroke-linecap="round" stroke-linejoin="round" stroke-width="1.5"/>
</svg>
