<svg id="Layer_1" data-name="Layer 1" xmlns="http://www.w3.org/2000/svg" width="98" height="98" viewBox="0 0 98 98">
  <circle id="HG" cx="49" cy="49" r="49" fill="#5cbbff" opacity="0.7" style="isolation: isolate"/>
  <g>
    <path d="M49.54,65.15H40a1.36,1.36,0,0,1-1.36-1.36V35.23A1.36,1.36,0,0,1,40,33.87H58.1a1.33,1.33,0,0,1,1,.4l5,5a1.37,1.37,0,0,1,.4,1v5.84" transform="translate(-2.59 -2.22)" fill="none" stroke="#000" stroke-linecap="round" stroke-linejoin="round" stroke-width="1.5"/>
    <line x1="40.74" y1="54.73" x2="50.46" y2="54.73" fill="none" stroke="#000" stroke-linecap="round" stroke-linejoin="round" stroke-width="1.5"/>
    <line x1="40.74" y1="47.68" x2="55.32" y2="47.68" fill="none" stroke="#000" stroke-linecap="round" stroke-linejoin="round" stroke-width="1.5"/>
    <line x1="40.74" y1="40.39" x2="55.32" y2="40.39" fill="none" stroke="#000" stroke-linecap="round" stroke-linejoin="round" stroke-width="1.5"/>
    <path d="M67.78,72.14,56.94,61.64a.83.83,0,0,1-.25-.58V54.49a.83.83,0,0,1,.82-.83h6.57a.79.79,0,0,1,.58.25L75.17,64.14Z" transform="translate(-2.59 -2.22)" fill="none" stroke="#000" stroke-linecap="round" stroke-linejoin="round" stroke-width="1.5"/>
    <path d="M60.08,56.74a.31.31,0,0,1,0,.62.31.31,0,0,1,0-.62" transform="translate(-2.59 -2.22)" fill="none" stroke="#000" stroke-linecap="round" stroke-linejoin="round" stroke-width="1.5"/>
  </g>
</svg>
