<svg data-name="Layer 1" xmlns="http://www.w3.org/2000/svg" width="98" height="98">
    <circle cx="49" cy="49" r="49" fill="#5cbbff" opacity=".7" style="isolation:isolate"/>
    <path d="M70.41 48.62a7.36 7.36 0 0 0-4.64-6.84 7.38 7.38 0 0 0-9.7-9.7 7.37 7.37 0 0 0-13.71 0 7.37 7.37 0 0 0-9.7 3.84 7.45 7.45 0 0 0 0 5.86 7.38 7.38 0 0 0 0 13.71 7.38 7.38 0 0 0 9.75 9.68 7.37 7.37 0 0 0 13.71 0 7.37 7.37 0 0 0 9.7-9.69 7.39 7.39 0 0 0 4.59-6.86z" fill="none" stroke="#000" stroke-linecap="round" stroke-linejoin="round" stroke-width="1.5"/>
    <path d="M40.92 45.85h.92a.93.93 0 0 1 .92.93v6.45M40.92 53.23h3.69M51.98 51.39a1.85 1.85 0 0 1-3.69 0V47.7a1.85 1.85 0 1 1 3.69 0zM59.41 51.39a1.85 1.85 0 0 1-3.69 0V47.7a1.85 1.85 0 1 1 3.69 0z" fill="none" stroke="#000" stroke-linecap="round" stroke-linejoin="round" stroke-width="1.5"/>
</svg>
