<svg xmlns="http://www.w3.org/2000/svg" xmlns:xlink="http://www.w3.org/1999/xlink" width="98" height="98" overflow="visible" viewBox="0 0 98 98">
  <circle id="HG_2_" cx="49" cy="49" r="49" fill="#5cbbff" opacity=".7"/>
  <ellipse cx="36.6" cy="46.1" fill="none" stroke="#111" stroke-width="1.5" stroke-linecap="round" stroke-linejoin="round" rx="9.6" ry="1.9"/>
  <path d="M46.1 46.1v5.7c0 1.1-4.3 1.9-9.6 1.9s-9.5-.8-9.5-1.8v-5.7" fill="none" stroke="#111" stroke-width="1.5" stroke-linecap="round" stroke-linejoin="round"/>
  <path d="M46.1 51.9v5.7c0 1.1-4.3 1.9-9.6 1.9s-9.5-.9-9.5-1.9v-5.7" fill="none" stroke="#111" stroke-width="1.5" stroke-linecap="round" stroke-linejoin="round"/>
  <path d="M46.1 57.6v5.7c0 1.1-4.3 1.9-9.6 1.9s-9.5-.9-9.5-1.9v-5.7" fill="none" stroke="#111" stroke-width="1.5" stroke-linecap="round" stroke-linejoin="round"/>
  <path d="M46.1 63.3V69c0 1.1-4.3 1.9-9.6 1.9S27 70 27 69v-5.7M27 40.4V29c0-1.1.9-1.9 1.9-1.9h40.2c1.1 0 1.9.9 1.9 1.9v22.8c0 1.1-.9 1.9-1.9 1.9H50.9" fill="none" stroke="#111" stroke-width="1.5" stroke-linecap="round" stroke-linejoin="round"/>
  <path d="M43.3 40.4c0-3.2 2.6-5.7 5.7-5.7 3.2 0 5.7 2.6 5.7 5.7 0 2.4-1.5 4.6-3.8 5.4M35.6 35.2c.3 0 .5.2.5.5s-.2.5-.5.5-.5-.2-.5-.5.2-.5.5-.5M62.4 44.7c.3 0 .5.2.5.5s-.2.5-.5.5-.5-.2-.5-.5.2-.5.5-.5" fill="none" stroke="#111" stroke-width="1.5" stroke-linecap="round" stroke-linejoin="round"/>
  <path d="M30.8 40.4v-8.6c0-.5.4-1 1-1h34.4c.5 0 1 .4 1 1V49c0 .5-.4 1-1 1H50.9" fill="none" stroke="#111" stroke-width="1.5" stroke-linecap="round" stroke-linejoin="round"/>
</svg>