

<svg xmlns="http://www.w3.org/2000/svg" xmlns:xlink="http://www.w3.org/1999/xlink" width="98" height="98" overflow="visible" viewBox="0 0 98 98">
  <circle id="HG_2_" cx="49" cy="49" r="49" fill="#5cbbff" opacity=".7"/>
  <g id="Tools_Kopie">
    <path d="M29.2 68.2c-1.2 1.1-3 1-4.1-.1-1.1-1.1-1.1-2.8 0-4l12.6-12.6 4.1 4.1-12.6 12.6zM35.7 49.5l8.1 8.1M61.6 31.8L39.8 53.6M65.2 32.3c-.6.8-1.8 1-2.7.4l-.2-.2-1.6-1.5c-.8-.7-.8-2 0-2.7.1-.1.2-.2.3-.2l4.3-3c.4-.3.9-.2 1.2.1l1.7 1.7c.3.3.4.9.1 1.3l-3.1 4.1zM45.6 42.4L39 35.8c1.7-3.9 0-8.4-3.8-10.2-1-.4-2.1-.7-3.2-.7-.5 0-1.1.1-1.6.2s-.9.6-.7 1.1c0 .2.1.4.3.5l2.7 2.7c.2.2.3.4.3.7v2.5c0 .5-.4 1-1 1h-2.5c-.3 0-.5-.1-.7-.3l-2.7-2.7c-.4-.4-1-.4-1.4 0-.1.1-.2.3-.3.5-.1.5-.2 1-.2 1.6 0 4.2 3.4 7.7 7.7 7.7 1.1 0 2.2-.2 3.2-.7l6.6 6.6M51 47.8l6.6 6.6c3.9-1.7 8.4 0 10.2 3.8.4 1 .7 2.1.7 3.2 0 .5-.1 1.1-.2 1.6s-.6.9-1.1.7c-.2 0-.4-.1-.5-.3L64 60.7c-.2-.2-.4-.3-.7-.3h-2.5c-.5 0-1 .4-1 1v2.5c0 .3.1.5.3.7l2.7 2.7c.4.4.4 1 0 1.4-.1.1-.3.2-.5.3-.5.1-1 .2-1.6.2-4.2 0-7.7-3.4-7.7-7.7 0-1.1.2-2.2.7-3.2l-6.6-6.6" fill="none" stroke="#111" stroke-width="1.5" stroke-linecap="round" stroke-linejoin="round"/>
  </g>
</svg>