
<svg xmlns="http://www.w3.org/2000/svg" xmlns:xlink="http://www.w3.org/1999/xlink" width="98" height="98" overflow="visible" viewBox="0 0 98 98">
  <circle id="HG_2_" cx="49" cy="49" r="49" fill="#5cbbff" opacity=".7"/>
  <g id="hand-cog-wheel_Kopie">
    <path d="M26 52v19.1M26 67.9h31.7c0-3.5-2.8-6.3-6.3-6.3h-7.9c0-3.5-2.8-6.3-6.3-6.3H26M37.1 61.5h6.3" fill="none" stroke="#000" stroke-width="1.5" stroke-linecap="round" stroke-linejoind="round"/>
    <circle cx="54.9" cy="45.9" r="4.8"  fill="none" stroke="#000" stroke-width="1.5" stroke-linecap="round" stroke-linejoind="round"/>
    <path d="M58.7 60.1l.3-2.4c1.5-.5 2.9-1.3 4.1-2.3l4.1 1.7c1.5.6 3.1 0 3.9-1.4l.4-.7c.8-1.4.5-3.1-.8-4.1l-3.5-2.7c.3-1.6.3-3.2 0-4.7l3.5-2.7c1.2-1 1.6-2.7.8-4.1l-.4-.7c-.8-1.4-2.5-1.9-3.9-1.4l-4.1 1.7c-1.2-1-2.6-1.8-4-2.3l-.6-4.4c-.2-1.6-1.6-2.7-3.1-2.7h-.8c-1.6 0-2.9 1.2-3.1 2.7l-.6 4.4c-1.5.5-2.8 1.3-4 2.3l-4.1-1.6c-1.5-.6-3.1 0-3.9 1.4l-.4.7c-.8 1.4-.5 3.1.8 4.1l3.5 2.7c-.3 1.6-.3 3.2 0 4.7L39 50.9M26 52.1v19.1M26 68h31.7c0-3.5-2.8-6.3-6.3-6.3h-7.9c0-3.5-2.8-6.3-6.3-6.3H26M37.1 61.6h6.3" fill="none" stroke="#000" stroke-width="1.5" stroke-linecap="round" stroke-linejoind="round"/>
    <circle cx="54.9" cy="46" r="4.8" fill="none" stroke="#000" stroke-width="1.5" stroke-linecap="round" stroke-linejoind="round"/>
    <path d="M58.7 60.2l.3-2.4c1.5-.5 2.9-1.3 4.1-2.3l4.1 1.7c1.5.6 3.1 0 3.9-1.4l.4-.7c.8-1.4.5-3.1-.8-4.1l-3.5-2.7c.3-1.6.3-3.2 0-4.7l3.5-2.7c1.2-1 1.6-2.7.8-4.1l-.4-.7c-.8-1.4-2.5-1.9-3.9-1.4l-4.1 1.7c-1.2-1-2.6-1.8-4-2.3l-.6-4.4c-.2-1.6-1.6-2.7-3.1-2.7h-.8c-1.6 0-2.9 1.2-3.1 2.7l-.8 4.3c-1.5.5-2.8 1.3-4 2.3l-4.1-1.6c-1.5-.6-3.1 0-3.9 1.4l-.4.7c-.8 1.4-.5 3.1.8 4.1l3.5 2.7c-.3 1.6-.3 3.2 0 4.7L39 51" fill="none" stroke="#000" stroke-width="1.5" stroke-linecap="round" stroke-linejoind="round"/>
  </g>
</svg>