<svg xmlns="http://www.w3.org/2000/svg" width="98" height="98"><circle cx="49" cy="49" r="49" style="fill:#5cbbff;opacity:0.699999988079071;isolation:isolate"/><path d="M40.76,41.78a.7.7,0,1,0,.7.7.69.69,0,0,0-.7-.7h0" style="fill:none;stroke:#000;stroke-linecap:round;stroke-linejoin:round;stroke-width:1.5px"/><path d="M47.72,41.78a.7.7,0,1,0,.69.7.68.68,0,0,0-.69-.7h0" style="fill:none;stroke:#000;stroke-linecap:round;stroke-linejoin:round;stroke-width:1.5px"/><path d="M48.41,48H35.89a1.39,1.39,0,0,1-1.39-1.39V38.3a1.39,1.39,0,0,1,1.39-1.39H48.41" style="fill:none;stroke:#000;stroke-linecap:round;stroke-linejoin:round;stroke-width:1.5px"/><path d="M52.59,62a16.66,16.66,0,0,0,2.78,8.35H44.24A16.66,16.66,0,0,0,47,62" style="fill:none;stroke:#000;stroke-linecap:round;stroke-linejoin:round;stroke-width:1.5px"/><line x1="40.07" y1="70.31" x2="59.55" y2="70.31" style="fill:none;stroke:#000;stroke-linecap:round;stroke-linejoin:round;stroke-width:1.5px"/><line x1="28.94" y1="56.39" x2="70.68" y2="56.39" style="fill:none;stroke:#000;stroke-linecap:round;stroke-linejoin:round;stroke-width:1.5px"/><path d="M70.68,56.39v2.78A2.79,2.79,0,0,1,67.89,62H31.72a2.78,2.78,0,0,1-2.78-2.79V31.35a2.78,2.78,0,0,1,2.78-2.79H51.2" style="fill:none;stroke:#000;stroke-linecap:round;stroke-linejoin:round;stroke-width:1.5px"/><rect x="53.98" y="36.91" width="16.7" height="13.91" rx="2.78" style="fill:none;stroke:#000;stroke-linecap:round;stroke-linejoin:round;stroke-width:1.5px"/><path d="M56.76,36.91V34.13a5.57,5.57,0,0,1,5.57-5.57h0a5.57,5.57,0,0,1,5.56,5.57v2.78" style="fill:none;stroke:#000;stroke-linecap:round;stroke-linejoin:round;stroke-width:1.5px"/><path d="M62.33,43.17a.7.7,0,1,0,.69.7.69.69,0,0,0-.69-.7h0" style="fill:none;stroke:#000;stroke-linecap:round;stroke-linejoin:round;stroke-width:1.5px"/></svg>