<svg xmlns="http://www.w3.org/2000/svg" width="98" height="98">
  <circle cx="49" cy="49" r="49" style="fill:#5cbbff;opacity:0.699999988079071;isolation:isolate"/>
  <path d="M60.46,67.94H37.54L34.56,55a2,2,0,0,1,.32-1.64,1.72,1.72,0,0,1,1.39-.74H61.73a1.72,1.72,0,0,1,1.39.74A2,2,0,0,1,63.44,55Z" style="fill:none;stroke:#000;stroke-linecap:round;stroke-linejoin:round;stroke-width:1.5px"/>
  <path d="M27.26,67.94H70.74" style="fill:none;stroke:#000;stroke-linecap:round;stroke-linejoin:round;stroke-width:1.5px"/>
  <ellipse cx="49" cy="59.6" rx="2.9" ry="2.78" style="fill:none;stroke:#000;stroke-linecap:round;stroke-linejoin:round;stroke-width:1.5px"/>
  <path d="M42.13,30a13.53,13.53,0,0,0,9.53,3.89,13.83,13.83,0,0,0,5.24-1" style="fill:none;stroke:#000;stroke-linecap:round;stroke-linejoin:round;stroke-width:1.5px"/>
  <ellipse cx="49" cy="33.85" rx="7.97" ry="7.65" style="fill:none;stroke:#000;stroke-linecap:round;stroke-linejoin:round;stroke-width:1.5px"/>
  <path d="M58.66,48.46a13.25,13.25,0,0,0-19.32,0" style="fill:none;stroke:#000;stroke-linecap:round;stroke-linejoin:round;stroke-width:1.5px"/>
</svg>