<svg id="Layer_1" data-name="Layer 1" xmlns="http://www.w3.org/2000/svg" width="98" height="98" viewBox="0 0 98 98"><circle id="HG" cx="49" cy="49" r="49" fill="#5cbbff" opacity="0.7" style="isolation:isolate"/><path d="M38.21,44.32a2.34,2.34,0,0,1,2.27-1.6h24a2.48,2.48,0,0,1,2.4,2.54V64.19a2.48,2.48,0,0,1-2.4,2.54H42.88" transform="translate(-2.59 -2.22)" fill="none" stroke="#000" stroke-linecap="round" stroke-linejoin="round" stroke-width="1.5"/><line x1="42.7" y1="67.72" x2="57.11" y2="67.72" fill="none" stroke="#000" stroke-linecap="round" stroke-linejoin="round" stroke-width="1.5"/><line x1="49.9" y1="64.52" x2="49.9" y2="67.72" fill="none" stroke="#000" stroke-linecap="round" stroke-linejoin="round" stroke-width="1.5"/><line x1="48.3" y1="58.11" x2="64.31" y2="58.11" fill="none" stroke="#000" stroke-linecap="round" stroke-linejoin="round" stroke-width="1.5"/><path d="M34.88,52.33V49.12a1.6,1.6,0,0,1,1.6-1.6h9.6a1.61,1.61,0,0,1,1.61,1.6V61.93a1.61,1.61,0,0,1-1.61,1.6h-3.2" transform="translate(-2.59 -2.22)" fill="none" stroke="#000" stroke-linecap="round" stroke-linejoin="round" stroke-width="1.5"/><line x1="40.3" y1="58.11" x2="45.1" y2="58.11" fill="none" stroke="#000" stroke-linecap="round" stroke-linejoin="round" stroke-width="1.5"/><rect x="27.49" y="53.31" width="9.61" height="14.41" rx="1.6" fill="none" stroke="#000" stroke-linecap="round" stroke-linejoin="round" stroke-width="1.5"/><line x1="27.49" y1="64.52" x2="37.09" y2="64.52" fill="none" stroke="#000" stroke-linecap="round" stroke-linejoin="round" stroke-width="1.5"/><line x1="27.49" y1="56.51" x2="37.09" y2="56.51" fill="none" stroke="#000" stroke-linecap="round" stroke-linejoin="round" stroke-width="1.5"/><line x1="32.29" y1="48.51" x2="45.1" y2="48.51" fill="none" stroke="#000" stroke-linecap="round" stroke-linejoin="round" stroke-width="1.5"/><path d="M69.78,46.51A6.09,6.09,0,0,0,75.54,41a5.91,5.91,0,0,0-5.46-6.34l-.23,0A8.28,8.28,0,0,0,53.9,36.5a4.44,4.44,0,0,0-5.5,3" transform="translate(-2.59 -2.22)" fill="none" stroke="#000" stroke-linecap="round" stroke-linejoin="round" stroke-width="1.5"/><path d="M48.7,42.72" transform="translate(-2.59 -2.22)" fill="none" stroke="#000" stroke-linecap="round" stroke-linejoin="round" stroke-width="1.5"/></svg>