<svg data-name="Layer 1" xmlns="http://www.w3.org/2000/svg" width="98" height="98">
  <circle cx="49" cy="49" r="49" fill="#5cbbff" opacity=".7" style="isolation:isolate"/>
  <path d="M39.09,55.84a.71.71,0,0,1-.69-.5.7.7,0,0,1,.29-.79l6.64-4.28a3.42,3.42,0,0,0,1.61-3l0-.2A3.52,3.52,0,0,0,43.59,44h-.21a3.61,3.61,0,0,0-2.44,1,3.41,3.41,0,0,0-1.11,2.52.72.72,0,0,1-1.44,0A4.82,4.82,0,0,1,40,43.93a5,5,0,0,1,3.43-1.33h.3A5,5,0,0,1,48.36,47l0,.27a4.82,4.82,0,0,1-2.25,4.19l-4.88,3.14,6.41-.15a.71.71,0,1,1,0,1.41Z" transform="translate(0 -.22)" fill="#232426"/>
  <path d="M57.43,55.84a.71.71,0,0,1-.72-.71V51.59l-5.43.08a.75.75,0,0,1-.65-.39.7.7,0,0,1,.08-.75l6.15-7.66a.73.73,0,0,1,.57-.27.59.59,0,0,1,.23,0,.7.7,0,0,1,.49.66v7l.76-.08a.71.71,0,1,1,0,1.41h-.84l.08,3.46A.71.71,0,0,1,57.43,55.84Zm-4.77-5.45,4.13-.13-.08-4.92Z" transform="translate(0 -.22)" fill="#232426"/>
  <path d="M49,70.09a21.9,21.9,0,0,1-10.33-2.6A20.89,20.89,0,0,1,27.56,49.62a.72.72,0,0,1,1.44,0A19.48,19.48,0,0,0,39.33,66.26,20.36,20.36,0,0,0,49,68.68,20.13,20.13,0,0,0,66.51,58.63a.71.71,0,0,1,.63-.37.73.73,0,0,1,.35.09.7.7,0,0,1,.28,1A21.58,21.58,0,0,1,49,70.09Z" transform="translate(0 -.22)" fill="#232426"/>
  <path d="M25.15,53.93a.78.78,0,0,1-.46-.16.65.65,0,0,1-.25-.48.67.67,0,0,1,.16-.51l3.13-3.63a.75.75,0,0,1,.49-.25h0a.76.76,0,0,1,.52.17l3.72,3a.7.7,0,0,1,.09,1,.73.73,0,0,1-.55.25.78.78,0,0,1-.47-.16l-3.23-2.65-2.6,3.14A.73.73,0,0,1,25.15,53.93Z" transform="translate(0 -.22)" fill="#232426"/>
  <path d="M69.72,49.53a.71.71,0,0,1-.72-.69A19.5,19.5,0,0,0,58.67,32.17,20.48,20.48,0,0,0,49,29.75,20.14,20.14,0,0,0,31.49,39.81a.73.73,0,0,1-1.33-.15.66.66,0,0,1,.07-.53A21.58,21.58,0,0,1,49,28.35a22,22,0,0,1,10.32,2.59A20.88,20.88,0,0,1,70.44,48.82a.69.69,0,0,1-.2.5.72.72,0,0,1-.51.21h0Z" transform="translate(0 -.22)" fill="#232426"/>
  <path d="M69.72,49.53a.72.72,0,0,1-.47-.16l-3.72-3a.69.69,0,0,1-.09-1,.73.73,0,0,1,.55-.25.78.78,0,0,1,.47.16l3.23,2.65,2.6-3.14a.74.74,0,0,1,.56-.26.73.73,0,0,1,.46.17.7.7,0,0,1,.09,1l-3.13,3.62a.67.67,0,0,1-.49.25Z" transform="translate(0 -.22)" fill="#232426"/>
</svg>