<svg id="Layer_1" data-name="Layer 1" xmlns="http://www.w3.org/2000/svg" width="98" height="98" viewBox="0 0 98 98">
  <circle id="HG" cx="49" cy="49" r="49" fill="#5cbbff" opacity="0.7" style="isolation: isolate"/>
  <g>
    <path d="M63.41,57.56A7.79,7.79,0,1,0,59,43.37,12,12,0,1,0,43.3,56.9" transform="translate(-2.59 -2.22)" fill="none" stroke="#000" stroke-linecap="round" stroke-linejoin="round" stroke-width="1.5"/>
    <path d="M46.3,53.87c0-.35,0-.71,0-1.07,0-.17.05-.24.23-.26a12.62,12.62,0,0,0,4.76-1.82,3.46,3.46,0,0,1,3.85,0,12.64,12.64,0,0,0,4.76,1.83c.16,0,.25.05.25.25a13.24,13.24,0,0,1-1.4,6.69,12.87,12.87,0,0,1-5.26,5.43.47.47,0,0,1-.53,0,12.81,12.81,0,0,1-6.44-8.83A11.58,11.58,0,0,1,46.3,53.87Z" transform="translate(-2.59 -2.22)" fill="none" stroke="#000520" stroke-miterlimit="10" stroke-width="1.5"/>
  </g>
</svg>
