

<svg xmlns="http://www.w3.org/2000/svg" width="98" height="98">
  <g id="Ebene_2" data-name="Ebene 2">
    <g id="Layer_1" data-name="Layer 1">
      <circle id="HG" cx="49" cy="49" r="49" style="isolation:isolate" fill="#5cbbff" opacity=".7"/>
      <path d="M44.22 69.46A12.79 12.79 0 0047 62.13M55.22 69.46a12.79 12.79 0 01-2.75-7.33M41.47 69.46h16.5M28.65 56.64h42.14" fill="none" stroke="#000" stroke-linecap="round" stroke-linejoin="round" stroke-width="1.42px"/>
      <rect width="42.15" height="31.15" x="28.65" y="30.98" fill="none" stroke="#000" stroke-linecap="round" stroke-linejoin="round" stroke-width="1.42px" rx="1.83"/>
      <path d="M36.49 48.27a.5.5 0 01-.15-.37v-7.54a.5.5 0 01.15-.37.49.49 0 01.36-.15H39a2.36 2.36 0 011.23.33 2.45 2.45 0 01.89.86 2.32 2.32 0 01.33 1.21 2 2 0 01-.75 1.53 1.88 1.88 0 011 .78 2.34 2.34 0 01.3 1.25 2.49 2.49 0 01-.36 1.32 2.55 2.55 0 01-1 1 2.51 2.51 0 01-1.32.35h-2.47a.49.49 0 01-.36-.2zm2.38-5a1.11 1.11 0 00.79-.31 1 1 0 00.33-.73 1 1 0 00-.33-.76 1.11 1.11 0 00-.79-.31h-1.09v2.11zm.41 3.74a1.22 1.22 0 00.89-.34 1.25 1.25 0 00.34-.91 1.1 1.1 0 00-.35-.85 1.22 1.22 0 00-.88-.35h-1.5v2.45zM45.07 48.35a.29.29 0 01-.07-.18V44.5l-2.53-4.24a.25.25 0 010-.16.23.23 0 01.09-.18.28.28 0 01.2-.08h1A.25.25 0 0144 40l1.77 3.09L47.52 40a.25.25 0 01.24-.13h1a.28.28 0 01.2.08.23.23 0 01.09.18.25.25 0 010 .16l-2.58 4.21v3.67a.25.25 0 01-.08.18.21.21 0 01-.18.07h-1a.24.24 0 01-.14-.07zM51.33 48.15A3.12 3.12 0 0150.17 47a3 3 0 01-.43-1.59v-2.56a3.06 3.06 0 01.43-1.59 3.17 3.17 0 012.75-1.57 3.16 3.16 0 011.6.42 3.2 3.2 0 011.16 1.15 3.15 3.15 0 01.42 1.59v2.56a3.12 3.12 0 01-.42 1.59 3.21 3.21 0 01-2.76 1.58 3.13 3.13 0 01-1.59-.43zm2.44-1.22a1.64 1.64 0 00.63-.65 1.68 1.68 0 00.24-.87v-2.56a1.68 1.68 0 00-.24-.85 1.71 1.71 0 00-.63-.65 1.58 1.58 0 00-.85-.24 1.61 1.61 0 00-.85.24 1.87 1.87 0 00-.63.65 1.67 1.67 0 00-.23.87v2.56a1.67 1.67 0 00.23.87 1.79 1.79 0 00.63.65 1.61 1.61 0 00.85.24 1.58 1.58 0 00.85-.26zM57.94 48.27a.5.5 0 01-.15-.37v-7.54a.5.5 0 01.15-.37.51.51 0 01.37-.15h2.35a3.25 3.25 0 012.88 1.66 3.35 3.35 0 01.46 1.69v1.88a3.41 3.41 0 01-.43 1.7 3.26 3.26 0 01-2.88 1.65h-2.38a.51.51 0 01-.37-.15zM60.6 47a1.89 1.89 0 001-.26 1.93 1.93 0 00.69-.7 1.87 1.87 0 00.26-1v-2a1.86 1.86 0 00-.26-.95 1.93 1.93 0 00-.69-.7 1.89 1.89 0 00-1-.25h-1.34V47z"/>
    </g>
  </g>
</svg>