
<svg xmlns="http://www.w3.org/2000/svg" xmlns:xlink="http://www.w3.org/1999/xlink" width="98" height="98" overflow="visible" viewBox="0 0 98 98">
  <circle id="HG_2_" cx="49" cy="49" r="49" fill="#5cbbff" opacity=".7"/>
  <path d="M72.6 60.3c0 1.1-.9 2.1-2.1 2.1H27.4c-1.1 0-2.1-.9-2.1-2.1V31.5c0-1.1.9-2.1 2.1-2.1h43.1c1.1 0 2.1.9 2.1 2.1v28.8zM38.7 68.5h20.5M45.9 62.4v6.2M52.1 62.4v6.2" fill="none" stroke="#111" stroke-width="1.5" stroke-linecap="round" stroke-linejoin="round"/>
  <circle cx="49" cy="53.1" r="3.1" fill="none" stroke="#111" stroke-width="1.5" stroke-linecap="round" stroke-linejoin="round"/>
  <path d="M55.8 46.2c-4-3.1-9.6-3.1-13.7 0M61.3 39.8c-7.3-5.5-17.3-5.5-24.7 0" fill="none" stroke="#111" stroke-width="1.5" stroke-linecap="round" stroke-linejoin="round"/>
</svg>