<svg data-name="Layer 1" xmlns="http://www.w3.org/2000/svg" width="98" height="98">
    <circle cx="49" cy="49" r="49" fill="#5cbbff" opacity=".7" style="isolation:isolate"/>
    <path d="M35.12 29.24h-1.8a1.79 1.79 0 0 0-1.79 1.79v1.8M63.85 29.24h1.8a1.79 1.79 0 0 1 1.76 1.79v1.8M40.51 29.24h6.28M52.18 29.24h6.29M35.12 65.15h-1.8a1.79 1.79 0 0 1-1.79-1.79v-1.8M40.51 65.15h6.28M52.18 65.15h1.8M31.53 38.22v6.28M31.53 49.89v6.29M67.45 38.22v6.28M67.45 49.89v1.8M64.71 62.42l7.44-1.86a.9.9 0 0 0 .11-1.71l-16.42-6.46a.9.9 0 0 0-1.17.5.94.94 0 0 0 0 .66l6.47 16.42a.9.9 0 0 0 1.16.51.91.91 0 0 0 .54-.62z" fill="none" stroke="#000" stroke-linecap="round" stroke-linejoin="round" stroke-width="1.5"/>
</svg>
