<svg id="Layer_1" data-name="Layer 1" xmlns="http://www.w3.org/2000/svg" width="98" height="98" viewBox="0 0 98 98">
  <circle id="HG" cx="49" cy="49" r="49" style="isolation:isolate" fill="#5cbbff" opacity=".7"/>
  <path fill="none" stroke="#111" stroke-linecap="round" stroke-linejoin="round" stroke-width="1.5px" d="M49.39 52A1.44 1.44 0 0148 53.42H36.52A1.44 1.44 0 0135.09 52V36.15a1.44 1.44 0 011.43-1.44h11.44a1.44 1.44 0 011.43 1.44zM68.09 43.2a1.42 1.42 0 01-1.43 1.41H55.21a1.42 1.42 0 01-1.43-1.4v-7.07a1.43 1.43 0 011.43-1.41h11.44a1.43 1.43 0 011.44 1.41zM49.39 66.3A1.43 1.43 0 0148 67.72H36.55a1.42 1.42 0 01-1.42-1.41v-7.08a1.41 1.41 0 011.43-1.41H48a1.43 1.43 0 011.43 1.41zM55.22 67.72a1.44 1.44 0 01-1.44-1.44V50.45A1.43 1.43 0 0155.21 49h11.45a1.43 1.43 0 011.43 1.43v15.83a1.44 1.44 0 01-1.43 1.44z" transform="translate(-2.59 -2.22)"/>
</svg>