<svg data-name="Layer 1" xmlns="http://www.w3.org/2000/svg" width="98" height="98">
    <circle cx="49" cy="49" r="49" fill="#5cbbff" opacity=".7" style="isolation:isolate"/>
    <path fill="none" stroke="#000520" stroke-miterlimit="10" stroke-width="1.5" d="M62.57 40.67v-5.82h-5.83M62.57 34.85l-9.99 9.99M29.26 47.33h20.81v20.81H29.26zM29.26 68.15l20.82-20.82M45.08 47.33 29.26 63.15M40.09 47.33 29.26 58.16M35.09 47.33l-5.83 5.83M50.08 52.33 34.26 68.15M50.08 57.33 39.25 68.15M50.08 62.32l-5.83 5.83M32.59 29.85h-3.33v3.33M67.56 33.18v-3.33h-3.33M64.23 68.15h3.33v-3.33M29.26 34.85v1.66M29.26 38.18v1.66M29.26 41.51v1.66M29.26 44.84v2.49M62.57 68.15H60.9M59.24 68.15h-1.67M55.91 68.15h-1.67M52.58 68.15h-2.5M34.26 29.85h1.66M37.59 29.85h1.66M40.92 29.85h1.66M44.25 29.85h1.67M47.58 29.85h1.67M50.91 29.85h1.67M54.24 29.85h1.67M57.57 29.85h1.67M60.9 29.85h1.67M67.56 34.85v1.66M67.56 38.18v1.66M67.56 41.51v1.66M67.56 44.84v1.66M67.56 48.17v1.66M67.56 51.5v1.66M67.56 54.83v1.66M67.56 58.16v1.66M67.56 61.49v1.66"/>
</svg>
