<svg id="Layer_1" data-name="Layer 1" xmlns="http://www.w3.org/2000/svg" width="98" height="98" viewBox="0 0 98 98"><circle id="HG" cx="49" cy="49" r="49" fill="#5cbbff" opacity="0.7" style="isolation:isolate"/><rect x="33.33" y="28.1" width="31.78" height="22.43" rx="3.74" fill="none" stroke="#000" stroke-linecap="round" stroke-linejoin="round" stroke-width="1.5"/><path d="M60.59,49.06c-.73-1.13-3.12-1.93-6.12-3-.85-.32-.71-2.53-.34-2.94a6.25,6.25,0,0,0,1.63-4.84,4,4,0,1,0-7.93-.52,4.51,4.51,0,0,0,0,.52,6.25,6.25,0,0,0,1.63,4.84c.37.41.51,2.62-.34,2.94-3,1.12-5.38,1.92-6.11,3" transform="translate(-2.59 -2.22)" fill="none" stroke="#000" stroke-linecap="round" stroke-linejoin="round" stroke-width="1.5"/><path d="M60.21,73.31a7.22,7.22,0,0,0-.73-3c-.51-1-2.67-1.75-5.37-2.76-.74-.26-.61-2-.29-2.33a5.39,5.39,0,0,0,1.4-4.18,3.43,3.43,0,1,0-6.84-.46,3.53,3.53,0,0,0,0,.46,5.39,5.39,0,0,0,1.4,4.18c.32.36.45,2.06-.29,2.33-2.7,1-4.86,1.72-5.37,2.76a7.22,7.22,0,0,0-.73,3" transform="translate(-2.59 -2.22)" fill="none" stroke="#000" stroke-linecap="round" stroke-linejoin="round" stroke-width="1.5"/><path d="M73.3,68.48c-.71-.28-1.51-.56-2.37-.89s-.61-2-.29-2.33a5.37,5.37,0,0,0,1.41-4.18,3.43,3.43,0,0,0-6.85-.46,3.53,3.53,0,0,0,0,.46,5.37,5.37,0,0,0,1.41,4.18c.32.36.44,2.06-.29,2.33-2.71,1-4.86,1.72-5.38,2.76a7.55,7.55,0,0,0-.73,3" transform="translate(-2.59 -2.22)" fill="none" stroke="#000" stroke-linecap="round" stroke-linejoin="round" stroke-width="1.5"/><path d="M43.39,73.31a7.55,7.55,0,0,0-.73-3c-.52-1-2.67-1.75-5.38-2.76-.73-.26-.61-2-.29-2.33a5.37,5.37,0,0,0,1.41-4.18,3.36,3.36,0,0,0-3-3.65H35a3.35,3.35,0,0,0-3.43,3.25,2.81,2.81,0,0,0,0,.41A5.39,5.39,0,0,0,33,65.26c.33.36.45,2.06-.28,2.33s-1.66.61-2.37.89" transform="translate(-2.59 -2.22)" fill="none" stroke="#000" stroke-linecap="round" stroke-linejoin="round" stroke-width="1.5"/></svg>