<?xml version="1.0" encoding="utf-8"?>
<!-- Generator: Adobe Illustrator 25.3.0, SVG Export Plug-In . SVG Version: 6.00 Build 0)  -->
<svg version="1.1" id="Layer_1" xmlns="http://www.w3.org/2000/svg" xmlns:xlink="http://www.w3.org/1999/xlink" x="0px" y="0px"
	 width="98" height="98" style="enable-background:new 0 0 98 98;" xml:space="preserve">
<style type="text/css">
	.st0{opacity:0.7;fill:#5CBBFF;enable-background:new    ;}
	.st1{fill:none;stroke:#000000;stroke-width:1.5;stroke-linecap:round;stroke-linejoin:round;}
</style>
<circle class="st0" cx="49" cy="49" r="49"/>
<g>
	<path class="st1" d="M30.6,65h36.8c1,0,1.8,0.8,1.8,1.8l0,0c0,1-0.8,1.8-1.8,1.8H30.6c-1,0-1.8-0.8-1.8-1.8l0,0
		C28.8,65.7,29.6,65,30.6,65z"/>
	<path class="st1" d="M32.3,43.9h3.5c1,0,1.8,0.8,1.8,1.8v3.5c0,1-0.8,1.8-1.8,1.8h-3.5c-1,0-1.8-0.8-1.8-1.8v-3.5
		C30.6,44.7,31.4,43.9,32.3,43.9z"/>
	<path class="st1" d="M32.3,50.9h3.5c1,0,1.8,0.8,1.8,1.8v3.5c0,1-0.8,1.8-1.8,1.8h-3.5c-1,0-1.8-0.8-1.8-1.8v-3.5
		C30.6,51.7,31.4,50.9,32.3,50.9z"/>
	<path class="st1" d="M32.3,57.9h3.5c1,0,1.8,0.8,1.8,1.8v3.5c0,1-0.8,1.8-1.8,1.8h-3.5c-1,0-1.8-0.8-1.8-1.8v-3.5
		C30.6,58.7,31.4,57.9,32.3,57.9z"/>
	<path class="st1" d="M62.2,57.9h3.5c1,0,1.8,0.8,1.8,1.8v3.5c0,1-0.8,1.8-1.8,1.8h-3.5c-1,0-1.8-0.8-1.8-1.8v-3.5
		C60.4,58.7,61.2,57.9,62.2,57.9z"/>
	<path class="st1" d="M34.1,43.9v-5.3c0-3.4,2.7-6.1,6.1-6.1l0,0c3.4,0,6.1,2.7,6.1,6.1v7.9c0,2.9,2.4,5.3,5.3,5.3l0,0
		c2.9,0,5.3-2.4,5.3-5.3V31.6c0-1.9,1.6-3.5,3.5-3.5l0,0c1.9,0,3.5,1.6,3.5,3.5v26.3"/>
</g>
</svg>
