
<svg xmlns="http://www.w3.org/2000/svg" xmlns:xlink="http://www.w3.org/1999/xlink" width="98" height="98" overflow="visible" viewBox="0 0 98 98">
  <circle id="HG_1_" cx="49" cy="49" r="49" fill="#fcd116" />
  <g id="Smartphone_Kopie">
    <path d="M49.4 68.4c.3 0 .5.2.5.5s-.2.5-.5.5-.5-.2-.5-.5.2-.5.5-.5" stroke-width="1.5" style="fill:none;stroke:#111;stroke-linecap:round;stroke-linejoin:round;"/>
    <path d="M40.4 26.9h18c2.2 0 4 1.8 4 4v38c0 2.2-1.8 4-4 4h-18c-2.2 0-4-1.8-4-4v-38c0-2.2 1.8-4 4-4zM62.4 64.9h-26M62.4 34.9h-26M46.4 30.9h6M48.4 43.9l-2 11M54.4 43.9l-2 11M45.4 46.9h11M44.4 50.9h11M66.4 44.8c2.3 2.3 2.5 6 .5 8.5l-.5.7" stroke-width="1.5" style="fill:none;stroke:#111;stroke-linecap:round;stroke-linejoin:round;"/>
    <path d="M67.4 39.9l.4.3c5.1 3.8 6.2 11 2.4 16.1-.7.9-1.5 1.7-2.3 2.4l-.4.3M32.4 44.8c-2.3 2.3-2.5 6-.5 8.5l.5.7" stroke-width="1.5" style="fill:none;stroke:#111;stroke-linecap:round;stroke-linejoin:round;"/>
    <path d="M31.4 39.9l-.4.3c-5.1 3.8-6.2 11-2.4 16.1.7.9 1.5 1.7 2.3 2.4l.4.3" stroke-width="1.5" style="fill:none;stroke:#111;stroke-linecap:round;stroke-linejoin:round;"/>
  </g>
</svg>