<svg data-name="Layer 1" xmlns="http://www.w3.org/2000/svg" width="98" height="98">
    <circle cx="49" cy="49" r="49" fill="#5cbbff" opacity=".7" style="isolation:isolate"/>
    <path d="M37.15 39.28a9.94 9.94 0 1 0 9.56 12.65h2.19l1.81 1.85 1.8-1.81h1.81l1.81 1.81 1.81-1.81h2.71l2.76-2.75-2.71-2.71H46.71a10 10 0 0 0-9.56-7.23z" fill="none" stroke="#000" stroke-linecap="round" stroke-linejoin="round" stroke-width="1.5"/>
    <circle cx="33.54" cy="49.23" r="2.71" fill="none" stroke="#000" stroke-linecap="round" stroke-linejoin="round" stroke-width="1.5"/>
    <path d="M45.28 62.78v5.38a1.81 1.81 0 0 0 1.81 1.81h19.88a1.81 1.81 0 0 0 1.81-1.81v-38a1.81 1.81 0 0 0-1.81-1.8H47.09a1.81 1.81 0 0 0-1.81 1.8v7.23" fill="none" stroke="#000" stroke-linecap="round" stroke-linejoin="round" stroke-width="1.5"/>
</svg>
