<svg data-name="Layer 1" xmlns="http://www.w3.org/2000/svg" width="98" height="98">
    <circle cx="49" cy="49" r="49" fill="#5cbbff" opacity=".7" style="isolation:isolate"/>
    <path d="M62.64 53.6h-4.15a2.75 2.75 0 0 0-2.75 2.74 2.78 2.78 0 0 0 1.72 2.55l4.22 1.68a2.74 2.74 0 0 1-1 5.29h-4.17M59.58 53.6v-1.53M59.58 67.4v-1.53" fill="none" stroke="#000" stroke-linecap="round" stroke-linejoin="round" stroke-width="1.5"/>
    <circle cx="59.58" cy="59.74" r="12.26" fill="none" stroke="#000" stroke-linecap="round" stroke-linejoin="round" stroke-width="1.5"/>
    <path fill="none" stroke="#000" stroke-linecap="round" stroke-linejoin="round" stroke-width="1.5" d="m33.52 72 7.66-4.6-4.6-7.67"/>
    <path d="M26.15 56.78a13.82 13.82 0 0 0 14.08 9M64.18 26.01l-7.67 4.6 4.6 7.66" fill="none" stroke="#000" stroke-linecap="round" stroke-linejoin="round" stroke-width="1.5"/>
    <path d="M71.53 41.21a13.79 13.79 0 0 0-14.07-9M47.31 33.67a7.67 7.67 0 1 0-10.73 7v3.71h6.13v-3.69a7.66 7.66 0 0 0 4.6-7.02zM36.58 49h6.13" fill="none" stroke="#000" stroke-linecap="round" stroke-linejoin="round" stroke-width="1.5"/>
</svg>
