<svg data-name="Layer 1" xmlns="http://www.w3.org/2000/svg" width="98" height="98">
    <circle cx="49" cy="49" r="49" fill="#5cbbff" opacity=".7" style="isolation:isolate"/>
    <path d="M65.83 51.85a8.58 8.58 0 0 0 5-8.06 9.38 9.38 0 0 0-9.51-9.24h-.35a13.35 13.35 0 0 0-12-7.41 13.14 13.14 0 0 0-13.38 12.17 7.08 7.08 0 0 0-8.61 6.79 6.33 6.33 0 0 0 5 6.52" fill="none" stroke="#000" stroke-linecap="round" stroke-linejoin="round" stroke-width="1.5"/>
    <circle cx="49.37" cy="56.02" r="2.86" fill="none" stroke="#000" stroke-linecap="round" stroke-linejoin="round" stroke-width="1.5"/>
    <path d="m51.83 44.94.85 2.77a1.88 1.88 0 0 0 2.24 1.3l2.8-.65a2.55 2.55 0 0 1 2.43 4.24l-2 2.11a1.92 1.92 0 0 0 0 2.59l2 2.12a2.55 2.55 0 0 1-.13 3.61 2.51 2.51 0 0 1-2.3.62L54.91 63a1.89 1.89 0 0 0-2.22 1.31l-.86 2.77a2.54 2.54 0 0 1-4.86 0l-.85-2.77a1.91 1.91 0 0 0-2.29-1.3l-2.81.65a2.55 2.55 0 0 1-2.43-4.23l2-2.12a1.9 1.9 0 0 0 0-2.59l-2-2.12a2.55 2.55 0 0 1 .13-3.61 2.57 2.57 0 0 1 2.3-.62l2.81.65a1.89 1.89 0 0 0 2.24-1.3l.84-2.77a2.54 2.54 0 0 1 3.16-1.7 2.51 2.51 0 0 1 1.76 1.69z" fill="none" stroke="#000" stroke-linecap="round" stroke-linejoin="round" stroke-width="1.5"/>
</svg>
