<svg xmlns="http://www.w3.org/2000/svg" xmlns:xlink="http://www.w3.org/1999/xlink" xmlns:lucid="lucid" width="2138.5" height="852.5"><g transform="translate(-40 -200)" lucid:page-tab-id="0_0"><path d="M355.2 563.6c2.65-2 6.95-2 9.6 0l70.4 52.8c2.65 2 2.65 5.2 0 7.2l-70.4 52.8c-2.65 2-6.95 2-9.6 0l-70.4-52.8c-2.65-2-2.65-5.2 0-7.2z" stroke="#fff" stroke-width="3" fill="#5cbbff"/><use xlink:href="#a" transform="matrix(1,0,0,1,285,565) translate(31.333888888888897 45.556666666666665)"/><use xlink:href="#b" transform="matrix(1,0,0,1,285,565) translate(34.7027777777778 66.89)"/><use xlink:href="#c" transform="matrix(1,0,0,1,285,565) translate(56.05388888888889 88.22333333333333)"/><path d="M88.82 573.84c1.76-2.8 5.87-5.1 9.18-5.1h84c3.3 0 7.42 2.3 9.18 5.1l25.64 41.07c1.76 2.82 1.76 7.38 0 10.2l-25.64 41.06c-1.76 2.8-5.87 5.1-9.18 5.1H98c-3.3 0-7.42-2.3-9.18-5.1L63.18 625.1c-1.76-2.82-1.76-7.38 0-10.2z" stroke="#fff" stroke-width="3" fill="#0072c6"/><use xlink:href="#d" transform="matrix(1,0,0,1,65,573.75) translate(25.815000000000012 42.989999999999995)"/><use xlink:href="#e" transform="matrix(1,0,0,1,65,573.75) translate(109.73499999999999 42.989999999999995)"/><use xlink:href="#f" transform="matrix(1,0,0,1,65,573.75) translate(31.805000000000007 66.98999999999998)"/><path d="M572.78 226c0-3.3 2.68-6 6-6h128c3.3 0 6 2.7 6 6v68c0 3.3-2.7 6-6 6h-128c-3.32 0-6-2.7-6-6z" stroke="#fff" stroke-width="3" fill="#0072c6"/><use xlink:href="#g" transform="matrix(1,0,0,1,584.7777499208253,232) translate(25.910000000000004 37.239999999999995)"/><path d="M572.78 366c0-3.3 2.68-6 6-6h128c3.3 0 6 2.7 6 6v68c0 3.3-2.7 6-6 6h-128c-3.32 0-6-2.7-6-6z" stroke="#fff" stroke-width="3" fill="#0072c6"/><use xlink:href="#h" transform="matrix(1,0,0,1,584.7777499208253,372) translate(5.730000000000004 37.239999999999995)"/><path d="M572.78 506c0-3.3 2.68-6 6-6h128c3.3 0 6 2.7 6 6v68c0 3.3-2.7 6-6 6h-128c-3.32 0-6-2.7-6-6z" stroke="#fff" stroke-width="3" fill="#0072c6"/><use xlink:href="#i" transform="matrix(1,0,0,1,584.7777499208253,512) translate(4.310000000000009 37.239999999999995)"/><path d="M572.78 646c0-3.3 2.68-6 6-6h128c3.3 0 6 2.7 6 6v68c0 3.3-2.7 6-6 6h-128c-3.32 0-6-2.7-6-6z" stroke="#fff" stroke-width="3" fill="#0072c6"/><use xlink:href="#j" transform="matrix(1,0,0,1,584.7777499208253,652) translate(18.110000000000014 37.239999999999995)"/><path d="M572.78 786c0-3.3 2.68-6 6-6h128c3.3 0 6 2.7 6 6v68c0 3.3-2.7 6-6 6h-128c-3.32 0-6-2.7-6-6z" stroke="#fff" stroke-width="3" fill="#999"/><use xlink:href="#k" transform="matrix(1,0,0,1,584.7777499208253,792) translate(29.490000000000002 37.239999999999995)"/><path d="M572.78 926c0-3.3 2.68-6 6-6h128c3.3 0 6 2.7 6 6v68c0 3.3-2.7 6-6 6h-128c-3.32 0-6-2.7-6-6z" stroke="#fff" stroke-width="3" fill="#999"/><use xlink:href="#l" transform="matrix(1,0,0,1,584.7777499208253,932) translate(21.940000000000005 19.739999999999995)"/><use xlink:href="#m" transform="matrix(1,0,0,1,584.7777499208253,932) translate(86.06 19.739999999999995)"/><use xlink:href="#n" transform="matrix(1,0,0,1,584.7777499208253,932) translate(4.3100000000000165 43.73999999999999)"/><use xlink:href="#o" transform="matrix(1,0,0,1,584.7777499208253,932) translate(42.89000000000001 43.73999999999999)"/><path d="M782.57 225.8c.85-3.2 4.23-5.8 7.54-5.8H916.8c3.3 0 5.3 2.6 4.45 5.8L903 294.2c-.86 3.2-4.24 5.8-7.56 5.8H768.78c-3.32 0-5.3-2.6-4.46-5.8z" stroke="#fff" stroke-width="3" fill="#999"/><use xlink:href="#p" transform="matrix(1,0,0,1,767.7777499208253,225) translate(17.191666666666677 41.60916666666667)"/><use xlink:href="#q" transform="matrix(1,0,0,1,767.7777499208253,225) translate(82.16944444444445 41.60916666666667)"/><path d="M992.57 225.8c.85-3.2 4.23-5.8 7.54-5.8h126.68c3.3 0 5.3 2.6 4.45 5.8L1113 294.2c-.86 3.2-4.24 5.8-7.56 5.8H978.78c-3.32 0-5.3-2.6-4.46-5.8z" stroke="#fff" stroke-width="3" fill="#999"/><use xlink:href="#p" transform="matrix(1,0,0,1,977.7777499208253,225) translate(15.965000000000012 41.60916666666667)"/><use xlink:href="#r" transform="matrix(1,0,0,1,977.7777499208253,225) translate(80.94277777777778 41.60916666666667)"/><path d="M1199.8 225.8c.84-3.2 4.22-5.8 7.53-5.8H1334c3.3 0 5.3 2.6 4.45 5.8l-18.24 68.4c-.84 3.2-4.22 5.8-7.53 5.8H1186c-3.3 0-5.3-2.6-4.45-5.8z" stroke="#fff" stroke-width="3" fill="#999"/><use xlink:href="#p" transform="matrix(1,0,0,1,1185,225) translate(13.52055555555557 41.60916666666667)"/><use xlink:href="#s" transform="matrix(1,0,0,1,1185,225) translate(78.49833333333333 41.60916666666667)"/><path d="M1379.8 285.8c.84-3.2 4.22-5.8 7.53-5.8H1514c3.3 0 5.3 2.6 4.45 5.8l-18.24 68.4c-.84 3.2-4.22 5.8-7.53 5.8H1366c-3.3 0-5.3-2.6-4.45-5.8z" stroke="#fff" stroke-width="3" fill="#5cbbff"/><use xlink:href="#t" transform="matrix(1,0,0,1,1365,285) translate(20.78722222222224 30.671666666666663)"/><use xlink:href="#b" transform="matrix(1,0,0,1,1365,285) translate(54.61833333333335 30.671666666666663)"/><use xlink:href="#u" transform="matrix(1,0,0,1,1365,285) translate(51.31388888888889 52.004999999999995)"/><path d="M782.57 365.8c.85-3.2 4.23-5.8 7.54-5.8H916.8c3.3 0 5.3 2.6 4.45 5.8L903 434.2c-.86 3.2-4.24 5.8-7.56 5.8H768.78c-3.32 0-5.3-2.6-4.46-5.8z" stroke="#fff" stroke-width="3" fill="#5cbbff"/><use xlink:href="#v" transform="matrix(1,0,0,1,767.7777499208253,365) translate(34.33388888888889 30.671666666666663)"/><use xlink:href="#w" transform="matrix(1,0,0,1,767.7777499208253,365) translate(15.758333333333349 52.004999999999995)"/><use xlink:href="#x" transform="matrix(1,0,0,1,767.7777499208253,365) translate(56.753888888888895 52.004999999999995)"/><path d="M992.57 365.8c.85-3.2 4.23-5.8 7.54-5.8h126.68c3.3 0 5.3 2.6 4.45 5.8L1113 434.2c-.86 3.2-4.24 5.8-7.56 5.8H978.78c-3.32 0-5.3-2.6-4.46-5.8z" stroke="#fff" stroke-width="3" fill="#5cbbff"/><use xlink:href="#y" transform="matrix(1,0,0,1,977.7777499208253,365) translate(51.68055555555556 19.734166666666663)"/><use xlink:href="#z" transform="matrix(1,0,0,1,977.7777499208253,365) translate(31.74500000000001 41.067499999999995)"/><use xlink:href="#A" transform="matrix(1,0,0,1,977.7777499208253,365) translate(12.393888888888897 62.400833333333324)"/><path d="M782.57 505.8c.85-3.2 4.23-5.8 7.54-5.8H916.8c3.3 0 5.3 2.6 4.45 5.8L903 574.2c-.86 3.2-4.24 5.8-7.56 5.8H768.78c-3.32 0-5.3-2.6-4.46-5.8z" stroke="#fff" stroke-width="3" fill="#5cbbff"/><use xlink:href="#B" transform="matrix(1,0,0,1,767.7777499208253,505) translate(43.49388888888889 19.734166666666663)"/><use xlink:href="#C" transform="matrix(1,0,0,1,767.7777499208253,505) translate(30.43833333333334 41.067499999999995)"/><use xlink:href="#D" transform="matrix(1,0,0,1,767.7777499208253,505) translate(102.91833333333334 41.067499999999995)"/><use xlink:href="#E" transform="matrix(1,0,0,1,767.7777499208253,505) translate(50.28722222222222 62.400833333333324)"/><path d="M992.57 505.8c.85-3.2 4.23-5.8 7.54-5.8h126.68c3.3 0 5.3 2.6 4.45 5.8L1113 574.2c-.86 3.2-4.24 5.8-7.56 5.8H978.78c-3.32 0-5.3-2.6-4.46-5.8z" stroke="#fff" stroke-width="3" fill="#5cbbff"/><use xlink:href="#p" transform="matrix(1,0,0,1,977.7777499208253,505) translate(20.191666666666677 30.671666666666663)"/><use xlink:href="#F" transform="matrix(1,0,0,1,977.7777499208253,505) translate(85.16944444444445 30.671666666666663)"/><use xlink:href="#G" transform="matrix(1,0,0,1,977.7777499208253,505) translate(40.86055555555556 52.004999999999995)"/><use xlink:href="#H" transform="matrix(1,0,0,1,977.7777499208253,505) translate(57.144999999999996 52.004999999999995)"/><path d="M782.57 645.8c.85-3.2 4.23-5.8 7.54-5.8H916.8c3.3 0 5.3 2.6 4.45 5.8L903 714.2c-.86 3.2-4.24 5.8-7.56 5.8H768.78c-3.32 0-5.3-2.6-4.46-5.8z" stroke="#fff" stroke-width="3" fill="#5cbbff"/><use xlink:href="#I" transform="matrix(1,0,0,1,767.7777499208253,645) translate(20.205000000000005 19.734166666666663)"/><use xlink:href="#J" transform="matrix(1,0,0,1,767.7777499208253,645) translate(97.60944444444443 19.734166666666663)"/><use xlink:href="#K" transform="matrix(1,0,0,1,767.7777499208253,645) translate(134.69388888888886 19.734166666666663)"/><use xlink:href="#L" transform="matrix(1,0,0,1,767.7777499208253,645) translate(18.082777777777792 41.067499999999995)"/><use xlink:href="#M" transform="matrix(1,0,0,1,767.7777499208253,645) translate(17.345000000000013 62.400833333333324)"/><path d="M992.57 645.8c.85-3.2 4.23-5.8 7.54-5.8h126.68c3.3 0 5.3 2.6 4.45 5.8L1113 714.2c-.86 3.2-4.24 5.8-7.56 5.8H978.78c-3.32 0-5.3-2.6-4.46-5.8z" stroke="#fff" stroke-width="3" fill="#5cbbff"/><use xlink:href="#N" transform="matrix(1,0,0,1,977.7777499208253,645) translate(38.476111111111116 30.671666666666663)"/><use xlink:href="#O" transform="matrix(1,0,0,1,977.7777499208253,645) translate(75.56055555555555 30.671666666666663)"/><use xlink:href="#P" transform="matrix(1,0,0,1,977.7777499208253,645) translate(17.651666666666685 52.004999999999995)"/><path d="M1199.8 645.8c.84-3.2 4.22-5.8 7.53-5.8H1334c3.3 0 5.3 2.6 4.45 5.8l-18.24 68.4c-.84 3.2-4.22 5.8-7.53 5.8H1186c-3.3 0-5.3-2.6-4.45-5.8z" stroke="#fff" stroke-width="3" fill="#5cbbff"/><use xlink:href="#Q" transform="matrix(1,0,0,1,1185,645) translate(29.191666666666677 41.60916666666667)"/><path d="M1620 586c0-3.3 2.7-6 6-6h128c3.3 0 6 2.7 6 6v68c0 3.3-2.7 6-6 6h-128c-3.3 0-6-2.7-6-6z" stroke="#fff" stroke-width="3" fill="#0072c6"/><use xlink:href="#R" transform="matrix(1,0,0,1,1632,592) translate(10.550000000000011 37.239999999999995)"/><path d="M1820 586c0-3.3 2.7-6 6-6h128c3.3 0 6 2.7 6 6v68c0 3.3-2.7 6-6 6h-128c-3.3 0-6-2.7-6-6z" stroke="#fff" stroke-width="3" fill="#0072c6"/><use xlink:href="#S" transform="matrix(1,0,0,1,1832,592) translate(11.890000000000008 37.239999999999995)"/><path d="M2018.5 586c0-3.3 2.7-6 6-6h128c3.3 0 6 2.7 6 6v68c0 3.3-2.7 6-6 6h-128c-3.3 0-6-2.7-6-6z" stroke="#fff" stroke-width="3" fill="#0072c6"/><use xlink:href="#T" transform="matrix(1,0,0,1,2030.5,592) translate(6.780000000000015 37.239999999999995)"/><path d="M220.6 620h42.3" stroke="#0072c6" stroke-width="2" fill="none"/><path d="M220.63 621h-1.12l.14-1.45-.1-.55h1.1z" fill="#0072c6"/><path d="M278.15 620l-14.26 4.64v-9.28z" stroke="#0072c6" stroke-width="2" fill="#0072c6"/><path d="M439.6 620h59.34c3.32 0 6-2.7 6-6V266c0-3.3 2.7-6 6-6h41.84" stroke="#0072c6" stroke-width="2" fill="none"/><path d="M439.64 621h-1.1l.18-.4-.28-1.6h1.2z" fill="#0072c6"/><path d="M568.04 260l-14.26 4.64v-9.28z" stroke="#0072c6" stroke-width="2" fill="#0072c6"/><path d="M439.6 620h59.34c3.32 0 6-2.7 6-6V406c0-3.3 2.7-6 6-6h41.84" stroke="#0072c6" stroke-width="2" fill="none"/><path d="M439.64 621h-1.1l.18-.4-.28-1.6h1.2z" fill="#0072c6"/><path d="M568.04 400l-14.26 4.64v-9.28z" stroke="#0072c6" stroke-width="2" fill="#0072c6"/><path d="M439.6 620h59.34c3.32 0 6-2.7 6-6v-68c0-3.3 2.7-6 6-6h41.84" stroke="#0072c6" stroke-width="2" fill="none"/><path d="M439.64 621h-1.1l.18-.4-.28-1.6h1.2z" fill="#0072c6"/><path d="M568.04 540l-14.26 4.64v-9.28z" stroke="#0072c6" stroke-width="2" fill="#0072c6"/><path d="M439.6 620h59.34c3.32 0 6 2.7 6 6v48c0 3.3 2.7 6 6 6h41.84" stroke="#0072c6" stroke-width="2" fill="none"/><path d="M439.64 621h-1.1l.18-.4-.28-1.6h1.2z" fill="#0072c6"/><path d="M568.04 680l-14.26 4.64v-9.28z" stroke="#0072c6" stroke-width="2" fill="#0072c6"/><path d="M439.6 620h59.34c3.32 0 6 2.7 6 6v188c0 3.3 2.7 6 6 6h41.84" stroke="#999" stroke-width="2" fill="none"/><path d="M439.64 621h-1.1l.18-.4-.28-1.6h1.2z" fill="#999"/><path d="M568.04 820l-14.26 4.64v-9.28z" stroke="#999" stroke-width="2" fill="#999"/><path d="M439.6 620h59.34c3.32 0 6 2.7 6 6v328c0 3.3 2.7 6 6 6h41.84" stroke="#999" stroke-width="2" fill="none"/><path d="M439.64 621h-1.1l.18-.4-.28-1.6h1.2z" fill="#999"/><path d="M568.04 960l-14.26 4.64v-9.28z" stroke="#999" stroke-width="2" fill="#999"/><path d="M715.28 260h38.1" stroke="#999" stroke-width="2" fill="none"/><path d="M715.3 261h-1.02v-2h1.02z" fill="#999"/><path d="M768.66 260l-14.27 4.64v-9.28z" stroke="#999" stroke-width="2" fill="#999"/><path d="M914.66 260h48.73" stroke="#999" stroke-width="2" fill="none"/><path d="M914.7 261h-1.3l.53-2h.76z" fill="#999"/><path d="M978.66 260l-14.27 4.64v-9.28z" stroke="#999" stroke-width="2" fill="#999"/><path d="M1124.66 260h45.95" stroke="#999" stroke-width="2" fill="none"/><path d="M1124.7 261h-1.3l.53-2h.76z" fill="#999"/><path d="M1185.88 260l-14.27 4.64v-9.28z" stroke="#999" stroke-width="2" fill="#999"/><path d="M715.28 260h15c3.3 0 6 2.7 6 6v48c0 3.3 2.68 6 6 6h608.33" stroke="#0072c6" stroke-width="2" fill="none"/><path d="M715.3 261h-1.02v-2h1.02z" fill="#0072c6"/><path d="M1365.88 320l-14.27 4.64v-9.28z" stroke="#0072c6" stroke-width="2" fill="#0072c6"/><path d="M715.28 400h38.1" stroke="#0072c6" stroke-width="2" fill="none"/><path d="M715.3 401h-1.02v-2h1.02z" fill="#0072c6"/><path d="M768.66 400l-14.27 4.64v-9.28z" stroke="#0072c6" stroke-width="2" fill="#0072c6"/><path d="M914.66 400h48.73" stroke="#0072c6" stroke-width="2" fill="none"/><path d="M914.7 401h-1.3l.53-2h.76z" fill="#0072c6"/><path d="M978.66 400l-14.27 4.64v-9.28z" stroke="#0072c6" stroke-width="2" fill="#0072c6"/><path d="M715.28 540h38.1" stroke="#0072c6" stroke-width="2" fill="none"/><path d="M715.3 541h-1.02v-2h1.02z" fill="#0072c6"/><path d="M768.66 540l-14.27 4.64v-9.28z" stroke="#0072c6" stroke-width="2" fill="#0072c6"/><path d="M914.66 540h48.73" stroke="#0072c6" stroke-width="2" fill="none"/><path d="M914.7 541h-1.3l.53-2h.76z" fill="#0072c6"/><path d="M978.66 540l-14.27 4.64v-9.28z" stroke="#0072c6" stroke-width="2" fill="#0072c6"/><path d="M715.28 680h38.1" stroke="#0072c6" stroke-width="2" fill="none"/><path d="M715.3 681h-1.02v-2h1.02z" fill="#0072c6"/><path d="M768.66 680l-14.27 4.64v-9.28z" stroke="#0072c6" stroke-width="2" fill="#0072c6"/><path d="M914.66 680h48.73" stroke="#0072c6" stroke-width="2" fill="none"/><path d="M914.7 681h-1.3l.53-2h.76z" fill="#0072c6"/><path d="M978.66 680l-14.27 4.64v-9.28z" stroke="#0072c6" stroke-width="2" fill="#0072c6"/><path d="M1124.66 680h45.95" stroke="#0072c6" stroke-width="2" fill="none"/><path d="M1124.7 681h-1.3l.53-2h.76z" fill="#0072c6"/><path d="M1185.88 680l-14.27 4.64v-9.28z" stroke="#0072c6" stroke-width="2" fill="#0072c6"/><path d="M1124.66 400H1434c3.3 0 6-2.7 6-6v-14" stroke="#0072c6" stroke-width="2" fill="none"/><path d="M1124.7 401h-1.3l.53-2h.76z" fill="#0072c6"/><path d="M1440 364.74l4.64 14.26h-9.28z" stroke="#0072c6" stroke-width="2" fill="#0072c6"/><path d="M1331.9 260H1684c3.3 0 6 2.7 6 6v294" stroke="#999" stroke-width="2" fill="none"/><path d="M1331.9 261h-1.28l.53-2h.76z" fill="#999"/><path d="M1690 575.26l-4.64-14.26h9.28z" stroke="#999" stroke-width="2" fill="#999"/><path d="M1511.9 320h42.1c3.3 0 6 2.7 6 6v288c0 3.3 2.7 6 6 6h34" stroke="#0072c6" stroke-width="2" fill="none"/><path d="M1511.9 321h-1.28l.53-2h.76z" fill="#0072c6"/><path d="M1615.26 620l-14.26 4.64v-9.28z" stroke="#0072c6" stroke-width="2" fill="#0072c6"/><path d="M1124.66 540H1554c3.3 0 6 2.7 6 6v68c0 3.3 2.7 6 6 6h34" stroke="#0072c6" stroke-width="2" fill="none"/><path d="M1124.7 541h-1.3l.53-2h.76z" fill="#0072c6"/><path d="M1615.26 620l-14.26 4.64v-9.28z" stroke="#0072c6" stroke-width="2" fill="#0072c6"/><path d="M1331.9 680H1554c3.3 0 6-2.7 6-6v-48c0-3.3 2.7-6 6-6h34" stroke="#0072c6" stroke-width="2" fill="none"/><path d="M1331.9 681h-1.28l.53-2h.76z" fill="#0072c6"/><path d="M1615.26 620l-14.26 4.64v-9.28z" stroke="#0072c6" stroke-width="2" fill="#0072c6"/><path d="M1762.5 620h37.5" stroke="#0072c6" stroke-width="2" fill="none"/><path d="M1762.53 621h-1.03v-2h1.03z" fill="#0072c6"/><path d="M1815.26 620l-14.26 4.64v-9.28z" stroke="#0072c6" stroke-width="2" fill="#0072c6"/><path d="M1962.5 620h36" stroke="#0072c6" stroke-width="2" fill="none"/><path d="M1962.53 621h-1.03v-2h1.03z" fill="#0072c6"/><path d="M2013.76 620l-14.26 4.64v-9.28z" stroke="#0072c6" stroke-width="2" fill="#0072c6"/><path d="M643.78 1035.63l-.93 3.42-2.53 2.53-3.4.92h-4.12v-2h3.84l2.65-.7 1.76-1.8.72-2.63v-4h2zm-18.95 6.87h-7.96v-2h7.96zm-15.93 0h-7.96v-2h7.96zm-15.92 0H585v-2H593zm-15.93 0h-7.97v-2h7.97zm-15.93 0h-7.96v-2h7.96zm-15.93 0h-7.97v-2h7.96zm-15.94 0h-7.96v-2h7.96zm-15.93 0h-7.96v-2h7.96zm-15.92 0h-7.96v-2h7.97zm-15.92 0h-7.97v-2h7.98zm-15.93 0h-7.96v-2h7.95zm-15.93 0h-7.96v-2h7.96zm-15.93 0h-7.97v-2h7.96zm-15.93 0h-7.97v-2h7.97zm-15.93 0h-7.97v-2h7.97zm-15.93 0h-7.95v-2h7.96zm-24.9-7.13l.7 2.64 1.8 1.8 2.63.7h3.85v2h-4.1l-3.43-.92-2.53-2.53-.92-3.42v-4.15h2zm0-11.93h-2v-8.04h2zm282.78-.32h-2v-8.25h2zM361 1007.37h-2v-8.04h2zm282.78-.74h-2v-4.12h2zM361 991.3h-2v-8.04h2zm0-16.08h-2v-8.04h2zm0-16.08h-2v-8.04h2zm0-16.08h-2V935h2zm0-16.08h-2v-8.04h2zm0-16.08h-2v-8.04h2zm0-16.08h-2v-8.04h2zm0-36.13h-2v-4.06h2zm0-12.1h-2v-8.04h2zm0-16.08h-2v-8.05h2zm0-16.1h-2v-8.03h2zm0-16.07h-2v-8.04h2zm0-16.08h-2v-8.04h2zm0-16.08h-2v-8.04h2zm0-16.08h-2v-8.05h2zm0-16.1h-2v-8.03h2zm0-16.07h-2v-8.04h2zm0-16.08h-2v-4.02h2z" fill="#999"/><path d="M643.78 1002.53h-2v-1.03h2zM364.64 696.83h-9.28l4.64-14.26z" fill="#999"/><path d="M366 697.83h-12l6-18.5zm-9.26-2h6.52L360 685.8z" fill="#999"/><g><use xlink:href="#U" transform="matrix(1,0,0,1,314.5155555555556,858.6666666666667) translate(0 17.546666666666667)"/></g><defs><path fill="#fff" d="M1388-1020c73 173 73 409 0 582C1277-177 1049 0 686 0H120v-1457h566c362 6 592 177 702 437zM686-260c280-8 410-185 410-469 0-283-130-460-410-468H460v937h226" id="V"/><path fill="#fff" d="M1024-162C926-48 781 16 578 16 325 16 169-111 94-299c-49-123-59-309-6-439 74-183 225-315 476-315 298 0 466 176 466 475 0 66-3 115-70 115H362c16 155 90 243 244 247 98 2 155-39 218-71 37-18 85-16 110 14zM752-643c-3-120-60-196-182-196-129 0-185 80-205 196h387" id="W"/><path fill="#fff" d="M774-74c-71 55-172 90-290 90-196 0-304-108-304-303v-536c-70 1-146 12-146-61v-121l165-32 61-253c16-78 146-38 230-48v303h252v212H490v515c0 45 23 83 68 83 48 0 88-50 122 4" id="X"/><path fill="#fff" d="M768-795c-14 65-88 29-146 29-81 0-145 43-192 130V0H120v-1037c73 2 156-8 222 4 64 11 52 105 69 166 65-96 144-190 283-190 47 0 85 11 114 34" id="Y"/><path fill="#fff" d="M580-820c-67 0-112 34-150 70V0H120v-1037h192c68-3 78 56 93 108 65-66 139-123 267-124 134-1 209 79 249 178 61-110 169-178 333-178 248 0 368 145 368 394V0h-310v-659c0-107-46-161-138-161-89 1-146 65-146 161V0H718v-659c0-110-37-161-138-161" id="Z"/><path fill="#fff" d="M440-1037V0H130v-1037h310zm-154-466c113 0 190 70 190 182 0 111-79 180-190 180-109 0-184-71-184-180 0-110 74-182 184-182" id="aa"/><path fill="#fff" d="M612-820c-81 1-134 39-182 81V0H120v-1037h192c70-3 79 59 94 112 74-70 159-128 302-128 236 0 352 157 352 394V0H750v-659c0-96-44-162-138-161" id="ab"/><g id="a"><use transform="matrix(0.008888888888888887,0,0,0.008888888888888887,0,0)" xlink:href="#V"/><use transform="matrix(0.008888888888888887,0,0,0.008888888888888887,13.191111111111109,0)" xlink:href="#W"/><use transform="matrix(0.008888888888888887,0,0,0.008888888888888887,22.86222222222222,0)" xlink:href="#X"/><use transform="matrix(0.008888888888888887,0,0,0.008888888888888887,29.97333333333333,0)" xlink:href="#W"/><use transform="matrix(0.008888888888888887,0,0,0.008888888888888887,39.64444444444444,0)" xlink:href="#Y"/><use transform="matrix(0.008888888888888887,0,0,0.008888888888888887,46.98666666666666,0)" xlink:href="#Z"/><use transform="matrix(0.008888888888888887,0,0,0.008888888888888887,62.29333333333332,0)" xlink:href="#aa"/><use transform="matrix(0.008888888888888887,0,0,0.008888888888888887,67.35999999999999,0)" xlink:href="#ab"/><use transform="matrix(0.008888888888888887,0,0,0.008888888888888887,77.6711111111111,0)" xlink:href="#W"/></g><path fill="#fff" d="M410-971c5 42 8 89 8 133V0H120v-1457c98 1 199-2 296 1 40 1 59 21 74 51 138 273 279 543 414 818 13 27 24 55 35 84 22-58 48-113 75-166l374-736c18-41 51-52 112-52h258V0h-298v-838c0-41 2-85 6-132l-386 749c-26 54-80 76-164 71-58-3-97-29-118-71" id="ac"/><path fill="#fff" d="M232-439C135-490 58-579 58-718c0-234 188-330 428-337 92-3 169 20 233 50h313c-5 52 14 124-14 154-23 25-86 29-126 40 66 303-178 459-498 423-40 20-49 70-6 84 149 48 389 2 514 89 58 41 104 101 100 201-8 190-138 291-296 340-237 73-576 24-664-139-18-33-28-67-28-102C16-21 87-74 171-106c-45-31-80-75-77-150 4-97 67-146 138-183zm50 484c0 94 106 99 210 99 98 0 176-9 214-64C756-84 500-31 348-55c-32 24-66 51-66 100zm58-756c0 91 53 137 146 138 96 2 146-50 146-138 0-90-49-135-146-135s-146 45-146 135" id="ad"/><path fill="#fff" d="M572-1057c257 0 406 153 406 409V0c-68-4-160 9-208-12-30-14-45-72-60-107C623-47 539 18 382 16 189 13 70-77 70-270c0-183 145-251 311-298 78-21 176-33 295-36 8-132-26-216-144-216-125 0-159 78-268 78-94 0-104-95-146-151 112-100 257-164 454-164zM366-285c-2 73 41 96 114 96 97 0 140-35 196-89v-144c-104 4-184 15-248 46-39 19-61 43-62 91" id="ae"/><path fill="#fff" d="M366-1016c125-49 306-50 431 0 190 75 313 236 313 495 0 261-123 423-313 499-125 50-306 50-431 0C175-98 50-259 50-521c0-260 126-421 316-495zm4 497c0 183 45 305 212 305 163 0 208-124 208-305 0-182-44-304-208-304-167 0-212 121-212 304" id="af"/><g id="b"><use transform="matrix(0.008888888888888887,0,0,0.008888888888888887,0,0)" xlink:href="#ac"/><use transform="matrix(0.008888888888888887,0,0,0.008888888888888887,16.69333333333333,0)" xlink:href="#aa"/><use transform="matrix(0.008888888888888887,0,0,0.008888888888888887,21.759999999999998,0)" xlink:href="#ad"/><use transform="matrix(0.008888888888888887,0,0,0.008888888888888887,31.057777777777773,0)" xlink:href="#Y"/><use transform="matrix(0.008888888888888887,0,0,0.008888888888888887,38.222222222222214,0)" xlink:href="#ae"/><use transform="matrix(0.008888888888888887,0,0,0.008888888888888887,47.804444444444435,0)" xlink:href="#X"/><use transform="matrix(0.008888888888888887,0,0,0.008888888888888887,54.91555555555554,0)" xlink:href="#aa"/><use transform="matrix(0.008888888888888887,0,0,0.008888888888888887,59.982222222222205,0)" xlink:href="#af"/><use transform="matrix(0.008888888888888887,0,0,0.008888888888888887,70.29333333333331,0)" xlink:href="#ab"/></g><path fill="#fff" d="M1220-981c0 346-230 490-586 494H458V0H120v-1457h514c350 4 586 140 586 476zm-338 0c0-152-92-223-248-223H458v462h176c169 2 248-80 248-239" id="ag"/><path fill="#fff" d="M612-820c-81 1-134 39-182 81V0H120v-1497h310v551c73-60 149-110 278-107 236 5 352 157 352 394V0H750v-659c0-96-44-162-138-161" id="ah"/><g id="c"><use transform="matrix(0.008888888888888887,0,0,0.008888888888888887,0,0)" xlink:href="#ag"/><use transform="matrix(0.008888888888888887,0,0,0.008888888888888887,10.897777777777776,0)" xlink:href="#ae"/><use transform="matrix(0.008888888888888887,0,0,0.008888888888888887,20.479999999999997,0)" xlink:href="#X"/><use transform="matrix(0.008888888888888887,0,0,0.008888888888888887,27.591111111111104,0)" xlink:href="#ah"/></g><path fill="#fff" d="M56-725c5-259 241-361 518-318 104 16 188 63 250 124l-70 109c-15 22-27 35-60 35-81 0-126-60-222-60-69 0-122 24-122 85 0 75 88 87 152 109 156 54 328 97 328 304C830-90 649 16 394 16 236 16 110-38 22-112c35-48 58-109 103-146 116-42 152 74 285 65 73-5 130-23 130-90 0-78-87-92-154-113C219-449 52-505 56-725" id="ai"/><path fill="#fff" d="M958-162C862-50 728 16 528 16 297 16 159-117 90-293c-49-124-51-307-4-437 70-194 223-323 484-323 177 0 287 60 380 153-36 45-67 98-109 136-73 33-113-34-174-50-21-5-46-11-77-11-169 4-215 131-220 304-6 205 103 354 302 295 57-17 74-74 140-74 25 0 42 10 56 27" id="aj"/><path fill="#fff" d="M694 0H412L10-1037h258c43-1 77 23 86 54 69 227 146 446 203 684 58-239 142-456 211-684 10-29 42-55 82-54h246" id="ak"/><g id="d"><use transform="matrix(0.009999999999999998,0,0,0.009999999999999998,0,0)" xlink:href="#V"/><use transform="matrix(0.009999999999999998,0,0,0.009999999999999998,14.839999999999998,0)" xlink:href="#aa"/><use transform="matrix(0.009999999999999998,0,0,0.009999999999999998,20.540000000000003,0)" xlink:href="#ai"/><use transform="matrix(0.009999999999999998,0,0,0.009999999999999998,29.339999999999996,0)" xlink:href="#aj"/><use transform="matrix(0.009999999999999998,0,0,0.009999999999999998,39.059999999999995,0)" xlink:href="#af"/><use transform="matrix(0.009999999999999998,0,0,0.009999999999999998,50.25999999999999,0)" xlink:href="#ak"/><use transform="matrix(0.009999999999999998,0,0,0.009999999999999998,60.91999999999999,0)" xlink:href="#W"/><use transform="matrix(0.009999999999999998,0,0,0.009999999999999998,71.79999999999998,0)" xlink:href="#Y"/></g><path fill="#fff" d="M325-810c-75-108-123-277-61-426 61-144 195-237 400-237 240 0 378 126 412 336-72 14-141 42-216 42-28 0-49-15-62-44-29-60-55-103-134-106-154-7-171 207-92 303 14 16 29 36 48 56l360 380c35-76 57-162 66-260 3-35 25-60 62-60h196c0 210-61 374-150 504L1460 0c-115-1-236 8-347-2-79-7-107-78-156-120C814-18 561 65 340-14 178-72 46-197 46-411c0-213 134-320 279-399zm138 165c-63 50-101 112-101 209 0 132 74 213 204 213 97 0 170-28 232-67" id="al"/><use transform="matrix(0.009999999999999998,0,0,0.009999999999999998,0,0)" xlink:href="#al" id="e"/><path fill="#fff" d="M894-1037c0 91 2 179-40 235L421-230h463V0H64c-1-90-3-171 40-228l437-579H92v-230h802" id="am"/><g id="f"><use transform="matrix(0.009999999999999998,0,0,0.009999999999999998,0,0)" xlink:href="#ag"/><use transform="matrix(0.009999999999999998,0,0,0.009999999999999998,12.759999999999998,0)" xlink:href="#Y"/><use transform="matrix(0.009999999999999998,0,0,0.009999999999999998,21.019999999999996,0)" xlink:href="#aa"/><use transform="matrix(0.009999999999999998,0,0,0.009999999999999998,26.719999999999995,0)" xlink:href="#af"/><use transform="matrix(0.009999999999999998,0,0,0.009999999999999998,38.31999999999999,0)" xlink:href="#Y"/><use transform="matrix(0.009999999999999998,0,0,0.009999999999999998,46.57999999999999,0)" xlink:href="#aa"/><use transform="matrix(0.009999999999999998,0,0,0.009999999999999998,52.27999999999998,0)" xlink:href="#X"/><use transform="matrix(0.009999999999999998,0,0,0.009999999999999998,60.279999999999994,0)" xlink:href="#aa"/><use transform="matrix(0.009999999999999998,0,0,0.009999999999999998,65.97999999999999,0)" xlink:href="#am"/><use transform="matrix(0.009999999999999998,0,0,0.009999999999999998,75.51999999999998,0)" xlink:href="#W"/></g><path fill="#fff" d="M1180-1025c0 226-126 347-293 415 47 24 88 57 115 103L1312 0h-306c-57 0-97-21-122-64L642-487c-22-36-42-51-98-52h-86V0H120v-1457h474c339 4 586 108 586 432zm-330 25c0-143-98-206-256-204H458v432h136c160-1 256-72 256-228" id="an"/><g id="g"><use transform="matrix(0.009999999999999998,0,0,0.009999999999999998,0,0)" xlink:href="#an"/><use transform="matrix(0.009999999999999998,0,0,0.009999999999999998,13.299999999999997,0)" xlink:href="#W"/><use transform="matrix(0.009999999999999998,0,0,0.009999999999999998,24.179999999999996,0)" xlink:href="#ah"/><use transform="matrix(0.009999999999999998,0,0,0.009999999999999998,35.779999999999994,0)" xlink:href="#af"/><use transform="matrix(0.009999999999999998,0,0,0.009999999999999998,47.379999999999995,0)" xlink:href="#ai"/><use transform="matrix(0.009999999999999998,0,0,0.009999999999999998,56.17999999999999,0)" xlink:href="#X"/></g><path fill="#fff" d="M666 16c-111 3-175-34-236-85v398H120v-1366h192c78-3 80 73 99 128 76-81 169-148 323-148 201 0 299 140 348 307 38 128 40 313-4 439-63 179-182 321-412 327zm124-543c0-153-21-288-164-293-99-3-151 43-196 98v440c40 45 88 70 162 70 160 0 198-144 198-315" id="ao"/><path fill="#fff" d="M440-1497V0H130v-1497h310" id="ap"/><path fill="#fff" d="M636-1259c-138 0-181 78-170 224h244v212H476V0H166v-824c-62-16-146-15-146-89v-122h146c-12-296 138-450 416-450 55 0 93 6 138 19l-6 151c-4 40-36 56-78 56" id="aq"/><g id="h"><use transform="matrix(0.009999999999999998,0,0,0.009999999999999998,0,0)" xlink:href="#an"/><use transform="matrix(0.009999999999999998,0,0,0.009999999999999998,13.299999999999997,0)" xlink:href="#W"/><use transform="matrix(0.009999999999999998,0,0,0.009999999999999998,24.179999999999996,0)" xlink:href="#ao"/><use transform="matrix(0.009999999999999998,0,0,0.009999999999999998,35.739999999999995,0)" xlink:href="#ap"/><use transform="matrix(0.009999999999999998,0,0,0.009999999999999998,41.43999999999999,0)" xlink:href="#ae"/><use transform="matrix(0.009999999999999998,0,0,0.009999999999999998,52.22,0)" xlink:href="#X"/><use transform="matrix(0.009999999999999998,0,0,0.009999999999999998,60.22,0)" xlink:href="#aq"/><use transform="matrix(0.009999999999999998,0,0,0.009999999999999998,67.46,0)" xlink:href="#af"/><use transform="matrix(0.009999999999999998,0,0,0.009999999999999998,79.05999999999999,0)" xlink:href="#Y"/><use transform="matrix(0.009999999999999998,0,0,0.009999999999999998,87.32,0)" xlink:href="#Z"/></g><path fill="#fff" d="M452 16c-236 0-352-157-352-395v-658h310v658c0 97 43 162 138 161 82-1 133-37 182-80v-739h310V0H848c-67 5-80-61-95-112C679-41 594 16 452 16" id="ar"/><g id="i"><use transform="matrix(0.009999999999999998,0,0,0.009999999999999998,0,0)" xlink:href="#an"/><use transform="matrix(0.009999999999999998,0,0,0.009999999999999998,13.299999999999997,0)" xlink:href="#W"/><use transform="matrix(0.009999999999999998,0,0,0.009999999999999998,24.179999999999996,0)" xlink:href="#ao"/><use transform="matrix(0.009999999999999998,0,0,0.009999999999999998,35.739999999999995,0)" xlink:href="#ar"/><use transform="matrix(0.009999999999999998,0,0,0.009999999999999998,47.339999999999996,0)" xlink:href="#Y"/><use transform="matrix(0.009999999999999998,0,0,0.009999999999999998,55.599999999999994,0)" xlink:href="#aj"/><use transform="matrix(0.009999999999999998,0,0,0.009999999999999998,65.32,0)" xlink:href="#ah"/><use transform="matrix(0.009999999999999998,0,0,0.009999999999999998,76.91999999999999,0)" xlink:href="#ae"/><use transform="matrix(0.009999999999999998,0,0,0.009999999999999998,87.69999999999999,0)" xlink:href="#ai"/><use transform="matrix(0.009999999999999998,0,0,0.009999999999999998,96.49999999999999,0)" xlink:href="#W"/></g><g id="j"><use transform="matrix(0.009999999999999998,0,0,0.009999999999999998,0,0)" xlink:href="#an"/><use transform="matrix(0.009999999999999998,0,0,0.009999999999999998,13.299999999999997,0)" xlink:href="#W"/><use transform="matrix(0.009999999999999998,0,0,0.009999999999999998,24.179999999999996,0)" xlink:href="#aq"/><use transform="matrix(0.009999999999999998,0,0,0.009999999999999998,31.419999999999995,0)" xlink:href="#ae"/><use transform="matrix(0.009999999999999998,0,0,0.009999999999999998,42.19999999999998,0)" xlink:href="#aj"/><use transform="matrix(0.009999999999999998,0,0,0.009999999999999998,51.91999999999998,0)" xlink:href="#X"/><use transform="matrix(0.009999999999999998,0,0,0.009999999999999998,59.91999999999999,0)" xlink:href="#af"/><use transform="matrix(0.009999999999999998,0,0,0.009999999999999998,71.51999999999998,0)" xlink:href="#Y"/></g><g id="k"><use transform="matrix(0.009999999999999998,0,0,0.009999999999999998,0,0)" xlink:href="#an"/><use transform="matrix(0.009999999999999998,0,0,0.009999999999999998,13.299999999999997,0)" xlink:href="#W"/><use transform="matrix(0.009999999999999998,0,0,0.009999999999999998,24.179999999999996,0)" xlink:href="#X"/><use transform="matrix(0.009999999999999998,0,0,0.009999999999999998,32.17999999999999,0)" xlink:href="#aa"/><use transform="matrix(0.009999999999999998,0,0,0.009999999999999998,37.879999999999995,0)" xlink:href="#Y"/><use transform="matrix(0.009999999999999998,0,0,0.009999999999999998,46.13999999999999,0)" xlink:href="#W"/></g><g id="l"><use transform="matrix(0.009999999999999998,0,0,0.009999999999999998,0,0)" xlink:href="#an"/><use transform="matrix(0.009999999999999998,0,0,0.009999999999999998,13.299999999999997,0)" xlink:href="#W"/><use transform="matrix(0.009999999999999998,0,0,0.009999999999999998,24.179999999999996,0)" xlink:href="#X"/><use transform="matrix(0.009999999999999998,0,0,0.009999999999999998,32.17999999999999,0)" xlink:href="#ae"/><use transform="matrix(0.009999999999999998,0,0,0.009999999999999998,42.959999999999994,0)" xlink:href="#aa"/><use transform="matrix(0.009999999999999998,0,0,0.009999999999999998,48.65999999999999,0)" xlink:href="#ab"/></g><path fill="#fff" d="M270-12C242 51 193 99 108 99H-24l568-1491c23-62 77-104 156-105h132" id="as"/><use transform="matrix(0.009999999999999998,0,0,0.009999999999999998,0,0)" xlink:href="#as" id="m"/><path fill="#fff" d="M411-924c4 46 7 96 7 143V0H120v-1457c80 4 178-13 242 9 22 7 32 24 48 43l692 875c-5-51-8-104-8-156v-771h298V0c-80-4-180 12-242-12-18-7-35-23-52-44" id="at"/><g id="n"><use transform="matrix(0.009999999999999998,0,0,0.009999999999999998,0,0)" xlink:href="#at"/><use transform="matrix(0.009999999999999998,0,0,0.009999999999999998,15.119999999999997,0)" xlink:href="#af"/><use transform="matrix(0.009999999999999998,0,0,0.009999999999999998,26.719999999999995,0)" xlink:href="#X"/></g><g id="o"><use transform="matrix(0.009999999999999998,0,0,0.009999999999999998,0,0)" xlink:href="#ac"/><use transform="matrix(0.009999999999999998,0,0,0.009999999999999998,18.779999999999998,0)" xlink:href="#af"/><use transform="matrix(0.009999999999999998,0,0,0.009999999999999998,29.979999999999997,0)" xlink:href="#ak"/><use transform="matrix(0.009999999999999998,0,0,0.009999999999999998,41.03999999999999,0)" xlink:href="#aa"/><use transform="matrix(0.009999999999999998,0,0,0.009999999999999998,46.739999999999995,0)" xlink:href="#ab"/><use transform="matrix(0.009999999999999998,0,0,0.009999999999999998,58.33999999999999,0)" xlink:href="#ad"/></g><g id="p"><use transform="matrix(0.008888888888888887,0,0,0.008888888888888887,0,0)" xlink:href="#ac"/><use transform="matrix(0.008888888888888887,0,0,0.008888888888888887,16.69333333333333,0)" xlink:href="#ae"/><use transform="matrix(0.008888888888888887,0,0,0.008888888888888887,26.275555555555556,0)" xlink:href="#ab"/><use transform="matrix(0.008888888888888887,0,0,0.008888888888888887,36.58666666666666,0)" xlink:href="#ar"/><use transform="matrix(0.008888888888888887,0,0,0.008888888888888887,46.89777777777777,0)" xlink:href="#ae"/><use transform="matrix(0.008888888888888887,0,0,0.008888888888888887,56.47999999999999,0)" xlink:href="#ap"/></g><path fill="#fff" d="M490 0H150v-1457h340V0" id="au"/><g id="q"><use transform="matrix(0.008888888888888887,0,0,0.008888888888888887,0,0)" xlink:href="#au"/><use transform="matrix(0.008888888888888887,0,0,0.008888888888888887,5.688888888888888,0)" xlink:href="#ab"/><use transform="matrix(0.008888888888888887,0,0,0.008888888888888887,15.999999999999996,0)" xlink:href="#ai"/><use transform="matrix(0.008888888888888887,0,0,0.008888888888888887,23.82222222222222,0)" xlink:href="#X"/><use transform="matrix(0.008888888888888887,0,0,0.008888888888888887,30.933333333333326,0)" xlink:href="#ae"/><use transform="matrix(0.008888888888888887,0,0,0.008888888888888887,40.51555555555555,0)" xlink:href="#ap"/><use transform="matrix(0.008888888888888887,0,0,0.008888888888888887,45.582222222222214,0)" xlink:href="#ap"/></g><path fill="#fff" d="M1280-216C1167-69 999 16 746 16 392 16 183-168 85-432c-67-180-67-423 7-596 112-263 340-445 706-445 226 0 386 79 500 194l-114 153c-16 27-62 52-102 29-79-46-153-102-286-97-274 10-414 187-414 465 0 218 87 366 236 436 107 51 281 35 366-17 40-24 105-107 162-47" id="av"/><g id="r"><use transform="matrix(0.008888888888888887,0,0,0.008888888888888887,0,0)" xlink:href="#av"/><use transform="matrix(0.008888888888888887,0,0,0.008888888888888887,11.679999999999998,0)" xlink:href="#af"/><use transform="matrix(0.008888888888888887,0,0,0.008888888888888887,21.991111111111106,0)" xlink:href="#ab"/><use transform="matrix(0.008888888888888887,0,0,0.008888888888888887,32.30222222222221,0)" xlink:href="#aq"/><use transform="matrix(0.008888888888888887,0,0,0.008888888888888887,38.737777777777765,0)" xlink:href="#aa"/><use transform="matrix(0.008888888888888887,0,0,0.008888888888888887,43.80444444444443,0)" xlink:href="#ad"/></g><path fill="#fff" d="M544 269c-20 41-37 60-98 60H214L414-91 0-1037h274c46-1 73 23 84 54 69 190 150 371 209 571 68-189 134-380 199-571 10-28 45-55 82-54h250" id="aw"/><g id="s"><use transform="matrix(0.008888888888888887,0,0,0.008888888888888887,0,0)" xlink:href="#V"/><use transform="matrix(0.008888888888888887,0,0,0.008888888888888887,13.191111111111109,0)" xlink:href="#W"/><use transform="matrix(0.008888888888888887,0,0,0.008888888888888887,22.86222222222222,0)" xlink:href="#ao"/><use transform="matrix(0.008888888888888887,0,0,0.008888888888888887,33.13777777777777,0)" xlink:href="#ap"/><use transform="matrix(0.008888888888888887,0,0,0.008888888888888887,38.204444444444434,0)" xlink:href="#af"/><use transform="matrix(0.008888888888888887,0,0,0.008888888888888887,48.15999999999999,0)" xlink:href="#aw"/></g><path fill="#fff" d="M438-595c4 199 91 328 288 328 196 0 288-128 288-327v-863h338v863c-5 295-147 478-365 565-149 59-375 60-523 0-219-87-364-269-364-565v-863h338v862" id="ax"/><g id="t"><use transform="matrix(0.008888888888888887,0,0,0.008888888888888887,0,0)" xlink:href="#ax"/><use transform="matrix(0.008888888888888887,0,0,0.008888888888888887,12.906666666666665,0)" xlink:href="#ai"/><use transform="matrix(0.008888888888888887,0,0,0.008888888888888887,20.728888888888886,0)" xlink:href="#W"/></g><path fill="#fff" d="M1178-1457v268H768V0H430v-1189H20v-268h1158" id="ay"/><g id="u"><use transform="matrix(0.008888888888888887,0,0,0.008888888888888887,0,0)" xlink:href="#ay"/><use transform="matrix(0.008888888888888887,0,0,0.008888888888888887,8.87111111111111,0)" xlink:href="#af"/><use transform="matrix(0.008888888888888887,0,0,0.008888888888888887,19.18222222222222,0)" xlink:href="#af"/><use transform="matrix(0.008888888888888887,0,0,0.008888888888888887,29.493333333333325,0)" xlink:href="#ap"/><use transform="matrix(0.008888888888888887,0,0,0.008888888888888887,34.55999999999999,0)" xlink:href="#ai"/></g><g id="v"><use transform="matrix(0.008888888888888887,0,0,0.008888888888888887,0,0)" xlink:href="#V"/><use transform="matrix(0.008888888888888887,0,0,0.008888888888888887,13.191111111111109,0)" xlink:href="#W"/><use transform="matrix(0.008888888888888887,0,0,0.008888888888888887,22.86222222222222,0)" xlink:href="#X"/><use transform="matrix(0.008888888888888887,0,0,0.008888888888888887,29.97333333333333,0)" xlink:href="#W"/><use transform="matrix(0.008888888888888887,0,0,0.008888888888888887,39.64444444444444,0)" xlink:href="#Y"/><use transform="matrix(0.008888888888888887,0,0,0.008888888888888887,46.98666666666666,0)" xlink:href="#Z"/><use transform="matrix(0.008888888888888887,0,0,0.008888888888888887,62.29333333333332,0)" xlink:href="#aa"/><use transform="matrix(0.008888888888888887,0,0,0.008888888888888887,67.35999999999999,0)" xlink:href="#ab"/><use transform="matrix(0.008888888888888887,0,0,0.008888888888888887,77.6711111111111,0)" xlink:href="#W"/></g><path fill="#fff" d="M0-1037h248c41-1 80 21 86 54 48 222 103 438 144 667 67-218 130-445 190-668 20-73 133-51 220-54 41-1 78 23 86 54 60 224 119 448 180 670 45-228 105-446 154-669 7-31 44-55 82-54h236L1304 0h-252c-34-2-47-21-56-52-61-218-128-430-183-654-54 226-124 435-185 654-10 35-32 52-66 52H322" id="az"/><g id="w"><use transform="matrix(0.008888888888888887,0,0,0.008888888888888887,0,0)" xlink:href="#at"/><use transform="matrix(0.008888888888888887,0,0,0.008888888888888887,13.439999999999998,0)" xlink:href="#W"/><use transform="matrix(0.008888888888888887,0,0,0.008888888888888887,23.111111111111107,0)" xlink:href="#az"/></g><g id="x"><use transform="matrix(0.008888888888888887,0,0,0.008888888888888887,0,0)" xlink:href="#ag"/><use transform="matrix(0.008888888888888887,0,0,0.008888888888888887,11.34222222222222,0)" xlink:href="#ap"/><use transform="matrix(0.008888888888888887,0,0,0.008888888888888887,16.408888888888885,0)" xlink:href="#ae"/><use transform="matrix(0.008888888888888887,0,0,0.008888888888888887,25.991111111111106,0)" xlink:href="#X"/><use transform="matrix(0.008888888888888887,0,0,0.008888888888888887,33.10222222222222,0)" xlink:href="#aq"/><use transform="matrix(0.008888888888888887,0,0,0.008888888888888887,39.53777777777777,0)" xlink:href="#af"/><use transform="matrix(0.008888888888888887,0,0,0.008888888888888887,49.84888888888888,0)" xlink:href="#Y"/><use transform="matrix(0.008888888888888887,0,0,0.008888888888888887,57.1911111111111,0)" xlink:href="#Z"/></g><path fill="#fff" d="M494-1057c110-3 175 36 236 85v-525h310V0H848c-79 3-80-75-100-131C671-51 581 16 426 16 225 16 127-123 78-290c-38-128-40-313 4-440 62-181 183-321 412-327zM370-515c0 153 21 293 164 293 98 0 150-43 196-97v-440c-41-45-87-70-162-70-160 0-198 144-198 314" id="aA"/><g id="y"><use transform="matrix(0.008888888888888887,0,0,0.008888888888888887,0,0)" xlink:href="#ac"/><use transform="matrix(0.008888888888888887,0,0,0.008888888888888887,16.69333333333333,0)" xlink:href="#af"/><use transform="matrix(0.008888888888888887,0,0,0.008888888888888887,27.004444444444438,0)" xlink:href="#aA"/><use transform="matrix(0.008888888888888887,0,0,0.008888888888888887,37.31555555555555,0)" xlink:href="#aa"/><use transform="matrix(0.008888888888888887,0,0,0.008888888888888887,42.38222222222221,0)" xlink:href="#aq"/><use transform="matrix(0.008888888888888887,0,0,0.008888888888888887,48.81777777777776,0)" xlink:href="#aw"/></g><g id="z"><use transform="matrix(0.008888888888888887,0,0,0.008888888888888887,0,0)" xlink:href="#ar"/><use transform="matrix(0.008888888888888887,0,0,0.008888888888888887,10.311111111111108,0)" xlink:href="#ab"/><use transform="matrix(0.008888888888888887,0,0,0.008888888888888887,20.622222222222216,0)" xlink:href="#aA"/><use transform="matrix(0.008888888888888887,0,0,0.008888888888888887,30.933333333333323,0)" xlink:href="#W"/><use transform="matrix(0.008888888888888887,0,0,0.008888888888888887,40.604444444444425,0)" xlink:href="#Y"/><use transform="matrix(0.008888888888888887,0,0,0.008888888888888887,47.94666666666665,0)" xlink:href="#ap"/><use transform="matrix(0.008888888888888887,0,0,0.008888888888888887,53.013333333333314,0)" xlink:href="#aw"/><use transform="matrix(0.008888888888888887,0,0,0.008888888888888887,62.84444444444443,0)" xlink:href="#aa"/><use transform="matrix(0.008888888888888887,0,0,0.008888888888888887,67.91111111111108,0)" xlink:href="#ab"/><use transform="matrix(0.008888888888888887,0,0,0.008888888888888887,78.22222222222219,0)" xlink:href="#ad"/></g><g id="A"><use transform="matrix(0.008888888888888887,0,0,0.008888888888888887,0,0)" xlink:href="#aa"/><use transform="matrix(0.008888888888888887,0,0,0.008888888888888887,5.0666666666666655,0)" xlink:href="#ab"/><use transform="matrix(0.008888888888888887,0,0,0.008888888888888887,15.377777777777773,0)" xlink:href="#aq"/><use transform="matrix(0.008888888888888887,0,0,0.008888888888888887,21.813333333333325,0)" xlink:href="#Y"/><use transform="matrix(0.008888888888888887,0,0,0.008888888888888887,28.977777777777767,0)" xlink:href="#ae"/><use transform="matrix(0.008888888888888887,0,0,0.008888888888888887,38.55999999999998,0)" xlink:href="#ai"/><use transform="matrix(0.008888888888888887,0,0,0.008888888888888887,46.38222222222221,0)" xlink:href="#X"/><use transform="matrix(0.008888888888888887,0,0,0.008888888888888887,53.49333333333332,0)" xlink:href="#Y"/><use transform="matrix(0.008888888888888887,0,0,0.008888888888888887,60.83555555555554,0)" xlink:href="#ar"/><use transform="matrix(0.008888888888888887,0,0,0.008888888888888887,71.14666666666665,0)" xlink:href="#aj"/><use transform="matrix(0.008888888888888887,0,0,0.008888888888888887,79.78666666666665,0)" xlink:href="#X"/><use transform="matrix(0.008888888888888887,0,0,0.008888888888888887,86.89777777777776,0)" xlink:href="#ar"/><use transform="matrix(0.008888888888888887,0,0,0.008888888888888887,97.20888888888886,0)" xlink:href="#Y"/><use transform="matrix(0.008888888888888887,0,0,0.008888888888888887,104.55111111111108,0)" xlink:href="#W"/></g><g id="B"><use transform="matrix(0.008888888888888887,0,0,0.008888888888888887,0,0)" xlink:href="#ag"/><use transform="matrix(0.008888888888888887,0,0,0.008888888888888887,11.34222222222222,0)" xlink:href="#ar"/><use transform="matrix(0.008888888888888887,0,0,0.008888888888888887,21.65333333333333,0)" xlink:href="#Y"/><use transform="matrix(0.008888888888888887,0,0,0.008888888888888887,28.995555555555544,0)" xlink:href="#aj"/><use transform="matrix(0.008888888888888887,0,0,0.008888888888888887,37.63555555555555,0)" xlink:href="#ah"/><use transform="matrix(0.008888888888888887,0,0,0.008888888888888887,47.94666666666666,0)" xlink:href="#ae"/><use transform="matrix(0.008888888888888887,0,0,0.008888888888888887,57.52888888888888,0)" xlink:href="#ai"/><use transform="matrix(0.008888888888888887,0,0,0.008888888888888887,65.3511111111111,0)" xlink:href="#W"/></g><path fill="#fff" d="M458-270h540V0H120v-1457h338v1187" id="aB"/><g id="C"><use transform="matrix(0.008888888888888887,0,0,0.008888888888888887,0,0)" xlink:href="#aB"/><use transform="matrix(0.008888888888888887,0,0,0.008888888888888887,9.226666666666665,0)" xlink:href="#aa"/><use transform="matrix(0.008888888888888887,0,0,0.008888888888888887,14.293333333333328,0)" xlink:href="#aj"/><use transform="matrix(0.008888888888888887,0,0,0.008888888888888887,22.93333333333333,0)" xlink:href="#W"/><use transform="matrix(0.008888888888888887,0,0,0.008888888888888887,32.60444444444444,0)" xlink:href="#ab"/><use transform="matrix(0.008888888888888887,0,0,0.008888888888888887,42.91555555555555,0)" xlink:href="#aj"/><use transform="matrix(0.008888888888888887,0,0,0.008888888888888887,51.55555555555555,0)" xlink:href="#W"/><use transform="matrix(0.008888888888888887,0,0,0.008888888888888887,61.22666666666666,0)" xlink:href="#ai"/></g><g id="D"><use transform="matrix(0.008888888888888887,0,0,0.008888888888888887,0,0)" xlink:href="#af"/><use transform="matrix(0.008888888888888887,0,0,0.008888888888888887,10.311111111111108,0)" xlink:href="#Y"/></g><path fill="#fff" d="M524-252c120-1 200-49 194-169-8-162-195-164-324-209-183-64-330-162-324-410 5-208 127-332 287-396 178-72 447-26 571 54 32 21 62 40 88 64l-84 157c-19 43-73 61-124 33-64-36-131-79-234-79-114 0-188 47-188 150 0 109 114 131 206 161 219 72 447 139 444 429-3 234-123 379-300 445-265 98-584-9-722-154l100-158c22-40 88-51 134-21 74 48 151 104 276 103" id="aC"/><g id="E"><use transform="matrix(0.008888888888888887,0,0,0.008888888888888887,0,0)" xlink:href="#aC"/><use transform="matrix(0.008888888888888887,0,0,0.008888888888888887,9.635555555555554,0)" xlink:href="#ae"/><use transform="matrix(0.008888888888888887,0,0,0.008888888888888887,19.217777777777776,0)" xlink:href="#ae"/><use transform="matrix(0.008888888888888887,0,0,0.008888888888888887,28.799999999999997,0)" xlink:href="#aC"/></g><g id="F"><use transform="matrix(0.008888888888888887,0,0,0.008888888888888887,0,0)" xlink:href="#au"/><use transform="matrix(0.008888888888888887,0,0,0.008888888888888887,5.688888888888888,0)" xlink:href="#ab"/><use transform="matrix(0.008888888888888887,0,0,0.008888888888888887,15.999999999999996,0)" xlink:href="#ai"/><use transform="matrix(0.008888888888888887,0,0,0.008888888888888887,23.82222222222222,0)" xlink:href="#X"/><use transform="matrix(0.008888888888888887,0,0,0.008888888888888887,30.933333333333326,0)" xlink:href="#ae"/><use transform="matrix(0.008888888888888887,0,0,0.008888888888888887,40.51555555555555,0)" xlink:href="#ap"/><use transform="matrix(0.008888888888888887,0,0,0.008888888888888887,45.582222222222214,0)" xlink:href="#ap"/></g><use transform="matrix(0.008888888888888887,0,0,0.008888888888888887,0,0)" xlink:href="#al" id="G"/><g id="H"><use transform="matrix(0.008888888888888887,0,0,0.008888888888888887,0,0)" xlink:href="#aC"/><use transform="matrix(0.008888888888888887,0,0,0.008888888888888887,9.635555555555554,0)" xlink:href="#W"/><use transform="matrix(0.008888888888888887,0,0,0.008888888888888887,19.30666666666666,0)" xlink:href="#X"/><use transform="matrix(0.008888888888888887,0,0,0.008888888888888887,26.417777777777776,0)" xlink:href="#ar"/><use transform="matrix(0.008888888888888887,0,0,0.008888888888888887,36.72888888888888,0)" xlink:href="#ao"/></g><g id="I"><use transform="matrix(0.008888888888888887,0,0,0.008888888888888887,0,0)" xlink:href="#an"/><use transform="matrix(0.008888888888888887,0,0,0.008888888888888887,11.82222222222222,0)" xlink:href="#W"/><use transform="matrix(0.008888888888888887,0,0,0.008888888888888887,21.49333333333333,0)" xlink:href="#aA"/><use transform="matrix(0.008888888888888887,0,0,0.008888888888888887,31.804444444444435,0)" xlink:href="#W"/><use transform="matrix(0.008888888888888887,0,0,0.008888888888888887,41.475555555555545,0)" xlink:href="#ai"/><use transform="matrix(0.008888888888888887,0,0,0.008888888888888887,49.29777777777777,0)" xlink:href="#aa"/><use transform="matrix(0.008888888888888887,0,0,0.008888888888888887,54.36444444444443,0)" xlink:href="#ad"/><use transform="matrix(0.008888888888888887,0,0,0.008888888888888887,63.662222222222205,0)" xlink:href="#ab"/></g><path fill="#fff" d="M1476 0h-262c-58 1-97-31-112-73l-86-254H462L376-73C363-36 320 0 266 0H2l564-1457h346zM540-557h398c-66-202-136-394-199-600-61 210-134 396-199 600" id="aD"/><g id="J"><use transform="matrix(0.008888888888888887,0,0,0.008888888888888887,0,0)" xlink:href="#aD"/><use transform="matrix(0.008888888888888887,0,0,0.008888888888888887,13.10222222222222,0)" xlink:href="#ao"/><use transform="matrix(0.008888888888888887,0,0,0.008888888888888887,23.377777777777773,0)" xlink:href="#ao"/></g><use transform="matrix(0.008888888888888887,0,0,0.008888888888888887,0,0)" xlink:href="#as" id="K"/><g id="L"><use transform="matrix(0.008888888888888887,0,0,0.008888888888888887,0,0)" xlink:href="#au"/><use transform="matrix(0.008888888888888887,0,0,0.008888888888888887,5.688888888888888,0)" xlink:href="#ab"/><use transform="matrix(0.008888888888888887,0,0,0.008888888888888887,15.999999999999996,0)" xlink:href="#aq"/><use transform="matrix(0.008888888888888887,0,0,0.008888888888888887,22.435555555555553,0)" xlink:href="#Y"/><use transform="matrix(0.008888888888888887,0,0,0.008888888888888887,29.599999999999994,0)" xlink:href="#ae"/><use transform="matrix(0.008888888888888887,0,0,0.008888888888888887,39.182222222222215,0)" xlink:href="#ai"/><use transform="matrix(0.008888888888888887,0,0,0.008888888888888887,47.00444444444444,0)" xlink:href="#X"/><use transform="matrix(0.008888888888888887,0,0,0.008888888888888887,54.115555555555545,0)" xlink:href="#Y"/><use transform="matrix(0.008888888888888887,0,0,0.008888888888888887,61.457777777777764,0)" xlink:href="#ar"/><use transform="matrix(0.008888888888888887,0,0,0.008888888888888887,71.76888888888887,0)" xlink:href="#aj"/><use transform="matrix(0.008888888888888887,0,0,0.008888888888888887,80.40888888888887,0)" xlink:href="#X"/><use transform="matrix(0.008888888888888887,0,0,0.008888888888888887,87.51999999999998,0)" xlink:href="#ar"/><use transform="matrix(0.008888888888888887,0,0,0.008888888888888887,97.8311111111111,0)" xlink:href="#Y"/><use transform="matrix(0.008888888888888887,0,0,0.008888888888888887,105.1733333333333,0)" xlink:href="#W"/></g><g id="M"><use transform="matrix(0.008888888888888887,0,0,0.008888888888888887,0,0)" xlink:href="#aD"/><use transform="matrix(0.008888888888888887,0,0,0.008888888888888887,13.10222222222222,0)" xlink:href="#Y"/><use transform="matrix(0.008888888888888887,0,0,0.008888888888888887,20.444444444444443,0)" xlink:href="#aj"/><use transform="matrix(0.008888888888888887,0,0,0.008888888888888887,29.084444444444443,0)" xlink:href="#ah"/><use transform="matrix(0.008888888888888887,0,0,0.008888888888888887,39.39555555555555,0)" xlink:href="#aa"/><use transform="matrix(0.008888888888888887,0,0,0.008888888888888887,44.462222222222216,0)" xlink:href="#X"/><use transform="matrix(0.008888888888888887,0,0,0.008888888888888887,51.57333333333332,0)" xlink:href="#W"/><use transform="matrix(0.008888888888888887,0,0,0.008888888888888887,61.24444444444443,0)" xlink:href="#aj"/><use transform="matrix(0.008888888888888887,0,0,0.008888888888888887,69.88444444444443,0)" xlink:href="#X"/><use transform="matrix(0.008888888888888887,0,0,0.008888888888888887,76.99555555555554,0)" xlink:href="#ar"/><use transform="matrix(0.008888888888888887,0,0,0.008888888888888887,87.30666666666664,0)" xlink:href="#Y"/><use transform="matrix(0.008888888888888887,0,0,0.008888888888888887,94.64888888888888,0)" xlink:href="#W"/></g><g id="N"><use transform="matrix(0.008888888888888887,0,0,0.008888888888888887,0,0)" xlink:href="#aD"/><use transform="matrix(0.008888888888888887,0,0,0.008888888888888887,13.10222222222222,0)" xlink:href="#ao"/><use transform="matrix(0.008888888888888887,0,0,0.008888888888888887,23.377777777777773,0)" xlink:href="#ao"/></g><g id="O"><use transform="matrix(0.008888888888888887,0,0,0.008888888888888887,0,0)" xlink:href="#av"/><use transform="matrix(0.008888888888888887,0,0,0.008888888888888887,11.679999999999998,0)" xlink:href="#af"/><use transform="matrix(0.008888888888888887,0,0,0.008888888888888887,21.991111111111106,0)" xlink:href="#aA"/><use transform="matrix(0.008888888888888887,0,0,0.008888888888888887,32.30222222222221,0)" xlink:href="#W"/></g><g id="P"><use transform="matrix(0.008888888888888887,0,0,0.008888888888888887,0,0)" xlink:href="#V"/><use transform="matrix(0.008888888888888887,0,0,0.008888888888888887,13.191111111111109,0)" xlink:href="#W"/><use transform="matrix(0.008888888888888887,0,0,0.008888888888888887,22.50666666666666,0)" xlink:href="#ak"/><use transform="matrix(0.008888888888888887,0,0,0.008888888888888887,31.982222222222216,0)" xlink:href="#W"/><use transform="matrix(0.008888888888888887,0,0,0.008888888888888887,41.65333333333332,0)" xlink:href="#ap"/><use transform="matrix(0.008888888888888887,0,0,0.008888888888888887,46.719999999999985,0)" xlink:href="#af"/><use transform="matrix(0.008888888888888887,0,0,0.008888888888888887,57.031111111111095,0)" xlink:href="#ao"/><use transform="matrix(0.008888888888888887,0,0,0.008888888888888887,67.30666666666664,0)" xlink:href="#Z"/><use transform="matrix(0.008888888888888887,0,0,0.008888888888888887,82.6133333333333,0)" xlink:href="#W"/><use transform="matrix(0.008888888888888887,0,0,0.008888888888888887,92.2844444444444,0)" xlink:href="#ab"/><use transform="matrix(0.008888888888888887,0,0,0.008888888888888887,102.5955555555555,0)" xlink:href="#X"/></g><g id="Q"><use transform="matrix(0.008888888888888887,0,0,0.008888888888888887,0,0)" xlink:href="#au"/><use transform="matrix(0.008888888888888887,0,0,0.008888888888888887,5.688888888888888,0)" xlink:href="#ab"/><use transform="matrix(0.008888888888888887,0,0,0.008888888888888887,15.999999999999996,0)" xlink:href="#X"/><use transform="matrix(0.008888888888888887,0,0,0.008888888888888887,23.111111111111107,0)" xlink:href="#W"/><use transform="matrix(0.008888888888888887,0,0,0.008888888888888887,32.78222222222222,0)" xlink:href="#ad"/><use transform="matrix(0.008888888888888887,0,0,0.008888888888888887,42.07999999999999,0)" xlink:href="#Y"/><use transform="matrix(0.008888888888888887,0,0,0.008888888888888887,49.24444444444443,0)" xlink:href="#ae"/><use transform="matrix(0.008888888888888887,0,0,0.008888888888888887,58.826666666666654,0)" xlink:href="#X"/><use transform="matrix(0.008888888888888887,0,0,0.008888888888888887,65.93777777777777,0)" xlink:href="#aa"/><use transform="matrix(0.008888888888888887,0,0,0.008888888888888887,71.00444444444443,0)" xlink:href="#af"/><use transform="matrix(0.008888888888888887,0,0,0.008888888888888887,81.31555555555553,0)" xlink:href="#ab"/></g><path fill="#fff" d="M0-1457h272c59-1 96 30 112 73 107 297 215 592 320 891 13 40 26 82 37 126 17-83 44-165 69-237l280-780c13-37 56-73 110-73h274L890 0H584" id="aE"/><g id="R"><use transform="matrix(0.009999999999999998,0,0,0.009999999999999998,0,0)" xlink:href="#aE"/><use transform="matrix(0.009999999999999998,0,0,0.009999999999999998,13.439999999999998,0)" xlink:href="#ae"/><use transform="matrix(0.009999999999999998,0,0,0.009999999999999998,24.219999999999995,0)" xlink:href="#ap"/><use transform="matrix(0.009999999999999998,0,0,0.009999999999999998,29.919999999999995,0)" xlink:href="#aa"/><use transform="matrix(0.009999999999999998,0,0,0.009999999999999998,35.61999999999999,0)" xlink:href="#aA"/><use transform="matrix(0.009999999999999998,0,0,0.009999999999999998,47.219999999999985,0)" xlink:href="#ae"/><use transform="matrix(0.009999999999999998,0,0,0.009999999999999998,57.99999999999998,0)" xlink:href="#X"/><use transform="matrix(0.009999999999999998,0,0,0.009999999999999998,65.99999999999999,0)" xlink:href="#aa"/><use transform="matrix(0.009999999999999998,0,0,0.009999999999999998,71.69999999999999,0)" xlink:href="#af"/><use transform="matrix(0.009999999999999998,0,0,0.009999999999999998,83.29999999999998,0)" xlink:href="#ab"/></g><g id="S"><use transform="matrix(0.009999999999999998,0,0,0.009999999999999998,0,0)" xlink:href="#ay"/><use transform="matrix(0.009999999999999998,0,0,0.009999999999999998,10.379999999999999,0)" xlink:href="#Y"/><use transform="matrix(0.009999999999999998,0,0,0.009999999999999998,18.439999999999998,0)" xlink:href="#ae"/><use transform="matrix(0.009999999999999998,0,0,0.009999999999999998,29.219999999999995,0)" xlink:href="#ab"/><use transform="matrix(0.009999999999999998,0,0,0.009999999999999998,40.81999999999999,0)" xlink:href="#ai"/><use transform="matrix(0.009999999999999998,0,0,0.009999999999999998,49.61999999999999,0)" xlink:href="#aa"/><use transform="matrix(0.009999999999999998,0,0,0.009999999999999998,55.31999999999999,0)" xlink:href="#X"/><use transform="matrix(0.009999999999999998,0,0,0.009999999999999998,63.31999999999999,0)" xlink:href="#aa"/><use transform="matrix(0.009999999999999998,0,0,0.009999999999999998,69.02,0)" xlink:href="#af"/><use transform="matrix(0.009999999999999998,0,0,0.009999999999999998,80.61999999999999,0)" xlink:href="#ab"/></g><g id="T"><use transform="matrix(0.009999999999999998,0,0,0.009999999999999998,0,0)" xlink:href="#ag"/><use transform="matrix(0.009999999999999998,0,0,0.009999999999999998,12.759999999999998,0)" xlink:href="#Y"/><use transform="matrix(0.009999999999999998,0,0,0.009999999999999998,21.019999999999996,0)" xlink:href="#af"/><use transform="matrix(0.009999999999999998,0,0,0.009999999999999998,32.61999999999999,0)" xlink:href="#aA"/><use transform="matrix(0.009999999999999998,0,0,0.009999999999999998,44.219999999999985,0)" xlink:href="#ar"/><use transform="matrix(0.009999999999999998,0,0,0.009999999999999998,55.81999999999998,0)" xlink:href="#aj"/><use transform="matrix(0.009999999999999998,0,0,0.009999999999999998,65.53999999999998,0)" xlink:href="#X"/><use transform="matrix(0.009999999999999998,0,0,0.009999999999999998,73.53999999999998,0)" xlink:href="#aa"/><use transform="matrix(0.009999999999999998,0,0,0.009999999999999998,79.23999999999998,0)" xlink:href="#af"/><use transform="matrix(0.009999999999999998,0,0,0.009999999999999998,90.83999999999997,0)" xlink:href="#ab"/></g><path fill="#333" d="M1180-1025c0 226-126 347-293 415 47 24 88 57 115 103L1312 0h-306c-57 0-97-21-122-64L642-487c-22-36-42-51-98-52h-86V0H120v-1457h474c339 4 586 108 586 432zm-330 25c0-143-98-206-256-204H458v432h136c160-1 256-72 256-228" id="aF"/><path fill="#333" d="M1024-162C926-48 781 16 578 16 325 16 169-111 94-299c-49-123-59-309-6-439 74-183 225-315 476-315 298 0 466 176 466 475 0 66-3 115-70 115H362c16 155 90 243 244 247 98 2 155-39 218-71 37-18 85-16 110 14zM752-643c-3-120-60-196-182-196-129 0-185 80-205 196h387" id="aG"/><path fill="#333" d="M958-162C862-50 728 16 528 16 297 16 159-117 90-293c-49-124-51-307-4-437 70-194 223-323 484-323 177 0 287 60 380 153-36 45-67 98-109 136-73 33-113-34-174-50-21-5-46-11-77-11-169 4-215 131-220 304-6 205 103 354 302 295 57-17 74-74 140-74 25 0 42 10 56 27" id="aH"/><path fill="#333" d="M366-1016c125-49 306-50 431 0 190 75 313 236 313 495 0 261-123 423-313 499-125 50-306 50-431 0C175-98 50-259 50-521c0-260 126-421 316-495zm4 497c0 183 45 305 212 305 163 0 208-124 208-305 0-182-44-304-208-304-167 0-212 121-212 304" id="aI"/><path fill="#333" d="M612-820c-81 1-134 39-182 81V0H120v-1037h192c70-3 79 59 94 112 74-70 159-128 302-128 236 0 352 157 352 394V0H750v-659c0-96-44-162-138-161" id="aJ"/><path fill="#333" d="M56-725c5-259 241-361 518-318 104 16 188 63 250 124l-70 109c-15 22-27 35-60 35-81 0-126-60-222-60-69 0-122 24-122 85 0 75 88 87 152 109 156 54 328 97 328 304C830-90 649 16 394 16 236 16 110-38 22-112c35-48 58-109 103-146 116-42 152 74 285 65 73-5 130-23 130-90 0-78-87-92-154-113C219-449 52-505 56-725" id="aK"/><path fill="#333" d="M440-1037V0H130v-1037h310zm-154-466c113 0 190 70 190 182 0 111-79 180-190 180-109 0-184-71-184-180 0-110 74-182 184-182" id="aL"/><path fill="#333" d="M494-1057c110-3 175 36 236 85v-525h310V0H848c-79 3-80-75-100-131C671-51 581 16 426 16 225 16 127-123 78-290c-38-128-40-313 4-440 62-181 183-321 412-327zM370-515c0 153 21 293 164 293 98 0 150-43 196-97v-440c-41-45-87-70-162-70-160 0-198 144-198 314" id="aM"/><path fill="#333" d="M768-795c-14 65-88 29-146 29-81 0-145 43-192 130V0H120v-1037c73 2 156-8 222 4 64 11 52 105 69 166 65-96 144-190 283-190 47 0 85 11 114 34" id="aN"/><g id="U"><use transform="matrix(0.008888888888888889,0,0,0.008888888888888889,0,0)" xlink:href="#aF"/><use transform="matrix(0.008888888888888889,0,0,0.008888888888888889,11.822222222222223,0)" xlink:href="#aG"/><use transform="matrix(0.008888888888888889,0,0,0.008888888888888889,21.493333333333332,0)" xlink:href="#aH"/><use transform="matrix(0.008888888888888889,0,0,0.008888888888888889,30.133333333333333,0)" xlink:href="#aI"/><use transform="matrix(0.008888888888888889,0,0,0.008888888888888889,40.44444444444444,0)" xlink:href="#aJ"/><use transform="matrix(0.008888888888888889,0,0,0.008888888888888889,50.75555555555555,0)" xlink:href="#aK"/><use transform="matrix(0.008888888888888889,0,0,0.008888888888888889,58.577777777777776,0)" xlink:href="#aL"/><use transform="matrix(0.008888888888888889,0,0,0.008888888888888889,63.644444444444446,0)" xlink:href="#aM"/><use transform="matrix(0.008888888888888889,0,0,0.008888888888888889,73.95555555555555,0)" xlink:href="#aG"/><use transform="matrix(0.008888888888888889,0,0,0.008888888888888889,83.62666666666668,0)" xlink:href="#aN"/></g></defs></g></svg>