<svg id="Layer_1" data-name="Layer 1" xmlns="http://www.w3.org/2000/svg" width="44.82cm" height="25.99cm" viewBox="0 0 1270.61 736.85"><path d="M270.62,52.5H41.77V309.25c0,27,20.91,48.82,46.71,48.82H317.34V101.31C317.34,74.35,296.42,52.5,270.62,52.5Z" transform="translate(-25.25 -31.66)" fill="#fcd116"/><path d="M254.86,33.83H26V290.59c0,27,20.92,48.81,46.72,48.81H301.57V82.64C301.57,55.68,280.66,33.83,254.86,33.83Z" transform="translate(-25.25 -31.66)" fill="none" stroke="#000520" stroke-miterlimit="10" stroke-width="1.5"/><text transform="translate(46.32 130.84)" font-size="32" font-family="Lato-Regular, Lato"><tspan letter-spacing="-0.02em">P</tspan><tspan x="18.7" y="0">ass</tspan><tspan x="62.32" y="0" letter-spacing="-0.01em">w</tspan><tspan x="87.23" y="0">ör</tspan><tspan x="117.02" y="0" letter-spacing="0em">t</tspan><tspan x="128.42" y="0">e</tspan><tspan x="145.31" y="0" letter-spacing="-0.02em">r</tspan><tspan x="156.29" y="0"> </tspan><tspan x="0" y="38.4">sind nic</tspan><tspan x="106.32" y="38.4" letter-spacing="-0.01em">h</tspan><tspan x="123.95" y="38.4">t meh</tspan><tspan x="204.69" y="38.4" letter-spacing="-0.02em">r</tspan><tspan x="215.66" y="38.4"> </tspan><tspan x="0" y="76.8">aus</tspan><tspan x="47.6" y="76.8" letter-spacing="-0.02em">r</tspan><tspan x="58.59" y="76.8">eichend</tspan></text><path d="M675.76,46.35A147.05,147.05,0,0,0,527.91,192.58l-.81,147,147,.81a147,147,0,0,0,1.62-294.08Z" transform="translate(-25.25 -31.66)" fill="#f8842c"/><path d="M663.88,32.41A147,147,0,0,0,516,178.64l-.81,147,147,.81a147,147,0,0,0,1.62-294.08Z" transform="translate(-25.25 -31.66)" fill="none" stroke="#000520" stroke-miterlimit="10" stroke-width="1.5"/><path d="M586.9,142.85a1.26,1.26,0,0,1-.31.36.71.71,0,0,1-.41.12,1.14,1.14,0,0,1-.64-.27c-.25-.18-.55-.38-.92-.6a7.22,7.22,0,0,0-1.33-.6,5.77,5.77,0,0,0-1.88-.28,5.63,5.63,0,0,0-1.83.28,4,4,0,0,0-1.33.76,3.1,3.1,0,0,0-.81,1.13,3.6,3.6,0,0,0-.27,1.4,2.61,2.61,0,0,0,.47,1.59,3.88,3.88,0,0,0,1.25,1.08,9.52,9.52,0,0,0,1.76.78l2,.68c.69.24,1.37.5,2,.79a7.51,7.51,0,0,1,1.76,1.11,5.15,5.15,0,0,1,1.25,1.65,5.55,5.55,0,0,1,.47,2.4,7.77,7.77,0,0,1-.51,2.83,6.42,6.42,0,0,1-1.5,2.29,6.93,6.93,0,0,1-2.41,1.54,9,9,0,0,1-3.26.56,9.88,9.88,0,0,1-4.06-.81,9.57,9.57,0,0,1-3.12-2.18l.89-1.48a1.28,1.28,0,0,1,.32-.29.7.7,0,0,1,.4-.12.82.82,0,0,1,.47.17c.18.11.38.25.61.42l.76.56a6.59,6.59,0,0,0,1,.56,6.31,6.31,0,0,0,1.25.42,6.46,6.46,0,0,0,1.59.17,6,6,0,0,0,2-.3,4.15,4.15,0,0,0,1.46-.86,3.7,3.7,0,0,0,.92-1.32,4.45,4.45,0,0,0,.32-1.71,2.89,2.89,0,0,0-.47-1.7,3.94,3.94,0,0,0-1.24-1.12,9.23,9.23,0,0,0-1.76-.76l-2-.64a19.82,19.82,0,0,1-2-.76,6.23,6.23,0,0,1-1.75-1.12,5,5,0,0,1-1.25-1.72,6.25,6.25,0,0,1,1.38-6.92,6.84,6.84,0,0,1,2.22-1.4,8,8,0,0,1,3-.53,9.51,9.51,0,0,1,3.49.61,8.17,8.17,0,0,1,2.78,1.76Z" transform="translate(-25.25 -31.66)"/><path d="M603,148.86a1.18,1.18,0,0,1-.26.28.58.58,0,0,1-.35.09.93.93,0,0,1-.53-.2c-.19-.13-.42-.28-.71-.44a6.13,6.13,0,0,0-1-.44,5,5,0,0,0-1.51-.2,4.85,4.85,0,0,0-2.11.43A4,4,0,0,0,595,149.6a5.56,5.56,0,0,0-.93,1.94,9.45,9.45,0,0,0-.31,2.54,9.14,9.14,0,0,0,.34,2.62,5.57,5.57,0,0,0,.95,1.92,4.16,4.16,0,0,0,1.49,1.18,4.58,4.58,0,0,0,2,.41,4.9,4.9,0,0,0,1.71-.25,4.78,4.78,0,0,0,1.11-.55c.29-.2.54-.39.74-.55a.88.88,0,0,1,.58-.25.63.63,0,0,1,.55.27l.8,1a5.82,5.82,0,0,1-1.21,1.12,7.39,7.39,0,0,1-1.44.78,8,8,0,0,1-1.63.45,9.82,9.82,0,0,1-1.72.15,7.15,7.15,0,0,1-2.83-.56,6.51,6.51,0,0,1-2.26-1.63,7.76,7.76,0,0,1-1.51-2.61,11.64,11.64,0,0,1,0-6.88,7.67,7.67,0,0,1,1.47-2.65,6.77,6.77,0,0,1,2.39-1.74,8.1,8.1,0,0,1,3.26-.62,7.63,7.63,0,0,1,3,.55,7.25,7.25,0,0,1,2.31,1.56Z" transform="translate(-25.25 -31.66)"/><path d="M609.9,148.14a9,9,0,0,1,2.31-1.76,6.3,6.3,0,0,1,2.91-.65,5.93,5.93,0,0,1,2.35.44,4.5,4.5,0,0,1,1.69,1.25,5.46,5.46,0,0,1,1,1.94,8.32,8.32,0,0,1,.35,2.51v10.32h-2.86V151.87a4.34,4.34,0,0,0-.84-2.85,3.11,3.11,0,0,0-2.55-1,4.75,4.75,0,0,0-2.36.61,7.6,7.6,0,0,0-2,1.65v11.93H607V138.62h2.86Z" transform="translate(-25.25 -31.66)"/><path d="M638.22,146v16.21h-1.69a.72.72,0,0,1-.77-.59l-.22-1.74a9.18,9.18,0,0,1-2.37,1.88,6.28,6.28,0,0,1-3,.71,5.88,5.88,0,0,1-2.34-.44,4.66,4.66,0,0,1-1.71-1.24,5.22,5.22,0,0,1-1-1.94,8.56,8.56,0,0,1-.34-2.51V146h2.84v10.34a4.27,4.27,0,0,0,.85,2.85,3.15,3.15,0,0,0,2.56,1,4.82,4.82,0,0,0,2.36-.6,7.64,7.64,0,0,0,2-1.66V146Z" transform="translate(-25.25 -31.66)"/><path d="M647.71,162.45a3.92,3.92,0,0,1-3-1.07,4.29,4.29,0,0,1-1-3.09v-9.92h-2a.67.67,0,0,1-.44-.15.62.62,0,0,1-.17-.48v-1.13l2.66-.34.65-5a.69.69,0,0,1,.22-.39.63.63,0,0,1,.44-.15h1.44v5.58h4.68v2.07h-4.68v9.73a2.07,2.07,0,0,0,.49,1.52,1.73,1.73,0,0,0,1.28.49,2.28,2.28,0,0,0,.78-.12,3.84,3.84,0,0,0,.57-.26l.4-.27a.58.58,0,0,1,.3-.12.51.51,0,0,1,.4.28l.83,1.36a5.26,5.26,0,0,1-1.77,1.08A6.1,6.1,0,0,1,647.71,162.45Z" transform="translate(-25.25 -31.66)"/><path d="M665.39,147.2a1.7,1.7,0,0,1-.1.59,1.62,1.62,0,0,1-.28.5L656.22,160h8.87v2.22H652.88V161a1.42,1.42,0,0,1,.1-.49,2.14,2.14,0,0,1,.28-.54l8.84-11.76h-8.72V146h12Z" transform="translate(-25.25 -31.66)"/><path d="M690,146l-6.6,16.21h-2.56L674.21,146h2.32a.88.88,0,0,1,.57.18,1,1,0,0,1,.31.42L681.52,157c.13.39.24.78.34,1.15l.27,1.12c.08-.37.17-.75.27-1.12s.21-.76.35-1.15l4.16-10.43a1,1,0,0,1,.32-.43.88.88,0,0,1,.53-.17Z" transform="translate(-25.25 -31.66)"/><path d="M699,145.73a8.33,8.33,0,0,1,3.2.59,7,7,0,0,1,2.43,1.68,7.33,7.33,0,0,1,1.55,2.63,11.53,11.53,0,0,1,0,6.91,7.29,7.29,0,0,1-1.55,2.62,6.69,6.69,0,0,1-2.43,1.67,8.33,8.33,0,0,1-3.2.59,8.44,8.44,0,0,1-3.22-.59,6.64,6.64,0,0,1-2.44-1.67,7.44,7.44,0,0,1-1.55-2.62,11.53,11.53,0,0,1,0-6.91,7.48,7.48,0,0,1,1.55-2.63,6.91,6.91,0,0,1,2.44-1.68A8.44,8.44,0,0,1,699,145.73Zm0,14.46a4.15,4.15,0,0,0,3.59-1.61,7.41,7.41,0,0,0,1.18-4.48,7.54,7.54,0,0,0-1.18-4.52A4.18,4.18,0,0,0,699,148a5.14,5.14,0,0,0-2.12.41,4,4,0,0,0-1.5,1.2,5.47,5.47,0,0,0-.9,1.93,10.31,10.31,0,0,0-.29,2.59,7.34,7.34,0,0,0,1.19,4.48A4.19,4.19,0,0,0,699,160.19Z" transform="translate(-25.25 -31.66)"/><path d="M713,148.34a9.47,9.47,0,0,1,1.12-1.08,7.76,7.76,0,0,1,1.26-.82,6.61,6.61,0,0,1,1.41-.53,6.76,6.76,0,0,1,1.6-.18,5.93,5.93,0,0,1,2.35.44,4.42,4.42,0,0,1,1.69,1.25,5.47,5.47,0,0,1,1,1.94,8.65,8.65,0,0,1,.35,2.51v10.32h-2.87V151.87a4.34,4.34,0,0,0-.84-2.85,3.11,3.11,0,0,0-2.55-1,4.75,4.75,0,0,0-2.36.61,7.56,7.56,0,0,0-2,1.65v11.93H710.3V146H712a.71.71,0,0,1,.75.6Z" transform="translate(-25.25 -31.66)"/><path d="M584,198.13a6.39,6.39,0,0,0,2.54-.48,5.31,5.31,0,0,0,1.9-1.35,5.88,5.88,0,0,0,1.18-2.06,8.21,8.21,0,0,0,.41-2.64V177.66h3.09V191.6a10.5,10.5,0,0,1-.63,3.68,8.81,8.81,0,0,1-1.81,2.94,8.36,8.36,0,0,1-2.88,1.94,10.69,10.69,0,0,1-7.61,0,8.24,8.24,0,0,1-4.7-4.88,10.5,10.5,0,0,1-.63-3.68V177.66H578v13.92a8,8,0,0,0,.41,2.64,5.86,5.86,0,0,0,1.18,2.07,5.38,5.38,0,0,0,1.91,1.35A6.27,6.27,0,0,0,584,198.13Z" transform="translate(-25.25 -31.66)"/><path d="M600.24,186.74a9.47,9.47,0,0,1,1.12-1.08,7.35,7.35,0,0,1,1.26-.82,6.74,6.74,0,0,1,1.4-.53,6.91,6.91,0,0,1,1.61-.18,5.93,5.93,0,0,1,2.35.44,4.5,4.5,0,0,1,1.69,1.25,5.3,5.3,0,0,1,1,1.94,8.32,8.32,0,0,1,.36,2.51v10.32h-2.87V190.27a4.34,4.34,0,0,0-.84-2.85,3.11,3.11,0,0,0-2.55-1,4.75,4.75,0,0,0-2.36.61,7.41,7.41,0,0,0-2,1.65v11.93h-2.87V184.38h1.71a.71.71,0,0,1,.76.6Z" transform="translate(-25.25 -31.66)"/><path d="M620.16,200.85a3.92,3.92,0,0,1-2.95-1.07,4.29,4.29,0,0,1-1-3.09v-9.92h-2a.64.64,0,0,1-.43-.15.62.62,0,0,1-.17-.48V185l2.65-.34.66-5a.68.68,0,0,1,.21-.39.65.65,0,0,1,.44-.15H619v5.58h4.68v2.07H619v9.73a2.07,2.07,0,0,0,.49,1.52,1.73,1.73,0,0,0,1.28.49,2.28,2.28,0,0,0,.78-.12,3.29,3.29,0,0,0,.56-.26l.41-.27a.53.53,0,0,1,.3-.12.51.51,0,0,1,.4.28l.83,1.36a5.21,5.21,0,0,1-1.78,1.08A6,6,0,0,1,620.16,200.85Z" transform="translate(-25.25 -31.66)"/><path d="M639.73,198.32a5.18,5.18,0,0,1-1.26,1.11,7.74,7.74,0,0,1-1.58.78,10.1,10.1,0,0,1-1.74.45,9.71,9.71,0,0,1-1.77.16,8.22,8.22,0,0,1-3.1-.57,6.77,6.77,0,0,1-2.45-1.67,7.81,7.81,0,0,1-1.61-2.71,11.08,11.08,0,0,1-.57-3.71,9.37,9.37,0,0,1,.52-3.17,7.38,7.38,0,0,1,1.5-2.55,7,7,0,0,1,2.38-1.7,7.83,7.83,0,0,1,3.17-.61,7.15,7.15,0,0,1,2.69.49,6.11,6.11,0,0,1,2.15,1.4,6.57,6.57,0,0,1,1.41,2.28,8.64,8.64,0,0,1,.52,3.08,1.79,1.79,0,0,1-.15.89.59.59,0,0,1-.54.23H628.47a9.46,9.46,0,0,0,.42,2.67,5.22,5.22,0,0,0,1.05,1.89,4.13,4.13,0,0,0,1.6,1.14,5.51,5.51,0,0,0,2.08.38,6.32,6.32,0,0,0,1.85-.25,9.62,9.62,0,0,0,1.33-.54c.37-.19.69-.37.94-.53a1.19,1.19,0,0,1,.64-.25.63.63,0,0,1,.55.27Zm-2.3-7.6a5.84,5.84,0,0,0-.28-1.82,4.17,4.17,0,0,0-.82-1.42,3.64,3.64,0,0,0-1.31-.93,4.9,4.9,0,0,0-5,.87,5.57,5.57,0,0,0-1.48,3.3Z" transform="translate(-25.25 -31.66)"/><path d="M646.18,187.63a7.3,7.3,0,0,1,1.89-2.6,4.11,4.11,0,0,1,2.73-.93,3.93,3.93,0,0,1,1,.11,2.58,2.58,0,0,1,.85.35l-.21,2.13a.46.46,0,0,1-.48.4,3,3,0,0,1-.66-.1,4.81,4.81,0,0,0-1-.09,3.84,3.84,0,0,0-1.36.22,3.34,3.34,0,0,0-1.08.66,5,5,0,0,0-.84,1.09,9.26,9.26,0,0,0-.68,1.48v10.24h-2.87V184.38h1.63a.92.92,0,0,1,.65.18,1.21,1.21,0,0,1,.24.61Z" transform="translate(-25.25 -31.66)"/><path d="M657.81,186.74a8.76,8.76,0,0,1,1.12-1.08,7.27,7.27,0,0,1,1.25-.82,7,7,0,0,1,1.41-.53,6.84,6.84,0,0,1,1.61-.18,5.93,5.93,0,0,1,2.35.44,4.5,4.5,0,0,1,1.69,1.25,5.46,5.46,0,0,1,1,1.94,8.32,8.32,0,0,1,.35,2.51v10.32h-2.86V190.27a4.34,4.34,0,0,0-.84-2.85,3.11,3.11,0,0,0-2.55-1A4.75,4.75,0,0,0,660,187a7.41,7.41,0,0,0-2,1.65v11.93h-2.87V184.38h1.71a.71.71,0,0,1,.76.6Z" transform="translate(-25.25 -31.66)"/><path d="M686.13,198.32a5.23,5.23,0,0,1-1.27,1.11,7.42,7.42,0,0,1-1.57.78,10.1,10.1,0,0,1-1.74.45,9.71,9.71,0,0,1-1.77.16,8.22,8.22,0,0,1-3.1-.57,6.77,6.77,0,0,1-2.45-1.67,7.81,7.81,0,0,1-1.61-2.71,11.08,11.08,0,0,1-.57-3.71,9.37,9.37,0,0,1,.52-3.17,7.38,7.38,0,0,1,1.5-2.55,7,7,0,0,1,2.38-1.7,7.83,7.83,0,0,1,3.17-.61,7.15,7.15,0,0,1,2.69.49,6.11,6.11,0,0,1,2.15,1.4,6.57,6.57,0,0,1,1.41,2.28,8.65,8.65,0,0,1,.51,3.08,1.82,1.82,0,0,1-.14.89.6.6,0,0,1-.54.23H674.86a9.81,9.81,0,0,0,.43,2.67,5.22,5.22,0,0,0,1.05,1.89,4.13,4.13,0,0,0,1.6,1.14,5.51,5.51,0,0,0,2.08.38,6.2,6.2,0,0,0,1.84-.25,9.29,9.29,0,0,0,1.34-.54c.37-.19.69-.37.94-.53a1.19,1.19,0,0,1,.64-.25.63.63,0,0,1,.55.27Zm-2.3-7.6a5.84,5.84,0,0,0-.28-1.82,4.17,4.17,0,0,0-.82-1.42,3.69,3.69,0,0,0-1.3-.93,4.44,4.44,0,0,0-1.75-.33,4.38,4.38,0,0,0-3.24,1.2,5.57,5.57,0,0,0-1.48,3.3Z" transform="translate(-25.25 -31.66)"/><path d="M692.74,186.54a8.76,8.76,0,0,1,2.3-1.76,6.3,6.3,0,0,1,2.91-.65,5.93,5.93,0,0,1,2.35.44,4.5,4.5,0,0,1,1.69,1.25,5.3,5.3,0,0,1,1,1.94,8.32,8.32,0,0,1,.36,2.51v10.32h-2.87V190.27a4.34,4.34,0,0,0-.84-2.85,3.11,3.11,0,0,0-2.55-1,4.75,4.75,0,0,0-2.36.61,7.41,7.41,0,0,0-2,1.65v11.93h-2.87V177h2.87Z" transform="translate(-25.25 -31.66)"/><path d="M707.73,200.59V184.38h1.71a.7.7,0,0,1,.75.6l.21,1.66a8.2,8.2,0,0,1,2-1.81,4.74,4.74,0,0,1,2.59-.7,3.81,3.81,0,0,1,2.65.91,5.21,5.21,0,0,1,1.46,2.46,5.11,5.11,0,0,1,2.14-2.57,5.26,5.26,0,0,1,1.47-.61,6.42,6.42,0,0,1,1.57-.19,5.88,5.88,0,0,1,2.29.41,4.52,4.52,0,0,1,1.69,1.19,5.07,5.07,0,0,1,1.06,1.93,8.35,8.35,0,0,1,.37,2.61v10.32h-2.86V190.27a4.41,4.41,0,0,0-.83-2.89,3,3,0,0,0-2.4-1,3.55,3.55,0,0,0-1.34.25,3.15,3.15,0,0,0-1.11.73,3.33,3.33,0,0,0-.76,1.2,4.64,4.64,0,0,0-.28,1.69v10.32h-2.87V190.27a4.55,4.55,0,0,0-.78-2.91,2.77,2.77,0,0,0-2.29-1,3.58,3.58,0,0,0-2,.57,6.43,6.43,0,0,0-1.65,1.54v12.08Z" transform="translate(-25.25 -31.66)"/><path d="M747.2,198.32a5.18,5.18,0,0,1-1.26,1.11,7.49,7.49,0,0,1-1.58.78,10.1,10.1,0,0,1-1.74.45,9.71,9.71,0,0,1-1.77.16,8.26,8.26,0,0,1-3.1-.57,6.77,6.77,0,0,1-2.45-1.67,7.64,7.64,0,0,1-1.6-2.71,10.82,10.82,0,0,1-.58-3.71,9.37,9.37,0,0,1,.52-3.17,7.54,7.54,0,0,1,1.5-2.55,7,7,0,0,1,2.38-1.7,7.83,7.83,0,0,1,3.17-.61,7.15,7.15,0,0,1,2.69.49,6,6,0,0,1,2.15,1.4,6.57,6.57,0,0,1,1.41,2.28,8.43,8.43,0,0,1,.52,3.08,1.79,1.79,0,0,1-.15.89.58.58,0,0,1-.54.23H735.94a9.46,9.46,0,0,0,.42,2.67,5.22,5.22,0,0,0,1,1.89,4.2,4.2,0,0,0,1.6,1.14,5.51,5.51,0,0,0,2.08.38,6.32,6.32,0,0,0,1.85-.25,9.62,9.62,0,0,0,1.33-.54,10.22,10.22,0,0,0,.94-.53,1.21,1.21,0,0,1,.65-.25.63.63,0,0,1,.54.27Zm-2.3-7.6a5.84,5.84,0,0,0-.28-1.82,4.17,4.17,0,0,0-.82-1.42,3.69,3.69,0,0,0-1.3-.93,4.44,4.44,0,0,0-1.75-.33,4.38,4.38,0,0,0-3.24,1.2,5.57,5.57,0,0,0-1.48,3.3Z" transform="translate(-25.25 -31.66)"/><path d="M753.63,186.74a9.47,9.47,0,0,1,1.12-1.08,7.76,7.76,0,0,1,1.26-.82,6.61,6.61,0,0,1,1.41-.53,6.76,6.76,0,0,1,1.6-.18,5.93,5.93,0,0,1,2.35.44,4.42,4.42,0,0,1,1.69,1.25,5.47,5.47,0,0,1,1,1.94,8.65,8.65,0,0,1,.35,2.51v10.32h-2.86V190.27a4.4,4.4,0,0,0-.84-2.85,3.15,3.15,0,0,0-2.56-1,4.75,4.75,0,0,0-2.36.61,7.56,7.56,0,0,0-2,1.65v11.93h-2.87V184.38h1.72a.71.71,0,0,1,.75.6Z" transform="translate(-25.25 -31.66)"/><path d="M778.24,187.06a.63.63,0,0,1-.59.35,1.14,1.14,0,0,1-.55-.18c-.2-.11-.45-.25-.74-.39a6.83,6.83,0,0,0-1.05-.4,5.05,5.05,0,0,0-1.44-.18,4.28,4.28,0,0,0-1.29.18,3.07,3.07,0,0,0-1,.5,2.3,2.3,0,0,0-.62.75,1.92,1.92,0,0,0-.22.92,1.55,1.55,0,0,0,.36,1,3.09,3.09,0,0,0,.95.72,8.44,8.44,0,0,0,1.35.53c.5.16,1,.32,1.54.5s1,.37,1.55.58a5.73,5.73,0,0,1,1.34.8,3.64,3.64,0,0,1,.95,1.18,3.58,3.58,0,0,1,.36,1.67,5.2,5.2,0,0,1-.4,2.07,4.4,4.4,0,0,1-1.18,1.65,5.62,5.62,0,0,1-1.92,1.1,7.82,7.82,0,0,1-2.63.4,8.35,8.35,0,0,1-3.07-.55,7.81,7.81,0,0,1-2.33-1.42l.67-1.09a1,1,0,0,1,.3-.32.88.88,0,0,1,.45-.11,1.17,1.17,0,0,1,.61.22c.21.15.47.32.78.5a5.81,5.81,0,0,0,1.11.5,5.06,5.06,0,0,0,1.63.22,4.25,4.25,0,0,0,1.45-.22,3,3,0,0,0,1-.58,2.3,2.3,0,0,0,.61-.85,2.69,2.69,0,0,0,.2-1,1.68,1.68,0,0,0-.36-1.11,3,3,0,0,0-1-.76,9.49,9.49,0,0,0-1.35-.54c-.51-.15-1-.32-1.56-.49s-1-.36-1.55-.58a5.44,5.44,0,0,1-1.35-.83,3.72,3.72,0,0,1-1-1.22,3.93,3.93,0,0,1-.36-1.77,4.38,4.38,0,0,1,.38-1.78,4.54,4.54,0,0,1,1.12-1.51,5.67,5.67,0,0,1,1.81-1,7.41,7.41,0,0,1,2.45-.38,7.85,7.85,0,0,1,2.87.5,6.82,6.82,0,0,1,2.2,1.39Z" transform="translate(-25.25 -31.66)"/><path d="M782.4,189.79h7.9v2.42h-7.9Z" transform="translate(-25.25 -31.66)"/><path d="M587.9,215.42V239h-1.69a.72.72,0,0,1-.77-.59l-.26-2a8.84,8.84,0,0,1-2.36,2,6.07,6.07,0,0,1-3.08.77,5.78,5.78,0,0,1-2.52-.54,5.18,5.18,0,0,1-1.94-1.58,7.51,7.51,0,0,1-1.23-2.59,13.23,13.23,0,0,1-.43-3.57,11.17,11.17,0,0,1,.48-3.33,8.37,8.37,0,0,1,1.37-2.68,6.29,6.29,0,0,1,5.14-2.43,5.86,5.86,0,0,1,2.55.5,6.28,6.28,0,0,1,1.9,1.4v-9Zm-2.84,11.22a4.77,4.77,0,0,0-1.73-1.5,5,5,0,0,0-2.08-.42,4.07,4.07,0,0,0-3.47,1.62,7.52,7.52,0,0,0-1.22,4.6,11.9,11.9,0,0,0,.27,2.72,5.17,5.17,0,0,0,.8,1.85,3.25,3.25,0,0,0,1.3,1.07,4.35,4.35,0,0,0,1.74.33,4.6,4.6,0,0,0,2.46-.64,7,7,0,0,0,1.93-1.81Z" transform="translate(-25.25 -31.66)"/><path d="M592,225.07a9.19,9.19,0,0,1,2.9-1.93,8.86,8.86,0,0,1,3.44-.64,6.28,6.28,0,0,1,2.41.44,5,5,0,0,1,1.78,1.25,5.41,5.41,0,0,1,1.09,1.94,8.23,8.23,0,0,1,.37,2.49V239h-1.27a1.25,1.25,0,0,1-.64-.13.9.9,0,0,1-.35-.54l-.32-1.54a13.94,13.94,0,0,1-1.25,1.05,6.91,6.91,0,0,1-2.71,1.25,8,8,0,0,1-1.69.17A5.66,5.66,0,0,1,594,239a4,4,0,0,1-1.45-.79,3.69,3.69,0,0,1-1-1.33,4.7,4.7,0,0,1-.36-1.92,3.55,3.55,0,0,1,.53-1.84,4.55,4.55,0,0,1,1.71-1.58,11.42,11.42,0,0,1,3.09-1.13,23.66,23.66,0,0,1,4.67-.5v-1.27a4.29,4.29,0,0,0-.82-2.85,2.91,2.91,0,0,0-2.38-1,5.33,5.33,0,0,0-1.77.26,7,7,0,0,0-1.23.6l-.9.59a1.31,1.31,0,0,1-.74.26.84.84,0,0,1-.5-.15,1.6,1.6,0,0,1-.35-.38Zm9.2,6.63a22.68,22.68,0,0,0-3.35.31,9.19,9.19,0,0,0-2.26.65,3.06,3.06,0,0,0-1.26.94,2,2,0,0,0-.39,1.22,2.84,2.84,0,0,0,.2,1.1,2.09,2.09,0,0,0,.57.76,2.28,2.28,0,0,0,.85.43,4,4,0,0,0,1.05.14,6,6,0,0,0,1.38-.15,5.32,5.32,0,0,0,1.17-.44,7.12,7.12,0,0,0,1.06-.69,10.27,10.27,0,0,0,1-.91Z" transform="translate(-25.25 -31.66)"/><path d="M613.09,239.25a3.91,3.91,0,0,1-3-1.07,4.29,4.29,0,0,1-1-3.09v-9.92h-2a.64.64,0,0,1-.43-.15.59.59,0,0,1-.17-.48v-1.13l2.65-.34.66-5a.68.68,0,0,1,.21-.39.65.65,0,0,1,.44-.15H612v5.58h4.69v2.07H612v9.73a2.08,2.08,0,0,0,.5,1.52,1.73,1.73,0,0,0,1.28.49,2.28,2.28,0,0,0,.78-.12,4.21,4.21,0,0,0,.56-.26l.41-.27a.53.53,0,0,1,.3-.12.51.51,0,0,1,.4.28l.83,1.36a5.21,5.21,0,0,1-1.78,1.08A6,6,0,0,1,613.09,239.25Z" transform="translate(-25.25 -31.66)"/><path d="M632.66,236.72a5.23,5.23,0,0,1-1.27,1.11,7.42,7.42,0,0,1-1.57.78,10.1,10.1,0,0,1-1.74.45,9.79,9.79,0,0,1-1.77.16,8.22,8.22,0,0,1-3.1-.57,6.77,6.77,0,0,1-2.45-1.67,7.66,7.66,0,0,1-1.61-2.71,11.08,11.08,0,0,1-.57-3.71,9.37,9.37,0,0,1,.52-3.17,7.36,7.36,0,0,1,1.49-2.55,7,7,0,0,1,2.39-1.7,7.83,7.83,0,0,1,3.17-.61,7.19,7.19,0,0,1,2.69.49,6.11,6.11,0,0,1,2.15,1.4,6.57,6.57,0,0,1,1.41,2.28,8.65,8.65,0,0,1,.51,3.08,1.82,1.82,0,0,1-.14.89.6.6,0,0,1-.54.23H621.39a9.81,9.81,0,0,0,.43,2.67,5.22,5.22,0,0,0,1,1.89,4.13,4.13,0,0,0,1.6,1.14,5.47,5.47,0,0,0,2.08.38,6.2,6.2,0,0,0,1.84-.25,9.29,9.29,0,0,0,1.34-.54c.37-.19.68-.37.94-.53a1.19,1.19,0,0,1,.64-.25.63.63,0,0,1,.55.27Zm-2.31-7.6a5.56,5.56,0,0,0-.28-1.82,4.14,4.14,0,0,0-.81-1.42A3.64,3.64,0,0,0,628,225a4.9,4.9,0,0,0-5,.87,5.51,5.51,0,0,0-1.48,3.3Z" transform="translate(-25.25 -31.66)"/><path d="M639.09,225.14a8.76,8.76,0,0,1,1.12-1.08,7,7,0,0,1,1.26-.82,6.74,6.74,0,0,1,1.4-.53,6.91,6.91,0,0,1,1.61-.18,5.93,5.93,0,0,1,2.35.44,4.5,4.5,0,0,1,1.69,1.25,5.46,5.46,0,0,1,1,1.94,8.32,8.32,0,0,1,.36,2.51V239H647V228.67a4.34,4.34,0,0,0-.84-2.85,3.11,3.11,0,0,0-2.55-1,4.75,4.75,0,0,0-2.36.61,7.6,7.6,0,0,0-2,1.65V239H636.4V222.78h1.71a.71.71,0,0,1,.76.6Z" transform="translate(-25.25 -31.66)"/><path d="M1263.91,91.32H993.7c-17.64,0-32,17.3-32,38.64V319.25h302.16c17.65,0,31.95-17.3,31.95-38.64V91.32Z" transform="translate(-25.25 -31.66)" fill="#5cbbff"/><path d="M1250.58,79.43H980.37c-17.64,0-32,17.3-32,38.64V307.36h302.16c17.65,0,32-17.3,32-38.64V79.43Z" transform="translate(-25.25 -31.66)" fill="none" stroke="#000520" stroke-miterlimit="10" stroke-width="1.5"/><path d="M1032.93,146.37V169.3h-1.55a1.29,1.29,0,0,1-.62-.13,1.37,1.37,0,0,1-.49-.43L1017,151.46c0,.27,0,.53,0,.79s0,.49,0,.72V169.3h-2.72V146.37h1.6a1.69,1.69,0,0,1,.35,0,.72.72,0,0,1,.26.08,1,1,0,0,1,.22.16,2.05,2.05,0,0,1,.24.26l13.27,17.27c0-.28,0-.55-.06-.81s0-.51,0-.75V146.37Z" transform="translate(-25.25 -31.66)"/><path d="M1050.77,167a5.23,5.23,0,0,1-1.27,1.11,7.42,7.42,0,0,1-1.57.78,10.1,10.1,0,0,1-1.74.45,9.79,9.79,0,0,1-1.77.16,8.22,8.22,0,0,1-3.1-.57,6.77,6.77,0,0,1-2.45-1.67,7.66,7.66,0,0,1-1.61-2.71,11.08,11.08,0,0,1-.57-3.71,9.37,9.37,0,0,1,.52-3.17,7.36,7.36,0,0,1,1.49-2.55,7,7,0,0,1,2.39-1.7,7.83,7.83,0,0,1,3.17-.61,7.19,7.19,0,0,1,2.69.49,6,6,0,0,1,2.14,1.4,6.44,6.44,0,0,1,1.42,2.28,8.65,8.65,0,0,1,.51,3.08,1.82,1.82,0,0,1-.14.89.6.6,0,0,1-.54.23H1039.5a9.44,9.44,0,0,0,.43,2.67,5.22,5.22,0,0,0,1,1.89,4.13,4.13,0,0,0,1.6,1.14,5.47,5.47,0,0,0,2.08.38,6.2,6.2,0,0,0,1.84-.25,9.29,9.29,0,0,0,1.34-.54c.37-.19.68-.37.93-.53a1.24,1.24,0,0,1,.65-.25.63.63,0,0,1,.55.27Zm-2.31-7.6a5.56,5.56,0,0,0-.28-1.82,4.14,4.14,0,0,0-.81-1.42,3.64,3.64,0,0,0-1.31-.93,4.9,4.9,0,0,0-5,.87,5.51,5.51,0,0,0-1.48,3.3Z" transform="translate(-25.25 -31.66)"/><path d="M1067.84,153.09V169.3h-1.7a.71.71,0,0,1-.76-.59l-.23-1.74a8.86,8.86,0,0,1-2.37,1.88,6.23,6.23,0,0,1-3,.71,5.92,5.92,0,0,1-2.34-.44,4.62,4.62,0,0,1-1.7-1.24,5.39,5.39,0,0,1-1-1.94,8.91,8.91,0,0,1-.34-2.51V153.09h2.85v10.34a4.33,4.33,0,0,0,.84,2.85,3.17,3.17,0,0,0,2.57,1,4.84,4.84,0,0,0,2.36-.6,7.6,7.6,0,0,0,2-1.66V153.09Z" transform="translate(-25.25 -31.66)"/><path d="M1085.5,167a5.18,5.18,0,0,1-1.26,1.11,7.49,7.49,0,0,1-1.58.78,10.23,10.23,0,0,1-1.73.45,9.82,9.82,0,0,1-1.78.16,8.26,8.26,0,0,1-3.1-.57,6.73,6.73,0,0,1-2.44-1.67,7.51,7.51,0,0,1-1.61-2.71,10.82,10.82,0,0,1-.58-3.71,9.62,9.62,0,0,1,.52-3.17,7.54,7.54,0,0,1,1.5-2.55,7,7,0,0,1,2.38-1.7,7.86,7.86,0,0,1,3.17-.61,7.24,7.24,0,0,1,2.7.49,6.07,6.07,0,0,1,2.14,1.4,6.59,6.59,0,0,1,1.42,2.28,8.65,8.65,0,0,1,.51,3.08,1.79,1.79,0,0,1-.15.89.58.58,0,0,1-.54.23h-10.83a9.46,9.46,0,0,0,.42,2.67,5.22,5.22,0,0,0,1,1.89,4.2,4.2,0,0,0,1.6,1.14,5.51,5.51,0,0,0,2.08.38,6.27,6.27,0,0,0,1.85-.25,9.79,9.79,0,0,0,1.34-.54c.37-.19.68-.37.93-.53a1.21,1.21,0,0,1,.65-.25.62.62,0,0,1,.54.27Zm-2.3-7.6a5.56,5.56,0,0,0-.28-1.82,4.17,4.17,0,0,0-.82-1.42,3.6,3.6,0,0,0-1.3-.93,4.9,4.9,0,0,0-5,.87,5.51,5.51,0,0,0-1.48,3.3Z" transform="translate(-25.25 -31.66)"/><path d="M1029.85,187.38h-7.42V207.7h-3.09V187.38h-7.44v-2.61h17.95Z" transform="translate(-25.25 -31.66)"/><path d="M1041.82,205.43a5.18,5.18,0,0,1-1.26,1.11,7.49,7.49,0,0,1-1.58.78,10.23,10.23,0,0,1-1.73.45,9.82,9.82,0,0,1-1.78.16,8.17,8.17,0,0,1-3.09-.57,6.68,6.68,0,0,1-2.45-1.67,7.51,7.51,0,0,1-1.61-2.71,10.82,10.82,0,0,1-.58-3.71,9.62,9.62,0,0,1,.52-3.17,7.54,7.54,0,0,1,1.5-2.55,7,7,0,0,1,2.38-1.7,7.86,7.86,0,0,1,3.17-.61,7.24,7.24,0,0,1,2.7.49,6.07,6.07,0,0,1,2.14,1.4,6.59,6.59,0,0,1,1.42,2.28,8.65,8.65,0,0,1,.51,3.08,1.79,1.79,0,0,1-.15.89.58.58,0,0,1-.54.23h-10.83a9.46,9.46,0,0,0,.42,2.67,5.22,5.22,0,0,0,1,1.89,4.2,4.2,0,0,0,1.6,1.14,5.51,5.51,0,0,0,2.08.38,6.27,6.27,0,0,0,1.85-.25,9.79,9.79,0,0,0,1.34-.54c.37-.19.68-.37.93-.53a1.21,1.21,0,0,1,.65-.25.62.62,0,0,1,.54.27Zm-2.3-7.6a5.56,5.56,0,0,0-.28-1.82,4.17,4.17,0,0,0-.82-1.42,3.6,3.6,0,0,0-1.3-.93,4.9,4.9,0,0,0-5,.87,5.51,5.51,0,0,0-1.48,3.3Z" transform="translate(-25.25 -31.66)"/><path d="M1056.85,194.37a1.43,1.43,0,0,1-.26.28.58.58,0,0,1-.35.09.9.9,0,0,1-.53-.2c-.19-.13-.43-.28-.71-.44a6.13,6.13,0,0,0-1-.44,5.07,5.07,0,0,0-1.51-.2,4.82,4.82,0,0,0-2.11.43,4,4,0,0,0-1.53,1.22,5.56,5.56,0,0,0-.93,1.94,10.56,10.56,0,0,0,0,5.16,5.75,5.75,0,0,0,.95,1.92,4.24,4.24,0,0,0,1.49,1.18,4.65,4.65,0,0,0,2,.41,4.83,4.83,0,0,0,1.71-.25,5.08,5.08,0,0,0,1.12-.55c.29-.2.54-.39.73-.55a.92.92,0,0,1,.59-.25.63.63,0,0,1,.54.27l.8,1a5.53,5.53,0,0,1-1.2,1.12,7.48,7.48,0,0,1-1.45.78,7.74,7.74,0,0,1-1.62.45,9.94,9.94,0,0,1-1.73.15,7.13,7.13,0,0,1-2.82-.56,6.55,6.55,0,0,1-2.27-1.63,7.58,7.58,0,0,1-1.5-2.61,10.79,10.79,0,0,1-.54-3.54,10.54,10.54,0,0,1,.5-3.34,7.67,7.67,0,0,1,1.47-2.65,6.83,6.83,0,0,1,2.38-1.74,8.14,8.14,0,0,1,3.26-.62,7.68,7.68,0,0,1,3,.55,7.25,7.25,0,0,1,2.31,1.56Z" transform="translate(-25.25 -31.66)"/><path d="M1063.71,193.65a8.76,8.76,0,0,1,2.3-1.76,6.37,6.37,0,0,1,2.92-.65,5.92,5.92,0,0,1,2.34.44,4.54,4.54,0,0,1,1.7,1.25,5.62,5.62,0,0,1,1,1.94,8.65,8.65,0,0,1,.35,2.51V207.7h-2.86V197.38a4.34,4.34,0,0,0-.84-2.85,3.12,3.12,0,0,0-2.56-1,4.71,4.71,0,0,0-2.35.61,7.45,7.45,0,0,0-2,1.65V207.7h-2.86V184.13h2.86Z" transform="translate(-25.25 -31.66)"/><path d="M1081.39,193.85a9.47,9.47,0,0,1,1.12-1.08,7.35,7.35,0,0,1,1.26-.82,6.61,6.61,0,0,1,1.41-.53,6.76,6.76,0,0,1,1.6-.18,5.93,5.93,0,0,1,2.35.44,4.5,4.5,0,0,1,1.69,1.25,5.3,5.3,0,0,1,1,1.94,8.32,8.32,0,0,1,.36,2.51V207.7h-2.87V197.38a4.34,4.34,0,0,0-.84-2.85,3.11,3.11,0,0,0-2.55-1,4.75,4.75,0,0,0-2.36.61,7.41,7.41,0,0,0-2,1.65V207.7h-2.87V191.49h1.72a.71.71,0,0,1,.75.6Z" transform="translate(-25.25 -31.66)"/><path d="M1103.39,191.24a8.33,8.33,0,0,1,3.2.59,7,7,0,0,1,2.43,1.68,7.48,7.48,0,0,1,1.55,2.63,11.53,11.53,0,0,1,0,6.91,7.44,7.44,0,0,1-1.55,2.62,6.69,6.69,0,0,1-2.43,1.67,8.33,8.33,0,0,1-3.2.59,8.44,8.44,0,0,1-3.22-.59,6.64,6.64,0,0,1-2.44-1.67,7.29,7.29,0,0,1-1.55-2.62,11.53,11.53,0,0,1,0-6.91,7.33,7.33,0,0,1,1.55-2.63,6.91,6.91,0,0,1,2.44-1.68A8.44,8.44,0,0,1,1103.39,191.24Zm0,14.46a4.14,4.14,0,0,0,3.58-1.61,7.41,7.41,0,0,0,1.19-4.48,7.54,7.54,0,0,0-1.19-4.52,4.16,4.16,0,0,0-3.58-1.61,5.14,5.14,0,0,0-2.12.41,4,4,0,0,0-1.5,1.2,5.47,5.47,0,0,0-.9,1.93,10.31,10.31,0,0,0-.29,2.59,7.34,7.34,0,0,0,1.19,4.48A4.19,4.19,0,0,0,1103.39,205.7Z" transform="translate(-25.25 -31.66)"/><path d="M1117.65,184.13V207.7h-2.85V184.13Z" transform="translate(-25.25 -31.66)"/><path d="M1129.09,191.24a8.37,8.37,0,0,1,3.2.59,7,7,0,0,1,2.43,1.68,7.31,7.31,0,0,1,1.54,2.63,11.32,11.32,0,0,1,0,6.91,7.27,7.27,0,0,1-1.54,2.62,6.69,6.69,0,0,1-2.43,1.67,8.37,8.37,0,0,1-3.2.59,8.49,8.49,0,0,1-3.23-.59,6.72,6.72,0,0,1-2.44-1.67,7.42,7.42,0,0,1-1.54-2.62,11.32,11.32,0,0,1,0-6.91,7.46,7.46,0,0,1,1.54-2.63,7,7,0,0,1,2.44-1.68A8.49,8.49,0,0,1,1129.09,191.24Zm0,14.46a4.14,4.14,0,0,0,3.58-1.61,7.41,7.41,0,0,0,1.18-4.48,7.54,7.54,0,0,0-1.18-4.52,4.16,4.16,0,0,0-3.58-1.61,5.14,5.14,0,0,0-2.12.41,4,4,0,0,0-1.51,1.2,5.29,5.29,0,0,0-.89,1.93,10.29,10.29,0,0,0-.3,2.59,7.41,7.41,0,0,0,1.19,4.48A4.21,4.21,0,0,0,1129.09,205.7Z" transform="translate(-25.25 -31.66)"/><path d="M1154,192.13v1.06c0,.35-.23.58-.67.67l-1.84.24a5.1,5.1,0,0,1,.54,2.34,5,5,0,0,1-1.71,3.81,5.57,5.57,0,0,1-1.92,1.05,7.64,7.64,0,0,1-2.43.37,8.28,8.28,0,0,1-2.15-.27,2.8,2.8,0,0,0-.78.68,1.2,1.2,0,0,0-.27.73,1,1,0,0,0,.47.87,3.22,3.22,0,0,0,1.24.42,12.32,12.32,0,0,0,1.75.16c.66,0,1.33.06,2,.11a18.71,18.71,0,0,1,2,.24,6,6,0,0,1,1.75.58,3.31,3.31,0,0,1,1.24,1.1,3.19,3.19,0,0,1,.48,1.83,4.3,4.3,0,0,1-.52,2,5.47,5.47,0,0,1-1.5,1.74,7.78,7.78,0,0,1-2.39,1.22,10.55,10.55,0,0,1-3.19.45,12,12,0,0,1-3.11-.35,7.39,7.39,0,0,1-2.21-.94,4.28,4.28,0,0,1-1.32-1.37,3.3,3.3,0,0,1-.44-1.63,2.89,2.89,0,0,1,.76-2,5.37,5.37,0,0,1,2.06-1.33,2.85,2.85,0,0,1-1.14-.85,2.24,2.24,0,0,1-.43-1.45,2.17,2.17,0,0,1,.13-.73,3,3,0,0,1,.39-.75,4.1,4.1,0,0,1,1.55-1.3,5.06,5.06,0,0,1-1.88-1.79,5,5,0,0,1-.67-2.58,4.88,4.88,0,0,1,.46-2.15,4.69,4.69,0,0,1,1.27-1.65,5.93,5.93,0,0,1,1.94-1,8.48,8.48,0,0,1,4.44-.14,6.72,6.72,0,0,1,1.67.68Zm-2.9,16.45a1.4,1.4,0,0,0-.33-1,2.36,2.36,0,0,0-.91-.57,5.84,5.84,0,0,0-1.32-.3c-.5-.06-1-.1-1.59-.14l-1.7-.09c-.58,0-1.13-.09-1.67-.16a4.49,4.49,0,0,0-1.46,1,2.13,2.13,0,0,0-.57,1.48,1.9,1.9,0,0,0,.28,1,2.35,2.35,0,0,0,.86.82,4.82,4.82,0,0,0,1.44.54,9,9,0,0,0,2.06.2,9.13,9.13,0,0,0,2.06-.21,4.87,4.87,0,0,0,1.55-.59,2.94,2.94,0,0,0,1-.91A2.15,2.15,0,0,0,1151.1,208.58Zm-5.13-8.8a4.45,4.45,0,0,0,1.52-.24,3.13,3.13,0,0,0,1.1-.67,2.74,2.74,0,0,0,.67-1,3.73,3.73,0,0,0,.23-1.32,3.18,3.18,0,0,0-.91-2.37,3.57,3.57,0,0,0-2.61-.88,3.63,3.63,0,0,0-2.64.88,3.17,3.17,0,0,0-.9,2.37,3.73,3.73,0,0,0,.23,1.32,2.89,2.89,0,0,0,.68,1,3.08,3.08,0,0,0,1.11.67A4.37,4.37,0,0,0,1146,199.78Z" transform="translate(-25.25 -31.66)"/><path d="M1160.57,186.41a1.83,1.83,0,0,1-.16.77,2.46,2.46,0,0,1-.45.64,2,2,0,0,1-.66.44,1.92,1.92,0,0,1-.79.16,1.93,1.93,0,0,1-1.41-.6,2.18,2.18,0,0,1-.43-.64,1.83,1.83,0,0,1-.16-.77,2,2,0,0,1,.16-.8,2.23,2.23,0,0,1,.43-.65,2,2,0,0,1,.63-.44,1.85,1.85,0,0,1,.78-.16,1.92,1.92,0,0,1,.79.16,2.12,2.12,0,0,1,.66.44,2.51,2.51,0,0,1,.45.65A2,2,0,0,1,1160.57,186.41Zm-.6,5.08V207.7h-2.85V191.49Z" transform="translate(-25.25 -31.66)"/><path d="M1177.79,205.43a5.18,5.18,0,0,1-1.26,1.11,7.74,7.74,0,0,1-1.58.78,10.1,10.1,0,0,1-1.74.45,9.71,9.71,0,0,1-1.77.16,8.26,8.26,0,0,1-3.1-.57,6.77,6.77,0,0,1-2.45-1.67,7.64,7.64,0,0,1-1.6-2.71,10.82,10.82,0,0,1-.58-3.71,9.37,9.37,0,0,1,.52-3.17,7.54,7.54,0,0,1,1.5-2.55,7,7,0,0,1,2.38-1.7,7.83,7.83,0,0,1,3.17-.61,7.15,7.15,0,0,1,2.69.49,6.11,6.11,0,0,1,2.15,1.4,6.57,6.57,0,0,1,1.41,2.28,8.64,8.64,0,0,1,.52,3.08,1.79,1.79,0,0,1-.15.89.59.59,0,0,1-.54.23h-10.83a9.46,9.46,0,0,0,.42,2.67,5.22,5.22,0,0,0,1,1.89,4.2,4.2,0,0,0,1.6,1.14,5.51,5.51,0,0,0,2.08.38,6.32,6.32,0,0,0,1.85-.25,9.62,9.62,0,0,0,1.33-.54c.37-.19.69-.37.94-.53a1.19,1.19,0,0,1,.65-.25.63.63,0,0,1,.54.27Zm-2.3-7.6a5.84,5.84,0,0,0-.28-1.82,4.17,4.17,0,0,0-.82-1.42,3.69,3.69,0,0,0-1.3-.93,4.44,4.44,0,0,0-1.75-.33,4.38,4.38,0,0,0-3.24,1.2,5.57,5.57,0,0,0-1.48,3.3Z" transform="translate(-25.25 -31.66)"/><path d="M1184.22,193.85a9.47,9.47,0,0,1,1.12-1.08,7.76,7.76,0,0,1,1.26-.82,6.61,6.61,0,0,1,1.41-.53,6.76,6.76,0,0,1,1.6-.18,5.93,5.93,0,0,1,2.35.44,4.5,4.5,0,0,1,1.69,1.25,5.47,5.47,0,0,1,1,1.94,8.65,8.65,0,0,1,.35,2.51V207.7h-2.87V197.38a4.34,4.34,0,0,0-.84-2.85,3.11,3.11,0,0,0-2.55-1,4.75,4.75,0,0,0-2.36.61,7.56,7.56,0,0,0-2,1.65V207.7h-2.87V191.49h1.72a.71.71,0,0,1,.75.6Z" transform="translate(-25.25 -31.66)"/><path d="M1023.12,232.57a.64.64,0,0,1-.59.35,1.14,1.14,0,0,1-.55-.18c-.2-.11-.45-.25-.74-.39a6.83,6.83,0,0,0-1-.4,5.05,5.05,0,0,0-1.44-.18,4.28,4.28,0,0,0-1.29.18,3.07,3.07,0,0,0-1,.5,2.3,2.3,0,0,0-.62.75,1.92,1.92,0,0,0-.22.92,1.55,1.55,0,0,0,.36,1,3.09,3.09,0,0,0,1,.72,8.44,8.44,0,0,0,1.35.53l1.54.5c.53.18,1,.37,1.55.58a5.94,5.94,0,0,1,1.34.8,3.78,3.78,0,0,1,.95,1.18,3.58,3.58,0,0,1,.36,1.67,5.2,5.2,0,0,1-.4,2.07,4.51,4.51,0,0,1-1.18,1.65,5.72,5.72,0,0,1-1.92,1.1,8.08,8.08,0,0,1-2.63.4,8.35,8.35,0,0,1-3.07-.55,7.57,7.57,0,0,1-2.33-1.42l.67-1.09a.93.93,0,0,1,.3-.32.88.88,0,0,1,.45-.11,1.17,1.17,0,0,1,.61.22c.21.15.47.32.77.5a6.23,6.23,0,0,0,1.12.5,5.06,5.06,0,0,0,1.63.22,4.25,4.25,0,0,0,1.45-.22,2.9,2.9,0,0,0,1-.58,2.22,2.22,0,0,0,.62-.85,2.69,2.69,0,0,0,.2-1,1.68,1.68,0,0,0-.36-1.11,3,3,0,0,0-1-.76,9.17,9.17,0,0,0-1.36-.54l-1.55-.49c-.53-.17-1-.36-1.55-.58a5.1,5.1,0,0,1-1.35-.83,3.59,3.59,0,0,1-1-1.22,3.93,3.93,0,0,1-.36-1.77,4.22,4.22,0,0,1,.38-1.78,4.54,4.54,0,0,1,1.12-1.51,5.57,5.57,0,0,1,1.81-1,7.37,7.37,0,0,1,2.45-.38,7.89,7.89,0,0,1,2.87.5,6.82,6.82,0,0,1,2.2,1.39Z" transform="translate(-25.25 -31.66)"/><path d="M1038.82,232.77a1.81,1.81,0,0,1-.26.28.61.61,0,0,1-.35.09.9.9,0,0,1-.53-.2c-.19-.13-.43-.28-.71-.44a6.5,6.5,0,0,0-1-.44,5.07,5.07,0,0,0-1.51-.2,4.86,4.86,0,0,0-2.12.43,4.12,4.12,0,0,0-1.53,1.22,5.38,5.38,0,0,0-.92,1.94,10.25,10.25,0,0,0,0,5.16,5.57,5.57,0,0,0,1,1.92,4.16,4.16,0,0,0,1.49,1.18,4.61,4.61,0,0,0,2,.41,4.9,4.9,0,0,0,1.71-.25,5.21,5.21,0,0,0,1.11-.55c.3-.2.54-.39.74-.55a.9.9,0,0,1,.59-.25.63.63,0,0,1,.54.27l.8,1a5.53,5.53,0,0,1-1.2,1.12,7.48,7.48,0,0,1-1.45.78,8.1,8.1,0,0,1-1.62.45,10,10,0,0,1-1.73.15,7.18,7.18,0,0,1-2.83-.56,6.6,6.6,0,0,1-2.26-1.63,7.58,7.58,0,0,1-1.5-2.61,11.43,11.43,0,0,1,0-6.88,7.35,7.35,0,0,1,1.47-2.65,6.74,6.74,0,0,1,2.38-1.74,8.14,8.14,0,0,1,3.26-.62,7.68,7.68,0,0,1,3,.55,7.36,7.36,0,0,1,2.31,1.56Z" transform="translate(-25.25 -31.66)"/><path d="M1045.68,232.05a8.76,8.76,0,0,1,2.3-1.76,6.36,6.36,0,0,1,2.91-.65,5.93,5.93,0,0,1,2.35.44,4.42,4.42,0,0,1,1.69,1.25,5.47,5.47,0,0,1,1,1.94,8.65,8.65,0,0,1,.35,2.51V246.1h-2.87V235.78a4.29,4.29,0,0,0-.84-2.85,3.11,3.11,0,0,0-2.55-1,4.75,4.75,0,0,0-2.36.61,7.56,7.56,0,0,0-2,1.65V246.1h-2.87V222.53h2.87Z" transform="translate(-25.25 -31.66)"/><path d="M1063.36,232.25a8.76,8.76,0,0,1,1.12-1.08,7.27,7.27,0,0,1,1.25-.82,7,7,0,0,1,1.41-.53,6.91,6.91,0,0,1,1.61-.18,5.85,5.85,0,0,1,2.34.44,4.46,4.46,0,0,1,1.7,1.25,5.46,5.46,0,0,1,1,1.94,8.32,8.32,0,0,1,.36,2.51V246.1h-2.87V235.78a4.34,4.34,0,0,0-.84-2.85,3.11,3.11,0,0,0-2.55-1,4.75,4.75,0,0,0-2.36.61,7.6,7.6,0,0,0-2,1.65V246.1h-2.86V229.89h1.71a.7.7,0,0,1,.75.6Z" transform="translate(-25.25 -31.66)"/><path d="M1091.68,243.83a5.18,5.18,0,0,1-1.26,1.11,7.74,7.74,0,0,1-1.58.78,10.1,10.1,0,0,1-1.74.45,9.71,9.71,0,0,1-1.77.16,8.26,8.26,0,0,1-3.1-.57,6.77,6.77,0,0,1-2.45-1.67,7.5,7.5,0,0,1-1.6-2.71,10.82,10.82,0,0,1-.58-3.71,9.37,9.37,0,0,1,.52-3.17,7.52,7.52,0,0,1,1.49-2.55,7,7,0,0,1,2.39-1.7,7.83,7.83,0,0,1,3.17-.61,7.15,7.15,0,0,1,2.69.49,6.11,6.11,0,0,1,2.15,1.4,6.57,6.57,0,0,1,1.41,2.28,8.65,8.65,0,0,1,.51,3.08,1.82,1.82,0,0,1-.14.89.6.6,0,0,1-.54.23h-10.83a9.46,9.46,0,0,0,.42,2.67,5.22,5.22,0,0,0,1.05,1.89,4.2,4.2,0,0,0,1.6,1.14,5.47,5.47,0,0,0,2.08.38,6.32,6.32,0,0,0,1.85-.25,9.62,9.62,0,0,0,1.33-.54c.37-.19.69-.37.94-.53a1.19,1.19,0,0,1,.65-.25.63.63,0,0,1,.54.27Zm-2.31-7.6a5.56,5.56,0,0,0-.28-1.82,4,4,0,0,0-.81-1.42,3.64,3.64,0,0,0-1.31-.93,4.9,4.9,0,0,0-5,.87,5.57,5.57,0,0,0-1.48,3.3Z" transform="translate(-25.25 -31.66)"/><path d="M1098.37,222.53V246.1h-2.85V222.53Z" transform="translate(-25.25 -31.66)"/><path d="M1105.92,222.53V246.1h-2.85V222.53Z" transform="translate(-25.25 -31.66)"/><path d="M1131.87,243.83a5.18,5.18,0,0,1-1.26,1.11,7.49,7.49,0,0,1-1.58.78,10.1,10.1,0,0,1-1.74.45,9.71,9.71,0,0,1-1.77.16,8.26,8.26,0,0,1-3.1-.57,6.77,6.77,0,0,1-2.45-1.67,7.64,7.64,0,0,1-1.6-2.71,10.82,10.82,0,0,1-.58-3.71,9.37,9.37,0,0,1,.52-3.17,7.54,7.54,0,0,1,1.5-2.55,7,7,0,0,1,2.38-1.7,7.83,7.83,0,0,1,3.17-.61,7.15,7.15,0,0,1,2.69.49,6.11,6.11,0,0,1,2.15,1.4,6.57,6.57,0,0,1,1.41,2.28,8.43,8.43,0,0,1,.52,3.08,1.79,1.79,0,0,1-.15.89.59.59,0,0,1-.54.23h-10.83a9.46,9.46,0,0,0,.42,2.67,5.22,5.22,0,0,0,1,1.89,4.2,4.2,0,0,0,1.6,1.14,5.51,5.51,0,0,0,2.08.38,6.32,6.32,0,0,0,1.85-.25,9.62,9.62,0,0,0,1.33-.54,10.22,10.22,0,0,0,.94-.53,1.19,1.19,0,0,1,.65-.25.63.63,0,0,1,.54.27Zm-2.3-7.6a5.84,5.84,0,0,0-.28-1.82,4.17,4.17,0,0,0-.82-1.42,3.69,3.69,0,0,0-1.3-.93,4.44,4.44,0,0,0-1.75-.33,4.38,4.38,0,0,0-3.24,1.2,5.57,5.57,0,0,0-1.48,3.3Z" transform="translate(-25.25 -31.66)"/><path d="M1139.23,224.81a1.84,1.84,0,0,1-.17.77,2.06,2.06,0,0,1-.45.64,1.83,1.83,0,0,1-.65.44,2,2,0,0,1-.79.16,1.93,1.93,0,0,1-1.41-.6,2,2,0,0,1-.43-.64,1.83,1.83,0,0,1-.16-.77,2,2,0,0,1,.16-.8,2,2,0,0,1,.43-.65,2,2,0,0,1,.63-.44,1.85,1.85,0,0,1,.78-.16,2,2,0,0,1,1.44.6,2.1,2.1,0,0,1,.45.65A2,2,0,0,1,1139.23,224.81Zm-.61,5.08V246.1h-2.85V229.89Z" transform="translate(-25.25 -31.66)"/><path d="M1146,232.25a9.47,9.47,0,0,1,1.12-1.08,7.76,7.76,0,0,1,1.26-.82,6.61,6.61,0,0,1,1.41-.53,6.76,6.76,0,0,1,1.6-.18,5.93,5.93,0,0,1,2.35.44,4.42,4.42,0,0,1,1.69,1.25,5.47,5.47,0,0,1,1,1.94,8.65,8.65,0,0,1,.35,2.51V246.1h-2.87V235.78a4.34,4.34,0,0,0-.84-2.85,3.11,3.11,0,0,0-2.55-1,4.75,4.75,0,0,0-2.36.61,7.56,7.56,0,0,0-2,1.65V246.1h-2.87V229.89H1145a.71.71,0,0,1,.75.6Z" transform="translate(-25.25 -31.66)"/><path d="M1162,246.1V232.33l-1.79-.21a1.34,1.34,0,0,1-.55-.25.56.56,0,0,1-.22-.49v-1.17H1162v-1.56a7.29,7.29,0,0,1,.39-2.48,5.08,5.08,0,0,1,1.12-1.82,4.8,4.8,0,0,1,1.75-1.13,6.7,6.7,0,0,1,2.31-.38,6.12,6.12,0,0,1,2,.32l-.07,1.42a.41.41,0,0,1-.42.42q-.39,0-1,0a4.27,4.27,0,0,0-1.33.19,2.58,2.58,0,0,0-1,.63A2.77,2.77,0,0,0,1165,227a5.8,5.8,0,0,0-.23,1.75v1.48h4.67v2.07h-4.58V246.1Z" transform="translate(-25.25 -31.66)"/><path d="M1185.44,229.89V246.1h-1.7a.73.73,0,0,1-.77-.59l-.22-1.74a8.86,8.86,0,0,1-2.37,1.88,6.25,6.25,0,0,1-3,.71,5.92,5.92,0,0,1-2.34-.44,4.54,4.54,0,0,1-1.7-1.24,5.24,5.24,0,0,1-1-1.94,8.56,8.56,0,0,1-.34-2.51V229.89h2.85v10.34a4.33,4.33,0,0,0,.84,2.85,3.15,3.15,0,0,0,2.57,1,4.84,4.84,0,0,0,2.36-.6,7.6,7.6,0,0,0,2-1.66V229.89Zm-7.91-4.41a1.64,1.64,0,0,1-.14.69,1.85,1.85,0,0,1-.4.56,2.24,2.24,0,0,1-.58.38,1.68,1.68,0,0,1-.7.14,1.52,1.52,0,0,1-.67-.14,1.9,1.9,0,0,1-.57-.38,1.77,1.77,0,0,1-.54-1.25,1.85,1.85,0,0,1,1.11-1.68,1.53,1.53,0,0,1,.67-.15,1.69,1.69,0,0,1,.7.15,2,2,0,0,1,.58.39,1.94,1.94,0,0,1,.4.58A1.73,1.73,0,0,1,1177.53,225.48Zm6.1,0a1.81,1.81,0,0,1-.14.69,1.85,1.85,0,0,1-.4.56,1.9,1.9,0,0,1-.57.38,1.65,1.65,0,0,1-.7.14,1.61,1.61,0,0,1-.69-.14,1.9,1.9,0,0,1-.57-.38,2,2,0,0,1-.39-.56,1.81,1.81,0,0,1-.14-.69,1.91,1.91,0,0,1,.14-.71,2.11,2.11,0,0,1,.39-.58,1.75,1.75,0,0,1,.57-.39,1.62,1.62,0,0,1,.69-.15,1.66,1.66,0,0,1,.7.15,1.75,1.75,0,0,1,.57.39,1.94,1.94,0,0,1,.4.58A1.91,1.91,0,0,1,1183.63,225.48Z" transform="translate(-25.25 -31.66)"/><path d="M1192.81,232.05a8.8,8.8,0,0,1,2.31-1.76,6.3,6.3,0,0,1,2.91-.65,5.85,5.85,0,0,1,2.34.44,4.46,4.46,0,0,1,1.7,1.25,5.46,5.46,0,0,1,1,1.94,8.32,8.32,0,0,1,.35,2.51V246.1h-2.86V235.78a4.34,4.34,0,0,0-.84-2.85,3.11,3.11,0,0,0-2.55-1,4.72,4.72,0,0,0-2.36.61,7.6,7.6,0,0,0-2,1.65V246.1H1190V222.53h2.86Z" transform="translate(-25.25 -31.66)"/><path d="M1210.51,233.14a7.3,7.3,0,0,1,1.89-2.6,4.13,4.13,0,0,1,2.73-.93,4.06,4.06,0,0,1,1,.11,2.62,2.62,0,0,1,.84.35l-.21,2.13a.45.45,0,0,1-.48.4,3,3,0,0,1-.66-.1,4.71,4.71,0,0,0-1-.09,3.9,3.9,0,0,0-1.37.22,3.2,3.2,0,0,0-1.07.66,4.73,4.73,0,0,0-.85,1.09,9.26,9.26,0,0,0-.68,1.48V246.1h-2.86V229.89h1.63a.89.89,0,0,1,.64.18,1.21,1.21,0,0,1,.24.61Z" transform="translate(-25.25 -31.66)"/><path d="M1232,243.83a5.18,5.18,0,0,1-1.26,1.11,7.74,7.74,0,0,1-1.58.78,10.1,10.1,0,0,1-1.74.45,9.71,9.71,0,0,1-1.77.16,8.26,8.26,0,0,1-3.1-.57,6.77,6.77,0,0,1-2.45-1.67,7.64,7.64,0,0,1-1.6-2.71,10.82,10.82,0,0,1-.58-3.71,9.37,9.37,0,0,1,.52-3.17,7.54,7.54,0,0,1,1.5-2.55,7,7,0,0,1,2.38-1.7,7.83,7.83,0,0,1,3.17-.61,7.15,7.15,0,0,1,2.69.49,6,6,0,0,1,2.15,1.4,6.57,6.57,0,0,1,1.41,2.28,8.64,8.64,0,0,1,.52,3.08,1.79,1.79,0,0,1-.15.89.59.59,0,0,1-.54.23h-10.83a9.46,9.46,0,0,0,.42,2.67,5.22,5.22,0,0,0,1.05,1.89,4.2,4.2,0,0,0,1.6,1.14,5.51,5.51,0,0,0,2.08.38,6.32,6.32,0,0,0,1.85-.25,9.62,9.62,0,0,0,1.33-.54c.37-.19.69-.37.94-.53a1.19,1.19,0,0,1,.65-.25.63.63,0,0,1,.54.27Zm-2.3-7.6a5.84,5.84,0,0,0-.28-1.82,4.17,4.17,0,0,0-.82-1.42,3.69,3.69,0,0,0-1.3-.93,4.44,4.44,0,0,0-1.75-.33,4.38,4.38,0,0,0-3.24,1.2,5.57,5.57,0,0,0-1.48,3.3Z" transform="translate(-25.25 -31.66)"/><path d="M1238.38,232.25a9.47,9.47,0,0,1,1.12-1.08,7.76,7.76,0,0,1,1.26-.82,6.61,6.61,0,0,1,1.41-.53,6.76,6.76,0,0,1,1.6-.18,5.93,5.93,0,0,1,2.35.44,4.42,4.42,0,0,1,1.69,1.25,5.47,5.47,0,0,1,1,1.94,8.65,8.65,0,0,1,.35,2.51V246.1h-2.87V235.78a4.34,4.34,0,0,0-.84-2.85,3.11,3.11,0,0,0-2.55-1,4.75,4.75,0,0,0-2.36.61,7.56,7.56,0,0,0-2,1.65V246.1h-2.87V229.89h1.72a.71.71,0,0,1,.75.6Z" transform="translate(-25.25 -31.66)"/><circle cx="364.46" cy="560.41" r="157.95" fill="#acd653"/><circle cx="353.05" cy="551.18" r="157.95" fill="none" stroke="#000520" stroke-miterlimit="10"/><path d="M288.79,541.83a1.12,1.12,0,0,1-.31.36.69.69,0,0,1-.41.12,1.16,1.16,0,0,1-.64-.27,7.37,7.37,0,0,0-.92-.6,7.11,7.11,0,0,0-1.32-.6,5.52,5.52,0,0,0-1.88-.28,5.69,5.69,0,0,0-1.84.28,4,4,0,0,0-1.32.76,3.1,3.1,0,0,0-.81,1.13,3.6,3.6,0,0,0-.27,1.4,2.54,2.54,0,0,0,.47,1.59,3.78,3.78,0,0,0,1.25,1.08,9.23,9.23,0,0,0,1.76.78l2,.68c.69.23,1.36.5,2,.79a7.72,7.72,0,0,1,1.76,1.11,5.15,5.15,0,0,1,1.25,1.65,5.55,5.55,0,0,1,.47,2.4,7.77,7.77,0,0,1-.51,2.83,6.55,6.55,0,0,1-1.5,2.29,7.12,7.12,0,0,1-2.42,1.54,8.93,8.93,0,0,1-3.25.56,9.93,9.93,0,0,1-4.07-.81,9.79,9.79,0,0,1-3.12-2.18l.9-1.48a1.42,1.42,0,0,1,.31-.29.73.73,0,0,1,.41-.12.82.82,0,0,1,.47.17,6.79,6.79,0,0,1,.6.42c.23.17.48.36.77.56a7,7,0,0,0,1,.56,6.65,6.65,0,0,0,1.26.42,6.43,6.43,0,0,0,1.58.17,6,6,0,0,0,2-.3,4.11,4.11,0,0,0,1.47-.86,3.83,3.83,0,0,0,.92-1.32,4.45,4.45,0,0,0,.32-1.71,2.83,2.83,0,0,0-.48-1.7,3.74,3.74,0,0,0-1.24-1.12,9,9,0,0,0-1.76-.76c-.66-.2-1.33-.42-2-.64a19,19,0,0,1-2-.76,6.29,6.29,0,0,1-1.76-1.12,5.14,5.14,0,0,1-1.24-1.72,6.25,6.25,0,0,1,1.38-6.92,6.73,6.73,0,0,1,2.22-1.4,8,8,0,0,1,3-.53,9.56,9.56,0,0,1,3.5.61,8.17,8.17,0,0,1,2.78,1.76Z" transform="translate(-25.25 -31.66)"/><path d="M297.23,539.88a1.84,1.84,0,0,1-.17.77,2.06,2.06,0,0,1-.45.64,2,2,0,0,1-.66.44,1.92,1.92,0,0,1-.79.16,1.8,1.8,0,0,1-.77-.16,2,2,0,0,1-.64-.44,2.18,2.18,0,0,1-.43-.64,2,2,0,0,1-.16-.77,2.15,2.15,0,0,1,.16-.8,2.1,2.1,0,0,1,.43-.65,2.15,2.15,0,0,1,.64-.44,1.8,1.8,0,0,1,.77-.16,1.92,1.92,0,0,1,.79.16,2.12,2.12,0,0,1,.66.44,2,2,0,0,1,.62,1.45Zm-.61,5.08v16.21h-2.85V545Z" transform="translate(-25.25 -31.66)"/><path d="M312.57,547.84a1.43,1.43,0,0,1-.26.28.58.58,0,0,1-.35.09.93.93,0,0,1-.53-.2c-.19-.13-.43-.28-.71-.44a6.13,6.13,0,0,0-1-.44,5,5,0,0,0-1.51-.2,4.85,4.85,0,0,0-2.11.43,4,4,0,0,0-1.53,1.22,5.56,5.56,0,0,0-.93,1.94,9.45,9.45,0,0,0-.31,2.54,9.14,9.14,0,0,0,.34,2.62,5.57,5.57,0,0,0,.95,1.92,4.07,4.07,0,0,0,1.49,1.18,4.58,4.58,0,0,0,2,.41,4.9,4.9,0,0,0,1.71-.25,5.21,5.21,0,0,0,1.11-.55c.29-.2.54-.39.74-.55a.88.88,0,0,1,.58-.25.62.62,0,0,1,.54.27l.8,1a5.53,5.53,0,0,1-1.2,1.12,7.39,7.39,0,0,1-1.44.78,8,8,0,0,1-1.63.45,9.85,9.85,0,0,1-1.73.15,7.13,7.13,0,0,1-2.82-.56,6.51,6.51,0,0,1-2.26-1.63,7.59,7.59,0,0,1-1.51-2.61,11.64,11.64,0,0,1,0-6.88,7.67,7.67,0,0,1,1.47-2.65,6.77,6.77,0,0,1,2.39-1.74,8.09,8.09,0,0,1,3.25-.62,7.68,7.68,0,0,1,3,.55,7.25,7.25,0,0,1,2.31,1.56Z" transform="translate(-25.25 -31.66)"/><path d="M319.43,547.12a8.8,8.8,0,0,1,2.31-1.76,6.3,6.3,0,0,1,2.91-.65,5.71,5.71,0,0,1,2.34.44,4.46,4.46,0,0,1,1.7,1.25,5.37,5.37,0,0,1,1,1.94,8.28,8.28,0,0,1,.35,2.51v10.32h-2.86V550.85a4.34,4.34,0,0,0-.84-2.85,3.11,3.11,0,0,0-2.55-1,4.72,4.72,0,0,0-2.36.61,7.6,7.6,0,0,0-2,1.65v11.93h-2.86V537.6h2.86Z" transform="translate(-25.25 -31.66)"/><path d="M347.58,558.9a5.23,5.23,0,0,1-1.27,1.11,7.42,7.42,0,0,1-1.57.78,10.1,10.1,0,0,1-1.74.45,9.79,9.79,0,0,1-1.77.16,8.22,8.22,0,0,1-3.1-.57,6.9,6.9,0,0,1-2.45-1.67,7.66,7.66,0,0,1-1.61-2.71,11.12,11.12,0,0,1-.57-3.71,9.37,9.37,0,0,1,.52-3.17,7.36,7.36,0,0,1,1.49-2.55,6.89,6.89,0,0,1,2.39-1.7,7.83,7.83,0,0,1,3.17-.61,7.19,7.19,0,0,1,2.69.49,6.11,6.11,0,0,1,2.15,1.4,6.48,6.48,0,0,1,1.41,2.28,8.65,8.65,0,0,1,.51,3.08,1.82,1.82,0,0,1-.14.89.6.6,0,0,1-.54.23H336.31a9.81,9.81,0,0,0,.43,2.67,5.22,5.22,0,0,0,1.05,1.89,4.13,4.13,0,0,0,1.6,1.14,5.47,5.47,0,0,0,2.08.38,6.2,6.2,0,0,0,1.84-.25,9.29,9.29,0,0,0,1.34-.54c.37-.19.68-.37.94-.53a1.19,1.19,0,0,1,.64-.25.63.63,0,0,1,.55.27Zm-2.31-7.6a5.56,5.56,0,0,0-.28-1.82,4.05,4.05,0,0,0-.81-1.42,3.64,3.64,0,0,0-1.31-.93,4.9,4.9,0,0,0-5,.87,5.51,5.51,0,0,0-1.48,3.3Z" transform="translate(-25.25 -31.66)"/><path d="M354,548.21a7.4,7.4,0,0,1,1.88-2.6,4.15,4.15,0,0,1,2.74-.93,3.93,3.93,0,0,1,1,.11,2.44,2.44,0,0,1,.84.35l-.2,2.13a.47.47,0,0,1-.48.4,3,3,0,0,1-.66-.1,4.81,4.81,0,0,0-1-.09,3.84,3.84,0,0,0-1.36.22,3.34,3.34,0,0,0-1.08.66,5,5,0,0,0-.84,1.09,8.46,8.46,0,0,0-.68,1.48v10.24h-2.87V545H353a.87.87,0,0,1,.64.18,1.05,1.05,0,0,1,.24.61Z" transform="translate(-25.25 -31.66)"/><path d="M365.83,547.12a8.8,8.8,0,0,1,2.31-1.76,6.3,6.3,0,0,1,2.91-.65,5.71,5.71,0,0,1,2.34.44,4.46,4.46,0,0,1,1.7,1.25,5.37,5.37,0,0,1,1,1.94,8.28,8.28,0,0,1,.35,2.51v10.32h-2.86V550.85a4.34,4.34,0,0,0-.84-2.85,3.11,3.11,0,0,0-2.55-1,4.72,4.72,0,0,0-2.36.61,7.6,7.6,0,0,0-2,1.65v11.93H363V537.6h2.86Z" transform="translate(-25.25 -31.66)"/><path d="M394,558.9a5.23,5.23,0,0,1-1.27,1.11,7.42,7.42,0,0,1-1.57.78,10.1,10.1,0,0,1-1.74.45,9.79,9.79,0,0,1-1.77.16,8.22,8.22,0,0,1-3.1-.57,6.9,6.9,0,0,1-2.45-1.67,7.66,7.66,0,0,1-1.61-2.71,11.12,11.12,0,0,1-.57-3.71,9.37,9.37,0,0,1,.52-3.17,7.36,7.36,0,0,1,1.49-2.55,6.89,6.89,0,0,1,2.39-1.7,7.83,7.83,0,0,1,3.17-.61,7.19,7.19,0,0,1,2.69.49,6.11,6.11,0,0,1,2.15,1.4,6.48,6.48,0,0,1,1.41,2.28,8.65,8.65,0,0,1,.51,3.08,1.82,1.82,0,0,1-.14.89.6.6,0,0,1-.54.23H382.71a9.81,9.81,0,0,0,.43,2.67,5.22,5.22,0,0,0,1.05,1.89,4.13,4.13,0,0,0,1.6,1.14,5.47,5.47,0,0,0,2.08.38,6.2,6.2,0,0,0,1.84-.25,9.29,9.29,0,0,0,1.34-.54c.37-.19.68-.37.94-.53a1.19,1.19,0,0,1,.64-.25.63.63,0,0,1,.55.27Zm-2.31-7.6a5.56,5.56,0,0,0-.28-1.82,4.05,4.05,0,0,0-.81-1.42,3.64,3.64,0,0,0-1.31-.93,4.9,4.9,0,0,0-5,.87,5.51,5.51,0,0,0-1.48,3.3Z" transform="translate(-25.25 -31.66)"/><path d="M401.34,539.88a1.84,1.84,0,0,1-.17.77,2.06,2.06,0,0,1-.45.64,1.92,1.92,0,0,1-.65.44,2,2,0,0,1-.8.16,1.93,1.93,0,0,1-1.4-.6,2,2,0,0,1-.44-.64,2,2,0,0,1-.16-.77,2.15,2.15,0,0,1,.16-.8,2,2,0,0,1,.44-.65,2,2,0,0,1,.63-.44,1.83,1.83,0,0,1,.77-.16,2,2,0,0,1,.8.16,2.07,2.07,0,0,1,.65.44,2,2,0,0,1,.62,1.45Zm-.61,5.08v16.21h-2.85V545Z" transform="translate(-25.25 -31.66)"/><path d="M410.38,561.43a3.91,3.91,0,0,1-2.95-1.07,4.29,4.29,0,0,1-1-3.09v-9.92h-1.95a.64.64,0,0,1-.43-.15.59.59,0,0,1-.18-.48v-1.13l2.66-.34.66-5a.68.68,0,0,1,.21-.39.63.63,0,0,1,.44-.15h1.44v5.58h4.69v2.07h-4.69v9.73a2.08,2.08,0,0,0,.5,1.52,1.72,1.72,0,0,0,1.28.49,2.22,2.22,0,0,0,.77-.12,3.84,3.84,0,0,0,.57-.26l.41-.27a.53.53,0,0,1,.3-.12.5.5,0,0,1,.4.28l.83,1.36a5.65,5.65,0,0,1-1.78,1.08A6,6,0,0,1,410.38,561.43Z" transform="translate(-25.25 -31.66)"/><path d="M276.39,599.57V583.36h1.72a.71.71,0,0,1,.75.6l.21,1.66a8.16,8.16,0,0,1,2-1.81,4.76,4.76,0,0,1,2.59-.7,3.81,3.81,0,0,1,2.65.91,5.15,5.15,0,0,1,1.47,2.46,5.32,5.32,0,0,1,.9-1.52,5.13,5.13,0,0,1,1.24-1.05,5.32,5.32,0,0,1,1.46-.61,6.5,6.5,0,0,1,1.58-.19,5.87,5.87,0,0,1,2.28.41,4.44,4.44,0,0,1,1.7,1.19,5.36,5.36,0,0,1,1.06,1.93,8.35,8.35,0,0,1,.37,2.61v10.32h-2.87V589.25a4.35,4.35,0,0,0-.83-2.89,3,3,0,0,0-2.4-1,3.5,3.5,0,0,0-1.33.25,3.11,3.11,0,0,0-1.12.73,3.47,3.47,0,0,0-.76,1.2,4.87,4.87,0,0,0-.28,1.69v10.32h-2.86V589.25a4.55,4.55,0,0,0-.78-2.91,2.8,2.8,0,0,0-2.29-1,3.53,3.53,0,0,0-1.95.57,6.43,6.43,0,0,0-1.65,1.54v12.08Z" transform="translate(-25.25 -31.66)"/><path d="M309.55,583.11a8.37,8.37,0,0,1,3.2.59,6.83,6.83,0,0,1,2.43,1.68,7.46,7.46,0,0,1,1.54,2.63,11.32,11.32,0,0,1,0,6.91,7.51,7.51,0,0,1-1.54,2.62,6.69,6.69,0,0,1-2.43,1.67,8.37,8.37,0,0,1-3.2.59,8.49,8.49,0,0,1-3.23-.59,6.72,6.72,0,0,1-2.44-1.67,7.51,7.51,0,0,1-1.54-2.62,11.32,11.32,0,0,1,0-6.91,7.46,7.46,0,0,1,1.54-2.63,6.87,6.87,0,0,1,2.44-1.68A8.49,8.49,0,0,1,309.55,583.11Zm0,14.46a4.14,4.14,0,0,0,3.58-1.61,7.41,7.41,0,0,0,1.18-4.48,7.54,7.54,0,0,0-1.18-4.52,4.16,4.16,0,0,0-3.58-1.61,5.14,5.14,0,0,0-2.12.41,4,4,0,0,0-1.51,1.2,5.29,5.29,0,0,0-.89,1.93,10.24,10.24,0,0,0-.3,2.59,7.41,7.41,0,0,0,1.19,4.48A4.21,4.21,0,0,0,309.55,597.57Z" transform="translate(-25.25 -31.66)"/><path d="M323.72,585.7a8.28,8.28,0,0,1,2.31-1.89,6.09,6.09,0,0,1,3-.7,5.94,5.94,0,0,1,2.57.54,5.38,5.38,0,0,1,1.94,1.58,7.4,7.4,0,0,1,1.23,2.5,12.08,12.08,0,0,1,.42,3.31,12.58,12.58,0,0,1-.48,3.59,8.13,8.13,0,0,1-1.38,2.76,6.38,6.38,0,0,1-2.2,1.77,6.48,6.48,0,0,1-2.91.64,5.56,5.56,0,0,1-2.7-.6,5.83,5.83,0,0,1-1.91-1.71l-.15,1.47a.68.68,0,0,1-.73.61h-1.84V576h2.86Zm0,10a4.65,4.65,0,0,0,1.72,1.49,5,5,0,0,0,2.06.43A4.11,4.11,0,0,0,331,596a8,8,0,0,0,1.22-4.81,7.16,7.16,0,0,0-1.08-4.38,3.67,3.67,0,0,0-3.08-1.4,4.5,4.5,0,0,0-2.43.64,7.35,7.35,0,0,0-1.91,1.81Z" transform="translate(-25.25 -31.66)"/><path d="M342.39,578.28a1.83,1.83,0,0,1-.16.77,2.46,2.46,0,0,1-.45.64,2,2,0,0,1-.66.44,1.92,1.92,0,0,1-.79.16,1.93,1.93,0,0,1-1.41-.6,2.18,2.18,0,0,1-.43-.64,1.83,1.83,0,0,1-.16-.77,2,2,0,0,1,.16-.8,2.23,2.23,0,0,1,.43-.65,1.93,1.93,0,0,1,1.41-.6,1.92,1.92,0,0,1,.79.16,2,2,0,0,1,.66.44,2.51,2.51,0,0,1,.45.65A2,2,0,0,1,342.39,578.28Zm-.6,5.08v16.21h-2.85V583.36Z" transform="translate(-25.25 -31.66)"/><path d="M349.4,576v23.57h-2.85V576Z" transform="translate(-25.25 -31.66)"/><path d="M367.16,597.3a5.18,5.18,0,0,1-1.26,1.11,7.49,7.49,0,0,1-1.58.78,10.1,10.1,0,0,1-1.74.45,9.63,9.63,0,0,1-1.77.16,8.26,8.26,0,0,1-3.1-.57,6.9,6.9,0,0,1-2.45-1.67,7.64,7.64,0,0,1-1.6-2.71,10.86,10.86,0,0,1-.58-3.71,9.37,9.37,0,0,1,.52-3.17,7.54,7.54,0,0,1,1.5-2.55,7,7,0,0,1,2.38-1.7,7.86,7.86,0,0,1,3.17-.61,7.15,7.15,0,0,1,2.69.49,6,6,0,0,1,2.15,1.4,6.48,6.48,0,0,1,1.41,2.28,8.43,8.43,0,0,1,.52,3.08,1.79,1.79,0,0,1-.15.89.58.58,0,0,1-.54.23H355.9a9.46,9.46,0,0,0,.42,2.67,5.22,5.22,0,0,0,1.05,1.89,4.2,4.2,0,0,0,1.6,1.14,5.51,5.51,0,0,0,2.08.38,6.32,6.32,0,0,0,1.85-.25,9.62,9.62,0,0,0,1.33-.54,10.22,10.22,0,0,0,.94-.53,1.19,1.19,0,0,1,.65-.25.63.63,0,0,1,.54.27Zm-2.3-7.6a5.84,5.84,0,0,0-.28-1.82,4.07,4.07,0,0,0-.82-1.42,3.69,3.69,0,0,0-1.3-.93,4.44,4.44,0,0,0-1.75-.33,4.38,4.38,0,0,0-3.24,1.2,5.57,5.57,0,0,0-1.48,3.3Z" transform="translate(-25.25 -31.66)"/><path d="M373.61,586.61a7.3,7.3,0,0,1,1.89-2.6,4.11,4.11,0,0,1,2.73-.93,4.06,4.06,0,0,1,1,.11,2.62,2.62,0,0,1,.84.35l-.21,2.13a.47.47,0,0,1-.48.4,3,3,0,0,1-.66-.1,4.78,4.78,0,0,0-1-.09,3.86,3.86,0,0,0-1.37.22,3.2,3.2,0,0,0-1.07.66,4.73,4.73,0,0,0-.85,1.09,9.26,9.26,0,0,0-.68,1.48v10.24H370.9V583.36h1.64a.89.89,0,0,1,.64.18,1.21,1.21,0,0,1,.24.61Z" transform="translate(-25.25 -31.66)"/><path d="M409.37,588.55v8.8a12.81,12.81,0,0,1-3.69,1.86,14.32,14.32,0,0,1-4.3.62,13.86,13.86,0,0,1-5-.86,11,11,0,0,1-3.8-2.4,10.39,10.39,0,0,1-2.42-3.7,12.82,12.82,0,0,1-.85-4.75,13.34,13.34,0,0,1,.82-4.79,10.64,10.64,0,0,1,2.35-3.7,10.28,10.28,0,0,1,3.69-2.39,13.24,13.24,0,0,1,4.87-.85,14.34,14.34,0,0,1,2.53.2,11.56,11.56,0,0,1,2.16.57,10.2,10.2,0,0,1,1.84.92,11.53,11.53,0,0,1,1.58,1.2l-.88,1.41A.85.85,0,0,1,407,581c-.26-.15-.55-.33-.88-.55a8.48,8.48,0,0,0-1.21-.61,9.88,9.88,0,0,0-1.68-.51,11.78,11.78,0,0,0-2.3-.2,9.29,9.29,0,0,0-3.5.63,7.23,7.23,0,0,0-2.67,1.81,8,8,0,0,0-1.7,2.84,12.4,12.4,0,0,0,0,7.62,8.3,8.3,0,0,0,1.76,2.9,7.53,7.53,0,0,0,2.78,1.81,11.13,11.13,0,0,0,6.5.27,12.7,12.7,0,0,0,2.43-1v-5H403a.67.67,0,0,1-.49-.18.58.58,0,0,1-.18-.43v-1.76Z" transform="translate(-25.25 -31.66)"/><path d="M426.41,597.3a5.23,5.23,0,0,1-1.27,1.11,7.42,7.42,0,0,1-1.57.78,10.1,10.1,0,0,1-1.74.45,9.71,9.71,0,0,1-1.77.16,8.22,8.22,0,0,1-3.1-.57,6.9,6.9,0,0,1-2.45-1.67,7.66,7.66,0,0,1-1.61-2.71,11.12,11.12,0,0,1-.57-3.71,9.37,9.37,0,0,1,.52-3.17,7.52,7.52,0,0,1,1.49-2.55,7.12,7.12,0,0,1,2.39-1.7,7.83,7.83,0,0,1,3.17-.61,7.15,7.15,0,0,1,2.69.49,6.11,6.11,0,0,1,2.15,1.4,6.48,6.48,0,0,1,1.41,2.28,8.65,8.65,0,0,1,.51,3.08,1.82,1.82,0,0,1-.14.89.6.6,0,0,1-.54.23H415.14a9.81,9.81,0,0,0,.43,2.67,5.22,5.22,0,0,0,1.05,1.89,4.13,4.13,0,0,0,1.6,1.14,5.51,5.51,0,0,0,2.08.38,6.2,6.2,0,0,0,1.84-.25,9.29,9.29,0,0,0,1.34-.54c.37-.19.69-.37.94-.53a1.19,1.19,0,0,1,.64-.25.63.63,0,0,1,.55.27Zm-2.31-7.6a5.56,5.56,0,0,0-.28-1.82,3.9,3.9,0,0,0-.81-1.42,3.64,3.64,0,0,0-1.31-.93,4.9,4.9,0,0,0-5,.87,5.57,5.57,0,0,0-1.48,3.3Z" transform="translate(-25.25 -31.66)"/><path d="M432.86,586.61a7.4,7.4,0,0,1,1.88-2.6,4.15,4.15,0,0,1,2.74-.93,3.93,3.93,0,0,1,1,.11,2.44,2.44,0,0,1,.84.35l-.2,2.13a.47.47,0,0,1-.48.4,3,3,0,0,1-.66-.1,4.81,4.81,0,0,0-1-.09,3.84,3.84,0,0,0-1.36.22,3.34,3.34,0,0,0-1.08.66,5,5,0,0,0-.84,1.09,9.26,9.26,0,0,0-.68,1.48v10.24h-2.87V583.36h1.63a.87.87,0,0,1,.64.18,1.05,1.05,0,0,1,.24.61Z" transform="translate(-25.25 -31.66)"/><path d="M441.13,585.65a9.15,9.15,0,0,1,2.89-1.93,8.93,8.93,0,0,1,3.44-.64,6.11,6.11,0,0,1,2.42.44,5.07,5.07,0,0,1,1.78,1.25,5.24,5.24,0,0,1,1.08,1.94,7.93,7.93,0,0,1,.37,2.49v10.37h-1.26a1.25,1.25,0,0,1-.64-.13.9.9,0,0,1-.35-.54l-.32-1.54a15.5,15.5,0,0,1-1.25,1,7,7,0,0,1-1.28.77,6.87,6.87,0,0,1-1.43.48,8,8,0,0,1-1.69.17,5.77,5.77,0,0,1-1.78-.27,4.17,4.17,0,0,1-1.45-.79,3.75,3.75,0,0,1-1-1.33,4.7,4.7,0,0,1-.36-1.92,3.46,3.46,0,0,1,.53-1.84,4.55,4.55,0,0,1,1.71-1.58,11.42,11.42,0,0,1,3.09-1.13,23.57,23.57,0,0,1,4.67-.5V589.2a4.29,4.29,0,0,0-.82-2.85,2.92,2.92,0,0,0-2.38-1,5.33,5.33,0,0,0-1.77.26,7,7,0,0,0-1.23.6c-.35.21-.65.41-.9.59a1.33,1.33,0,0,1-.74.26.84.84,0,0,1-.5-.15,1.42,1.42,0,0,1-.35-.38Zm4.73-6.7a1.64,1.64,0,0,1-.14.69,1.85,1.85,0,0,1-.4.56,2.08,2.08,0,0,1-.58.38,1.65,1.65,0,0,1-.7.14,1.55,1.55,0,0,1-.67-.14,2.18,2.18,0,0,1-.57-.38,1.82,1.82,0,0,1-.39-.56,1.65,1.65,0,0,1-.15-.69,1.74,1.74,0,0,1,.15-.71,1.91,1.91,0,0,1,.39-.58,1.81,1.81,0,0,1,.57-.39,1.56,1.56,0,0,1,.67-.15,1.66,1.66,0,0,1,.7.15,1.74,1.74,0,0,1,.58.39,1.94,1.94,0,0,1,.4.58A1.73,1.73,0,0,1,445.86,579Zm4.47,13.33a22.68,22.68,0,0,0-3.35.31,9.06,9.06,0,0,0-2.26.65,3.06,3.06,0,0,0-1.26.94,2,2,0,0,0-.4,1.22,2.67,2.67,0,0,0,.21,1.1,2.09,2.09,0,0,0,.57.76,2.2,2.2,0,0,0,.85.43,3.86,3.86,0,0,0,1.05.14,5.81,5.81,0,0,0,1.37-.15,5.74,5.74,0,0,0,1.18-.44,7.31,7.31,0,0,0,1-.69,9.27,9.27,0,0,0,1-.91ZM452,579a1.81,1.81,0,0,1-.14.69,2,2,0,0,1-.39.56,2.08,2.08,0,0,1-.58.38,1.8,1.8,0,0,1-1.39,0,1.9,1.9,0,0,1-.57-.38,2,2,0,0,1-.39-.56,1.81,1.81,0,0,1-.14-.69,1.91,1.91,0,0,1,.14-.71,2.11,2.11,0,0,1,.39-.58,1.61,1.61,0,0,1,.57-.39,1.69,1.69,0,0,1,1.39,0,1.74,1.74,0,0,1,.58.39,2.11,2.11,0,0,1,.39.58A1.91,1.91,0,0,1,452,579Z" transform="translate(-25.25 -31.66)"/><path d="M462.22,599.83a4,4,0,0,1-3-1.07,4.33,4.33,0,0,1-1-3.09v-9.92h-2a.64.64,0,0,1-.43-.15.6.6,0,0,1-.18-.48V584l2.66-.34.66-5a.68.68,0,0,1,.21-.39.63.63,0,0,1,.44-.15h1.44v5.58h4.69v2.07h-4.69v9.73a2.08,2.08,0,0,0,.5,1.52,1.72,1.72,0,0,0,1.28.49,2.22,2.22,0,0,0,.77-.12,3.84,3.84,0,0,0,.57-.26l.41-.27a.53.53,0,0,1,.29-.12.47.47,0,0,1,.4.28l.84,1.36a5.65,5.65,0,0,1-1.78,1.08A6,6,0,0,1,462.22,599.83Z" transform="translate(-25.25 -31.66)"/><path d="M481.79,597.3a5.42,5.42,0,0,1-1.27,1.11,7.42,7.42,0,0,1-1.57.78,10.34,10.34,0,0,1-1.74.45,9.82,9.82,0,0,1-1.78.16,8.17,8.17,0,0,1-3.09-.57,6.81,6.81,0,0,1-2.45-1.67,7.66,7.66,0,0,1-1.61-2.71,11.12,11.12,0,0,1-.57-3.71,9.37,9.37,0,0,1,.52-3.17,7.36,7.36,0,0,1,1.49-2.55,7,7,0,0,1,2.39-1.7,7.78,7.78,0,0,1,3.16-.61,7.24,7.24,0,0,1,2.7.49,6,6,0,0,1,2.14,1.4,6.35,6.35,0,0,1,1.42,2.28,8.65,8.65,0,0,1,.51,3.08,1.94,1.94,0,0,1-.14.89.61.61,0,0,1-.55.23H470.52a9.1,9.1,0,0,0,.43,2.67,5.36,5.36,0,0,0,1,1.89,4.2,4.2,0,0,0,1.6,1.14,5.51,5.51,0,0,0,2.08.38,6.27,6.27,0,0,0,1.85-.25,9.79,9.79,0,0,0,1.34-.54c.37-.19.68-.37.93-.53a1.21,1.21,0,0,1,.65-.25.63.63,0,0,1,.55.27Zm-2.31-7.6a5.56,5.56,0,0,0-.28-1.82,4.07,4.07,0,0,0-.82-1.42,3.6,3.6,0,0,0-1.3-.93,4.9,4.9,0,0,0-5,.87,5.51,5.51,0,0,0-1.48,3.3Z" transform="translate(-25.25 -31.66)"/><path d="M280,616.68a1.84,1.84,0,0,1-.17.77,2.06,2.06,0,0,1-.45.64,1.83,1.83,0,0,1-.65.44,2,2,0,0,1-.79.16,1.93,1.93,0,0,1-1.41-.6,2,2,0,0,1-.43-.64,1.83,1.83,0,0,1-.16-.77,2,2,0,0,1,.16-.8,1.94,1.94,0,0,1,.43-.65,1.93,1.93,0,0,1,1.41-.6,2,2,0,0,1,.79.16,1.83,1.83,0,0,1,.65.44,2,2,0,0,1,.62,1.45Zm-.61,5.08V638h-2.85V621.76Z" transform="translate(-25.25 -31.66)"/><path d="M293.51,624.44a.62.62,0,0,1-.59.35,1.08,1.08,0,0,1-.54-.18,8.33,8.33,0,0,0-.75-.39,7.1,7.1,0,0,0-1-.4,5.15,5.15,0,0,0-1.44-.18,4.35,4.35,0,0,0-1.3.18,3.12,3.12,0,0,0-1,.5,2.34,2.34,0,0,0-.63.75,2,2,0,0,0-.21.92,1.55,1.55,0,0,0,.36,1,3,3,0,0,0,.95.72,8,8,0,0,0,1.34.53l1.55.5c.52.18,1,.37,1.54.58a5.73,5.73,0,0,1,1.34.8,3.67,3.67,0,0,1,1,1.18,3.58,3.58,0,0,1,.36,1.67,5.38,5.38,0,0,1-.4,2.07,4.54,4.54,0,0,1-1.19,1.65,5.62,5.62,0,0,1-1.92,1.1,8.06,8.06,0,0,1-2.62.4,8.31,8.31,0,0,1-3.07-.55,7.74,7.74,0,0,1-2.34-1.42l.67-1.09a1.06,1.06,0,0,1,.31-.32.82.82,0,0,1,.44-.11,1,1,0,0,1,.61.22c.21.15.47.32.78.5a5.81,5.81,0,0,0,1.11.5,5.4,5.4,0,0,0,1.63.22,4.31,4.31,0,0,0,1.46-.22,3,3,0,0,0,1-.58,2.27,2.27,0,0,0,.61-.85,2.51,2.51,0,0,0,.2-1,1.68,1.68,0,0,0-.36-1.11,2.93,2.93,0,0,0-.95-.76,7.74,7.74,0,0,0-1.35-.54c-.51-.15-1-.32-1.55-.49A15.93,15.93,0,0,1,286,630a5.62,5.62,0,0,1-1.36-.83,3.72,3.72,0,0,1-.95-1.22,4,4,0,0,1-.36-1.77,4.23,4.23,0,0,1,.39-1.78,4.29,4.29,0,0,1,1.12-1.51,5.62,5.62,0,0,1,1.8-1,7.41,7.41,0,0,1,2.45-.38,7.81,7.81,0,0,1,2.87.5,6.82,6.82,0,0,1,2.2,1.39Z" transform="translate(-25.25 -31.66)"/><path d="M302.91,638.23a4,4,0,0,1-3-1.07,4.33,4.33,0,0,1-1-3.09v-9.92H297a.63.63,0,0,1-.43-.15.6.6,0,0,1-.18-.48v-1.13l2.66-.34.65-5a.76.76,0,0,1,.22-.39.63.63,0,0,1,.44-.15h1.44v5.58h4.69v2.07h-4.69v9.73a2,2,0,0,0,.5,1.52,1.72,1.72,0,0,0,1.28.49,2.26,2.26,0,0,0,.77-.12,3.84,3.84,0,0,0,.57-.26l.41-.27a.53.53,0,0,1,.29-.12.47.47,0,0,1,.4.28l.84,1.36a5.77,5.77,0,0,1-1.78,1.08A6,6,0,0,1,302.91,638.23Z" transform="translate(-25.25 -31.66)"/><path d="M330.75,635.7a5.42,5.42,0,0,1-1.27,1.11,7.26,7.26,0,0,1-1.58.78,10,10,0,0,1-1.73.45,10.8,10.8,0,0,1-1.78.16,8.17,8.17,0,0,1-3.09-.57,6.81,6.81,0,0,1-2.45-1.67,7.66,7.66,0,0,1-1.61-2.71,11.12,11.12,0,0,1-.57-3.71,9.37,9.37,0,0,1,.52-3.17,7.36,7.36,0,0,1,1.49-2.55,6.89,6.89,0,0,1,2.39-1.7,7.78,7.78,0,0,1,3.16-.61,7.24,7.24,0,0,1,2.7.49,6,6,0,0,1,2.14,1.4,6.35,6.35,0,0,1,1.42,2.28,8.65,8.65,0,0,1,.51,3.08,1.94,1.94,0,0,1-.14.89.61.61,0,0,1-.55.23H319.48a9.46,9.46,0,0,0,.42,2.67,5.53,5.53,0,0,0,1.05,1.89,4.2,4.2,0,0,0,1.6,1.14,5.51,5.51,0,0,0,2.08.38,6.27,6.27,0,0,0,1.85-.25,9.79,9.79,0,0,0,1.34-.54c.37-.19.68-.37.93-.53a1.21,1.21,0,0,1,.65-.25.63.63,0,0,1,.55.27Zm-2.31-7.6a5.56,5.56,0,0,0-.28-1.82,4.07,4.07,0,0,0-.82-1.42,3.6,3.6,0,0,0-1.3-.93,4.9,4.9,0,0,0-5,.87,5.51,5.51,0,0,0-1.48,3.3Z" transform="translate(-25.25 -31.66)"/><path d="M337.18,624.12A8.76,8.76,0,0,1,338.3,623a7.27,7.27,0,0,1,1.25-.82,6.48,6.48,0,0,1,1.41-.53,6.84,6.84,0,0,1,1.61-.18,5.71,5.71,0,0,1,2.34.44,4.46,4.46,0,0,1,1.7,1.25,5.37,5.37,0,0,1,1,1.94,8.28,8.28,0,0,1,.35,2.51V638h-2.86V627.65a4.34,4.34,0,0,0-.84-2.85,3.11,3.11,0,0,0-2.55-1,4.72,4.72,0,0,0-2.36.61,7.6,7.6,0,0,0-2,1.65V638h-2.86V621.76h1.71a.7.7,0,0,1,.75.6Z" transform="translate(-25.25 -31.66)"/><path d="M357.1,638.23a3.91,3.91,0,0,1-3-1.07,4.29,4.29,0,0,1-1-3.09v-9.92h-1.95a.64.64,0,0,1-.43-.15.6.6,0,0,1-.18-.48v-1.13l2.66-.34.66-5a.68.68,0,0,1,.21-.39.63.63,0,0,1,.44-.15H356v5.58h4.69v2.07H356v9.73a2.09,2.09,0,0,0,.5,1.52,1.72,1.72,0,0,0,1.28.49,2.22,2.22,0,0,0,.77-.12,3.84,3.84,0,0,0,.57-.26l.41-.27a.53.53,0,0,1,.3-.12.5.5,0,0,1,.4.28l.83,1.36a5.65,5.65,0,0,1-1.78,1.08A6,6,0,0,1,357.1,638.23Z" transform="translate(-25.25 -31.66)"/><path d="M373,624.44a.63.63,0,0,1-.59.35,1.08,1.08,0,0,1-.54-.18c-.21-.12-.45-.25-.75-.39a7.1,7.1,0,0,0-1-.4,5.15,5.15,0,0,0-1.44-.18,4.35,4.35,0,0,0-1.3.18,3.29,3.29,0,0,0-1,.5,2.3,2.3,0,0,0-.62.75,2,2,0,0,0-.21.92,1.59,1.59,0,0,0,.35,1,3.14,3.14,0,0,0,1,.72,8,8,0,0,0,1.34.53l1.55.5c.52.18,1,.37,1.54.58a5.73,5.73,0,0,1,1.34.8,3.81,3.81,0,0,1,1,1.18A3.71,3.71,0,0,1,374,633a5.38,5.38,0,0,1-.4,2.07,4.54,4.54,0,0,1-1.19,1.65,5.62,5.62,0,0,1-1.92,1.1,8.06,8.06,0,0,1-2.62.4,8.31,8.31,0,0,1-3.07-.55,7.74,7.74,0,0,1-2.34-1.42l.67-1.09a1.16,1.16,0,0,1,.3-.32.88.88,0,0,1,.45-.11,1,1,0,0,1,.61.22c.21.15.47.32.78.5a5.81,5.81,0,0,0,1.11.5,5.4,5.4,0,0,0,1.63.22,4.31,4.31,0,0,0,1.46-.22,3,3,0,0,0,1-.58,2.39,2.39,0,0,0,.61-.85,2.51,2.51,0,0,0,.2-1,1.68,1.68,0,0,0-.36-1.11,2.93,2.93,0,0,0-1-.76,7.74,7.74,0,0,0-1.35-.54c-.51-.15-1-.32-1.55-.49a15.93,15.93,0,0,1-1.55-.58,5.62,5.62,0,0,1-1.36-.83,3.72,3.72,0,0,1-.95-1.22,4,4,0,0,1-.36-1.77,4.23,4.23,0,0,1,.39-1.78,4.38,4.38,0,0,1,1.11-1.51,5.79,5.79,0,0,1,1.81-1,7.41,7.41,0,0,1,2.45-.38,7.81,7.81,0,0,1,2.87.5,6.82,6.82,0,0,1,2.2,1.39Z" transform="translate(-25.25 -31.66)"/><path d="M388.73,624.64a1.43,1.43,0,0,1-.26.28.58.58,0,0,1-.35.09.9.9,0,0,1-.53-.2c-.19-.13-.43-.28-.71-.44a5.42,5.42,0,0,0-1-.44,5,5,0,0,0-1.51-.2,4.82,4.82,0,0,0-2.11.43,4,4,0,0,0-1.53,1.22,5.56,5.56,0,0,0-.93,1.94,10.56,10.56,0,0,0,0,5.16,5.76,5.76,0,0,0,1,1.92,4.07,4.07,0,0,0,1.49,1.18,4.58,4.58,0,0,0,2,.41,4.9,4.9,0,0,0,1.71-.25,5.46,5.46,0,0,0,1.11-.55c.29-.2.54-.39.73-.55a.92.92,0,0,1,.59-.25.63.63,0,0,1,.54.27l.8,1a5.53,5.53,0,0,1-1.2,1.12,7.39,7.39,0,0,1-1.44.78,8,8,0,0,1-1.63.45,9.85,9.85,0,0,1-1.73.15,7.13,7.13,0,0,1-2.82-.56,6.51,6.51,0,0,1-2.26-1.63,7.59,7.59,0,0,1-1.51-2.61,11.64,11.64,0,0,1,0-6.88,7.67,7.67,0,0,1,1.47-2.65,6.77,6.77,0,0,1,2.39-1.74,8.09,8.09,0,0,1,3.25-.62,7.68,7.68,0,0,1,3,.55,7.25,7.25,0,0,1,2.31,1.56Z" transform="translate(-25.25 -31.66)"/><path d="M395.59,623.92a8.8,8.8,0,0,1,2.31-1.76,6.3,6.3,0,0,1,2.91-.65,5.71,5.71,0,0,1,2.34.44,4.46,4.46,0,0,1,1.7,1.25,5.37,5.37,0,0,1,1,1.94,8.28,8.28,0,0,1,.35,2.51V638h-2.86V627.65a4.34,4.34,0,0,0-.84-2.85,3.11,3.11,0,0,0-2.55-1,4.72,4.72,0,0,0-2.36.61,7.6,7.6,0,0,0-2,1.65V638h-2.86V614.4h2.86Z" transform="translate(-25.25 -31.66)"/><path d="M423.74,635.7a5.42,5.42,0,0,1-1.27,1.11,7.42,7.42,0,0,1-1.57.78,10.1,10.1,0,0,1-1.74.45,10.8,10.8,0,0,1-1.78.16,8.17,8.17,0,0,1-3.09-.57,6.81,6.81,0,0,1-2.45-1.67,7.66,7.66,0,0,1-1.61-2.71,11.12,11.12,0,0,1-.57-3.71,9.37,9.37,0,0,1,.52-3.17,7.36,7.36,0,0,1,1.49-2.55,6.89,6.89,0,0,1,2.39-1.7,7.81,7.81,0,0,1,3.16-.61,7.2,7.2,0,0,1,2.7.49,6,6,0,0,1,2.14,1.4,6.35,6.35,0,0,1,1.42,2.28,8.65,8.65,0,0,1,.51,3.08,1.82,1.82,0,0,1-.14.89.61.61,0,0,1-.55.23H412.47a9.44,9.44,0,0,0,.43,2.67,5.22,5.22,0,0,0,1.05,1.89,4.17,4.17,0,0,0,1.59,1.14,5.54,5.54,0,0,0,2.08.38,6.22,6.22,0,0,0,1.85-.25,9.29,9.29,0,0,0,1.34-.54c.37-.19.68-.37.93-.53a1.24,1.24,0,0,1,.65-.25.63.63,0,0,1,.55.27Zm-2.31-7.6a5.56,5.56,0,0,0-.28-1.82,4.05,4.05,0,0,0-.81-1.42,3.73,3.73,0,0,0-1.31-.93,4.9,4.9,0,0,0-5,.87,5.51,5.51,0,0,0-1.48,3.3Z" transform="translate(-25.25 -31.66)"/><path d="M431.1,616.68a1.84,1.84,0,0,1-.17.77,2.06,2.06,0,0,1-.45.64,1.87,1.87,0,0,1-.66.44,1.92,1.92,0,0,1-.79.16,1.83,1.83,0,0,1-.77-.16,2,2,0,0,1-.64-.44,2.18,2.18,0,0,1-.43-.64,2,2,0,0,1-.16-.77,2.15,2.15,0,0,1,.16-.8,2.1,2.1,0,0,1,.43-.65,2,2,0,0,1,.64-.44,1.83,1.83,0,0,1,.77-.16,1.92,1.92,0,0,1,.79.16,1.87,1.87,0,0,1,.66.44,2,2,0,0,1,.62,1.45Zm-.61,5.08V638h-2.85V621.76Z" transform="translate(-25.25 -31.66)"/><path d="M448.57,614.4V638h-1.7a.74.74,0,0,1-.77-.59l-.25-2a8.88,8.88,0,0,1-2.37,2,6.06,6.06,0,0,1-3.07.77,5.82,5.82,0,0,1-2.53-.54,5.26,5.26,0,0,1-1.94-1.58,7.51,7.51,0,0,1-1.23-2.59,13.23,13.23,0,0,1-.43-3.57,11.17,11.17,0,0,1,.48-3.33,8.19,8.19,0,0,1,1.38-2.68,6.39,6.39,0,0,1,2.2-1.79,6.5,6.5,0,0,1,2.93-.64,5.86,5.86,0,0,1,2.55.5,6.16,6.16,0,0,1,1.9,1.4v-9Zm-2.85,11.22a4.69,4.69,0,0,0-1.73-1.5,5,5,0,0,0-2.08-.42,4.08,4.08,0,0,0-3.47,1.62,7.52,7.52,0,0,0-1.22,4.6,11.85,11.85,0,0,0,.28,2.72,5,5,0,0,0,.8,1.85,3.15,3.15,0,0,0,1.29,1.07,4.4,4.4,0,0,0,1.75.33,4.57,4.57,0,0,0,2.45-.64,7,7,0,0,0,1.93-1.81Z" transform="translate(-25.25 -31.66)"/><path d="M466.23,635.7a5.18,5.18,0,0,1-1.26,1.11,7.49,7.49,0,0,1-1.58.78,10.23,10.23,0,0,1-1.73.45,10.8,10.8,0,0,1-1.78.16,8.26,8.26,0,0,1-3.1-.57,6.77,6.77,0,0,1-2.44-1.67,7.51,7.51,0,0,1-1.61-2.71,10.86,10.86,0,0,1-.58-3.71,9.62,9.62,0,0,1,.52-3.17,7.54,7.54,0,0,1,1.5-2.55,6.85,6.85,0,0,1,2.38-1.7,7.86,7.86,0,0,1,3.17-.61,7.24,7.24,0,0,1,2.7.49,6.07,6.07,0,0,1,2.14,1.4,6.64,6.64,0,0,1,1.42,2.28,8.65,8.65,0,0,1,.51,3.08,1.79,1.79,0,0,1-.15.89.58.58,0,0,1-.54.23H455a9.46,9.46,0,0,0,.42,2.67,5.22,5.22,0,0,0,1.05,1.89,4.2,4.2,0,0,0,1.6,1.14,5.51,5.51,0,0,0,2.08.38,6.27,6.27,0,0,0,1.85-.25,9.13,9.13,0,0,0,1.33-.54,10.22,10.22,0,0,0,.94-.53,1.21,1.21,0,0,1,.65-.25.63.63,0,0,1,.54.27Zm-2.3-7.6a5.56,5.56,0,0,0-.28-1.82,4.07,4.07,0,0,0-.82-1.42,3.69,3.69,0,0,0-1.3-.93,4.92,4.92,0,0,0-5,.87,5.63,5.63,0,0,0-1.48,3.3Z" transform="translate(-25.25 -31.66)"/><path d="M472.66,624.12a10.3,10.3,0,0,1,1.12-1.08,7.76,7.76,0,0,1,1.26-.82,6.12,6.12,0,0,1,1.41-.53,6.78,6.78,0,0,1,1.61-.18,5.75,5.75,0,0,1,2.34.44,4.54,4.54,0,0,1,1.7,1.25,5.53,5.53,0,0,1,1,1.94,8.6,8.6,0,0,1,.35,2.51V638h-2.86V627.65a4.34,4.34,0,0,0-.84-2.85,3.12,3.12,0,0,0-2.56-1,4.75,4.75,0,0,0-2.36.61,7.56,7.56,0,0,0-2,1.65V638H470V621.76h1.71a.71.71,0,0,1,.75.6Z" transform="translate(-25.25 -31.66)"/><path d="M501.24,614.4V638h-1.7a.72.72,0,0,1-.76-.59l-.26-2a8.73,8.73,0,0,1-2.37,2,6,6,0,0,1-3.07.77,5.82,5.82,0,0,1-2.53-.54,5.15,5.15,0,0,1-1.93-1.58,7.35,7.35,0,0,1-1.24-2.59,13.64,13.64,0,0,1-.43-3.57,11.17,11.17,0,0,1,.48-3.33,8.19,8.19,0,0,1,1.38-2.68,6.29,6.29,0,0,1,5.13-2.43,5.88,5.88,0,0,1,2.56.5,6.12,6.12,0,0,1,1.89,1.4v-9Zm-2.85,11.22a4.69,4.69,0,0,0-1.73-1.5,5,5,0,0,0-2.08-.42,4.08,4.08,0,0,0-3.47,1.62,7.52,7.52,0,0,0-1.21,4.6,11.9,11.9,0,0,0,.27,2.72,5.17,5.17,0,0,0,.8,1.85,3.15,3.15,0,0,0,1.29,1.07,4.44,4.44,0,0,0,1.75.33,4.54,4.54,0,0,0,2.45-.64,6.82,6.82,0,0,0,1.93-1.81Z" transform="translate(-25.25 -31.66)"/><polygon points="715.48 402.48 715.48 698.74 883.01 698.74 947.02 736.85 947.02 698.74 998.77 698.74 998.77 402.48 715.48 402.48" fill="#0072c6"/><polygon points="701.92 388.61 701.92 684.87 869.45 684.87 933.46 722.98 933.46 684.87 985.21 684.87 985.21 388.61 701.92 388.61" fill="none" stroke="#000520" stroke-miterlimit="10" stroke-width="1.5"/><text transform="translate(747.55 477.8)" font-size="32" fill="#fff" font-family="Lato-Regular, Lato"><tspan letter-spacing="-0.02em">U</tspan><tspan x="22.77" y="0">se</tspan><tspan x="53.52" y="0" letter-spacing="-0.02em">r</tspan><tspan x="64.5" y="0" xml:space="preserve"> b</tspan><tspan x="90.61" y="0" letter-spacing="-0.01em">r</tspan><tspan x="102" y="0">auchen </tspan><tspan x="0" y="38.4">jeder</tspan><tspan x="71.04" y="38.4" letter-spacing="-0.01em">z</tspan><tspan x="85.2" y="38.4">eit und </tspan><tspan x="0" y="76.8">übe</tspan><tspan x="52.66" y="76.8" letter-spacing="-0.01em">r</tspan><tspan x="64.05" y="76.8">all </tspan><tspan x="103.25" y="76.8" letter-spacing="-0.02em">Z</tspan><tspan x="121.77" y="76.8">ugri</tspan><tspan x="175.58" y="76.8" letter-spacing="-0.02em">ff</tspan><tspan x="196.29" y="76.8"> </tspan><tspan x="0" y="115.2">au</tspan><tspan x="33.74" y="115.2" letter-spacing="-0.02em">f</tspan><tspan x="44.37" y="115.2" xml:space="preserve"> ih</tspan><tspan x="78.1" y="115.2" letter-spacing="-0.02em">r</tspan><tspan x="89.09" y="115.2">e</tspan><tspan x="105.98" y="115.2" letter-spacing="-0.03em"> </tspan><tspan x="113.1" y="115.2" letter-spacing="0em">A</tspan><tspan x="134.7" y="115.2">pps </tspan><tspan x="0" y="153.6">und </tspan><tspan x="61.81" y="153.6" letter-spacing="-0.01em">D</tspan><tspan x="85.73" y="153.6" letter-spacing="-0.01em">a</tspan><tspan x="101.42" y="153.6" letter-spacing="0em">t</tspan><tspan x="112.82" y="153.6">en</tspan></text></svg>