<svg data-name="Layer 1" xmlns="http://www.w3.org/2000/svg" width="1260.02" height="666.48">
    <path d="m831.86 121.33-53.48-42 61-47.93c-138.9 9.07-249.37 122.23-254.14 262.24v19.43a270.89 270.89 0 0 0 54.38 153.6h134.47c-56.69-29-96.42-86.57-100-153.6v-19.43c4.47-88.31 71.63-160.31 157.77-172.31z" fill="#5cbbff"/>
    <text transform="rotate(-110.09 469.703 -29.597)" font-size="24" font-family="Lato-Bold, Lato" font-weight="700">W</text>
    <text transform="rotate(-106.05 468.31 -55.33)" font-size="24" font-family="Lato-Bold, Lato" font-weight="700">o</text>
    <text transform="matrix(-.23 -.97 .97 -.23 647.27 366.45)" font-size="24" font-family="Lato-Bold, Lato" font-weight="700">r</text>
    <text transform="rotate(-101.07 469.98 -86.59)" font-size="24" font-family="Lato-Bold, Lato" font-weight="700">k</text>
    <text transform="rotate(-98.98 469.083 -101.786)" font-size="24" font-family="Lato-Bold, Lato" font-weight="700">l</text>
    <text transform="rotate(-96.78 471.93 -115.03)" font-size="24" font-family="Lato-Bold, Lato" font-weight="700">o</text>
    <text transform="rotate(-94 471.715 -135.565)" font-size="24" font-family="Lato-Bold, Lato" font-weight="700">a</text>
    <text transform="rotate(-90.53 475.76 -159.366)" font-size="24" font-family="Lato-Bold, Lato" font-weight="700">d</text>
    <text transform="rotate(-86.23 477.615 -193.397)" font-size="24" font-family="Lato-Bold, Lato" font-weight="700">O</text>
    <text transform="rotate(-82.63 477.915 -225.756)" font-size="24" font-family="Lato-Bold, Lato" font-weight="700">p</text>
    <text transform="rotate(-79.43 480.082 -254.44)" font-size="24" font-family="Lato-Bold, Lato" font-weight="700">ti</text>
    <text transform="rotate(-75.5 482.585 -291.61)" font-size="24" font-family="Lato-Bold, Lato" font-weight="700">m</text>
    <text transform="rotate(-72.53 481.937 -327.793)" font-size="24" font-family="Lato-Bold, Lato" font-weight="700">i</text>
    <text transform="rotate(-70.61 484.466 -347.749)" font-size="24" font-family="Lato-Bold, Lato" font-weight="700">z</text>
    <text transform="rotate(-68.02 486.6 -378.207)" font-size="24" font-family="Lato-Bold, Lato" font-weight="700">at</text>
    <text transform="rotate(-64.97 489.736 -416.05)" font-size="24" font-family="Lato-Bold, Lato" font-weight="700">i</text>
    <text transform="rotate(-61.71 492.025 -462.277)" font-size="24" font-family="Lato-Bold, Lato" font-weight="700">o</text>
    <text transform="matrix(.52 -.85 .85 .52 672.27 178.22)" font-size="24" font-family="Lato-Bold, Lato" font-weight="700">n</text>
    <path d="M1129.22 293.59V313c-5.2 141.55-118.47 255.52-259.78 261.82h-1.45l54.79-43.06-58.43-45.94a178 178 0 0 0 44.57-6.94c72.92-21.46 127.12-87.14 131.41-165.88l.06-19.41c-3.9-78.51-57.4-144.18-129.7-166.29v31.24L809.78 79.27 910.63 0v35.26c122.79 23.07 214.42 129.37 218.59 258.33z" fill="#5cbbff"/>
    <text transform="rotate(53.8 354.102 1084.738)" font-size="24" font-family="Lato-Bold, Lato" font-weight="700">W</text>
    <text transform="rotate(58.08 359.412 1022.66)" font-size="24" font-family="Lato-Bold, Lato" font-weight="700">o</text>
    <text transform="rotate(60.61 361.113 987.725)" font-size="24" font-family="Lato-Bold, Lato" font-weight="700">r</text>
    <text transform="rotate(63.03 364.654 953.19)" font-size="24" font-family="Lato-Bold, Lato" font-weight="700">k</text>
    <text transform="rotate(65.12 365.028 929.238)" font-size="24" font-family="Lato-Bold, Lato" font-weight="700">l</text>
    <text transform="rotate(67.31 369.036 899.895)" font-size="24" font-family="Lato-Bold, Lato" font-weight="700">o</text>
    <text transform="rotate(70.19 371.153 868.115)" font-size="24" font-family="Lato-Bold, Lato" font-weight="700">a</text>
    <text transform="rotate(73.04 373.818 837.814)" font-size="24" font-family="Lato-Bold, Lato" font-weight="700">d</text>
    <text transform="rotate(77.96 378.86 789.097)" font-size="24" font-family="Lato-Bold, Lato" font-weight="700">O</text>
    <text transform="rotate(81.51 379.694 760.102)" font-size="24" font-family="Lato-Bold, Lato" font-weight="700">p</text>
    <text transform="rotate(84.63 381.996 734.367)" font-size="24" font-family="Lato-Bold, Lato" font-weight="700">ti</text>
    <text transform="rotate(89.4 387.874 694.984)" font-size="24" font-family="Lato-Bold, Lato" font-weight="700">m</text>
    <text transform="rotate(91.1 382.593 688.895)" font-size="24" font-family="Lato-Bold, Lato" font-weight="700">i</text>
    <text transform="rotate(93.14 385.335 673.77)" font-size="24" font-family="Lato-Bold, Lato" font-weight="700">z</text>
    <text transform="rotate(96 384.549 655.626)" font-size="24" font-family="Lato-Bold, Lato" font-weight="700">at</text>
    <text transform="rotate(98.6 388.418 637.221)" font-size="24" font-family="Lato-Bold, Lato" font-weight="700">i</text>
    <text transform="rotate(101.94 390.427 617.406)" font-size="24" font-family="Lato-Bold, Lato" font-weight="700">o</text>
    <text transform="scale(-1) rotate(-75 -778.178 508.575)" font-size="24" font-family="Lato-Bold, Lato" font-weight="700">n</text>
    <path d="M999.96 338.16a152.13 152.13 0 0 0 0-68.71h-28.51a123 123 0 0 0-10.46-25.12l20.17-20.16a151.31 151.31 0 0 0-48.55-48.61l-20.21 20.17a123.53 123.53 0 0 0-25.13-10.46v-28.51a152.5 152.5 0 0 0-68.71 0v28.51a123.92 123.92 0 0 0-25.12 10.46l-20.21-20.18a151.84 151.84 0 0 0-48.55 48.59l20.17 20.19a122 122 0 0 0-10.46 25.13h-28.52a152.5 152.5 0 0 0 0 68.71h28.52a122.64 122.64 0 0 0 10.46 25.16l-20.17 20.15a151.31 151.31 0 0 0 48.57 48.59l20.19-20.19a122.23 122.23 0 0 0 25.12 10.45v28.51a152.13 152.13 0 0 0 68.71 0v-28.51a121.85 121.85 0 0 0 25.13-10.46l20.19 20.19a151.2 151.2 0 0 0 48.57-48.62l-20.17-20.11a122.08 122.08 0 0 0 10.46-25.13zm-77.81 34.88a97.91 97.91 0 1 1 0-138.46 97.9 97.9 0 0 1 0 138.46z" fill="#0072c6" opacity=".25"/>
    <path fill="#acd653" opacity=".75" d="M215.08 573.61h590.76v6.13H215.08z"/>
    <path fill="#fcd116" d="M215.08 477.55h396.19v6.13H215.08z"/>
    <path d="M1159.16 606.12V570.2H955.57a291 291 0 0 0 105.59-70.4q8.64-9 16.4-18.61h81.6v-33.61l100.87 79.27zM906.7 529.85l-100.86-79.27v33.62l-157.05.09 58.1 45.56-58.1 43.2 157.05.15v35.92l100.86-79.27z" fill="#0072c6"/>
    <path fill="#0072c6" d="m690.54 529.85-100.86-79.27v33.62l-157.04.09 58.09 45.56-58.09 43.2 157.04.15v35.92l100.86-79.27z"/>
    <path d="M519.59 514.01h-1.66a.68.68 0 0 1-.46-.14.86.86 0 0 1-.26-.34l-.87-2.36h-4.79l-.86 2.36a.77.77 0 0 1-.25.33.69.69 0 0 1-.46.15h-1.68l4.56-11.56h2.19zm-3.8-4.36-1.41-3.85a6.06 6.06 0 0 1-.21-.61c-.08-.23-.15-.49-.23-.76-.07.27-.14.53-.21.76s-.15.45-.22.62l-1.4 3.84zM522.34 506.93a4 4 0 0 1 1.14-.92 3 3 0 0 1 1.5-.36 2.64 2.64 0 0 1 2.19 1.1 3.9 3.9 0 0 1 .63 1.31 6.85 6.85 0 0 1 .22 1.79 5.77 5.77 0 0 1-.25 1.7 4.19 4.19 0 0 1-.71 1.36 3.44 3.44 0 0 1-1.11.9 3.19 3.19 0 0 1-1.46.32 2.7 2.7 0 0 1-2.05-.8v3.36h-2v-10.88h1.21a.49.49 0 0 1 .51.36zm.1 5a1.92 1.92 0 0 0 .73.57 2.24 2.24 0 0 0 .86.17 1.92 1.92 0 0 0 .81-.17 1.56 1.56 0 0 0 .61-.51 2.5 2.5 0 0 0 .39-.87 5 5 0 0 0 .14-1.23 5.29 5.29 0 0 0-.12-1.22 2.5 2.5 0 0 0-.33-.82 1.34 1.34 0 0 0-.53-.45 1.54 1.54 0 0 0-.7-.15 2 2 0 0 0-1 .26 3.29 3.29 0 0 0-.82.74zM531.42 506.93a4.2 4.2 0 0 1 1.15-.92 3 3 0 0 1 1.5-.36 2.64 2.64 0 0 1 2.19 1.1 3.71 3.71 0 0 1 .62 1.31 6.45 6.45 0 0 1 .22 1.79 5.77 5.77 0 0 1-.24 1.7 4.39 4.39 0 0 1-.71 1.36 3.44 3.44 0 0 1-1.11.9 3.22 3.22 0 0 1-1.46.32 3 3 0 0 1-1.18-.21 2.73 2.73 0 0 1-.87-.59v3.36h-2v-10.88h1.25a.48.48 0 0 1 .5.36zm.11 5a1.92 1.92 0 0 0 .73.57 2.2 2.2 0 0 0 .86.17 1.92 1.92 0 0 0 .81-.17 1.56 1.56 0 0 0 .61-.51 2.5 2.5 0 0 0 .39-.87 5 5 0 0 0 .13-1.23 5.35 5.35 0 0 0-.11-1.22 2.5 2.5 0 0 0-.33-.82 1.34 1.34 0 0 0-.53-.45 1.57 1.57 0 0 0-.7-.15 2 2 0 0 0-1.05.26 3.26 3.26 0 0 0-.81.74zM540.64 502.13v11.88h-2v-11.88zM544.94 503.41a1.13 1.13 0 0 1-.11.48 1.56 1.56 0 0 1-.27.4 1.25 1.25 0 0 1-.41.26 1.16 1.16 0 0 1-.49.1 1.13 1.13 0 0 1-.49-.1 1.16 1.16 0 0 1-.39-.22 1.18 1.18 0 0 1-.27-.4 1.12 1.12 0 0 1-.1-.48 1.16 1.16 0 0 1 .1-.49 1 1 0 0 1 .27-.4 1.36 1.36 0 0 1 .39-.27 1.13 1.13 0 0 1 .49-.1 1.16 1.16 0 0 1 .49.1 1.46 1.46 0 0 1 .41.27 1.28 1.28 0 0 1 .27.4 1.17 1.17 0 0 1 .11.45zm-.28 2.4v8.2h-2v-8.2zM552.56 507.54a1 1 0 0 1-.17.18.44.44 0 0 1-.25.06.52.52 0 0 1-.29-.09l-.35-.21a3 3 0 0 0-.47-.21 2.26 2.26 0 0 0-.69-.09 2 2 0 0 0-.91.19 1.8 1.8 0 0 0-.65.54 2.66 2.66 0 0 0-.39.85 4.87 4.87 0 0 0-.13 1.13 4.58 4.58 0 0 0 .14 1.17 2.55 2.55 0 0 0 .41.86 1.72 1.72 0 0 0 .64.53 1.92 1.92 0 0 0 .84.18 2.07 2.07 0 0 0 .77-.12 2.24 2.24 0 0 0 .49-.25l.35-.26a.57.57 0 0 1 .33-.11.4.4 0 0 1 .36.18l.57.72a3.52 3.52 0 0 1-.71.64 3.41 3.41 0 0 1-.8.42 4.08 4.08 0 0 1-.85.22 6.33 6.33 0 0 1-.86.06 3.66 3.66 0 0 1-1.44-.28 3.3 3.3 0 0 1-1.17-.83 3.9 3.9 0 0 1-.8-1.33 5.61 5.61 0 0 1 0-3.47 3.84 3.84 0 0 1 .76-1.34 3.63 3.63 0 0 1 1.25-.88 4.21 4.21 0 0 1 1.71-.32 4.26 4.26 0 0 1 1.62.29 4 4 0 0 1 1.24.85zM554.2 506.95a4.89 4.89 0 0 1 3.41-1.3 3.3 3.3 0 0 1 1.29.24 2.94 2.94 0 0 1 1 .66 2.85 2.85 0 0 1 .59 1 3.78 3.78 0 0 1 .21 1.28v5.18h-.92a.84.84 0 0 1-.43-.08.61.61 0 0 1-.24-.34l-.18-.59a6.23 6.23 0 0 1-.61.49 3.76 3.76 0 0 1-.61.36 3.71 3.71 0 0 1-.69.22 4 4 0 0 1-.8.07 2.93 2.93 0 0 1-1-.14 2 2 0 0 1-.76-.42 2 2 0 0 1-.5-.69 2.63 2.63 0 0 1-.17-1 1.87 1.87 0 0 1 .1-.62 1.77 1.77 0 0 1 .34-.59 2.94 2.94 0 0 1 .61-.53 4 4 0 0 1 .93-.43 8.51 8.51 0 0 1 1.27-.3 13.06 13.06 0 0 1 1.74-.09v-.48a1.81 1.81 0 0 0-.35-1.22 1.32 1.32 0 0 0-1-.4 2.29 2.29 0 0 0-.8.12 3.13 3.13 0 0 0-.55.25l-.44.25a.92.92 0 0 1-.43.11.55.55 0 0 1-.36-.11.92.92 0 0 1-.23-.25zm4.53 3.56a11.87 11.87 0 0 0-1.44.15 4 4 0 0 0-.94.27 1.31 1.31 0 0 0-.5.4.86.86 0 0 0-.16.48.88.88 0 0 0 .31.75 1.36 1.36 0 0 0 .81.22 2.32 2.32 0 0 0 1.05-.22 3 3 0 0 0 .87-.67zM570.68 514.01h-2v-6.68h-3.8v4.44a.9.9 0 0 0 .18.6.65.65 0 0 0 .52.22 1 1 0 0 0 .31 0 1 1 0 0 0 .21-.1l.17-.09a.25.25 0 0 1 .14 0 .2.2 0 0 1 .14 0 .77.77 0 0 1 .12.13l.6 1a3 3 0 0 1-1 .55 3.75 3.75 0 0 1-1.16.18 2.16 2.16 0 0 1-1.64-.6 2.33 2.33 0 0 1-.57-1.67v-4.66h-.84a.37.37 0 0 1-.27-.11.39.39 0 0 1-.12-.31v-.78l1.32-.23.42-2.23a.48.48 0 0 1 .15-.25.46.46 0 0 1 .29-.09h1v2.59h5.78zm.34-10.63a1.19 1.19 0 0 1-.1.49 1.21 1.21 0 0 1-.28.39 1.33 1.33 0 0 1-.41.27 1.18 1.18 0 0 1-.5.1 1.12 1.12 0 0 1-.48-.1 1.51 1.51 0 0 1-.39-.27 1.36 1.36 0 0 1-.27-.39 1.38 1.38 0 0 1-.1-.49 1.34 1.34 0 0 1 .1-.49 1.56 1.56 0 0 1 .27-.4 1.3 1.3 0 0 1 .39-.27 1.12 1.12 0 0 1 .48-.1 1.31 1.31 0 0 1 .91.37 1.38 1.38 0 0 1 .28.4 1.16 1.16 0 0 1 .1.49zM576.33 505.68a4.67 4.67 0 0 1 1.66.29 3.75 3.75 0 0 1 1.28.84 4 4 0 0 1 .82 1.33 5.64 5.64 0 0 1 0 3.51 3.93 3.93 0 0 1-.82 1.34 3.63 3.63 0 0 1-1.28.85 4.46 4.46 0 0 1-1.66.29 4.53 4.53 0 0 1-1.68-.29 3.63 3.63 0 0 1-1.28-.85 3.78 3.78 0 0 1-.82-1.34 5.28 5.28 0 0 1 0-3.51 3.83 3.83 0 0 1 .82-1.33 3.75 3.75 0 0 1 1.28-.84 4.74 4.74 0 0 1 1.68-.29zm0 6.93a1.72 1.72 0 0 0 1.51-.68 4.33 4.33 0 0 0 0-4 1.71 1.71 0 0 0-1.51-.7 1.75 1.75 0 0 0-1.54.7 3.41 3.41 0 0 0-.5 2 3.35 3.35 0 0 0 .5 2 1.76 1.76 0 0 0 1.54.68zM583.78 506.81c.16-.16.34-.31.52-.46a3.5 3.5 0 0 1 .58-.36 4.67 4.67 0 0 1 .66-.23 3.71 3.71 0 0 1 .77-.08 2.78 2.78 0 0 1 1.19.23 2.24 2.24 0 0 1 .87.64 2.8 2.8 0 0 1 .53 1 4.17 4.17 0 0 1 .18 1.26v5.22h-2v-5.22a1.75 1.75 0 0 0-.34-1.16 1.28 1.28 0 0 0-1.05-.42 2 2 0 0 0-1 .24 3.28 3.28 0 0 0-.85.63v5.93h-2v-8.2h1.21a.49.49 0 0 1 .5.36zM519.59 533.21h-1.66a.68.68 0 0 1-.46-.14.86.86 0 0 1-.26-.34l-.87-2.36h-4.79l-.86 2.36a.77.77 0 0 1-.25.33.69.69 0 0 1-.46.15h-1.68l4.56-11.56h2.19zm-3.8-4.36-1.41-3.85a6.06 6.06 0 0 1-.21-.61c-.08-.23-.15-.49-.23-.76-.07.27-.14.53-.21.76s-.15.45-.22.62l-1.4 3.84zM525.49 526.61a.74.74 0 0 1-.17.18.48.48 0 0 1-.22 0 .75.75 0 0 1-.31-.08l-.38-.18a3.12 3.12 0 0 0-.49-.18 2.59 2.59 0 0 0-.66-.08 1.45 1.45 0 0 0-.91.25.76.76 0 0 0-.33.64.6.6 0 0 0 .17.45 1.43 1.43 0 0 0 .45.31 3.52 3.52 0 0 0 .65.25l.73.23c.25.09.49.19.73.3a2.56 2.56 0 0 1 .65.41 1.83 1.83 0 0 1 .45.61 1.8 1.8 0 0 1 .17.84 2.84 2.84 0 0 1-.21 1.1 2.31 2.31 0 0 1-.63.86 3 3 0 0 1-1 .57 4.68 4.68 0 0 1-1.42.2 4.47 4.47 0 0 1-.82-.07 4.1 4.1 0 0 1-.78-.22 3.64 3.64 0 0 1-.69-.32 2.88 2.88 0 0 1-.55-.4l.45-.75a.7.7 0 0 1 .21-.21.66.66 0 0 1 .3-.07.63.63 0 0 1 .35.11l.38.22a4.11 4.11 0 0 0 .51.22 2.18 2.18 0 0 0 .74.11 1.76 1.76 0 0 0 .6-.09 1.19 1.19 0 0 0 .42-.22.79.79 0 0 0 .24-.31 1 1 0 0 0 .08-.37.66.66 0 0 0-.18-.48 1.63 1.63 0 0 0-.45-.32 4.43 4.43 0 0 0-.65-.24l-.74-.23a6.21 6.21 0 0 1-.75-.31 2.62 2.62 0 0 1-.65-.43 1.89 1.89 0 0 1-.45-.65 2.21 2.21 0 0 1-.17-.93 2.3 2.3 0 0 1 .2-1 2.25 2.25 0 0 1 .58-.79 3 3 0 0 1 1-.55 4.24 4.24 0 0 1 1.34-.2 4.07 4.07 0 0 1 1.55.28 3.65 3.65 0 0 1 1.16.73zM532.52 526.61a.59.59 0 0 1-.17.18.48.48 0 0 1-.22 0 .75.75 0 0 1-.31-.08l-.38-.18a2.79 2.79 0 0 0-.49-.18 2.51 2.51 0 0 0-.65-.08 1.48 1.48 0 0 0-.92.25.76.76 0 0 0-.33.64.64.64 0 0 0 .17.45 1.61 1.61 0 0 0 .46.31 3.41 3.41 0 0 0 .64.25l.73.23c.25.09.49.19.73.3a2.56 2.56 0 0 1 .65.41 1.83 1.83 0 0 1 .45.61 1.8 1.8 0 0 1 .18.84 2.67 2.67 0 0 1-.22 1.1 2.4 2.4 0 0 1-.62.86 3.09 3.09 0 0 1-1 .57 4.66 4.66 0 0 1-1.41.2 4.5 4.5 0 0 1-.83-.07 4.1 4.1 0 0 1-.78-.22 3.64 3.64 0 0 1-.69-.32 2.88 2.88 0 0 1-.55-.4l.45-.75a.7.7 0 0 1 .21-.21.68.68 0 0 1 .31-.07.62.62 0 0 1 .34.11l.38.22a4.11 4.11 0 0 0 .51.22 2.22 2.22 0 0 0 .74.11 1.82 1.82 0 0 0 .61-.09 1.23 1.23 0 0 0 .41-.22.79.79 0 0 0 .24-.31 1 1 0 0 0 .08-.37.7.7 0 0 0-.17-.48 1.86 1.86 0 0 0-.46-.32 4.43 4.43 0 0 0-.65-.24l-.74-.23a7 7 0 0 1-.75-.31 2.57 2.57 0 0 1-.64-.43 1.92 1.92 0 0 1-.46-.65 2.38 2.38 0 0 1-.17-.93 2.3 2.3 0 0 1 .2-1 2.16 2.16 0 0 1 .59-.79 2.88 2.88 0 0 1 1-.55 4.24 4.24 0 0 1 1.34-.2 4.07 4.07 0 0 1 1.55.28 3.65 3.65 0 0 1 1.16.73zM536.06 529.33a4.1 4.1 0 0 0 .23 1.09 2.27 2.27 0 0 0 .46.76 1.8 1.8 0 0 0 .69.45 2.41 2.41 0 0 0 .87.15 2.88 2.88 0 0 0 .83-.11 4.52 4.52 0 0 0 .61-.25l.45-.25a.74.74 0 0 1 .38-.11.41.41 0 0 1 .37.18l.57.72a3 3 0 0 1-.74.64 3.54 3.54 0 0 1-.85.42 4.55 4.55 0 0 1-.9.22 7 7 0 0 1-.89.06 4.45 4.45 0 0 1-1.6-.28 3.65 3.65 0 0 1-1.28-.84 4 4 0 0 1-.85-1.38 5.26 5.26 0 0 1-.31-1.9 4.6 4.6 0 0 1 .27-1.58 3.7 3.7 0 0 1 .78-1.28 3.56 3.56 0 0 1 1.24-.87 4.15 4.15 0 0 1 1.65-.32 3.87 3.87 0 0 1 1.43.25 3 3 0 0 1 1.13.72 3.34 3.34 0 0 1 .74 1.17 4.33 4.33 0 0 1 .27 1.58 1.17 1.17 0 0 1-.1.6c-.06.11-.18.16-.37.16zm3.77-1.19a2.19 2.19 0 0 0-.11-.73 1.77 1.77 0 0 0-.32-.59 1.53 1.53 0 0 0-.55-.41 2.09 2.09 0 0 0-2.12.34 2.4 2.4 0 0 0-.63 1.39zM548.1 526.61a.74.74 0 0 1-.17.18.52.52 0 0 1-.23 0 .75.75 0 0 1-.3-.08l-.38-.18a2.91 2.91 0 0 0-.5-.18 2.46 2.46 0 0 0-.65-.08 1.45 1.45 0 0 0-.91.25.75.75 0 0 0-.34.64.61.61 0 0 0 .18.45 1.43 1.43 0 0 0 .45.31 3.52 3.52 0 0 0 .65.25l.73.23c.25.09.49.19.73.3a2.5 2.5 0 0 1 .64.41 1.85 1.85 0 0 1 .46.61 1.93 1.93 0 0 1 .17.84 2.84 2.84 0 0 1-.21 1.1 2.31 2.31 0 0 1-.63.86 3 3 0 0 1-1 .57 5 5 0 0 1-2.24.13 4 4 0 0 1-.77-.22 3.64 3.64 0 0 1-.69-.32 3 3 0 0 1-.56-.4l.46-.75a.7.7 0 0 1 .21-.21.66.66 0 0 1 .3-.07.66.66 0 0 1 .35.11l.38.22a3.11 3.11 0 0 0 .51.22 2.18 2.18 0 0 0 .74.11 1.8 1.8 0 0 0 .6-.09 1.19 1.19 0 0 0 .42-.22.79.79 0 0 0 .24-.31 1 1 0 0 0 .07-.37.66.66 0 0 0-.17-.48 1.63 1.63 0 0 0-.45-.32 4.43 4.43 0 0 0-.65-.24l-.75-.23a6.81 6.81 0 0 1-.74-.31 2.62 2.62 0 0 1-.65-.43 1.89 1.89 0 0 1-.45-.65 2.2 2.2 0 0 1-.18-.93 2.46 2.46 0 0 1 .2-1 2.28 2.28 0 0 1 .59-.79 2.93 2.93 0 0 1 1-.55 4.2 4.2 0 0 1 1.34-.2 4 4 0 0 1 1.54.28 3.54 3.54 0 0 1 1.16.73zM555.13 526.61a.59.59 0 0 1-.17.18.48.48 0 0 1-.22 0 .75.75 0 0 1-.31-.08l-.38-.18a3.12 3.12 0 0 0-.49-.18 2.54 2.54 0 0 0-.66-.08 1.47 1.47 0 0 0-.91.25.76.76 0 0 0-.33.64.6.6 0 0 0 .17.45 1.55 1.55 0 0 0 .45.31 3.52 3.52 0 0 0 .65.25l.73.23c.25.09.49.19.73.3a2.56 2.56 0 0 1 .65.41 1.83 1.83 0 0 1 .45.61 1.8 1.8 0 0 1 .17.84 2.84 2.84 0 0 1-.21 1.1 2.31 2.31 0 0 1-.63.86 3 3 0 0 1-1 .57 4.68 4.68 0 0 1-1.42.2 4.47 4.47 0 0 1-.82-.07 4.1 4.1 0 0 1-.78-.22 3.64 3.64 0 0 1-.69-.32 2.88 2.88 0 0 1-.55-.4l.45-.75a.7.7 0 0 1 .21-.21.66.66 0 0 1 .3-.07.63.63 0 0 1 .35.11l.38.22a4.11 4.11 0 0 0 .51.22 2.22 2.22 0 0 0 .74.11 1.72 1.72 0 0 0 .6-.09 1.19 1.19 0 0 0 .42-.22.79.79 0 0 0 .26-.27 1 1 0 0 0 .08-.37.66.66 0 0 0-.18-.48 1.63 1.63 0 0 0-.45-.32 4.43 4.43 0 0 0-.65-.24l-.74-.23a6.21 6.21 0 0 1-.75-.31 2.62 2.62 0 0 1-.65-.43 2 2 0 0 1-.45-.65 2.21 2.21 0 0 1-.17-.93 2.3 2.3 0 0 1 .2-1 2.25 2.25 0 0 1 .58-.79 3 3 0 0 1 1-.55 4.24 4.24 0 0 1 1.34-.2 4.07 4.07 0 0 1 1.55.28 3.65 3.65 0 0 1 1.16.73zM557.15 533.21v-8.2h1.21a.48.48 0 0 1 .5.36l.13.6c.15-.16.3-.3.45-.44a3.48 3.48 0 0 1 .51-.34 2.83 2.83 0 0 1 .57-.23 3 3 0 0 1 .68-.08 1.93 1.93 0 0 1 1.28.42 2.5 2.5 0 0 1 .74 1.11 2.71 2.71 0 0 1 .48-.7 2.85 2.85 0 0 1 .64-.47 3 3 0 0 1 .73-.27 3.46 3.46 0 0 1 .78-.09 3.3 3.3 0 0 1 1.21.21 2.29 2.29 0 0 1 .88.61 2.56 2.56 0 0 1 .55 1 4.08 4.08 0 0 1 .19 1.32v5.22h-2v-5.22a1.75 1.75 0 0 0-.34-1.18 1.27 1.27 0 0 0-1-.4 1.47 1.47 0 0 0-.56.11 1.33 1.33 0 0 0-.77.79 2 2 0 0 0-.11.68v5.22h-2v-5.22a1.79 1.79 0 0 0-.33-1.2 1.24 1.24 0 0 0-1-.38 1.64 1.64 0 0 0-.81.22 2.48 2.48 0 0 0-.69.58v6zM572.07 529.33a3.74 3.74 0 0 0 .23 1.09 2.12 2.12 0 0 0 .46.76 1.84 1.84 0 0 0 .68.45 2.5 2.5 0 0 0 .88.15 2.88 2.88 0 0 0 .83-.11 5.13 5.13 0 0 0 .61-.25l.45-.25a.72.72 0 0 1 .38-.11.41.41 0 0 1 .37.18l.57.72a3.18 3.18 0 0 1-.74.64 3.54 3.54 0 0 1-.85.42 4.92 4.92 0 0 1-.9.22 7 7 0 0 1-.9.06 4.36 4.36 0 0 1-1.59-.28 3.65 3.65 0 0 1-1.28-.84 3.84 3.84 0 0 1-.85-1.38 5.25 5.25 0 0 1-.32-1.9 4.61 4.61 0 0 1 .28-1.58 3.7 3.7 0 0 1 .78-1.28 3.56 3.56 0 0 1 1.24-.87 4.12 4.12 0 0 1 1.65-.32 3.91 3.91 0 0 1 1.43.25 3 3 0 0 1 1.13.72 3.49 3.49 0 0 1 .74 1.17 4.33 4.33 0 0 1 .27 1.58 1.29 1.29 0 0 1-.1.6.39.39 0 0 1-.37.16zm3.77-1.19a2.48 2.48 0 0 0-.11-.73 1.77 1.77 0 0 0-.32-.59 1.62 1.62 0 0 0-.55-.41 2.09 2.09 0 0 0-2.12.34 2.4 2.4 0 0 0-.63 1.39zM580.94 526.01c.17-.16.34-.31.53-.46a2.89 2.89 0 0 1 .58-.35 3 3 0 0 1 1.43-.32 2.78 2.78 0 0 1 1.19.23 2.24 2.24 0 0 1 .87.64 2.8 2.8 0 0 1 .53 1 4.17 4.17 0 0 1 .18 1.26v5.22h-2v-5.22a1.75 1.75 0 0 0-.34-1.16 1.28 1.28 0 0 0-1-.42 2 2 0 0 0-1 .24 3.28 3.28 0 0 0-.85.63v5.93h-2v-8.2h1.2a.49.49 0 0 1 .51.36zM590.78 533.33a2.16 2.16 0 0 1-1.64-.6 2.33 2.33 0 0 1-.57-1.67v-4.58h-.84a.37.37 0 0 1-.27-.11.39.39 0 0 1-.12-.31v-.73l1.32-.22.42-2.24a.48.48 0 0 1 .15-.25.46.46 0 0 1 .29-.09h1v2.59h2.2v1.41h-2.2v4.44a.9.9 0 0 0 .19.6.65.65 0 0 0 .52.22 1 1 0 0 0 .31 0 1 1 0 0 0 .21-.1l.17-.09a.23.23 0 0 1 .14 0 .2.2 0 0 1 .14 0 .77.77 0 0 1 .12.13l.6 1a3 3 0 0 1-1 .55 3.75 3.75 0 0 1-1.14.05zM608.4 533.21h-1.94a1.37 1.37 0 0 1-.49-.07 1.2 1.2 0 0 1-.39-.3l-.8-.83a5.81 5.81 0 0 1-1.71 1 5.68 5.68 0 0 1-2 .35 3.73 3.73 0 0 1-1.31-.23 3.51 3.51 0 0 1-1.14-.66 3.24 3.24 0 0 1-.82-1 3.11 3.11 0 0 1-.3-1.38 3.18 3.18 0 0 1 .17-1 3.58 3.58 0 0 1 .49-.9 4.37 4.37 0 0 1 .74-.75 5.32 5.32 0 0 1 .95-.57 4.49 4.49 0 0 1-.63-1.17 3.78 3.78 0 0 1-.19-1.14 3.12 3.12 0 0 1 .22-1.14 2.76 2.76 0 0 1 .64-.94 3.11 3.11 0 0 1 1-.64 4 4 0 0 1 1.38-.23 3.54 3.54 0 0 1 1.26.21 3.1 3.1 0 0 1 .95.58 2.73 2.73 0 0 1 .62.82 2.39 2.39 0 0 1 .27 1l-1.25.27a.43.43 0 0 1-.52-.31 2 2 0 0 0-.18-.39 1.29 1.29 0 0 0-.28-.33 1.19 1.19 0 0 0-.38-.22 1.22 1.22 0 0 0-.49-.09 1.4 1.4 0 0 0-.6.12 1.34 1.34 0 0 0-.45.31 1.24 1.24 0 0 0-.27.46 1.4 1.4 0 0 0-.1.54 2.42 2.42 0 0 0 .05.47 2 2 0 0 0 .16.45 3.46 3.46 0 0 0 .29.46 6.12 6.12 0 0 0 .45.5l3.07 3.2a6 6 0 0 0 .63-2.2.55.55 0 0 1 .13-.3.38.38 0 0 1 .29-.11h1.23a7 7 0 0 1-.31 2 6.55 6.55 0 0 1-.84 1.77zm-7.7-5.4a2.72 2.72 0 0 0-.94.94 2.31 2.31 0 0 0-.29 1.12 2 2 0 0 0 .15.79 1.75 1.75 0 0 0 .42.6 1.68 1.68 0 0 0 .6.37 2.07 2.07 0 0 0 .74.14 3.79 3.79 0 0 0 1.29-.22 3.64 3.64 0 0 0 1.06-.62zM519.59 552.41h-1.66a.68.68 0 0 1-.46-.14.86.86 0 0 1-.26-.34l-.87-2.36h-4.79l-.86 2.36a.77.77 0 0 1-.25.33.69.69 0 0 1-.46.15h-1.68l4.56-11.56h2.19zm-3.8-4.36-1.41-3.85c-.07-.17-.14-.38-.21-.61s-.15-.49-.23-.76c-.07.27-.14.53-.21.76s-.15.45-.22.62l-1.4 3.84zM522.31 545.21c.17-.16.34-.31.53-.46a3.13 3.13 0 0 1 .58-.36 4.67 4.67 0 0 1 .66-.23 3.64 3.64 0 0 1 .77-.08 2.81 2.81 0 0 1 1.19.23 2.24 2.24 0 0 1 .87.64 2.8 2.8 0 0 1 .53 1 4.17 4.17 0 0 1 .18 1.26v5.22h-2v-5.22a1.75 1.75 0 0 0-.34-1.16 1.28 1.28 0 0 0-1-.42 2 2 0 0 0-1 .24 3.28 3.28 0 0 0-.85.63v5.93h-2v-8.2h1.21a.49.49 0 0 1 .51.36zM529.3 545.33a4.88 4.88 0 0 1 3.4-1.3 3.3 3.3 0 0 1 1.29.24 2.74 2.74 0 0 1 1 .66 2.87 2.87 0 0 1 .6 1 4 4 0 0 1 .2 1.28v5.18h-.89a.89.89 0 0 1-.44-.08.61.61 0 0 1-.24-.34l-.17-.59c-.21.18-.41.35-.61.49a3.85 3.85 0 0 1-.62.36 4.51 4.51 0 0 1-.68.22 4 4 0 0 1-.8.07 3.22 3.22 0 0 1-1-.14 1.94 1.94 0 0 1-.76-.42 1.83 1.83 0 0 1-.5-.69 2.43 2.43 0 0 1-.18-1 1.88 1.88 0 0 1 .11-.62 1.77 1.77 0 0 1 .34-.59 2.7 2.7 0 0 1 .61-.53 4.15 4.15 0 0 1 .92-.43 8.67 8.67 0 0 1 1.28-.3 13.05 13.05 0 0 1 1.66-.14v-.48a1.76 1.76 0 0 0-.35-1.22 1.29 1.29 0 0 0-1-.4 2.29 2.29 0 0 0-.8.12 2.63 2.63 0 0 0-.56.25l-.43.25a.93.93 0 0 1-.44.11.52.52 0 0 1-.35-.11.78.78 0 0 1-.23-.25zm4.52 3.56a11.87 11.87 0 0 0-1.44.15 3.74 3.74 0 0 0-.93.27 1.28 1.28 0 0 0-.51.4.83.83 0 0 0-.15.48.86.86 0 0 0 .31.75 1.33 1.33 0 0 0 .8.22 2.33 2.33 0 0 0 1.06-.22 3 3 0 0 0 .82-.61zM539.61 540.53v11.88h-2v-11.88zM549.04 544.21l-4.47 10.46a.88.88 0 0 1-.23.32.72.72 0 0 1-.43.1h-1.47l1.54-3.29-3.32-7.59h1.73a.53.53 0 0 1 .37.11.76.76 0 0 1 .19.25l1.75 4.26c.05.14.1.29.14.43l.12.44c.05-.15.1-.3.14-.44s.1-.29.16-.44l1.65-4.25a.58.58 0 0 1 .21-.26.57.57 0 0 1 .34-.1zM554.86 545.81a.59.59 0 0 1-.17.18.45.45 0 0 1-.22.05.79.79 0 0 1-.31-.08 3.43 3.43 0 0 0-.38-.18 2.52 2.52 0 0 0-.49-.18 2.1 2.1 0 0 0-.65-.08 1.48 1.48 0 0 0-.92.25.76.76 0 0 0-.33.64.64.64 0 0 0 .17.45 1.61 1.61 0 0 0 .46.31 4.27 4.27 0 0 0 .64.25l.74.23c.24.09.49.19.73.3a2.5 2.5 0 0 1 .64.41 2 2 0 0 1 .46.61 1.93 1.93 0 0 1 .17.84 2.84 2.84 0 0 1-.21 1.1 2.31 2.31 0 0 1-.63.86 3.09 3.09 0 0 1-1 .57 4.66 4.66 0 0 1-1.41.2 4.57 4.57 0 0 1-.83-.07 5.77 5.77 0 0 1-.77-.22 3.64 3.64 0 0 1-.69-.32 3 3 0 0 1-.56-.4l.46-.75a.7.7 0 0 1 .21-.21.66.66 0 0 1 .3-.07.66.66 0 0 1 .35.11l.38.22a3.11 3.11 0 0 0 .51.22 2.16 2.16 0 0 0 .73.11 1.82 1.82 0 0 0 .61-.09 1.06 1.06 0 0 0 .41-.22.93.93 0 0 0 .25-.31 1 1 0 0 0 .07-.37.7.7 0 0 0-.17-.48 1.63 1.63 0 0 0-.46-.32 4 4 0 0 0-.65-.24l-.74-.24a5.21 5.21 0 0 1-.74-.3 2.45 2.45 0 0 1-.65-.43 2.06 2.06 0 0 1-.46-.65 2.38 2.38 0 0 1-.17-.93 2.46 2.46 0 0 1 .2-1 2.16 2.16 0 0 1 .59-.79 2.93 2.93 0 0 1 1-.55 4.15 4.15 0 0 1 1.34-.2 4 4 0 0 1 1.54.28 3.48 3.48 0 0 1 1.16.73zM559.21 541.81a1.13 1.13 0 0 1-.11.48 1.56 1.56 0 0 1-.27.4 1.25 1.25 0 0 1-.41.26 1.16 1.16 0 0 1-.49.1 1.19 1.19 0 0 1-.49-.1 1.16 1.16 0 0 1-.39-.26 1.56 1.56 0 0 1-.27-.4 1.12 1.12 0 0 1-.1-.48 1.16 1.16 0 0 1 .1-.49 1.28 1.28 0 0 1 .27-.4 1.36 1.36 0 0 1 .39-.27 1.19 1.19 0 0 1 .49-.1 1.16 1.16 0 0 1 .49.1 1.46 1.46 0 0 1 .41.27 1.28 1.28 0 0 1 .27.4 1.17 1.17 0 0 1 .11.49zm-.27 2.4v8.2h-2v-8.2zM565.96 545.81a.59.59 0 0 1-.17.18.48.48 0 0 1-.22.05.75.75 0 0 1-.31-.08l-.38-.18a3.12 3.12 0 0 0-.49-.18 2.17 2.17 0 0 0-.66-.08 1.47 1.47 0 0 0-.91.25.76.76 0 0 0-.33.64.6.6 0 0 0 .17.45 1.55 1.55 0 0 0 .45.31 4.41 4.41 0 0 0 .65.25l.73.23c.25.09.49.19.73.3a2.56 2.56 0 0 1 .65.41 1.83 1.83 0 0 1 .45.61 1.8 1.8 0 0 1 .17.84 2.84 2.84 0 0 1-.21 1.1 2.31 2.31 0 0 1-.63.86 3 3 0 0 1-1 .57 4.68 4.68 0 0 1-1.42.2 4.47 4.47 0 0 1-.82-.07 6.39 6.39 0 0 1-.78-.22 3.64 3.64 0 0 1-.69-.32 2.88 2.88 0 0 1-.55-.4l.45-.75a.7.7 0 0 1 .21-.21.66.66 0 0 1 .3-.07.63.63 0 0 1 .35.11l.38.22a4.11 4.11 0 0 0 .51.22 2.22 2.22 0 0 0 .74.11 1.72 1.72 0 0 0 .6-.09 1.19 1.19 0 0 0 .42-.22.79.79 0 0 0 .24-.31 1 1 0 0 0 .08-.37.66.66 0 0 0-.18-.48 1.44 1.44 0 0 0-.45-.32 4.43 4.43 0 0 0-.65-.24l-.74-.24a5.33 5.33 0 0 1-.75-.3 2.62 2.62 0 0 1-.65-.43 2 2 0 0 1-.45-.65 2.21 2.21 0 0 1-.17-.93 2.3 2.3 0 0 1 .2-1 2.25 2.25 0 0 1 .58-.79 3 3 0 0 1 1-.55 4.24 4.24 0 0 1 1.34-.2 4.07 4.07 0 0 1 1.55.28 3.48 3.48 0 0 1 1.16.73zM737.89 513.16v11.57h-1.9V516.26l-3.5 6.57a.81.81 0 0 1-.76.47h-.3a.81.81 0 0 1-.76-.47l-3.54-6.59V524.7h-1.9v-11.54h2.06a.33.33 0 0 1 .15.11.78.78 0 0 1 .14.19l3.46 6.42a5.12 5.12 0 0 1 .25.53c.08.18.16.37.23.56.08-.2.15-.39.23-.57s.17-.36.26-.53l3.42-6.41a.57.57 0 0 1 .13-.19.42.42 0 0 1 .16-.11h2.06zM742.36 514.13a1.13 1.13 0 0 1-.11.48 1.19 1.19 0 0 1-.27.39 1.13 1.13 0 0 1-.41.27 1.16 1.16 0 0 1-.49.1 1.19 1.19 0 0 1-.49-.1 1.05 1.05 0 0 1-.39-.27 1.36 1.36 0 0 1-.27-.39 1.12 1.12 0 0 1-.1-.48 1.16 1.16 0 0 1 .1-.49 1.28 1.28 0 0 1 .27-.4 1.05 1.05 0 0 1 .39-.27 1.19 1.19 0 0 1 .49-.1 1.16 1.16 0 0 1 .49.1 1.24 1.24 0 0 1 .68.67 1.17 1.17 0 0 1 .11.49zm-.27 2.39v8.21h-2v-8.21zM751.3 516.8v.74c0 .24-.14.38-.42.43l-.74.14a2.52 2.52 0 0 1 .17.93 2.5 2.5 0 0 1-.24 1.1 2.59 2.59 0 0 1-.68.83 3.09 3.09 0 0 1-1 .53 4 4 0 0 1-1.27.19h-.46l-.44-.07c-.26.16-.38.33-.38.52a.39.39 0 0 0 .22.37 1.86 1.86 0 0 0 .61.16c.25 0 .53 0 .85.06h1c.33 0 .66.08 1 .14a3.13 3.13 0 0 1 .86.32 1.62 1.62 0 0 1 .6.59 1.81 1.81 0 0 1 .23.95 2.23 2.23 0 0 1-.27 1.06 2.88 2.88 0 0 1-.77.91 4.21 4.21 0 0 1-1.25.65 5.52 5.52 0 0 1-1.69.24 6.38 6.38 0 0 1-1.61-.18 3.94 3.94 0 0 1-1.15-.48 2.12 2.12 0 0 1-.68-.69 1.6 1.6 0 0 1-.22-.82 1.35 1.35 0 0 1 .35-1 2.35 2.35 0 0 1 .95-.62 1.34 1.34 0 0 1-.52-.45 1.27 1.27 0 0 1-.19-.74 1.1 1.1 0 0 1 .07-.38 1.27 1.27 0 0 1 .2-.38 2.25 2.25 0 0 1 .33-.37 2.39 2.39 0 0 1 .47-.31 2.63 2.63 0 0 1-1-.89 2.63 2.63 0 0 1-.11-2.41 2.41 2.41 0 0 1 .68-.84 3.16 3.16 0 0 1 1-.54 4.49 4.49 0 0 1 1.3-.18 4.35 4.35 0 0 1 1 .11 3.56 3.56 0 0 1 .85.31zm-2 8.3a.53.53 0 0 0-.15-.39 1.08 1.08 0 0 0-.39-.24 3 3 0 0 0-.58-.12c-.22 0-.46 0-.71-.06h-.76c-.27 0-.52 0-.78-.06a1.89 1.89 0 0 0-.53.43.93.93 0 0 0-.2.58.83.83 0 0 0 .11.4.81.81 0 0 0 .34.32 2.06 2.06 0 0 0 .61.22 4.85 4.85 0 0 0 .92.07 5.11 5.11 0 0 0 .95-.08 2.9 2.9 0 0 0 .67-.23 1 1 0 0 0 .37-.36.84.84 0 0 0 .17-.48zm-2.24-4.67a1.76 1.76 0 0 0 .64-.1 1.32 1.32 0 0 0 .46-.28 1.09 1.09 0 0 0 .27-.42 1.63 1.63 0 0 0 .09-.55 1.3 1.3 0 0 0-.36-1 1.52 1.52 0 0 0-1.1-.36 1.49 1.49 0 0 0-1.09.36 1.3 1.3 0 0 0-.36 1 1.57 1.57 0 0 0 .09.54 1.12 1.12 0 0 0 .27.43 1.23 1.23 0 0 0 .46.28 1.74 1.74 0 0 0 .67.1zM754.41 517.95a3.53 3.53 0 0 1 .92-1.16 1.92 1.92 0 0 1 1.24-.42 1.52 1.52 0 0 1 .92.25l-.13 1.48a.38.38 0 0 1-.12.2.32.32 0 0 1-.2.06 2 2 0 0 1-.36 0 3.73 3.73 0 0 0-.46 0 1.72 1.72 0 0 0-.58.1 1.36 1.36 0 0 0-.46.28 1.68 1.68 0 0 0-.36.43 3.6 3.6 0 0 0-.29.59v5h-2v-8.21h1.16a.64.64 0 0 1 .42.11.59.59 0 0 1 .16.39zM758.22 517.67a4.86 4.86 0 0 1 3.41-1.3 3.3 3.3 0 0 1 1.29.24 2.72 2.72 0 0 1 1 .65 2.75 2.75 0 0 1 .59 1 3.74 3.74 0 0 1 .21 1.28v5.18h-.94a1 1 0 0 1-.43-.08.61.61 0 0 1-.24-.34l-.18-.59c-.2.18-.41.35-.6.49a3.5 3.5 0 0 1-.62.35 3 3 0 0 1-.68.22 4 4 0 0 1-.81.08 3.32 3.32 0 0 1-1-.14 2.09 2.09 0 0 1-.76-.42 1.85 1.85 0 0 1-.49-.7 2.38 2.38 0 0 1-.18-1 2.17 2.17 0 0 1 .1-.62 1.85 1.85 0 0 1 .34-.59 3 3 0 0 1 .62-.53 4.15 4.15 0 0 1 .92-.43 8.67 8.67 0 0 1 1.28-.3 11.32 11.32 0 0 1 1.66-.14v-.48a1.81 1.81 0 0 0-.35-1.22 1.28 1.28 0 0 0-1-.4 2.5 2.5 0 0 0-.79.11 3.24 3.24 0 0 0-.56.26l-.44.25a.89.89 0 0 1-.43.11.56.56 0 0 1-.35-.11.82.82 0 0 1-.24-.25zm4.56 3.56a8.86 8.86 0 0 0-1.44.15 4 4 0 0 0-.94.27 1.3 1.3 0 0 0-.5.39.88.88 0 0 0-.15.49.86.86 0 0 0 .31.75 1.31 1.31 0 0 0 .8.22 2.26 2.26 0 0 0 1.05-.22 3.08 3.08 0 0 0 .87-.67zM774.7 524.73h-2V518h-3.81v4.45a.85.85 0 0 0 .19.6.61.61 0 0 0 .51.22.87.87 0 0 0 .31-.05 1.12 1.12 0 0 0 .22-.09l.16-.09a.28.28 0 0 1 .15 0 .23.23 0 0 1 .14 0 .51.51 0 0 1 .12.13l.59 1a3.19 3.19 0 0 1-1 .55 3.75 3.75 0 0 1-1.16.18 2.14 2.14 0 0 1-1.64-.6 2.31 2.31 0 0 1-.58-1.67v-4.59h-.84a.39.39 0 0 1-.27-.1.42.42 0 0 1-.11-.31v-.79l1.32-.22.42-2.23a.38.38 0 0 1 .15-.25.44.44 0 0 1 .29-.09h1v2.59h5.78zm.35-10.63a1.13 1.13 0 0 1-.11.48 1.28 1.28 0 0 1-.27.4 1.46 1.46 0 0 1-.41.27 1.21 1.21 0 0 1-.5.1 1.12 1.12 0 0 1-.48-.1 1.36 1.36 0 0 1-.39-.27 1.28 1.28 0 0 1-.27-.4 1.12 1.12 0 0 1-.1-.48 1.13 1.13 0 0 1 .1-.49 1.41 1.41 0 0 1 .27-.4 1.05 1.05 0 0 1 .39-.27 1.12 1.12 0 0 1 .48-.1 1.21 1.21 0 0 1 .5.1 1.13 1.13 0 0 1 .41.27 1.41 1.41 0 0 1 .27.4 1.14 1.14 0 0 1 .11.49zM780.35 516.4a4.42 4.42 0 0 1 1.66.29 3.56 3.56 0 0 1 2.1 2.17 5.46 5.46 0 0 1 0 3.51 3.64 3.64 0 0 1-.82 1.34 3.55 3.55 0 0 1-1.28.85 4.63 4.63 0 0 1-1.66.29 4.68 4.68 0 0 1-1.67-.29 3.55 3.55 0 0 1-1.28-.85 3.8 3.8 0 0 1-.83-1.34 5.46 5.46 0 0 1 0-3.51 3.85 3.85 0 0 1 .83-1.33 3.66 3.66 0 0 1 1.28-.84 4.47 4.47 0 0 1 1.67-.29zm0 6.93a1.75 1.75 0 0 0 1.52-.69 3.41 3.41 0 0 0 .49-2 3.5 3.5 0 0 0-.49-2 2 2 0 0 0-3.06 0 3.46 3.46 0 0 0-.5 2 3.43 3.43 0 0 0 .5 2 1.77 1.77 0 0 0 1.54.69zM787.78 517.53a5.7 5.7 0 0 1 .52-.46 3.58 3.58 0 0 1 .59-.36 3.2 3.2 0 0 1 .66-.23 3.06 3.06 0 0 1 .76-.08 3 3 0 0 1 1.2.22 2.52 2.52 0 0 1 .86.64 2.77 2.77 0 0 1 .53 1 4.17 4.17 0 0 1 .18 1.26v5.22h-2v-5.22a1.79 1.79 0 0 0-.3-1.19 1.31 1.31 0 0 0-1.05-.41 2.12 2.12 0 0 0-1 .23 3.53 3.53 0 0 0-.84.64v5.93h-2v-8.21h1.21a.48.48 0 0 1 .5.36zM729.1 532.33a6.33 6.33 0 0 1 2 .28 3.76 3.76 0 0 1 1.4.76 3 3 0 0 1 .82 1.16 4 4 0 0 1 .27 1.49 4.22 4.22 0 0 1-.28 1.54 3.3 3.3 0 0 1-.84 1.21 4 4 0 0 1-1.41.78 6.16 6.16 0 0 1-2 .28h-1.6v4.07h-2.16v-11.57zm0 5.82a3.15 3.15 0 0 0 1-.15 2 2 0 0 0 .74-.42 1.75 1.75 0 0 0 .43-.67 2.52 2.52 0 0 0 .15-.89 2.24 2.24 0 0 0-.15-.84 1.65 1.65 0 0 0-.43-.64 1.9 1.9 0 0 0-.73-.4 3.23 3.23 0 0 0-1-.14h-1.6v4.15zM736.91 532.04v11.89h-2v-11.89zM738.69 536.87a4.86 4.86 0 0 1 3.41-1.3 3.3 3.3 0 0 1 1.29.24 2.72 2.72 0 0 1 1 .65 2.92 2.92 0 0 1 .6 1 4 4 0 0 1 .2 1.28v5.18h-.9a1 1 0 0 1-.43-.08.61.61 0 0 1-.24-.34l-.17-.59c-.21.18-.41.35-.61.49a3.18 3.18 0 0 1-.62.35 3 3 0 0 1-.68.22 4 4 0 0 1-.81.08 3.32 3.32 0 0 1-1-.14 2.09 2.09 0 0 1-.76-.42 2 2 0 0 1-.49-.7 2.38 2.38 0 0 1-.18-1 1.88 1.88 0 0 1 .11-.62 1.77 1.77 0 0 1 .34-.59 2.7 2.7 0 0 1 .61-.53 4.15 4.15 0 0 1 .92-.43 8.67 8.67 0 0 1 1.28-.3 11.32 11.32 0 0 1 1.66-.14v-.48a1.81 1.81 0 0 0-.35-1.22 1.26 1.26 0 0 0-1-.4 2.5 2.5 0 0 0-.79.11 3.24 3.24 0 0 0-.56.26l-.43.25a.93.93 0 0 1-.44.11.56.56 0 0 1-.35-.11.68.68 0 0 1-.23-.25zm4.53 3.56a8.86 8.86 0 0 0-1.44.15 3.74 3.74 0 0 0-.93.27 1.27 1.27 0 0 0-.51.39.88.88 0 0 0-.15.49.86.86 0 0 0 .31.75 1.31 1.31 0 0 0 .8.22 2.26 2.26 0 0 0 1.05-.22 3.08 3.08 0 0 0 .87-.67zM748.86 536.73a5.7 5.7 0 0 1 .52-.46 3.5 3.5 0 0 1 .58-.36 3.68 3.68 0 0 1 .66-.23 3.14 3.14 0 0 1 .77-.08 2.94 2.94 0 0 1 1.19.22 2.46 2.46 0 0 1 .87.64 2.94 2.94 0 0 1 .53 1 4.17 4.17 0 0 1 .18 1.26v5.22h-2v-5.22a1.79 1.79 0 0 0-.34-1.17 1.31 1.31 0 0 0-1-.41 2.12 2.12 0 0 0-1 .23 3.58 3.58 0 0 0-.85.64v5.93h-2v-8.21h1.2a.49.49 0 0 1 .51.36zM757.88 536.73a5.7 5.7 0 0 1 .52-.46 3.58 3.58 0 0 1 .59-.36 3.2 3.2 0 0 1 .66-.23 3.09 3.09 0 0 1 .77-.08 3 3 0 0 1 1.19.22 2.52 2.52 0 0 1 .86.64 2.77 2.77 0 0 1 .53 1 4.17 4.17 0 0 1 .18 1.26v5.22h-2v-5.22a1.79 1.79 0 0 0-.35-1.17 1.31 1.31 0 0 0-1.05-.41 2.12 2.12 0 0 0-1 .23 3.53 3.53 0 0 0-.84.64v5.93h-2v-8.21h1.21a.48.48 0 0 1 .5.36zM767.37 533.33a1.12 1.12 0 0 1-.1.48 1.21 1.21 0 0 1-.28.39 1 1 0 0 1-.4.27 1.18 1.18 0 0 1-.5.1 1.12 1.12 0 0 1-.48-.1 1.18 1.18 0 0 1-.4-.27 1.16 1.16 0 0 1-.26-.39 1.12 1.12 0 0 1-.1-.48 1.16 1.16 0 0 1 .1-.49 1.11 1.11 0 0 1 .26-.4 1.34 1.34 0 0 1 .4-.27 1.12 1.12 0 0 1 .48-.1 1.18 1.18 0 0 1 .5.1 1.13 1.13 0 0 1 .4.27 1.22 1.22 0 0 1 .38.89zm-.27 2.39v8.21h-2v-8.21zM770.97 536.73a5.7 5.7 0 0 1 .52-.46 3.5 3.5 0 0 1 .58-.36 3.68 3.68 0 0 1 .66-.23 3.19 3.19 0 0 1 .77-.08 2.94 2.94 0 0 1 1.19.22 2.46 2.46 0 0 1 .87.64 2.94 2.94 0 0 1 .53 1 4.17 4.17 0 0 1 .18 1.26v5.22h-2v-5.22a1.79 1.79 0 0 0-.34-1.17 1.31 1.31 0 0 0-1-.41 2.12 2.12 0 0 0-1 .23 3.58 3.58 0 0 0-.85.64v5.93h-2v-8.21h1.21a.49.49 0 0 1 .5.36zM785.34 536v.74c0 .24-.14.38-.42.43l-.74.14a2.52 2.52 0 0 1 .17.93 2.5 2.5 0 0 1-.24 1.1 2.59 2.59 0 0 1-.68.83 3.09 3.09 0 0 1-1 .53 4 4 0 0 1-1.27.19h-.46l-.44-.07c-.26.16-.39.33-.39.52a.39.39 0 0 0 .23.37 1.79 1.79 0 0 0 .61.16c.25 0 .53.05.85.06h1c.33 0 .66.08 1 .14a3.13 3.13 0 0 1 .86.32 1.62 1.62 0 0 1 .6.59 1.81 1.81 0 0 1 .23 1 2.23 2.23 0 0 1-.27 1.06 2.79 2.79 0 0 1-.78.91 4 4 0 0 1-1.24.65 5.52 5.52 0 0 1-1.69.24 6.33 6.33 0 0 1-1.61-.18 3.94 3.94 0 0 1-1.15-.48 2.12 2.12 0 0 1-.68-.69 1.6 1.6 0 0 1-.22-.82 1.35 1.35 0 0 1 .35-1 2.35 2.35 0 0 1 1-.62 1.34 1.34 0 0 1-.52-.45 1.27 1.27 0 0 1-.19-.74 1.1 1.1 0 0 1 .07-.38 1.27 1.27 0 0 1 .2-.38 2.25 2.25 0 0 1 .33-.37 2.39 2.39 0 0 1 .47-.31 2.63 2.63 0 0 1-1-.89 2.36 2.36 0 0 1-.35-1.31 2.44 2.44 0 0 1 .24-1.1 2.41 2.41 0 0 1 .57-.79 3.06 3.06 0 0 1 1-.54 4.66 4.66 0 0 1 2.29-.07 3.56 3.56 0 0 1 .85.31zm-2 8.3a.52.52 0 0 0-.14-.39 1.08 1.08 0 0 0-.39-.24 3 3 0 0 0-.58-.12c-.22 0-.46-.05-.71-.06h-.76q-.4 0-.78-.06a1.75 1.75 0 0 0-.53.43.93.93 0 0 0-.2.58.73.73 0 0 0 .11.4.81.81 0 0 0 .34.32 2.06 2.06 0 0 0 .61.22 4.85 4.85 0 0 0 .92.07 5.11 5.11 0 0 0 .95-.08 2.3 2.3 0 0 0 .66-.23 1 1 0 0 0 .38-.36.83.83 0 0 0 .15-.45zm-2.23-4.67a1.76 1.76 0 0 0 .64-.1 1.28 1.28 0 0 0 .45-.28 1.24 1.24 0 0 0 .28-.42 1.63 1.63 0 0 0 .09-.55 1.27 1.27 0 0 0-.37-1 1.48 1.48 0 0 0-1.09-.36 1.49 1.49 0 0 0-1.09.36 1.3 1.3 0 0 0-.36 1 1.57 1.57 0 0 0 .09.54 1.12 1.12 0 0 0 .27.43 1.23 1.23 0 0 0 .46.28 1.74 1.74 0 0 0 .66.1zM1095.11 511.62v11.57h-1.9V514.72l-3.43 6.61a.81.81 0 0 1-.76.47h-.3a.81.81 0 0 1-.76-.47l-3.54-6.59V523.2h-1.9v-11.58h1.87a.53.53 0 0 1 .19 0 .4.4 0 0 1 .15.1 1.15 1.15 0 0 1 .14.2l3.46 6.42c.09.17.17.35.25.53s.15.36.23.56c.07-.2.15-.39.23-.58s.17-.36.26-.53l3.41-6.4a1.15 1.15 0 0 1 .14-.2.54.54 0 0 1 .16-.1.48.48 0 0 1 .18 0h1.88zM1099.58 512.59a1.13 1.13 0 0 1-.11.48 1.19 1.19 0 0 1-.27.39 1.46 1.46 0 0 1-.41.27 1.16 1.16 0 0 1-.49.1 1.19 1.19 0 0 1-.49-.1 1.33 1.33 0 0 1-.66-.66 1.12 1.12 0 0 1-.1-.48 1.21 1.21 0 0 1 .1-.5 1.56 1.56 0 0 1 .27-.4 1.16 1.16 0 0 1 .39-.26 1.21 1.21 0 0 1 .49-.11 1.17 1.17 0 0 1 .49.11 1.25 1.25 0 0 1 .41.26 1.34 1.34 0 0 1 .27.4 1.22 1.22 0 0 1 .11.5zm-.27 2.39v8.21h-2v-8.21zM1108.52 515.26v.74c0 .23-.14.38-.42.43l-.74.14a2.51 2.51 0 0 1 .17.92 2.44 2.44 0 0 1-.24 1.1 2.52 2.52 0 0 1-.68.84 3.09 3.09 0 0 1-1 .53 4 4 0 0 1-1.27.19 3.44 3.44 0 0 1-.46 0 3.11 3.11 0 0 1-.44-.06c-.26.16-.38.33-.38.52a.39.39 0 0 0 .22.37 2.15 2.15 0 0 0 .61.16c.25 0 .53.05.85.06h1a8 8 0 0 1 1 .14 2.84 2.84 0 0 1 .86.32 1.62 1.62 0 0 1 .6.59 1.78 1.78 0 0 1 .23.95 2.26 2.26 0 0 1-.27 1.06 3 3 0 0 1-.77.91 4 4 0 0 1-1.25.64 5.22 5.22 0 0 1-1.69.25 6.38 6.38 0 0 1-1.61-.18 3.94 3.94 0 0 1-1.15-.48 2.12 2.12 0 0 1-.68-.69 1.66 1.66 0 0 1-.22-.82 1.34 1.34 0 0 1 .35-1 2.47 2.47 0 0 1 1-.63 1.41 1.41 0 0 1-.52-.44 1.27 1.27 0 0 1-.19-.74 1.06 1.06 0 0 1 .07-.38 1.45 1.45 0 0 1 .2-.39 1.86 1.86 0 0 1 .33-.36 2 2 0 0 1 .47-.31 2.63 2.63 0 0 1-1-.89 2.49 2.49 0 0 1 .57-3.26 3.14 3.14 0 0 1 1-.53 4.49 4.49 0 0 1 1.3-.18 4 4 0 0 1 1 .11 3.18 3.18 0 0 1 .85.31zm-2 8.3a.56.56 0 0 0-.14-.4 1.06 1.06 0 0 0-.39-.23 2.37 2.37 0 0 0-.58-.12l-.71-.07h-.76c-.27 0-.52 0-.78-.06a1.89 1.89 0 0 0-.53.43.88.88 0 0 0-.2.57.84.84 0 0 0 .11.41.88.88 0 0 0 .34.32 2.07 2.07 0 0 0 .61.21 4.77 4.77 0 0 0 .92.08 5.11 5.11 0 0 0 .95-.08 2.29 2.29 0 0 0 .66-.24.93.93 0 0 0 .38-.35.86.86 0 0 0 .15-.47zm-2.23-4.67a1.75 1.75 0 0 0 .64-.11 1.24 1.24 0 0 0 .46-.27 1.17 1.17 0 0 0 .27-.42 1.63 1.63 0 0 0 .09-.55 1.28 1.28 0 0 0-.36-1 1.52 1.52 0 0 0-1.1-.36 1.49 1.49 0 0 0-1.09.36 1.28 1.28 0 0 0-.36 1 1.61 1.61 0 0 0 .09.54 1.21 1.21 0 0 0 .27.43 1.22 1.22 0 0 0 .46.27 1.73 1.73 0 0 0 .66.11zM1111.63 516.4a3.48 3.48 0 0 1 .92-1.15 1.92 1.92 0 0 1 1.24-.42 1.52 1.52 0 0 1 .92.25l-.13 1.48a.43.43 0 0 1-.12.2.32.32 0 0 1-.2.06 2 2 0 0 1-.36 0 2.45 2.45 0 0 0-.46 0 1.5 1.5 0 0 0-.58.1 1.33 1.33 0 0 0-.46.27 1.73 1.73 0 0 0-.36.44 3.48 3.48 0 0 0-.29.58v5.06h-2v-8.21h1.16a.64.64 0 0 1 .42.11.59.59 0 0 1 .16.39zM1115.44 516.12a4.9 4.9 0 0 1 3.41-1.29 3.3 3.3 0 0 1 1.29.24 2.59 2.59 0 0 1 1 .65 2.75 2.75 0 0 1 .59 1 3.7 3.7 0 0 1 .21 1.28v5.18h-.9a1 1 0 0 1-.43-.08.61.61 0 0 1-.24-.34l-.18-.6a6.17 6.17 0 0 1-.6.49 3.36 3.36 0 0 1-1.3.58 4 4 0 0 1-.81.08 3.32 3.32 0 0 1-1-.14 2.44 2.44 0 0 1-.76-.42 1.85 1.85 0 0 1-.49-.7 2.43 2.43 0 0 1-.18-1 2.29 2.29 0 0 1 .1-.62 1.92 1.92 0 0 1 .34-.58 2.74 2.74 0 0 1 .62-.53 3.75 3.75 0 0 1 .92-.43 7.51 7.51 0 0 1 1.28-.31 13 13 0 0 1 1.66-.13v-.48a1.86 1.86 0 0 0-.35-1.23 1.32 1.32 0 0 0-1-.39 2.5 2.5 0 0 0-.79.11 4.24 4.24 0 0 0-.56.25l-.44.26a.89.89 0 0 1-.43.11.56.56 0 0 1-.35-.11.94.94 0 0 1-.24-.25zm4.53 3.57a10.31 10.31 0 0 0-1.44.14 3.93 3.93 0 0 0-.94.28 1.21 1.21 0 0 0-.5.39.86.86 0 0 0-.15.49.84.84 0 0 0 .31.74 1.31 1.31 0 0 0 .8.23 2.39 2.39 0 0 0 1-.22 3.08 3.08 0 0 0 .87-.67zM1131.92 523.19h-2v-6.73h-3.81v4.45a.88.88 0 0 0 .19.6.64.64 0 0 0 .51.22.87.87 0 0 0 .31 0l.22-.09.16-.09a.3.3 0 0 1 .14 0 .25.25 0 0 1 .15 0 .51.51 0 0 1 .12.13l.59 1a3 3 0 0 1-1 .54 3.48 3.48 0 0 1-1.16.19 2.11 2.11 0 0 1-1.64-.61 2.29 2.29 0 0 1-.58-1.66v-4.59h-.84a.39.39 0 0 1-.27-.1.43.43 0 0 1-.11-.31v-.79l1.32-.22.41-2.23a.44.44 0 0 1 .45-.34h1v2.58h5.78zm.35-10.63a1.13 1.13 0 0 1-.11.48 1.56 1.56 0 0 1-.27.4 1.25 1.25 0 0 1-.41.26 1.22 1.22 0 0 1-.5.11 1.13 1.13 0 0 1-.48-.11 1.16 1.16 0 0 1-.39-.26 1.56 1.56 0 0 1-.27-.4 1.12 1.12 0 0 1-.1-.48 1.13 1.13 0 0 1 .1-.49 1.46 1.46 0 0 1 .27-.41 1.36 1.36 0 0 1 .39-.27 1.29 1.29 0 0 1 .48-.1 1.39 1.39 0 0 1 .5.1 1.22 1.22 0 0 1 .68.68 1.14 1.14 0 0 1 .11.49zM1137.57 514.85a4.42 4.42 0 0 1 1.66.3 3.66 3.66 0 0 1 1.28.84 3.52 3.52 0 0 1 .82 1.33 5.06 5.06 0 0 1 .29 1.75 5.11 5.11 0 0 1-.29 1.76 3.6 3.6 0 0 1-.82 1.33 3.42 3.42 0 0 1-1.28.85 4.42 4.42 0 0 1-1.66.3 4.47 4.47 0 0 1-1.67-.3 3.42 3.42 0 0 1-1.28-.85 3.76 3.76 0 0 1-.83-1.33 5.11 5.11 0 0 1-.29-1.76 5.06 5.06 0 0 1 .28-1.74 3.61 3.61 0 0 1 2.11-2.17 4.47 4.47 0 0 1 1.68-.31zm0 6.94a1.75 1.75 0 0 0 1.52-.69 3.43 3.43 0 0 0 .49-2 3.5 3.5 0 0 0-.49-2 2 2 0 0 0-3.06 0 4.31 4.31 0 0 0 0 4 1.77 1.77 0 0 0 1.54.69zM1144.98 515.99a4.5 4.5 0 0 1 .52-.46 3.58 3.58 0 0 1 .59-.36 2.71 2.71 0 0 1 .66-.23 3.25 3.25 0 0 1 2 .14 2.4 2.4 0 0 1 .86.64 2.73 2.73 0 0 1 .53 1 4.28 4.28 0 0 1 .18 1.27v5.22h-2v-5.22a1.78 1.78 0 0 0-.35-1.17 1.31 1.31 0 0 0-1-.41 2.12 2.12 0 0 0-1 .23 3.77 3.77 0 0 0-.84.63v5.94h-2V515h1.21a.49.49 0 0 1 .5.36zM1166.59 523.19h-1.93a1.59 1.59 0 0 1-.49-.07 1.06 1.06 0 0 1-.4-.31l-.8-.82a6.38 6.38 0 0 1-1.7 1 5.91 5.91 0 0 1-2 .35 3.93 3.93 0 0 1-1.31-.23 3.56 3.56 0 0 1-1.15-.66 3.29 3.29 0 0 1-.81-1 3 3 0 0 1-.31-1.38 2.9 2.9 0 0 1 .18-1 3.24 3.24 0 0 1 .48-.9 3.81 3.81 0 0 1 .75-.75 5.23 5.23 0 0 1 .94-.57 4.44 4.44 0 0 1-.62-1.17 3.58 3.58 0 0 1-.19-1.14 2.9 2.9 0 0 1 .22-1.14 2.63 2.63 0 0 1 .63-1 3.2 3.2 0 0 1 1-.63 3.68 3.68 0 0 1 1.37-.24 3.54 3.54 0 0 1 1.26.22 3.08 3.08 0 0 1 .95.57 2.73 2.73 0 0 1 .9 1.79l-1.26.26a.42.42 0 0 1-.51-.3 2.09 2.09 0 0 0-.19-.4 1.43 1.43 0 0 0-.28-.32 1.16 1.16 0 0 0-.37-.23 1.54 1.54 0 0 0-.5-.08 1.64 1.64 0 0 0-.6.11 1.28 1.28 0 0 0-.44.32 1.48 1.48 0 0 0-.28.45 1.67 1.67 0 0 0-.09.55 2.32 2.32 0 0 0 0 .46 2.69 2.69 0 0 0 .16.45 3.58 3.58 0 0 0 .3.46 4.66 4.66 0 0 0 .44.51l3.07 3.19a5.74 5.74 0 0 0 .43-1.06 6.33 6.33 0 0 0 .2-1.14.52.52 0 0 1 .13-.29.37.37 0 0 1 .29-.12h1.23a7 7 0 0 1-.3 2 6.58 6.58 0 0 1-.85 1.77zm-7.7-5.41a2.68 2.68 0 0 0-.93.94 2.24 2.24 0 0 0-.29 1.13 2 2 0 0 0 .15.79 1.78 1.78 0 0 0 .41.59 1.75 1.75 0 0 0 .61.38 2 2 0 0 0 .74.13 3.57 3.57 0 0 0 1.29-.22 3.8 3.8 0 0 0 1.05-.61zM1093.59 536.61a6.45 6.45 0 0 1-.42 2.35 5.61 5.61 0 0 1-1.18 1.88 5.5 5.5 0 0 1-1.85 1.23 6.6 6.6 0 0 1-4.79 0 5.54 5.54 0 0 1-1.86-1.23 5.63 5.63 0 0 1-1.19-1.88 6.66 6.66 0 0 1 0-4.71 5.63 5.63 0 0 1 1.19-1.88 5.54 5.54 0 0 1 1.86-1.23 6.13 6.13 0 0 1 2.39-.45 6.27 6.27 0 0 1 1.65.21 5.85 5.85 0 0 1 1.43.57 5.51 5.51 0 0 1 2 2.1 5.9 5.9 0 0 1 .55 1.42 7.06 7.06 0 0 1 .22 1.62zm-2.2 0a5.3 5.3 0 0 0-.25-1.71 3.77 3.77 0 0 0-.73-1.29 3.1 3.1 0 0 0-1.15-.8 4.29 4.29 0 0 0-3 0 3.1 3.1 0 0 0-1.15.8 3.62 3.62 0 0 0-.73 1.29 5.72 5.72 0 0 0 0 3.41 3.49 3.49 0 0 0 .73 1.28 3.25 3.25 0 0 0 1.15.81 4.29 4.29 0 0 0 3 0 3.25 3.25 0 0 0 1.15-.81 3.64 3.64 0 0 0 .73-1.28 5.28 5.28 0 0 0 .25-1.7zM1096.91 535.33a4.4 4.4 0 0 1 1.15-.92 3.11 3.11 0 0 1 1.5-.35 2.65 2.65 0 0 1 1.23.28 2.85 2.85 0 0 1 1 .81 3.79 3.79 0 0 1 .62 1.31 6.5 6.5 0 0 1 .22 1.79 5.89 5.89 0 0 1-.24 1.71 4.5 4.5 0 0 1-.71 1.36 3.44 3.44 0 0 1-1.11.9 3.36 3.36 0 0 1-1.46.32 3 3 0 0 1-1.18-.21 2.73 2.73 0 0 1-.87-.59v3.36h-2v-10.92h1.21a.48.48 0 0 1 .5.36zm.11 5a2 2 0 0 0 .73.58 2.2 2.2 0 0 0 .86.17 1.92 1.92 0 0 0 .81-.17 1.59 1.59 0 0 0 .61-.52 2.36 2.36 0 0 0 .39-.86 5 5 0 0 0 .13-1.24 6 6 0 0 0-.11-1.22 2.53 2.53 0 0 0-.33-.81 1.36 1.36 0 0 0-.53-.46 1.71 1.71 0 0 0-.7-.14 2 2 0 0 0-1 .26 3.21 3.21 0 0 0-.81.73zM1109.14 535.78a.5.5 0 0 1-.17.18.38.38 0 0 1-.22 0 .62.62 0 0 1-.31-.08l-.38-.18-.49-.18a2.59 2.59 0 0 0-.66-.08 1.51 1.51 0 0 0-.91.25.78.78 0 0 0-.33.65.58.58 0 0 0 .17.44 1.44 1.44 0 0 0 .45.32 4.43 4.43 0 0 0 .65.24l.73.24a6.52 6.52 0 0 1 .73.29 2.37 2.37 0 0 1 .64.42 1.92 1.92 0 0 1 .46.6 1.87 1.87 0 0 1 .17.85 2.79 2.79 0 0 1-.21 1.09 2.43 2.43 0 0 1-.63.87 2.86 2.86 0 0 1-1 .56 4.38 4.38 0 0 1-1.42.21 4.47 4.47 0 0 1-.82-.08 5 5 0 0 1-.78-.21 4.38 4.38 0 0 1-.69-.32 4 4 0 0 1-.56-.4l.46-.75a.7.7 0 0 1 .21-.21.56.56 0 0 1 .3-.07.62.62 0 0 1 .35.1l.38.23a3.54 3.54 0 0 0 .51.22 2.2 2.2 0 0 0 .74.1 1.78 1.78 0 0 0 .6-.08 1.38 1.38 0 0 0 .42-.22.82.82 0 0 0 .24-.32 1 1 0 0 0 .08-.37.64.64 0 0 0-.18-.47 1.44 1.44 0 0 0-.45-.32 4.43 4.43 0 0 0-.65-.24l-.74-.24q-.39-.13-.75-.3a2.66 2.66 0 0 1-.65-.44 1.85 1.85 0 0 1-.45-.64 2.21 2.21 0 0 1-.17-.93 2.23 2.23 0 0 1 .2-1 2.17 2.17 0 0 1 .58-.8 2.75 2.75 0 0 1 1-.54 4 4 0 0 1 1.34-.21 4.28 4.28 0 0 1 1.55.28 3.67 3.67 0 0 1 1.16.74zM1126.39 536.61a6.45 6.45 0 0 1-.42 2.35 5.61 5.61 0 0 1-1.18 1.88 5.5 5.5 0 0 1-1.85 1.23 6.6 6.6 0 0 1-4.79 0 5.44 5.44 0 0 1-1.86-1.23 5.63 5.63 0 0 1-1.19-1.88 6.66 6.66 0 0 1 0-4.71 5.63 5.63 0 0 1 1.19-1.88 5.44 5.44 0 0 1 1.86-1.23 6.13 6.13 0 0 1 2.39-.45 6.27 6.27 0 0 1 1.65.21 5.85 5.85 0 0 1 1.43.57 5.51 5.51 0 0 1 2 2.1 5.9 5.9 0 0 1 .55 1.42 7.06 7.06 0 0 1 .22 1.62zm-2.2 0a5.3 5.3 0 0 0-.25-1.71 3.77 3.77 0 0 0-.73-1.29 3.1 3.1 0 0 0-1.15-.8 4.29 4.29 0 0 0-3 0 3.1 3.1 0 0 0-1.15.8 3.62 3.62 0 0 0-.73 1.29 5.72 5.72 0 0 0 0 3.41 3.49 3.49 0 0 0 .73 1.28 3.25 3.25 0 0 0 1.15.81 4.29 4.29 0 0 0 3 0 3.25 3.25 0 0 0 1.15-.81 3.64 3.64 0 0 0 .73-1.28 5.28 5.28 0 0 0 .25-1.7zM1129.69 535.19a4.5 4.5 0 0 1 .52-.46 3.58 3.58 0 0 1 .59-.36 2.71 2.71 0 0 1 .66-.23 3.25 3.25 0 0 1 2 .14 2.4 2.4 0 0 1 .86.64 2.73 2.73 0 0 1 .53 1 4.28 4.28 0 0 1 .18 1.27v5.22h-2v-5.22a1.78 1.78 0 0 0-.35-1.17 1.31 1.31 0 0 0-1.05-.41 2.12 2.12 0 0 0-1 .23 3.77 3.77 0 0 0-.84.63v5.94h-2v-8.21h1.21a.49.49 0 0 1 .5.36zM1138.84 535.19a4.14 4.14 0 0 1 1.1-.83 3 3 0 0 1 1.38-.31 3 3 0 0 1 1.29.28 2.79 2.79 0 0 1 1 .81 3.71 3.71 0 0 1 .62 1.26 5.84 5.84 0 0 1 .22 1.68 6 6 0 0 1-.25 1.81 4.2 4.2 0 0 1-.71 1.4 3 3 0 0 1-1.11.9 3.24 3.24 0 0 1-1.44.32 3 3 0 0 1-.69-.08 2.66 2.66 0 0 1-.58-.21 2.27 2.27 0 0 1-.48-.33 3.51 3.51 0 0 1-.42-.44l-.09.56a.54.54 0 0 1-.16.29.53.53 0 0 1-.32.09h-1.3V530.5h2zm0 5.07a2 2 0 0 0 .73.58 2.21 2.21 0 0 0 .84.17 2 2 0 0 0 .82-.17 1.59 1.59 0 0 0 .62-.51 2.52 2.52 0 0 0 .39-.89 5.36 5.36 0 0 0 .14-1.29 3.35 3.35 0 0 0-.45-2 1.52 1.52 0 0 0-1.29-.6 1.87 1.87 0 0 0-1 .26 3.39 3.39 0 0 0-.81.73zM1149.58 534.05a4.42 4.42 0 0 1 1.66.3 3.75 3.75 0 0 1 1.28.84 3.65 3.65 0 0 1 .82 1.33 5.06 5.06 0 0 1 .29 1.75 5.11 5.11 0 0 1-.29 1.76 3.74 3.74 0 0 1-.82 1.33 3.5 3.5 0 0 1-1.28.85 4.77 4.77 0 0 1-3.33 0 3.46 3.46 0 0 1-1.29-.85 3.74 3.74 0 0 1-.82-1.33 4.89 4.89 0 0 1-.29-1.76 4.83 4.83 0 0 1 .29-1.75 3.65 3.65 0 0 1 .82-1.33 3.7 3.7 0 0 1 1.29-.84 4.44 4.44 0 0 1 1.67-.3zm0 6.94a1.72 1.72 0 0 0 1.51-.69 3.43 3.43 0 0 0 .5-2 3.49 3.49 0 0 0-.5-2 1.72 1.72 0 0 0-1.51-.69 1.75 1.75 0 0 0-1.54.7 4.31 4.31 0 0 0 0 4 1.76 1.76 0 0 0 1.54.68zM1154.95 535.33a4.87 4.87 0 0 1 3.4-1.29 3.3 3.3 0 0 1 1.29.24 2.59 2.59 0 0 1 1 .65 2.92 2.92 0 0 1 .6 1 4 4 0 0 1 .2 1.28v5.18h-.9a1 1 0 0 1-.43-.08.61.61 0 0 1-.24-.34l-.17-.6a6.23 6.23 0 0 1-.61.49 2.78 2.78 0 0 1-.62.36 3 3 0 0 1-.68.22 3.94 3.94 0 0 1-.8.08 3.22 3.22 0 0 1-1-.14 2.23 2.23 0 0 1-.76-.42 1.87 1.87 0 0 1-.5-.7 2.43 2.43 0 0 1-.18-1 2 2 0 0 1 .11-.62 1.73 1.73 0 0 1 .34-.58 2.48 2.48 0 0 1 .61-.53 3.75 3.75 0 0 1 .92-.43 7.51 7.51 0 0 1 1.28-.31 13 13 0 0 1 1.66-.13v-.48a1.76 1.76 0 0 0-.35-1.22 1.25 1.25 0 0 0-1-.4 2.57 2.57 0 0 0-.8.11 4.24 4.24 0 0 0-.56.25l-.43.26a.93.93 0 0 1-.44.11.58.58 0 0 1-.35-.11.9.9 0 0 1-.23-.25zm4.52 3.57a10.31 10.31 0 0 0-1.44.14 4.16 4.16 0 0 0-.93.28 1.19 1.19 0 0 0-.51.39.86.86 0 0 0-.15.49.84.84 0 0 0 .31.74 1.31 1.31 0 0 0 .8.23 2.47 2.47 0 0 0 1.06-.22 3.2 3.2 0 0 0 .86-.67zM1165.12 535.61a3.53 3.53 0 0 1 .91-1.16 2 2 0 0 1 1.25-.42 1.49 1.49 0 0 1 .91.25l-.13 1.48a.35.35 0 0 1-.11.2.33.33 0 0 1-.21.06 1.94 1.94 0 0 1-.35 0 2.45 2.45 0 0 0-.46 0 1.55 1.55 0 0 0-.59.1 1.43 1.43 0 0 0-.46.27 2.29 2.29 0 0 0-.36.44 4.47 4.47 0 0 0-.29.58v5.06h-2v-8.21h1.16a.48.48 0 0 1 .58.5zM1176.14 530.5v11.89h-1.21a.47.47 0 0 1-.5-.36l-.17-.79a4.2 4.2 0 0 1-1.14.92 3.08 3.08 0 0 1-1.5.35 2.71 2.71 0 0 1-1.23-.28 2.85 2.85 0 0 1-1-.81 4 4 0 0 1-.63-1.32 6.9 6.9 0 0 1-.22-1.79 5.82 5.82 0 0 1 .25-1.7 4.29 4.29 0 0 1 .71-1.36 3.38 3.38 0 0 1 1.12-.9 3.25 3.25 0 0 1 1.45-.32 2.83 2.83 0 0 1 1.18.22 2.94 2.94 0 0 1 .87.58v-4.33zm-2 5.78a2 2 0 0 0-.73-.58 2.22 2.22 0 0 0-.85-.17 1.92 1.92 0 0 0-.81.17 1.59 1.59 0 0 0-.62.51 2.44 2.44 0 0 0-.39.86 5 5 0 0 0-.14 1.24 5.29 5.29 0 0 0 .12 1.22 2.7 2.7 0 0 0 .33.82 1.26 1.26 0 0 0 .53.45 1.59 1.59 0 0 0 .7.14 2 2 0 0 0 1-.25 3.45 3.45 0 0 0 .82-.73zM1180.41 531.79a1.13 1.13 0 0 1-.11.48 1.19 1.19 0 0 1-.27.39 1.46 1.46 0 0 1-.41.27 1.16 1.16 0 0 1-.49.1 1.19 1.19 0 0 1-.49-.1 1.33 1.33 0 0 1-.66-.66 1.12 1.12 0 0 1-.1-.48 1.21 1.21 0 0 1 .1-.5 1.56 1.56 0 0 1 .27-.4 1.16 1.16 0 0 1 .39-.26 1.19 1.19 0 0 1 .49-.1 1.16 1.16 0 0 1 .49.1 1.25 1.25 0 0 1 .41.26 1.34 1.34 0 0 1 .27.4 1.22 1.22 0 0 1 .11.5zm-.27 2.39v8.21h-2v-8.21zM1184 535.19a5.53 5.53 0 0 1 .52-.46 3.58 3.58 0 0 1 .59-.36 2.71 2.71 0 0 1 .66-.23 3.07 3.07 0 0 1 .77-.09 3 3 0 0 1 1.19.23 2.35 2.35 0 0 1 .87.64 3.08 3.08 0 0 1 .53 1 4.29 4.29 0 0 1 .17 1.27v5.22h-2v-5.22a1.78 1.78 0 0 0-.35-1.17 1.27 1.27 0 0 0-1-.41 2.12 2.12 0 0 0-1 .23 3.82 3.82 0 0 0-.85.63v5.94h-2v-8.21h1.21a.49.49 0 0 1 .51.36zM1198.38 534.46v.74c0 .23-.15.38-.43.43l-.73.14a2.51 2.51 0 0 1 .16.92 2.44 2.44 0 0 1-.24 1.1 2.41 2.41 0 0 1-.68.84 2.9 2.9 0 0 1-1 .53 4 4 0 0 1-1.26.19 3.59 3.59 0 0 1-.47 0 3.32 3.32 0 0 1-.44-.06c-.25.16-.38.33-.38.52a.38.38 0 0 0 .23.37 2 2 0 0 0 .6.16c.25 0 .54 0 .86.06l1 .05a7.71 7.71 0 0 1 1 .14 2.84 2.84 0 0 1 .86.32 1.62 1.62 0 0 1 .6.59 1.69 1.69 0 0 1 .23 1 2.26 2.26 0 0 1-.27 1.06 2.74 2.74 0 0 1-.77.91 4 4 0 0 1-1.25.64 5.12 5.12 0 0 1-1.68.25 6.46 6.46 0 0 1-1.62-.18 3.76 3.76 0 0 1-1.14-.48 2 2 0 0 1-.68-.69 1.67 1.67 0 0 1-.23-.82 1.38 1.38 0 0 1 .35-1 2.32 2.32 0 0 1 1-.62 1.44 1.44 0 0 1-.52-.45 1.27 1.27 0 0 1-.2-.74 1.33 1.33 0 0 1 .07-.38 1.8 1.8 0 0 1 .2-.39 2.2 2.2 0 0 1 .33-.36 2.33 2.33 0 0 1 .48-.31 2.49 2.49 0 0 1-1-.89 2.4 2.4 0 0 1-.36-1.32 2.5 2.5 0 0 1 .24-1.1 2.74 2.74 0 0 1 .68-.84 3.09 3.09 0 0 1 1-.53 4.44 4.44 0 0 1 1.3-.18 4 4 0 0 1 1 .11 3.31 3.31 0 0 1 .85.31zm-2 8.3a.57.57 0 0 0-.15-.4.92.92 0 0 0-.39-.23 2.28 2.28 0 0 0-.58-.12c-.22 0-.45 0-.7-.06h-.77c-.26 0-.52 0-.77-.06a1.64 1.64 0 0 0-.53.43.85.85 0 0 0-.1 1 1 1 0 0 0 .34.32 2.14 2.14 0 0 0 .62.21 4.69 4.69 0 0 0 .92.08 5.27 5.27 0 0 0 1-.08 2.53 2.53 0 0 0 .66-.24 1 1 0 0 0 .38-.35.83.83 0 0 0 .1-.5zm-2.23-4.67a2.1 2.1 0 0 0 .64-.1 1.28 1.28 0 0 0 .45-.28 1.17 1.17 0 0 0 .27-.42 1.63 1.63 0 0 0 .09-.55 1.28 1.28 0 0 0-.36-1 1.49 1.49 0 0 0-1.09-.36 1.52 1.52 0 0 0-1.1.36 1.28 1.28 0 0 0-.36 1 1.61 1.61 0 0 0 .09.54 1.21 1.21 0 0 0 .27.43 1.49 1.49 0 0 0 .46.28 2 2 0 0 0 .67.1z" fill="#fff"/>
    <text transform="translate(351.41 650.7)" font-size="18" fill="#000520" font-family="Lato-Bold, Lato" font-weight="700">Cloud Landing <tspan x="118.92" y="0" letter-spacing="-.02em">Z</tspan>
    <tspan x="129.43" y="0">one </tspan>
    <tspan x="163.91" y="0" letter-spacing="0em">S</tspan>
    <tspan x="173.75" y="0" letter-spacing="0em">e</tspan>
    <tspan x="183.28" y="0">tup</tspan>
  </text>
    <text transform="translate(248.08 417.23)" font-size="18" fill="#000520" font-family="Lato-Bold, Lato" font-weight="700">
    <tspan letter-spacing="-.01em">S</tspan>
    <tspan x="9.75" y="0">kill </tspan>
    <tspan x="37.26" y="0" letter-spacing="-.03em">R</tspan>
    <tspan x="48.23" y="0">eadiness &amp;</tspan>
    
    <tspan x="138.57" y="0" letter-spacing="-.1em">T</tspan>
    <tspan x="147.55" y="0" letter-spacing="-.01em">r</tspan>
    <tspan x="154.15" y="0">aining</tspan>
  </text>
    <path fill="#0072c6" d="m257.9 529.02-100.86-79.27v33.62L0 483.46V572.22l157.04.15v35.92l100.86-79.27z"/>
    <path d="M29.15 520.33a.43.43 0 0 1 .31.14l.85.92a4.62 4.62 0 0 1-1.73 1.33 6 6 0 0 1-2.47.47 5.84 5.84 0 0 1-2.31-.44 5.27 5.27 0 0 1-1.76-1.23 5.39 5.39 0 0 1-1.12-1.87 7.24 7.24 0 0 1-.38-2.38 6.5 6.5 0 0 1 .41-2.38 5.5 5.5 0 0 1 1.17-1.87 5.4 5.4 0 0 1 1.81-1.22 6 6 0 0 1 2.32-.44 5.63 5.63 0 0 1 2.24.42 5.31 5.31 0 0 1 1.67 1.09l-.72 1a.61.61 0 0 1-.16.16.47.47 0 0 1-.28.08.63.63 0 0 1-.25-.07l-.28-.17-.35-.22a3.3 3.3 0 0 0-.46-.22 3.91 3.91 0 0 0-.62-.17 4.67 4.67 0 0 0-.8-.07 3.63 3.63 0 0 0-1.42.28 3 3 0 0 0-1.11.8 3.71 3.71 0 0 0-.72 1.28 5.37 5.37 0 0 0-.21 1.78 5.17 5.17 0 0 0 .27 1.74 4 4 0 0 0 .73 1.26 3.35 3.35 0 0 0 1.11.8 3.54 3.54 0 0 0 1.38.27 4.77 4.77 0 0 0 .79 0 3.2 3.2 0 0 0 .66-.15 3 3 0 0 0 .57-.27 3.69 3.69 0 0 0 .53-.4.66.66 0 0 1 .17-.12.58.58 0 0 1 .16-.13zM33.48 511.18v11.89h-2v-11.89zM39.09 514.73a4.42 4.42 0 0 1 1.66.3 3.75 3.75 0 0 1 1.28.84 3.65 3.65 0 0 1 .82 1.33 5.06 5.06 0 0 1 .29 1.75 5.11 5.11 0 0 1-.29 1.76 3.74 3.74 0 0 1-.82 1.33 3.5 3.5 0 0 1-1.28.85 4.77 4.77 0 0 1-3.33 0 3.46 3.46 0 0 1-1.29-.85 3.74 3.74 0 0 1-.82-1.33 4.89 4.89 0 0 1-.29-1.76 4.83 4.83 0 0 1 .29-1.75 3.65 3.65 0 0 1 .82-1.33 3.7 3.7 0 0 1 1.29-.84 4.44 4.44 0 0 1 1.67-.3zm0 6.94a1.72 1.72 0 0 0 1.51-.69 4.33 4.33 0 0 0 0-4 1.73 1.73 0 0 0-1.51-.7 1.77 1.77 0 0 0-1.54.7 4.33 4.33 0 0 0 0 4 1.76 1.76 0 0 0 1.54.69zM51.72 514.86v8.21h-1.21a.46.46 0 0 1-.49-.36l-.14-.66a4.6 4.6 0 0 1-1.11.83 3.08 3.08 0 0 1-1.43.32 2.94 2.94 0 0 1-1.19-.23 2.27 2.27 0 0 1-.87-.65 2.65 2.65 0 0 1-.53-1 4.26 4.26 0 0 1-.18-1.26v-5.22h2v5.22a1.75 1.75 0 0 0 .35 1.16 1.31 1.31 0 0 0 1 .41 2 2 0 0 0 1-.23 3.43 3.43 0 0 0 .84-.62v-5.94zM60.78 511.18v11.89h-1.19a.46.46 0 0 1-.49-.36l-.17-.79a4.39 4.39 0 0 1-1.14.92 3.13 3.13 0 0 1-1.5.35 2.7 2.7 0 0 1-2.2-1.09 3.84 3.84 0 0 1-.62-1.32 6.5 6.5 0 0 1-.22-1.79 5.5 5.5 0 0 1 .25-1.7 4.1 4.1 0 0 1 .71-1.36 3.44 3.44 0 0 1 1.11-.9 3.3 3.3 0 0 1 1.46-.32 3 3 0 0 1 1.17.21 2.91 2.91 0 0 1 .87.59v-4.33zm-2 5.78a1.79 1.79 0 0 0-.73-.58 2.19 2.19 0 0 0-.85-.17 1.92 1.92 0 0 0-.81.17 1.56 1.56 0 0 0-.61.51 2.37 2.37 0 0 0-.4.86 5 5 0 0 0-.13 1.24 6.05 6.05 0 0 0 .11 1.22 2.33 2.33 0 0 0 .34.81 1.2 1.2 0 0 0 .52.46 1.75 1.75 0 0 0 .7.14 2 2 0 0 0 1-.26 3 3 0 0 0 .81-.72zM73.11 513.6a.66.66 0 0 1-.2.25.45.45 0 0 1-.27.07.7.7 0 0 1-.36-.12l-.47-.28a3.85 3.85 0 0 0-.64-.27 2.73 2.73 0 0 0-.86-.13 2.57 2.57 0 0 0-.78.11 1.63 1.63 0 0 0-.57.3 1.28 1.28 0 0 0-.34.46 1.63 1.63 0 0 0-.11.59 1 1 0 0 0 .23.68 1.77 1.77 0 0 0 .6.46 5.3 5.3 0 0 0 .86.35l1 .32c.34.12.67.25 1 .4a3.36 3.36 0 0 1 .85.58 2.54 2.54 0 0 1 .61.85 3 3 0 0 1 .23 1.22 3.92 3.92 0 0 1-.27 1.47 3.22 3.22 0 0 1-.79 1.19 3.53 3.53 0 0 1-1.26.8 4.49 4.49 0 0 1-1.7.3 5.68 5.68 0 0 1-1.09-.11 5.85 5.85 0 0 1-1-.31 5.15 5.15 0 0 1-1.69-1.1l.63-1a.91.91 0 0 1 .21-.18.47.47 0 0 1 .27-.08.85.85 0 0 1 .44.16 6.48 6.48 0 0 0 .55.37 4.38 4.38 0 0 0 .75.36 2.79 2.79 0 0 0 1 .17 2.13 2.13 0 0 0 1.43-.44 1.58 1.58 0 0 0 .5-1.25 1.14 1.14 0 0 0-.23-.75 1.82 1.82 0 0 0-.6-.48 4.53 4.53 0 0 0-.86-.33l-1-.3a7.34 7.34 0 0 1-1-.38 3.16 3.16 0 0 1-.85-.59 2.65 2.65 0 0 1-.61-.9 3.45 3.45 0 0 1-.23-1.33 3.12 3.12 0 0 1 .26-1.23 3.05 3.05 0 0 1 .73-1.06 3.62 3.62 0 0 1 1.18-.75 4.5 4.5 0 0 1 1.62-.28 5.51 5.51 0 0 1 1.89.32 4.22 4.22 0 0 1 1.47.9zM77.78 523.2a2.15 2.15 0 0 1-1.64-.61 2.29 2.29 0 0 1-.58-1.67v-4.59h-.78a.39.39 0 0 1-.27-.1.44.44 0 0 1-.11-.32v-.78l1.32-.22.42-2.24a.36.36 0 0 1 .15-.24.44.44 0 0 1 .29-.09h1v2.58h2.2v1.41h-2.22v4.45a.88.88 0 0 0 .19.6.64.64 0 0 0 .51.21.9.9 0 0 0 .31 0l.22-.09.16-.09a.3.3 0 0 1 .15 0 .24.24 0 0 1 .14 0 .38.38 0 0 1 .12.13l.59 1a3 3 0 0 1-1 .54 3.76 3.76 0 0 1-1.17.12zM82.88 516.33a3.6 3.6 0 0 1 .91-1.15 2 2 0 0 1 1.25-.42 1.49 1.49 0 0 1 .91.25l-.13 1.48a.35.35 0 0 1-.11.2.33.33 0 0 1-.21.06 1.85 1.85 0 0 1-.35 0 2.45 2.45 0 0 0-.46 0 1.55 1.55 0 0 0-.59.1 1.43 1.43 0 0 0-.46.27 2.29 2.29 0 0 0-.36.44 4.47 4.47 0 0 0-.29.58v5.06h-2v-8.21h1.16a.48.48 0 0 1 .58.5zM86.69 516a4.88 4.88 0 0 1 3.41-1.29 3.44 3.44 0 0 1 1.28.23 2.74 2.74 0 0 1 1 .66 2.87 2.87 0 0 1 .6 1 3.78 3.78 0 0 1 .2 1.28v5.19h-.89a.83.83 0 0 1-.43-.09.48.48 0 0 1-.24-.34l-.18-.59a6.23 6.23 0 0 1-.61.49 3.48 3.48 0 0 1-.61.36 3.26 3.26 0 0 1-.69.22 3.94 3.94 0 0 1-.8.08 3.22 3.22 0 0 1-1-.14 2.23 2.23 0 0 1-.76-.42 1.87 1.87 0 0 1-.5-.7 2.44 2.44 0 0 1-.17-1 1.91 1.91 0 0 1 .1-.62 1.88 1.88 0 0 1 .34-.59 2.92 2.92 0 0 1 .61-.52 4 4 0 0 1 .93-.44 8.51 8.51 0 0 1 1.27-.3 15.17 15.17 0 0 1 1.67-.14v-.48a1.78 1.78 0 0 0-.36-1.22 1.28 1.28 0 0 0-1-.39 2.57 2.57 0 0 0-.8.11 3.13 3.13 0 0 0-.55.25l-.44.25a.83.83 0 0 1-.44.12.58.58 0 0 1-.35-.11 1.09 1.09 0 0 1-.23-.25zm4.53 3.56a11.44 11.44 0 0 0-1.44.15 3.79 3.79 0 0 0-.94.28 1.15 1.15 0 0 0-.5.39.8.8 0 0 0-.16.49.87.87 0 0 0 .31.74 1.34 1.34 0 0 0 .81.23 2.46 2.46 0 0 0 1-.22 3.39 3.39 0 0 0 .87-.67zM97.62 523.2a2.16 2.16 0 0 1-1.64-.61 2.33 2.33 0 0 1-.57-1.67v-4.59h-.84a.36.36 0 0 1-.27-.1.41.41 0 0 1-.12-.32v-.78l1.32-.22.42-2.24a.42.42 0 0 1 .44-.33h1v2.58h2.2v1.41h-2.2v4.45a.94.94 0 0 0 .19.6.67.67 0 0 0 .52.21 1 1 0 0 0 .31 0l.21-.09.17-.09a.24.24 0 0 1 .14 0 .2.2 0 0 1 .14 0 .38.38 0 0 1 .12.13l.6 1a2.93 2.93 0 0 1-1 .54 3.76 3.76 0 0 1-1.14.12zM102.3 519.21a3.69 3.69 0 0 0 .22 1.09 2.27 2.27 0 0 0 .46.76 1.88 1.88 0 0 0 .69.45 2.41 2.41 0 0 0 .87.15 2.88 2.88 0 0 0 .83-.11 4.52 4.52 0 0 0 .61-.25l.46-.25a.79.79 0 0 1 .38-.11.4.4 0 0 1 .36.18l.57.72a3.19 3.19 0 0 1-.73.65 4.23 4.23 0 0 1-.86.41 4 4 0 0 1-.9.22 5.51 5.51 0 0 1-.89.07 4.36 4.36 0 0 1-1.59-.29 3.44 3.44 0 0 1-1.28-.84 3.81 3.81 0 0 1-.86-1.37 5.29 5.29 0 0 1-.31-1.9 4.56 4.56 0 0 1 .27-1.58 3.75 3.75 0 0 1 .78-1.29 3.7 3.7 0 0 1 1.24-.87 4.15 4.15 0 0 1 1.65-.32 4.09 4.09 0 0 1 1.43.25 3.22 3.22 0 0 1 1.13.72 3.34 3.34 0 0 1 .74 1.17 4.33 4.33 0 0 1 .27 1.58 1.24 1.24 0 0 1-.1.61.39.39 0 0 1-.36.15zm3.76-1.19a2.37 2.37 0 0 0-.1-.72 1.75 1.75 0 0 0-.33-.6 1.43 1.43 0 0 0-.55-.4 2.09 2.09 0 0 0-2.12.34 2.4 2.4 0 0 0-.62 1.38zM116.52 515.14v.74c0 .23-.14.37-.42.43l-.74.13a2.6 2.6 0 0 1 .17.93 2.34 2.34 0 0 1-.25 1.1 2.38 2.38 0 0 1-.67.84 3.29 3.29 0 0 1-1 .53 4 4 0 0 1-1.27.19 3.33 3.33 0 0 1-.46 0 3.11 3.11 0 0 1-.44-.06.64.64 0 0 0-.39.52.37.37 0 0 0 .23.36 1.72 1.72 0 0 0 .6.17c.25 0 .54.05.86.06s.65 0 1 0a7.87 7.87 0 0 1 1 .14 2.78 2.78 0 0 1 .85.32 1.7 1.7 0 0 1 .61.58 1.84 1.84 0 0 1 .23 1 2.26 2.26 0 0 1-.27 1.06 2.9 2.9 0 0 1-.78.91 4.08 4.08 0 0 1-1.25.64 5.4 5.4 0 0 1-1.68.25 6.46 6.46 0 0 1-1.62-.18 3.87 3.87 0 0 1-1.14-.48 2.15 2.15 0 0 1-.68-.7 1.59 1.59 0 0 1-.22-.81 1.4 1.4 0 0 1 .34-1 2.62 2.62 0 0 1 1-.62 1.41 1.41 0 0 1-.52-.44 1.29 1.29 0 0 1-.19-.74 1.06 1.06 0 0 1 .07-.38 1.45 1.45 0 0 1 .2-.39 1.39 1.39 0 0 1 .33-.36 2 2 0 0 1 .47-.31 2.51 2.51 0 0 1-1-.9 2.36 2.36 0 0 1-.36-1.31 2.5 2.5 0 0 1 .25-1.1 2.41 2.41 0 0 1 .68-.84 3 3 0 0 1 1-.53 4.85 4.85 0 0 1 2.29-.08 3.74 3.74 0 0 1 .85.32zm-2 8.3a.61.61 0 0 0-.14-.4.94.94 0 0 0-.39-.23 2.93 2.93 0 0 0-.58-.13l-.71-.06h-.77a6.48 6.48 0 0 1-.77-.07 1.94 1.94 0 0 0-.53.44.9.9 0 0 0-.1 1 1 1 0 0 0 .35.32 2 2 0 0 0 .61.21 4.77 4.77 0 0 0 .92.08 4.31 4.31 0 0 0 1-.09 2 2 0 0 0 .66-.23.93.93 0 0 0 .38-.35.86.86 0 0 0 .1-.49zm-2.23-4.68a1.79 1.79 0 0 0 .64-.1 1.11 1.11 0 0 0 .72-.7 1.33 1.33 0 0 0 .1-.54 1.27 1.27 0 0 0-.37-1 1.83 1.83 0 0 0-2.18 0 1.24 1.24 0 0 0-.37 1 1.4 1.4 0 0 0 .1.54 1.17 1.17 0 0 0 .27.42 1.15 1.15 0 0 0 .45.28 1.83 1.83 0 0 0 .67.1zM125.22 514.86l-4.44 10.47a.72.72 0 0 1-.23.32.68.68 0 0 1-.42.11h-1.48l1.54-3.3-3.32-7.59h1.74a.57.57 0 0 1 .36.11.82.82 0 0 1 .2.26l1.74 4.25a3.81 3.81 0 0 1 .15.44c0 .14.08.29.11.44l.15-.45c.05-.14.1-.29.16-.43l1.65-4.25a.56.56 0 0 1 .21-.27.64.64 0 0 1 .33-.1zM140.25 523.07h-1.94a1.64 1.64 0 0 1-.49-.07 1.06 1.06 0 0 1-.4-.31l-.8-.82a5.83 5.83 0 0 1-1.7 1 5.68 5.68 0 0 1-2 .36 4 4 0 0 1-1.31-.23 3.56 3.56 0 0 1-1.15-.66 3.51 3.51 0 0 1-.81-1.05 3 3 0 0 1-.31-1.38 2.88 2.88 0 0 1 .18-1 3.27 3.27 0 0 1 .49-.9 3.75 3.75 0 0 1 .74-.75 5 5 0 0 1 .95-.57 4.39 4.39 0 0 1-.63-1.18 3.5 3.5 0 0 1-.19-1.14 2.93 2.93 0 0 1 .22-1.14 2.76 2.76 0 0 1 .64-.94 3 3 0 0 1 1-.63 3.73 3.73 0 0 1 1.38-.24 3.33 3.33 0 0 1 1.26.22 3 3 0 0 1 .95.57 2.78 2.78 0 0 1 .89 1.79l-1.26.26a.42.42 0 0 1-.51-.3 2.09 2.09 0 0 0-.19-.4 1.7 1.7 0 0 0-.27-.33 1.4 1.4 0 0 0-.38-.22 1.26 1.26 0 0 0-.49-.08 1.4 1.4 0 0 0-.6.11 1.34 1.34 0 0 0-.45.31 1.43 1.43 0 0 0-.27.46 1.45 1.45 0 0 0-.1.55 2.31 2.31 0 0 0 0 .46 1.62 1.62 0 0 0 .16.45 2.67 2.67 0 0 0 .29.46 6.09 6.09 0 0 0 .44.51l3.08 3.19a6.5 6.5 0 0 0 .42-1.06 5.71 5.71 0 0 0 .21-1.14.52.52 0 0 1 .13-.3.38.38 0 0 1 .28-.11h1.24a7.05 7.05 0 0 1-.31 2 6.58 6.58 0 0 1-.85 1.77zm-7.71-5.41a2.86 2.86 0 0 0-.93.94 2.31 2.31 0 0 0-.29 1.12 2 2 0 0 0 .15.8 1.78 1.78 0 0 0 .41.59 1.84 1.84 0 0 0 .61.38 2 2 0 0 0 .74.13 3.57 3.57 0 0 0 1.29-.22 3.85 3.85 0 0 0 1.06-.61zM30.78 536.47v4.68a6.12 6.12 0 0 1-1.87.95 7.41 7.41 0 0 1-2.13.3 7.22 7.22 0 0 1-2.57-.44 5.94 5.94 0 0 1-2-1.23 5.26 5.26 0 0 1-1.25-1.87 6.34 6.34 0 0 1-.44-2.38 6.59 6.59 0 0 1 .42-2.39 5.54 5.54 0 0 1 1.21-1.87 5.45 5.45 0 0 1 1.89-1.22 7 7 0 0 1 2.5-.43 7.71 7.71 0 0 1 1.31.11 7.28 7.28 0 0 1 1.14.31 4.45 4.45 0 0 1 .95.48 5.44 5.44 0 0 1 .8.61l-.62 1a.59.59 0 0 1-.34.25.65.65 0 0 1-.5-.11l-.53-.31a3.6 3.6 0 0 0-.59-.26 4.2 4.2 0 0 0-.72-.18 5.15 5.15 0 0 0-.94-.08 4 4 0 0 0-1.54.29 3.2 3.2 0 0 0-1.18.83 3.63 3.63 0 0 0-.76 1.28 5.28 5.28 0 0 0-.26 1.68 5.16 5.16 0 0 0 .28 1.78 3.8 3.8 0 0 0 .8 1.32 3.44 3.44 0 0 0 1.25.82 4.41 4.41 0 0 0 1.62.28 4.49 4.49 0 0 0 1.15-.13 6.14 6.14 0 0 0 1-.37v-2.1h-1.52a.43.43 0 0 1-.32-.11.38.38 0 0 1-.12-.29v-1.21zM36.05 533.93a4.42 4.42 0 0 1 1.66.3 3.75 3.75 0 0 1 1.28.84 3.65 3.65 0 0 1 .82 1.33 5.06 5.06 0 0 1 .29 1.75 5.11 5.11 0 0 1-.29 1.76 3.74 3.74 0 0 1-.82 1.33 3.5 3.5 0 0 1-1.28.85 4.42 4.42 0 0 1-1.66.3 4.47 4.47 0 0 1-1.67-.3 3.54 3.54 0 0 1-1.29-.85 3.74 3.74 0 0 1-.82-1.33 4.89 4.89 0 0 1-.29-1.76 4.83 4.83 0 0 1 .29-1.75 3.65 3.65 0 0 1 .82-1.33 3.79 3.79 0 0 1 1.29-.84 4.47 4.47 0 0 1 1.67-.3zm0 6.94a1.72 1.72 0 0 0 1.51-.69 4.33 4.33 0 0 0 0-4 1.73 1.73 0 0 0-1.51-.7 1.78 1.78 0 0 0-1.54.7 4.33 4.33 0 0 0 0 4 1.77 1.77 0 0 0 1.54.69zM48.78 534.06l-3.25 8.21h-1.8l-3.25-8.21h1.6a.7.7 0 0 1 .37.1.48.48 0 0 1 .2.27l1.58 4.38c.09.26.16.51.23.75s.12.5.16.74l.18-.74c.06-.24.14-.49.23-.75l1.62-4.38a.54.54 0 0 1 .2-.27.62.62 0 0 1 .34-.1zM51.06 538.41a4 4 0 0 0 .23 1.09 2.27 2.27 0 0 0 .46.76 1.8 1.8 0 0 0 .69.45 2.41 2.41 0 0 0 .87.15 2.88 2.88 0 0 0 .83-.11 4.52 4.52 0 0 0 .61-.25l.46-.25a.79.79 0 0 1 .38-.11.4.4 0 0 1 .36.18l.57.72a3 3 0 0 1-.74.65 4.47 4.47 0 0 1-1.75.63 5.6 5.6 0 0 1-.89.07 4.46 4.46 0 0 1-1.6-.29 3.52 3.52 0 0 1-1.28-.84 3.93 3.93 0 0 1-.85-1.37 5.29 5.29 0 0 1-.31-1.9 4.56 4.56 0 0 1 .27-1.58 3.75 3.75 0 0 1 .78-1.29 3.7 3.7 0 0 1 1.24-.87 4.15 4.15 0 0 1 1.65-.32 4.09 4.09 0 0 1 1.43.25 3.22 3.22 0 0 1 1.13.72 3.34 3.34 0 0 1 .74 1.17 4.33 4.33 0 0 1 .27 1.58 1.24 1.24 0 0 1-.1.61.39.39 0 0 1-.36.15zm3.77-1.19a2.09 2.09 0 0 0-.11-.72 1.73 1.73 0 0 0-.32-.6 1.51 1.51 0 0 0-.55-.4 1.86 1.86 0 0 0-.77-.15 1.82 1.82 0 0 0-1.35.49 2.34 2.34 0 0 0-.62 1.38zM59.95 535.48a3.6 3.6 0 0 1 .91-1.15 2 2 0 0 1 1.25-.42 1.47 1.47 0 0 1 .91.25l-.12 1.48a.43.43 0 0 1-.12.2.32.32 0 0 1-.2.06 2 2 0 0 1-.36 0 2.45 2.45 0 0 0-.46 0 1.5 1.5 0 0 0-.58.1 1.33 1.33 0 0 0-.46.27 1.73 1.73 0 0 0-.36.44 4.46 4.46 0 0 0-.3.58v5.06h-2v-8.21h1.16a.64.64 0 0 1 .42.11.59.59 0 0 1 .16.39zM65.9 535.07a4.6 4.6 0 0 1 .53-.46 3.5 3.5 0 0 1 .58-.36 3 3 0 0 1 .66-.23 3.13 3.13 0 0 1 .77-.09 2.94 2.94 0 0 1 1.19.23 2.35 2.35 0 0 1 .87.64 2.8 2.8 0 0 1 .53 1 4.26 4.26 0 0 1 .18 1.26v5.23h-2v-5.23a1.75 1.75 0 0 0-.34-1.16 1.31 1.31 0 0 0-1-.41 2.12 2.12 0 0 0-1 .23 3.82 3.82 0 0 0-.85.63v5.94h-2v-8.21h1.2a.49.49 0 0 1 .51.36zM72.89 535.2a4.88 4.88 0 0 1 3.41-1.29 3.4 3.4 0 0 1 1.28.23 2.74 2.74 0 0 1 1.56 1.66 3.78 3.78 0 0 1 .2 1.28v5.19h-.89a.83.83 0 0 1-.43-.09.48.48 0 0 1-.24-.34l-.18-.59a6.23 6.23 0 0 1-.61.49 3.48 3.48 0 0 1-.61.36 3.26 3.26 0 0 1-.69.22 3.94 3.94 0 0 1-.8.08 3.22 3.22 0 0 1-1-.14 2.23 2.23 0 0 1-.76-.42 1.87 1.87 0 0 1-.5-.7 2.44 2.44 0 0 1-.17-1 1.91 1.91 0 0 1 .1-.62 1.88 1.88 0 0 1 .34-.59 2.92 2.92 0 0 1 .61-.52 4 4 0 0 1 .93-.44 8.51 8.51 0 0 1 1.27-.3 15.17 15.17 0 0 1 1.67-.14v-.48a1.78 1.78 0 0 0-.36-1.22 1.28 1.28 0 0 0-1-.39 2.57 2.57 0 0 0-.8.11 3.13 3.13 0 0 0-.55.25l-.44.25a.83.83 0 0 1-.44.12.61.61 0 0 1-.35-.11 1.09 1.09 0 0 1-.23-.25zm4.53 3.56a11.87 11.87 0 0 0-1.44.15 3.79 3.79 0 0 0-.94.28 1.21 1.21 0 0 0-.5.39.8.8 0 0 0-.16.49.87.87 0 0 0 .31.74 1.36 1.36 0 0 0 .81.23 2.46 2.46 0 0 0 1-.22 3.39 3.39 0 0 0 .87-.67zM83.05 535.07a4.5 4.5 0 0 1 .52-.46 3.58 3.58 0 0 1 .59-.36 2.71 2.71 0 0 1 .66-.23 3.25 3.25 0 0 1 2 .14 2.4 2.4 0 0 1 .86.64 2.65 2.65 0 0 1 .53 1 4.26 4.26 0 0 1 .18 1.26v5.23h-2v-5.23a1.75 1.75 0 0 0-.35-1.16 1.31 1.31 0 0 0-1-.41 2.12 2.12 0 0 0-1 .23 3.77 3.77 0 0 0-.84.63v5.94h-2v-8.21h1.21a.49.49 0 0 1 .5.36zM96.1 535.8a.91.91 0 0 1-.17.17.34.34 0 0 1-.24.07.51.51 0 0 1-.3-.1l-.34-.2a2.39 2.39 0 0 0-.48-.21 2.2 2.2 0 0 0-.68-.09 2.14 2.14 0 0 0-.91.18 1.83 1.83 0 0 0-.66.54 2.42 2.42 0 0 0-.38.86 4.33 4.33 0 0 0-.13 1.13 4.17 4.17 0 0 0 .14 1.17 2.63 2.63 0 0 0 .4.86 1.77 1.77 0 0 0 .64.52 1.93 1.93 0 0 0 .85.18 2 2 0 0 0 .76-.11 2.33 2.33 0 0 0 .5-.26l.34-.25a.52.52 0 0 1 .34-.12.4.4 0 0 1 .36.18l.56.72a3.32 3.32 0 0 1-.71.65 3.71 3.71 0 0 1-.79.41 3.67 3.67 0 0 1-.85.22 5.1 5.1 0 0 1-.87.07 3.62 3.62 0 0 1-1.43-.29 3.44 3.44 0 0 1-1.18-.82 4 4 0 0 1-.79-1.34 5 5 0 0 1-.3-1.79 5.38 5.38 0 0 1 .26-1.68 3.81 3.81 0 0 1 .77-1.33 3.47 3.47 0 0 1 1.25-.89 4.31 4.31 0 0 1 1.71-.32 4 4 0 0 1 1.61.3 3.87 3.87 0 0 1 1.24.85zM99.31 538.41a3.67 3.67 0 0 0 .23 1.09 2.12 2.12 0 0 0 .46.76 1.84 1.84 0 0 0 .68.45 2.5 2.5 0 0 0 .88.15 2.88 2.88 0 0 0 .83-.11 5.13 5.13 0 0 0 .61-.25l.45-.25a.82.82 0 0 1 .38-.11.41.41 0 0 1 .37.18l.57.72a3.23 3.23 0 0 1-.74.65 3.92 3.92 0 0 1-.85.41 4.22 4.22 0 0 1-.9.22 5.63 5.63 0 0 1-.9.07 4.36 4.36 0 0 1-1.59-.29 3.44 3.44 0 0 1-1.28-.84 3.79 3.79 0 0 1-.85-1.37 5.29 5.29 0 0 1-.32-1.9 4.34 4.34 0 0 1 .28-1.58 3.75 3.75 0 0 1 .78-1.29 3.6 3.6 0 0 1 1.24-.87 4.08 4.08 0 0 1 1.65-.32 4.13 4.13 0 0 1 1.43.25 3.31 3.31 0 0 1 1.13.72 3.49 3.49 0 0 1 .74 1.17 4.33 4.33 0 0 1 .27 1.58 1.37 1.37 0 0 1-.1.61.41.41 0 0 1-.37.15zm3.77-1.19a2.36 2.36 0 0 0-.11-.72 1.73 1.73 0 0 0-.32-.6 1.59 1.59 0 0 0-.55-.4 1.86 1.86 0 0 0-.77-.15 1.82 1.82 0 0 0-1.35.49 2.34 2.34 0 0 0-.63 1.38zM120.78 536.48a6.13 6.13 0 0 1-.43 2.34 5.22 5.22 0 0 1-3 3 6.37 6.37 0 0 1-2.4.43h-4.4V530.7h4.4a6.37 6.37 0 0 1 2.4.43 5.22 5.22 0 0 1 3 3 6.11 6.11 0 0 1 .43 2.35zm-2.21 0a5.28 5.28 0 0 0-.25-1.7 3.49 3.49 0 0 0-.73-1.28 3.25 3.25 0 0 0-1.15-.81 4.09 4.09 0 0 0-1.53-.28h-2.24v8.15h2.24a4.09 4.09 0 0 0 1.53-.28 3.25 3.25 0 0 0 1.15-.81 3.49 3.49 0 0 0 .73-1.28 5.3 5.3 0 0 0 .28-1.71zM123.78 538.41a3.69 3.69 0 0 0 .22 1.09 2.13 2.13 0 0 0 .47.76 1.84 1.84 0 0 0 .68.45 2.46 2.46 0 0 0 .88.15 2.81 2.81 0 0 0 .82-.11 4 4 0 0 0 .61-.25l.46-.25a.82.82 0 0 1 .38-.11.42.42 0 0 1 .37.18l.56.72a3 3 0 0 1-.73.65 4.44 4.44 0 0 1-1.72.64 5.42 5.42 0 0 1-.89.07 4.36 4.36 0 0 1-1.59-.29 3.44 3.44 0 0 1-1.28-.84 4 4 0 0 1-.86-1.37 5.29 5.29 0 0 1-.31-1.9 4.56 4.56 0 0 1 .27-1.58 3.75 3.75 0 0 1 .78-1.29 3.7 3.7 0 0 1 1.24-.87 4.35 4.35 0 0 1 3.09-.07 3.27 3.27 0 0 1 1.12.72 3.21 3.21 0 0 1 .74 1.17 4.33 4.33 0 0 1 .27 1.58 1.4 1.4 0 0 1-.09.61.42.42 0 0 1-.37.15zm3.77-1.19a2.36 2.36 0 0 0-.11-.72 1.6 1.6 0 0 0-.33-.6 1.47 1.47 0 0 0-.54-.4 1.9 1.9 0 0 0-.79-.17 1.78 1.78 0 0 0-1.34.49 2.34 2.34 0 0 0-.63 1.38zM131.3 542.27v-6.72l-.72-.11a1 1 0 0 1-.37-.17.41.41 0 0 1-.14-.33v-.81h1.23v-.26a4 4 0 0 1 .24-1.4 2.94 2.94 0 0 1 .76-1.11 3.31 3.31 0 0 1 1.27-.74 5.54 5.54 0 0 1 1.82-.27h.69a4 4 0 0 1 .6.12l-.06 1a.22.22 0 0 1-.2.22 2.07 2.07 0 0 1-.46 0 5.27 5.27 0 0 0-1.3.14 2.17 2.17 0 0 0-.85.4 1.5 1.5 0 0 0-.46.67 2.7 2.7 0 0 0-.14.94v.2h5.09v8.14h-2v-6.73h-3v6.73zM142.17 535.07a4.5 4.5 0 0 1 .52-.46 3.58 3.58 0 0 1 .59-.36 2.71 2.71 0 0 1 .66-.23 3.25 3.25 0 0 1 2 .14 2.4 2.4 0 0 1 .86.64 2.65 2.65 0 0 1 .53 1 4.26 4.26 0 0 1 .18 1.26v5.23h-2v-5.23a1.75 1.75 0 0 0-.35-1.16 1.31 1.31 0 0 0-1.05-.41 2.12 2.12 0 0 0-1 .23 3.77 3.77 0 0 0-.84.63v5.94h-2v-8.21h1.21a.49.49 0 0 1 .5.36zM151.66 531.67a1.12 1.12 0 0 1-.1.48 1.21 1.21 0 0 1-.28.39 1.41 1.41 0 0 1-.4.27 1.35 1.35 0 0 1-.5.1 1.29 1.29 0 0 1-.48-.1 1.56 1.56 0 0 1-.4-.27 1.16 1.16 0 0 1-.26-.39 1.12 1.12 0 0 1-.1-.48 1.31 1.31 0 0 1 .36-.9 1.56 1.56 0 0 1 .4-.27 1.29 1.29 0 0 1 .48-.1 1.35 1.35 0 0 1 .5.1 1.41 1.41 0 0 1 .4.27 1.26 1.26 0 0 1 .28.4 1.21 1.21 0 0 1 .1.5zm-.27 2.39v8.21h-2v-8.21zM161.69 542.27h-2v-6.73h-3.81v4.45a.94.94 0 0 0 .19.6.67.67 0 0 0 .52.21 1 1 0 0 0 .31 0l.21-.09.17-.09a.24.24 0 0 1 .14 0 .2.2 0 0 1 .14 0 .51.51 0 0 1 .12.13l.6 1a2.93 2.93 0 0 1-1 .54 3.76 3.76 0 0 1-1.16.19 2.13 2.13 0 0 1-1.64-.61 2.33 2.33 0 0 1-.57-1.67v-4.58h-.84a.36.36 0 0 1-.27-.1.41.41 0 0 1-.12-.32v-.87l1.32-.22.42-2.24a.49.49 0 0 1 .15-.24.46.46 0 0 1 .29-.09h1v2.58h5.79zm.34-10.63a1.12 1.12 0 0 1-.1.48 1.38 1.38 0 0 1-.28.4 1.15 1.15 0 0 1-.41.26 1.18 1.18 0 0 1-.5.1 1.12 1.12 0 0 1-.48-.1 1.16 1.16 0 0 1-.39-.26 1.56 1.56 0 0 1-.27-.4 1.29 1.29 0 0 1-.1-.48 1.39 1.39 0 0 1 .1-.5 1.56 1.56 0 0 1 .27-.4 1.36 1.36 0 0 1 .39-.27 1.29 1.29 0 0 1 .48-.1 1.35 1.35 0 0 1 .5.1 1.33 1.33 0 0 1 .41.27 1.38 1.38 0 0 1 .28.4 1.21 1.21 0 0 1 .1.5zM167.34 533.93a4.46 4.46 0 0 1 1.66.3 3.85 3.85 0 0 1 1.28.84 3.79 3.79 0 0 1 .82 1.33 5.06 5.06 0 0 1 .28 1.75 5.12 5.12 0 0 1-.28 1.76 3.88 3.88 0 0 1-.82 1.33 3.59 3.59 0 0 1-1.28.85 4.46 4.46 0 0 1-1.66.3 4.53 4.53 0 0 1-1.68-.3 3.42 3.42 0 0 1-1.28-.85 3.74 3.74 0 0 1-.82-1.33 4.89 4.89 0 0 1-.3-1.76 4.83 4.83 0 0 1 .3-1.75 3.56 3.56 0 0 1 2.1-2.17 4.53 4.53 0 0 1 1.68-.3zm0 6.94a1.73 1.73 0 0 0 1.51-.69 4.41 4.41 0 0 0 0-4 1.74 1.74 0 0 0-1.51-.7 1.77 1.77 0 0 0-1.54.7 4.33 4.33 0 0 0 0 4 1.76 1.76 0 0 0 1.54.69zM174.78 535.07a4.6 4.6 0 0 1 .53-.46 3.5 3.5 0 0 1 .58-.36 3 3 0 0 1 .66-.23 3.13 3.13 0 0 1 .77-.09 2.94 2.94 0 0 1 1.19.23 2.35 2.35 0 0 1 .87.64 2.8 2.8 0 0 1 .53 1 4.26 4.26 0 0 1 .18 1.26v5.23h-2v-5.23a1.75 1.75 0 0 0-.34-1.16 1.31 1.31 0 0 0-1-.41 2.12 2.12 0 0 0-1 .23 3.82 3.82 0 0 0-.85.63v5.94h-2v-8.21h1.2a.49.49 0 0 1 .51.36z" fill="#fff"/>
    <path fill="#0072c6" d="m473.82 529.02-100.86-79.27v33.62l-157.05.09 58.1 45.56-58.1 43.2 157.05.15v35.92l100.86-79.27z"/>
    <text transform="translate(286.02 514.15)" font-size="16" fill="#fff" font-family="Lato-Bold, Lato" font-weight="700">Cloud <tspan x="45.74" y="0" letter-spacing="-.01em">G</tspan>
    <tspan x="57.26" y="0" letter-spacing="-.02em">ov</tspan>
    <tspan x="74.39" y="0">ernan</tspan>
    <tspan x="115.07" y="0" letter-spacing="-.01em">c</tspan>
    <tspan x="122.64" y="0">e </tspan>
    <tspan x="0" y="19.2" letter-spacing="-.01em">I</tspan>
    <tspan x="4.62" y="19.2" letter-spacing="0em">mpleme</tspan>
    <tspan x="61.58" y="19.2" letter-spacing="-.01em">n</tspan>
    <tspan x="70.49" y="19.2">t</tspan>
    <tspan x="76.44" y="19.2" letter-spacing="-.01em">a</tspan>
    <tspan x="84.45" y="19.2">tion &amp; </tspan>
    <tspan x="0" y="38.4" letter-spacing="-.01em">O</tspan>
    <tspan x="12.79" y="38.4" letter-spacing="-.01em">r</tspan>
    <tspan x="18.67" y="38.4">ganiz</tspan>
    <tspan x="55.68" y="38.4" letter-spacing="-.01em">a</tspan>
    <tspan x="63.69" y="38.4">tional </tspan>
    <tspan x="108.18" y="38.4" letter-spacing="0em">S</tspan>
    <tspan x="116.94" y="38.4" letter-spacing="0em">e</tspan>
    <tspan x="125.4" y="38.4">tup</tspan>
  </text>
    <path fill="none" stroke="#fcd116" stroke-miterlimit="10" d="M237 483.31v-97.4"/>
    <path d="M240.78 386.1a3.76 3.76 0 1 0-3.76 3.76 3.76 3.76 0 0 0 3.76-3.76z" fill="#fcd116"/>
    <path fill="none" stroke="#acd653" stroke-miterlimit="10" d="M335.09 576.68v86.23"/>
    <path d="M331.33 662.72a3.76 3.76 0 1 0 3.76-3.76 3.76 3.76 0 0 0-3.76 3.76z" fill="#acd653"/>
</svg>
